G04 #@! TF.GenerationSoftware,KiCad,Pcbnew,(5.0.2)-1*
G04 #@! TF.CreationDate,2021-04-20T16:55:03+09:00*
G04 #@! TF.ProjectId,pi-ups,70692d75-7073-42e6-9b69-6361645f7063,rev?*
G04 #@! TF.SameCoordinates,Original*
G04 #@! TF.FileFunction,Paste,Top*
G04 #@! TF.FilePolarity,Positive*
%FSLAX46Y46*%
G04 Gerber Fmt 4.6, Leading zero omitted, Abs format (unit mm)*
G04 Created by KiCad (PCBNEW (5.0.2)-1) date 2021/04/20 16:55:03*
%MOMM*%
%LPD*%
G01*
G04 APERTURE LIST*
%ADD10C,0.100000*%
%ADD11C,0.875000*%
%ADD12R,1.770000X4.070000*%
%ADD13R,4.070000X1.770000*%
%ADD14R,1.200000X3.000000*%
%ADD15R,3.000000X1.200000*%
%ADD16R,1.200000X1.500000*%
%ADD17R,1.200000X1.000000*%
%ADD18R,1.200000X1.630000*%
%ADD19R,1.630000X1.200000*%
%ADD20R,3.900000X3.900000*%
%ADD21R,0.800000X0.750000*%
%ADD22R,1.100000X1.100000*%
G04 APERTURE END LIST*
D10*
G04 #@! TO.C,R4*
G36*
X140753191Y-102142053D02*
X140774426Y-102145203D01*
X140795250Y-102150419D01*
X140815462Y-102157651D01*
X140834868Y-102166830D01*
X140853281Y-102177866D01*
X140870524Y-102190654D01*
X140886430Y-102205070D01*
X140900846Y-102220976D01*
X140913634Y-102238219D01*
X140924670Y-102256632D01*
X140933849Y-102276038D01*
X140941081Y-102296250D01*
X140946297Y-102317074D01*
X140949447Y-102338309D01*
X140950500Y-102359750D01*
X140950500Y-102872250D01*
X140949447Y-102893691D01*
X140946297Y-102914926D01*
X140941081Y-102935750D01*
X140933849Y-102955962D01*
X140924670Y-102975368D01*
X140913634Y-102993781D01*
X140900846Y-103011024D01*
X140886430Y-103026930D01*
X140870524Y-103041346D01*
X140853281Y-103054134D01*
X140834868Y-103065170D01*
X140815462Y-103074349D01*
X140795250Y-103081581D01*
X140774426Y-103086797D01*
X140753191Y-103089947D01*
X140731750Y-103091000D01*
X140294250Y-103091000D01*
X140272809Y-103089947D01*
X140251574Y-103086797D01*
X140230750Y-103081581D01*
X140210538Y-103074349D01*
X140191132Y-103065170D01*
X140172719Y-103054134D01*
X140155476Y-103041346D01*
X140139570Y-103026930D01*
X140125154Y-103011024D01*
X140112366Y-102993781D01*
X140101330Y-102975368D01*
X140092151Y-102955962D01*
X140084919Y-102935750D01*
X140079703Y-102914926D01*
X140076553Y-102893691D01*
X140075500Y-102872250D01*
X140075500Y-102359750D01*
X140076553Y-102338309D01*
X140079703Y-102317074D01*
X140084919Y-102296250D01*
X140092151Y-102276038D01*
X140101330Y-102256632D01*
X140112366Y-102238219D01*
X140125154Y-102220976D01*
X140139570Y-102205070D01*
X140155476Y-102190654D01*
X140172719Y-102177866D01*
X140191132Y-102166830D01*
X140210538Y-102157651D01*
X140230750Y-102150419D01*
X140251574Y-102145203D01*
X140272809Y-102142053D01*
X140294250Y-102141000D01*
X140731750Y-102141000D01*
X140753191Y-102142053D01*
X140753191Y-102142053D01*
G37*
D11*
X140513000Y-102616000D03*
D10*
G36*
X139178191Y-102142053D02*
X139199426Y-102145203D01*
X139220250Y-102150419D01*
X139240462Y-102157651D01*
X139259868Y-102166830D01*
X139278281Y-102177866D01*
X139295524Y-102190654D01*
X139311430Y-102205070D01*
X139325846Y-102220976D01*
X139338634Y-102238219D01*
X139349670Y-102256632D01*
X139358849Y-102276038D01*
X139366081Y-102296250D01*
X139371297Y-102317074D01*
X139374447Y-102338309D01*
X139375500Y-102359750D01*
X139375500Y-102872250D01*
X139374447Y-102893691D01*
X139371297Y-102914926D01*
X139366081Y-102935750D01*
X139358849Y-102955962D01*
X139349670Y-102975368D01*
X139338634Y-102993781D01*
X139325846Y-103011024D01*
X139311430Y-103026930D01*
X139295524Y-103041346D01*
X139278281Y-103054134D01*
X139259868Y-103065170D01*
X139240462Y-103074349D01*
X139220250Y-103081581D01*
X139199426Y-103086797D01*
X139178191Y-103089947D01*
X139156750Y-103091000D01*
X138719250Y-103091000D01*
X138697809Y-103089947D01*
X138676574Y-103086797D01*
X138655750Y-103081581D01*
X138635538Y-103074349D01*
X138616132Y-103065170D01*
X138597719Y-103054134D01*
X138580476Y-103041346D01*
X138564570Y-103026930D01*
X138550154Y-103011024D01*
X138537366Y-102993781D01*
X138526330Y-102975368D01*
X138517151Y-102955962D01*
X138509919Y-102935750D01*
X138504703Y-102914926D01*
X138501553Y-102893691D01*
X138500500Y-102872250D01*
X138500500Y-102359750D01*
X138501553Y-102338309D01*
X138504703Y-102317074D01*
X138509919Y-102296250D01*
X138517151Y-102276038D01*
X138526330Y-102256632D01*
X138537366Y-102238219D01*
X138550154Y-102220976D01*
X138564570Y-102205070D01*
X138580476Y-102190654D01*
X138597719Y-102177866D01*
X138616132Y-102166830D01*
X138635538Y-102157651D01*
X138655750Y-102150419D01*
X138676574Y-102145203D01*
X138697809Y-102142053D01*
X138719250Y-102141000D01*
X139156750Y-102141000D01*
X139178191Y-102142053D01*
X139178191Y-102142053D01*
G37*
D11*
X138938000Y-102616000D03*
G04 #@! TD*
D12*
G04 #@! TO.C,U1*
X134950000Y-118600000D03*
X134950000Y-114020000D03*
D13*
X136100000Y-110580000D03*
D14*
X139530000Y-120770000D03*
X141820000Y-120770000D03*
X144110000Y-120770000D03*
D15*
X145010000Y-117460000D03*
X145010000Y-115170000D03*
X145010000Y-112880000D03*
D14*
X139530000Y-109570000D03*
X144110000Y-109570000D03*
D16*
X141820000Y-108820000D03*
D17*
X141820000Y-110570000D03*
D18*
X134950000Y-121450000D03*
D19*
X133250000Y-117440000D03*
X133250000Y-115150000D03*
X133250000Y-112860000D03*
D18*
X134950000Y-108880000D03*
G04 #@! TD*
D20*
G04 #@! TO.C,D1*
X131700000Y-98044000D03*
X139700000Y-98044000D03*
G04 #@! TD*
D21*
G04 #@! TO.C,D2*
X140462000Y-104648000D03*
X138962000Y-104648000D03*
G04 #@! TD*
D22*
G04 #@! TO.C,D3*
X128146000Y-136652000D03*
X125346000Y-136652000D03*
G04 #@! TD*
G04 #@! TO.C,D4*
X114170000Y-136652000D03*
X116970000Y-136652000D03*
G04 #@! TD*
D10*
G04 #@! TO.C,C2*
G36*
X134897691Y-123871053D02*
X134918926Y-123874203D01*
X134939750Y-123879419D01*
X134959962Y-123886651D01*
X134979368Y-123895830D01*
X134997781Y-123906866D01*
X135015024Y-123919654D01*
X135030930Y-123934070D01*
X135045346Y-123949976D01*
X135058134Y-123967219D01*
X135069170Y-123985632D01*
X135078349Y-124005038D01*
X135085581Y-124025250D01*
X135090797Y-124046074D01*
X135093947Y-124067309D01*
X135095000Y-124088750D01*
X135095000Y-124526250D01*
X135093947Y-124547691D01*
X135090797Y-124568926D01*
X135085581Y-124589750D01*
X135078349Y-124609962D01*
X135069170Y-124629368D01*
X135058134Y-124647781D01*
X135045346Y-124665024D01*
X135030930Y-124680930D01*
X135015024Y-124695346D01*
X134997781Y-124708134D01*
X134979368Y-124719170D01*
X134959962Y-124728349D01*
X134939750Y-124735581D01*
X134918926Y-124740797D01*
X134897691Y-124743947D01*
X134876250Y-124745000D01*
X134363750Y-124745000D01*
X134342309Y-124743947D01*
X134321074Y-124740797D01*
X134300250Y-124735581D01*
X134280038Y-124728349D01*
X134260632Y-124719170D01*
X134242219Y-124708134D01*
X134224976Y-124695346D01*
X134209070Y-124680930D01*
X134194654Y-124665024D01*
X134181866Y-124647781D01*
X134170830Y-124629368D01*
X134161651Y-124609962D01*
X134154419Y-124589750D01*
X134149203Y-124568926D01*
X134146053Y-124547691D01*
X134145000Y-124526250D01*
X134145000Y-124088750D01*
X134146053Y-124067309D01*
X134149203Y-124046074D01*
X134154419Y-124025250D01*
X134161651Y-124005038D01*
X134170830Y-123985632D01*
X134181866Y-123967219D01*
X134194654Y-123949976D01*
X134209070Y-123934070D01*
X134224976Y-123919654D01*
X134242219Y-123906866D01*
X134260632Y-123895830D01*
X134280038Y-123886651D01*
X134300250Y-123879419D01*
X134321074Y-123874203D01*
X134342309Y-123871053D01*
X134363750Y-123870000D01*
X134876250Y-123870000D01*
X134897691Y-123871053D01*
X134897691Y-123871053D01*
G37*
D11*
X134620000Y-124307500D03*
D10*
G36*
X134897691Y-125446053D02*
X134918926Y-125449203D01*
X134939750Y-125454419D01*
X134959962Y-125461651D01*
X134979368Y-125470830D01*
X134997781Y-125481866D01*
X135015024Y-125494654D01*
X135030930Y-125509070D01*
X135045346Y-125524976D01*
X135058134Y-125542219D01*
X135069170Y-125560632D01*
X135078349Y-125580038D01*
X135085581Y-125600250D01*
X135090797Y-125621074D01*
X135093947Y-125642309D01*
X135095000Y-125663750D01*
X135095000Y-126101250D01*
X135093947Y-126122691D01*
X135090797Y-126143926D01*
X135085581Y-126164750D01*
X135078349Y-126184962D01*
X135069170Y-126204368D01*
X135058134Y-126222781D01*
X135045346Y-126240024D01*
X135030930Y-126255930D01*
X135015024Y-126270346D01*
X134997781Y-126283134D01*
X134979368Y-126294170D01*
X134959962Y-126303349D01*
X134939750Y-126310581D01*
X134918926Y-126315797D01*
X134897691Y-126318947D01*
X134876250Y-126320000D01*
X134363750Y-126320000D01*
X134342309Y-126318947D01*
X134321074Y-126315797D01*
X134300250Y-126310581D01*
X134280038Y-126303349D01*
X134260632Y-126294170D01*
X134242219Y-126283134D01*
X134224976Y-126270346D01*
X134209070Y-126255930D01*
X134194654Y-126240024D01*
X134181866Y-126222781D01*
X134170830Y-126204368D01*
X134161651Y-126184962D01*
X134154419Y-126164750D01*
X134149203Y-126143926D01*
X134146053Y-126122691D01*
X134145000Y-126101250D01*
X134145000Y-125663750D01*
X134146053Y-125642309D01*
X134149203Y-125621074D01*
X134154419Y-125600250D01*
X134161651Y-125580038D01*
X134170830Y-125560632D01*
X134181866Y-125542219D01*
X134194654Y-125524976D01*
X134209070Y-125509070D01*
X134224976Y-125494654D01*
X134242219Y-125481866D01*
X134260632Y-125470830D01*
X134280038Y-125461651D01*
X134300250Y-125454419D01*
X134321074Y-125449203D01*
X134342309Y-125446053D01*
X134363750Y-125445000D01*
X134876250Y-125445000D01*
X134897691Y-125446053D01*
X134897691Y-125446053D01*
G37*
D11*
X134620000Y-125882500D03*
G04 #@! TD*
D10*
G04 #@! TO.C,C3*
G36*
X131087691Y-107476053D02*
X131108926Y-107479203D01*
X131129750Y-107484419D01*
X131149962Y-107491651D01*
X131169368Y-107500830D01*
X131187781Y-107511866D01*
X131205024Y-107524654D01*
X131220930Y-107539070D01*
X131235346Y-107554976D01*
X131248134Y-107572219D01*
X131259170Y-107590632D01*
X131268349Y-107610038D01*
X131275581Y-107630250D01*
X131280797Y-107651074D01*
X131283947Y-107672309D01*
X131285000Y-107693750D01*
X131285000Y-108131250D01*
X131283947Y-108152691D01*
X131280797Y-108173926D01*
X131275581Y-108194750D01*
X131268349Y-108214962D01*
X131259170Y-108234368D01*
X131248134Y-108252781D01*
X131235346Y-108270024D01*
X131220930Y-108285930D01*
X131205024Y-108300346D01*
X131187781Y-108313134D01*
X131169368Y-108324170D01*
X131149962Y-108333349D01*
X131129750Y-108340581D01*
X131108926Y-108345797D01*
X131087691Y-108348947D01*
X131066250Y-108350000D01*
X130553750Y-108350000D01*
X130532309Y-108348947D01*
X130511074Y-108345797D01*
X130490250Y-108340581D01*
X130470038Y-108333349D01*
X130450632Y-108324170D01*
X130432219Y-108313134D01*
X130414976Y-108300346D01*
X130399070Y-108285930D01*
X130384654Y-108270024D01*
X130371866Y-108252781D01*
X130360830Y-108234368D01*
X130351651Y-108214962D01*
X130344419Y-108194750D01*
X130339203Y-108173926D01*
X130336053Y-108152691D01*
X130335000Y-108131250D01*
X130335000Y-107693750D01*
X130336053Y-107672309D01*
X130339203Y-107651074D01*
X130344419Y-107630250D01*
X130351651Y-107610038D01*
X130360830Y-107590632D01*
X130371866Y-107572219D01*
X130384654Y-107554976D01*
X130399070Y-107539070D01*
X130414976Y-107524654D01*
X130432219Y-107511866D01*
X130450632Y-107500830D01*
X130470038Y-107491651D01*
X130490250Y-107484419D01*
X130511074Y-107479203D01*
X130532309Y-107476053D01*
X130553750Y-107475000D01*
X131066250Y-107475000D01*
X131087691Y-107476053D01*
X131087691Y-107476053D01*
G37*
D11*
X130810000Y-107912500D03*
D10*
G36*
X131087691Y-109051053D02*
X131108926Y-109054203D01*
X131129750Y-109059419D01*
X131149962Y-109066651D01*
X131169368Y-109075830D01*
X131187781Y-109086866D01*
X131205024Y-109099654D01*
X131220930Y-109114070D01*
X131235346Y-109129976D01*
X131248134Y-109147219D01*
X131259170Y-109165632D01*
X131268349Y-109185038D01*
X131275581Y-109205250D01*
X131280797Y-109226074D01*
X131283947Y-109247309D01*
X131285000Y-109268750D01*
X131285000Y-109706250D01*
X131283947Y-109727691D01*
X131280797Y-109748926D01*
X131275581Y-109769750D01*
X131268349Y-109789962D01*
X131259170Y-109809368D01*
X131248134Y-109827781D01*
X131235346Y-109845024D01*
X131220930Y-109860930D01*
X131205024Y-109875346D01*
X131187781Y-109888134D01*
X131169368Y-109899170D01*
X131149962Y-109908349D01*
X131129750Y-109915581D01*
X131108926Y-109920797D01*
X131087691Y-109923947D01*
X131066250Y-109925000D01*
X130553750Y-109925000D01*
X130532309Y-109923947D01*
X130511074Y-109920797D01*
X130490250Y-109915581D01*
X130470038Y-109908349D01*
X130450632Y-109899170D01*
X130432219Y-109888134D01*
X130414976Y-109875346D01*
X130399070Y-109860930D01*
X130384654Y-109845024D01*
X130371866Y-109827781D01*
X130360830Y-109809368D01*
X130351651Y-109789962D01*
X130344419Y-109769750D01*
X130339203Y-109748926D01*
X130336053Y-109727691D01*
X130335000Y-109706250D01*
X130335000Y-109268750D01*
X130336053Y-109247309D01*
X130339203Y-109226074D01*
X130344419Y-109205250D01*
X130351651Y-109185038D01*
X130360830Y-109165632D01*
X130371866Y-109147219D01*
X130384654Y-109129976D01*
X130399070Y-109114070D01*
X130414976Y-109099654D01*
X130432219Y-109086866D01*
X130450632Y-109075830D01*
X130470038Y-109066651D01*
X130490250Y-109059419D01*
X130511074Y-109054203D01*
X130532309Y-109051053D01*
X130553750Y-109050000D01*
X131066250Y-109050000D01*
X131087691Y-109051053D01*
X131087691Y-109051053D01*
G37*
D11*
X130810000Y-109487500D03*
G04 #@! TD*
D10*
G04 #@! TO.C,R1*
G36*
X138707691Y-125561053D02*
X138728926Y-125564203D01*
X138749750Y-125569419D01*
X138769962Y-125576651D01*
X138789368Y-125585830D01*
X138807781Y-125596866D01*
X138825024Y-125609654D01*
X138840930Y-125624070D01*
X138855346Y-125639976D01*
X138868134Y-125657219D01*
X138879170Y-125675632D01*
X138888349Y-125695038D01*
X138895581Y-125715250D01*
X138900797Y-125736074D01*
X138903947Y-125757309D01*
X138905000Y-125778750D01*
X138905000Y-126216250D01*
X138903947Y-126237691D01*
X138900797Y-126258926D01*
X138895581Y-126279750D01*
X138888349Y-126299962D01*
X138879170Y-126319368D01*
X138868134Y-126337781D01*
X138855346Y-126355024D01*
X138840930Y-126370930D01*
X138825024Y-126385346D01*
X138807781Y-126398134D01*
X138789368Y-126409170D01*
X138769962Y-126418349D01*
X138749750Y-126425581D01*
X138728926Y-126430797D01*
X138707691Y-126433947D01*
X138686250Y-126435000D01*
X138173750Y-126435000D01*
X138152309Y-126433947D01*
X138131074Y-126430797D01*
X138110250Y-126425581D01*
X138090038Y-126418349D01*
X138070632Y-126409170D01*
X138052219Y-126398134D01*
X138034976Y-126385346D01*
X138019070Y-126370930D01*
X138004654Y-126355024D01*
X137991866Y-126337781D01*
X137980830Y-126319368D01*
X137971651Y-126299962D01*
X137964419Y-126279750D01*
X137959203Y-126258926D01*
X137956053Y-126237691D01*
X137955000Y-126216250D01*
X137955000Y-125778750D01*
X137956053Y-125757309D01*
X137959203Y-125736074D01*
X137964419Y-125715250D01*
X137971651Y-125695038D01*
X137980830Y-125675632D01*
X137991866Y-125657219D01*
X138004654Y-125639976D01*
X138019070Y-125624070D01*
X138034976Y-125609654D01*
X138052219Y-125596866D01*
X138070632Y-125585830D01*
X138090038Y-125576651D01*
X138110250Y-125569419D01*
X138131074Y-125564203D01*
X138152309Y-125561053D01*
X138173750Y-125560000D01*
X138686250Y-125560000D01*
X138707691Y-125561053D01*
X138707691Y-125561053D01*
G37*
D11*
X138430000Y-125997500D03*
D10*
G36*
X138707691Y-123986053D02*
X138728926Y-123989203D01*
X138749750Y-123994419D01*
X138769962Y-124001651D01*
X138789368Y-124010830D01*
X138807781Y-124021866D01*
X138825024Y-124034654D01*
X138840930Y-124049070D01*
X138855346Y-124064976D01*
X138868134Y-124082219D01*
X138879170Y-124100632D01*
X138888349Y-124120038D01*
X138895581Y-124140250D01*
X138900797Y-124161074D01*
X138903947Y-124182309D01*
X138905000Y-124203750D01*
X138905000Y-124641250D01*
X138903947Y-124662691D01*
X138900797Y-124683926D01*
X138895581Y-124704750D01*
X138888349Y-124724962D01*
X138879170Y-124744368D01*
X138868134Y-124762781D01*
X138855346Y-124780024D01*
X138840930Y-124795930D01*
X138825024Y-124810346D01*
X138807781Y-124823134D01*
X138789368Y-124834170D01*
X138769962Y-124843349D01*
X138749750Y-124850581D01*
X138728926Y-124855797D01*
X138707691Y-124858947D01*
X138686250Y-124860000D01*
X138173750Y-124860000D01*
X138152309Y-124858947D01*
X138131074Y-124855797D01*
X138110250Y-124850581D01*
X138090038Y-124843349D01*
X138070632Y-124834170D01*
X138052219Y-124823134D01*
X138034976Y-124810346D01*
X138019070Y-124795930D01*
X138004654Y-124780024D01*
X137991866Y-124762781D01*
X137980830Y-124744368D01*
X137971651Y-124724962D01*
X137964419Y-124704750D01*
X137959203Y-124683926D01*
X137956053Y-124662691D01*
X137955000Y-124641250D01*
X137955000Y-124203750D01*
X137956053Y-124182309D01*
X137959203Y-124161074D01*
X137964419Y-124140250D01*
X137971651Y-124120038D01*
X137980830Y-124100632D01*
X137991866Y-124082219D01*
X138004654Y-124064976D01*
X138019070Y-124049070D01*
X138034976Y-124034654D01*
X138052219Y-124021866D01*
X138070632Y-124010830D01*
X138090038Y-124001651D01*
X138110250Y-123994419D01*
X138131074Y-123989203D01*
X138152309Y-123986053D01*
X138173750Y-123985000D01*
X138686250Y-123985000D01*
X138707691Y-123986053D01*
X138707691Y-123986053D01*
G37*
D11*
X138430000Y-124422500D03*
G04 #@! TD*
D10*
G04 #@! TO.C,R2*
G36*
X131087691Y-111921053D02*
X131108926Y-111924203D01*
X131129750Y-111929419D01*
X131149962Y-111936651D01*
X131169368Y-111945830D01*
X131187781Y-111956866D01*
X131205024Y-111969654D01*
X131220930Y-111984070D01*
X131235346Y-111999976D01*
X131248134Y-112017219D01*
X131259170Y-112035632D01*
X131268349Y-112055038D01*
X131275581Y-112075250D01*
X131280797Y-112096074D01*
X131283947Y-112117309D01*
X131285000Y-112138750D01*
X131285000Y-112576250D01*
X131283947Y-112597691D01*
X131280797Y-112618926D01*
X131275581Y-112639750D01*
X131268349Y-112659962D01*
X131259170Y-112679368D01*
X131248134Y-112697781D01*
X131235346Y-112715024D01*
X131220930Y-112730930D01*
X131205024Y-112745346D01*
X131187781Y-112758134D01*
X131169368Y-112769170D01*
X131149962Y-112778349D01*
X131129750Y-112785581D01*
X131108926Y-112790797D01*
X131087691Y-112793947D01*
X131066250Y-112795000D01*
X130553750Y-112795000D01*
X130532309Y-112793947D01*
X130511074Y-112790797D01*
X130490250Y-112785581D01*
X130470038Y-112778349D01*
X130450632Y-112769170D01*
X130432219Y-112758134D01*
X130414976Y-112745346D01*
X130399070Y-112730930D01*
X130384654Y-112715024D01*
X130371866Y-112697781D01*
X130360830Y-112679368D01*
X130351651Y-112659962D01*
X130344419Y-112639750D01*
X130339203Y-112618926D01*
X130336053Y-112597691D01*
X130335000Y-112576250D01*
X130335000Y-112138750D01*
X130336053Y-112117309D01*
X130339203Y-112096074D01*
X130344419Y-112075250D01*
X130351651Y-112055038D01*
X130360830Y-112035632D01*
X130371866Y-112017219D01*
X130384654Y-111999976D01*
X130399070Y-111984070D01*
X130414976Y-111969654D01*
X130432219Y-111956866D01*
X130450632Y-111945830D01*
X130470038Y-111936651D01*
X130490250Y-111929419D01*
X130511074Y-111924203D01*
X130532309Y-111921053D01*
X130553750Y-111920000D01*
X131066250Y-111920000D01*
X131087691Y-111921053D01*
X131087691Y-111921053D01*
G37*
D11*
X130810000Y-112357500D03*
D10*
G36*
X131087691Y-113496053D02*
X131108926Y-113499203D01*
X131129750Y-113504419D01*
X131149962Y-113511651D01*
X131169368Y-113520830D01*
X131187781Y-113531866D01*
X131205024Y-113544654D01*
X131220930Y-113559070D01*
X131235346Y-113574976D01*
X131248134Y-113592219D01*
X131259170Y-113610632D01*
X131268349Y-113630038D01*
X131275581Y-113650250D01*
X131280797Y-113671074D01*
X131283947Y-113692309D01*
X131285000Y-113713750D01*
X131285000Y-114151250D01*
X131283947Y-114172691D01*
X131280797Y-114193926D01*
X131275581Y-114214750D01*
X131268349Y-114234962D01*
X131259170Y-114254368D01*
X131248134Y-114272781D01*
X131235346Y-114290024D01*
X131220930Y-114305930D01*
X131205024Y-114320346D01*
X131187781Y-114333134D01*
X131169368Y-114344170D01*
X131149962Y-114353349D01*
X131129750Y-114360581D01*
X131108926Y-114365797D01*
X131087691Y-114368947D01*
X131066250Y-114370000D01*
X130553750Y-114370000D01*
X130532309Y-114368947D01*
X130511074Y-114365797D01*
X130490250Y-114360581D01*
X130470038Y-114353349D01*
X130450632Y-114344170D01*
X130432219Y-114333134D01*
X130414976Y-114320346D01*
X130399070Y-114305930D01*
X130384654Y-114290024D01*
X130371866Y-114272781D01*
X130360830Y-114254368D01*
X130351651Y-114234962D01*
X130344419Y-114214750D01*
X130339203Y-114193926D01*
X130336053Y-114172691D01*
X130335000Y-114151250D01*
X130335000Y-113713750D01*
X130336053Y-113692309D01*
X130339203Y-113671074D01*
X130344419Y-113650250D01*
X130351651Y-113630038D01*
X130360830Y-113610632D01*
X130371866Y-113592219D01*
X130384654Y-113574976D01*
X130399070Y-113559070D01*
X130414976Y-113544654D01*
X130432219Y-113531866D01*
X130450632Y-113520830D01*
X130470038Y-113511651D01*
X130490250Y-113504419D01*
X130511074Y-113499203D01*
X130532309Y-113496053D01*
X130553750Y-113495000D01*
X131066250Y-113495000D01*
X131087691Y-113496053D01*
X131087691Y-113496053D01*
G37*
D11*
X130810000Y-113932500D03*
G04 #@! TD*
D10*
G04 #@! TO.C,R3*
G36*
X139178191Y-106206053D02*
X139199426Y-106209203D01*
X139220250Y-106214419D01*
X139240462Y-106221651D01*
X139259868Y-106230830D01*
X139278281Y-106241866D01*
X139295524Y-106254654D01*
X139311430Y-106269070D01*
X139325846Y-106284976D01*
X139338634Y-106302219D01*
X139349670Y-106320632D01*
X139358849Y-106340038D01*
X139366081Y-106360250D01*
X139371297Y-106381074D01*
X139374447Y-106402309D01*
X139375500Y-106423750D01*
X139375500Y-106936250D01*
X139374447Y-106957691D01*
X139371297Y-106978926D01*
X139366081Y-106999750D01*
X139358849Y-107019962D01*
X139349670Y-107039368D01*
X139338634Y-107057781D01*
X139325846Y-107075024D01*
X139311430Y-107090930D01*
X139295524Y-107105346D01*
X139278281Y-107118134D01*
X139259868Y-107129170D01*
X139240462Y-107138349D01*
X139220250Y-107145581D01*
X139199426Y-107150797D01*
X139178191Y-107153947D01*
X139156750Y-107155000D01*
X138719250Y-107155000D01*
X138697809Y-107153947D01*
X138676574Y-107150797D01*
X138655750Y-107145581D01*
X138635538Y-107138349D01*
X138616132Y-107129170D01*
X138597719Y-107118134D01*
X138580476Y-107105346D01*
X138564570Y-107090930D01*
X138550154Y-107075024D01*
X138537366Y-107057781D01*
X138526330Y-107039368D01*
X138517151Y-107019962D01*
X138509919Y-106999750D01*
X138504703Y-106978926D01*
X138501553Y-106957691D01*
X138500500Y-106936250D01*
X138500500Y-106423750D01*
X138501553Y-106402309D01*
X138504703Y-106381074D01*
X138509919Y-106360250D01*
X138517151Y-106340038D01*
X138526330Y-106320632D01*
X138537366Y-106302219D01*
X138550154Y-106284976D01*
X138564570Y-106269070D01*
X138580476Y-106254654D01*
X138597719Y-106241866D01*
X138616132Y-106230830D01*
X138635538Y-106221651D01*
X138655750Y-106214419D01*
X138676574Y-106209203D01*
X138697809Y-106206053D01*
X138719250Y-106205000D01*
X139156750Y-106205000D01*
X139178191Y-106206053D01*
X139178191Y-106206053D01*
G37*
D11*
X138938000Y-106680000D03*
D10*
G36*
X140753191Y-106206053D02*
X140774426Y-106209203D01*
X140795250Y-106214419D01*
X140815462Y-106221651D01*
X140834868Y-106230830D01*
X140853281Y-106241866D01*
X140870524Y-106254654D01*
X140886430Y-106269070D01*
X140900846Y-106284976D01*
X140913634Y-106302219D01*
X140924670Y-106320632D01*
X140933849Y-106340038D01*
X140941081Y-106360250D01*
X140946297Y-106381074D01*
X140949447Y-106402309D01*
X140950500Y-106423750D01*
X140950500Y-106936250D01*
X140949447Y-106957691D01*
X140946297Y-106978926D01*
X140941081Y-106999750D01*
X140933849Y-107019962D01*
X140924670Y-107039368D01*
X140913634Y-107057781D01*
X140900846Y-107075024D01*
X140886430Y-107090930D01*
X140870524Y-107105346D01*
X140853281Y-107118134D01*
X140834868Y-107129170D01*
X140815462Y-107138349D01*
X140795250Y-107145581D01*
X140774426Y-107150797D01*
X140753191Y-107153947D01*
X140731750Y-107155000D01*
X140294250Y-107155000D01*
X140272809Y-107153947D01*
X140251574Y-107150797D01*
X140230750Y-107145581D01*
X140210538Y-107138349D01*
X140191132Y-107129170D01*
X140172719Y-107118134D01*
X140155476Y-107105346D01*
X140139570Y-107090930D01*
X140125154Y-107075024D01*
X140112366Y-107057781D01*
X140101330Y-107039368D01*
X140092151Y-107019962D01*
X140084919Y-106999750D01*
X140079703Y-106978926D01*
X140076553Y-106957691D01*
X140075500Y-106936250D01*
X140075500Y-106423750D01*
X140076553Y-106402309D01*
X140079703Y-106381074D01*
X140084919Y-106360250D01*
X140092151Y-106340038D01*
X140101330Y-106320632D01*
X140112366Y-106302219D01*
X140125154Y-106284976D01*
X140139570Y-106269070D01*
X140155476Y-106254654D01*
X140172719Y-106241866D01*
X140191132Y-106230830D01*
X140210538Y-106221651D01*
X140230750Y-106214419D01*
X140251574Y-106209203D01*
X140272809Y-106206053D01*
X140294250Y-106205000D01*
X140731750Y-106205000D01*
X140753191Y-106206053D01*
X140753191Y-106206053D01*
G37*
D11*
X140513000Y-106680000D03*
G04 #@! TD*
D10*
G04 #@! TO.C,R5*
G36*
X124700191Y-130844053D02*
X124721426Y-130847203D01*
X124742250Y-130852419D01*
X124762462Y-130859651D01*
X124781868Y-130868830D01*
X124800281Y-130879866D01*
X124817524Y-130892654D01*
X124833430Y-130907070D01*
X124847846Y-130922976D01*
X124860634Y-130940219D01*
X124871670Y-130958632D01*
X124880849Y-130978038D01*
X124888081Y-130998250D01*
X124893297Y-131019074D01*
X124896447Y-131040309D01*
X124897500Y-131061750D01*
X124897500Y-131574250D01*
X124896447Y-131595691D01*
X124893297Y-131616926D01*
X124888081Y-131637750D01*
X124880849Y-131657962D01*
X124871670Y-131677368D01*
X124860634Y-131695781D01*
X124847846Y-131713024D01*
X124833430Y-131728930D01*
X124817524Y-131743346D01*
X124800281Y-131756134D01*
X124781868Y-131767170D01*
X124762462Y-131776349D01*
X124742250Y-131783581D01*
X124721426Y-131788797D01*
X124700191Y-131791947D01*
X124678750Y-131793000D01*
X124241250Y-131793000D01*
X124219809Y-131791947D01*
X124198574Y-131788797D01*
X124177750Y-131783581D01*
X124157538Y-131776349D01*
X124138132Y-131767170D01*
X124119719Y-131756134D01*
X124102476Y-131743346D01*
X124086570Y-131728930D01*
X124072154Y-131713024D01*
X124059366Y-131695781D01*
X124048330Y-131677368D01*
X124039151Y-131657962D01*
X124031919Y-131637750D01*
X124026703Y-131616926D01*
X124023553Y-131595691D01*
X124022500Y-131574250D01*
X124022500Y-131061750D01*
X124023553Y-131040309D01*
X124026703Y-131019074D01*
X124031919Y-130998250D01*
X124039151Y-130978038D01*
X124048330Y-130958632D01*
X124059366Y-130940219D01*
X124072154Y-130922976D01*
X124086570Y-130907070D01*
X124102476Y-130892654D01*
X124119719Y-130879866D01*
X124138132Y-130868830D01*
X124157538Y-130859651D01*
X124177750Y-130852419D01*
X124198574Y-130847203D01*
X124219809Y-130844053D01*
X124241250Y-130843000D01*
X124678750Y-130843000D01*
X124700191Y-130844053D01*
X124700191Y-130844053D01*
G37*
D11*
X124460000Y-131318000D03*
D10*
G36*
X126275191Y-130844053D02*
X126296426Y-130847203D01*
X126317250Y-130852419D01*
X126337462Y-130859651D01*
X126356868Y-130868830D01*
X126375281Y-130879866D01*
X126392524Y-130892654D01*
X126408430Y-130907070D01*
X126422846Y-130922976D01*
X126435634Y-130940219D01*
X126446670Y-130958632D01*
X126455849Y-130978038D01*
X126463081Y-130998250D01*
X126468297Y-131019074D01*
X126471447Y-131040309D01*
X126472500Y-131061750D01*
X126472500Y-131574250D01*
X126471447Y-131595691D01*
X126468297Y-131616926D01*
X126463081Y-131637750D01*
X126455849Y-131657962D01*
X126446670Y-131677368D01*
X126435634Y-131695781D01*
X126422846Y-131713024D01*
X126408430Y-131728930D01*
X126392524Y-131743346D01*
X126375281Y-131756134D01*
X126356868Y-131767170D01*
X126337462Y-131776349D01*
X126317250Y-131783581D01*
X126296426Y-131788797D01*
X126275191Y-131791947D01*
X126253750Y-131793000D01*
X125816250Y-131793000D01*
X125794809Y-131791947D01*
X125773574Y-131788797D01*
X125752750Y-131783581D01*
X125732538Y-131776349D01*
X125713132Y-131767170D01*
X125694719Y-131756134D01*
X125677476Y-131743346D01*
X125661570Y-131728930D01*
X125647154Y-131713024D01*
X125634366Y-131695781D01*
X125623330Y-131677368D01*
X125614151Y-131657962D01*
X125606919Y-131637750D01*
X125601703Y-131616926D01*
X125598553Y-131595691D01*
X125597500Y-131574250D01*
X125597500Y-131061750D01*
X125598553Y-131040309D01*
X125601703Y-131019074D01*
X125606919Y-130998250D01*
X125614151Y-130978038D01*
X125623330Y-130958632D01*
X125634366Y-130940219D01*
X125647154Y-130922976D01*
X125661570Y-130907070D01*
X125677476Y-130892654D01*
X125694719Y-130879866D01*
X125713132Y-130868830D01*
X125732538Y-130859651D01*
X125752750Y-130852419D01*
X125773574Y-130847203D01*
X125794809Y-130844053D01*
X125816250Y-130843000D01*
X126253750Y-130843000D01*
X126275191Y-130844053D01*
X126275191Y-130844053D01*
G37*
D11*
X126035000Y-131318000D03*
G04 #@! TD*
D10*
G04 #@! TO.C,R6*
G36*
X120890191Y-130844053D02*
X120911426Y-130847203D01*
X120932250Y-130852419D01*
X120952462Y-130859651D01*
X120971868Y-130868830D01*
X120990281Y-130879866D01*
X121007524Y-130892654D01*
X121023430Y-130907070D01*
X121037846Y-130922976D01*
X121050634Y-130940219D01*
X121061670Y-130958632D01*
X121070849Y-130978038D01*
X121078081Y-130998250D01*
X121083297Y-131019074D01*
X121086447Y-131040309D01*
X121087500Y-131061750D01*
X121087500Y-131574250D01*
X121086447Y-131595691D01*
X121083297Y-131616926D01*
X121078081Y-131637750D01*
X121070849Y-131657962D01*
X121061670Y-131677368D01*
X121050634Y-131695781D01*
X121037846Y-131713024D01*
X121023430Y-131728930D01*
X121007524Y-131743346D01*
X120990281Y-131756134D01*
X120971868Y-131767170D01*
X120952462Y-131776349D01*
X120932250Y-131783581D01*
X120911426Y-131788797D01*
X120890191Y-131791947D01*
X120868750Y-131793000D01*
X120431250Y-131793000D01*
X120409809Y-131791947D01*
X120388574Y-131788797D01*
X120367750Y-131783581D01*
X120347538Y-131776349D01*
X120328132Y-131767170D01*
X120309719Y-131756134D01*
X120292476Y-131743346D01*
X120276570Y-131728930D01*
X120262154Y-131713024D01*
X120249366Y-131695781D01*
X120238330Y-131677368D01*
X120229151Y-131657962D01*
X120221919Y-131637750D01*
X120216703Y-131616926D01*
X120213553Y-131595691D01*
X120212500Y-131574250D01*
X120212500Y-131061750D01*
X120213553Y-131040309D01*
X120216703Y-131019074D01*
X120221919Y-130998250D01*
X120229151Y-130978038D01*
X120238330Y-130958632D01*
X120249366Y-130940219D01*
X120262154Y-130922976D01*
X120276570Y-130907070D01*
X120292476Y-130892654D01*
X120309719Y-130879866D01*
X120328132Y-130868830D01*
X120347538Y-130859651D01*
X120367750Y-130852419D01*
X120388574Y-130847203D01*
X120409809Y-130844053D01*
X120431250Y-130843000D01*
X120868750Y-130843000D01*
X120890191Y-130844053D01*
X120890191Y-130844053D01*
G37*
D11*
X120650000Y-131318000D03*
D10*
G36*
X122465191Y-130844053D02*
X122486426Y-130847203D01*
X122507250Y-130852419D01*
X122527462Y-130859651D01*
X122546868Y-130868830D01*
X122565281Y-130879866D01*
X122582524Y-130892654D01*
X122598430Y-130907070D01*
X122612846Y-130922976D01*
X122625634Y-130940219D01*
X122636670Y-130958632D01*
X122645849Y-130978038D01*
X122653081Y-130998250D01*
X122658297Y-131019074D01*
X122661447Y-131040309D01*
X122662500Y-131061750D01*
X122662500Y-131574250D01*
X122661447Y-131595691D01*
X122658297Y-131616926D01*
X122653081Y-131637750D01*
X122645849Y-131657962D01*
X122636670Y-131677368D01*
X122625634Y-131695781D01*
X122612846Y-131713024D01*
X122598430Y-131728930D01*
X122582524Y-131743346D01*
X122565281Y-131756134D01*
X122546868Y-131767170D01*
X122527462Y-131776349D01*
X122507250Y-131783581D01*
X122486426Y-131788797D01*
X122465191Y-131791947D01*
X122443750Y-131793000D01*
X122006250Y-131793000D01*
X121984809Y-131791947D01*
X121963574Y-131788797D01*
X121942750Y-131783581D01*
X121922538Y-131776349D01*
X121903132Y-131767170D01*
X121884719Y-131756134D01*
X121867476Y-131743346D01*
X121851570Y-131728930D01*
X121837154Y-131713024D01*
X121824366Y-131695781D01*
X121813330Y-131677368D01*
X121804151Y-131657962D01*
X121796919Y-131637750D01*
X121791703Y-131616926D01*
X121788553Y-131595691D01*
X121787500Y-131574250D01*
X121787500Y-131061750D01*
X121788553Y-131040309D01*
X121791703Y-131019074D01*
X121796919Y-130998250D01*
X121804151Y-130978038D01*
X121813330Y-130958632D01*
X121824366Y-130940219D01*
X121837154Y-130922976D01*
X121851570Y-130907070D01*
X121867476Y-130892654D01*
X121884719Y-130879866D01*
X121903132Y-130868830D01*
X121922538Y-130859651D01*
X121942750Y-130852419D01*
X121963574Y-130847203D01*
X121984809Y-130844053D01*
X122006250Y-130843000D01*
X122443750Y-130843000D01*
X122465191Y-130844053D01*
X122465191Y-130844053D01*
G37*
D11*
X122225000Y-131318000D03*
G04 #@! TD*
D10*
G04 #@! TO.C,R7*
G36*
X113219191Y-130844053D02*
X113240426Y-130847203D01*
X113261250Y-130852419D01*
X113281462Y-130859651D01*
X113300868Y-130868830D01*
X113319281Y-130879866D01*
X113336524Y-130892654D01*
X113352430Y-130907070D01*
X113366846Y-130922976D01*
X113379634Y-130940219D01*
X113390670Y-130958632D01*
X113399849Y-130978038D01*
X113407081Y-130998250D01*
X113412297Y-131019074D01*
X113415447Y-131040309D01*
X113416500Y-131061750D01*
X113416500Y-131574250D01*
X113415447Y-131595691D01*
X113412297Y-131616926D01*
X113407081Y-131637750D01*
X113399849Y-131657962D01*
X113390670Y-131677368D01*
X113379634Y-131695781D01*
X113366846Y-131713024D01*
X113352430Y-131728930D01*
X113336524Y-131743346D01*
X113319281Y-131756134D01*
X113300868Y-131767170D01*
X113281462Y-131776349D01*
X113261250Y-131783581D01*
X113240426Y-131788797D01*
X113219191Y-131791947D01*
X113197750Y-131793000D01*
X112760250Y-131793000D01*
X112738809Y-131791947D01*
X112717574Y-131788797D01*
X112696750Y-131783581D01*
X112676538Y-131776349D01*
X112657132Y-131767170D01*
X112638719Y-131756134D01*
X112621476Y-131743346D01*
X112605570Y-131728930D01*
X112591154Y-131713024D01*
X112578366Y-131695781D01*
X112567330Y-131677368D01*
X112558151Y-131657962D01*
X112550919Y-131637750D01*
X112545703Y-131616926D01*
X112542553Y-131595691D01*
X112541500Y-131574250D01*
X112541500Y-131061750D01*
X112542553Y-131040309D01*
X112545703Y-131019074D01*
X112550919Y-130998250D01*
X112558151Y-130978038D01*
X112567330Y-130958632D01*
X112578366Y-130940219D01*
X112591154Y-130922976D01*
X112605570Y-130907070D01*
X112621476Y-130892654D01*
X112638719Y-130879866D01*
X112657132Y-130868830D01*
X112676538Y-130859651D01*
X112696750Y-130852419D01*
X112717574Y-130847203D01*
X112738809Y-130844053D01*
X112760250Y-130843000D01*
X113197750Y-130843000D01*
X113219191Y-130844053D01*
X113219191Y-130844053D01*
G37*
D11*
X112979000Y-131318000D03*
D10*
G36*
X114794191Y-130844053D02*
X114815426Y-130847203D01*
X114836250Y-130852419D01*
X114856462Y-130859651D01*
X114875868Y-130868830D01*
X114894281Y-130879866D01*
X114911524Y-130892654D01*
X114927430Y-130907070D01*
X114941846Y-130922976D01*
X114954634Y-130940219D01*
X114965670Y-130958632D01*
X114974849Y-130978038D01*
X114982081Y-130998250D01*
X114987297Y-131019074D01*
X114990447Y-131040309D01*
X114991500Y-131061750D01*
X114991500Y-131574250D01*
X114990447Y-131595691D01*
X114987297Y-131616926D01*
X114982081Y-131637750D01*
X114974849Y-131657962D01*
X114965670Y-131677368D01*
X114954634Y-131695781D01*
X114941846Y-131713024D01*
X114927430Y-131728930D01*
X114911524Y-131743346D01*
X114894281Y-131756134D01*
X114875868Y-131767170D01*
X114856462Y-131776349D01*
X114836250Y-131783581D01*
X114815426Y-131788797D01*
X114794191Y-131791947D01*
X114772750Y-131793000D01*
X114335250Y-131793000D01*
X114313809Y-131791947D01*
X114292574Y-131788797D01*
X114271750Y-131783581D01*
X114251538Y-131776349D01*
X114232132Y-131767170D01*
X114213719Y-131756134D01*
X114196476Y-131743346D01*
X114180570Y-131728930D01*
X114166154Y-131713024D01*
X114153366Y-131695781D01*
X114142330Y-131677368D01*
X114133151Y-131657962D01*
X114125919Y-131637750D01*
X114120703Y-131616926D01*
X114117553Y-131595691D01*
X114116500Y-131574250D01*
X114116500Y-131061750D01*
X114117553Y-131040309D01*
X114120703Y-131019074D01*
X114125919Y-130998250D01*
X114133151Y-130978038D01*
X114142330Y-130958632D01*
X114153366Y-130940219D01*
X114166154Y-130922976D01*
X114180570Y-130907070D01*
X114196476Y-130892654D01*
X114213719Y-130879866D01*
X114232132Y-130868830D01*
X114251538Y-130859651D01*
X114271750Y-130852419D01*
X114292574Y-130847203D01*
X114313809Y-130844053D01*
X114335250Y-130843000D01*
X114772750Y-130843000D01*
X114794191Y-130844053D01*
X114794191Y-130844053D01*
G37*
D11*
X114554000Y-131318000D03*
G04 #@! TD*
D10*
G04 #@! TO.C,R8*
G36*
X109409191Y-130844053D02*
X109430426Y-130847203D01*
X109451250Y-130852419D01*
X109471462Y-130859651D01*
X109490868Y-130868830D01*
X109509281Y-130879866D01*
X109526524Y-130892654D01*
X109542430Y-130907070D01*
X109556846Y-130922976D01*
X109569634Y-130940219D01*
X109580670Y-130958632D01*
X109589849Y-130978038D01*
X109597081Y-130998250D01*
X109602297Y-131019074D01*
X109605447Y-131040309D01*
X109606500Y-131061750D01*
X109606500Y-131574250D01*
X109605447Y-131595691D01*
X109602297Y-131616926D01*
X109597081Y-131637750D01*
X109589849Y-131657962D01*
X109580670Y-131677368D01*
X109569634Y-131695781D01*
X109556846Y-131713024D01*
X109542430Y-131728930D01*
X109526524Y-131743346D01*
X109509281Y-131756134D01*
X109490868Y-131767170D01*
X109471462Y-131776349D01*
X109451250Y-131783581D01*
X109430426Y-131788797D01*
X109409191Y-131791947D01*
X109387750Y-131793000D01*
X108950250Y-131793000D01*
X108928809Y-131791947D01*
X108907574Y-131788797D01*
X108886750Y-131783581D01*
X108866538Y-131776349D01*
X108847132Y-131767170D01*
X108828719Y-131756134D01*
X108811476Y-131743346D01*
X108795570Y-131728930D01*
X108781154Y-131713024D01*
X108768366Y-131695781D01*
X108757330Y-131677368D01*
X108748151Y-131657962D01*
X108740919Y-131637750D01*
X108735703Y-131616926D01*
X108732553Y-131595691D01*
X108731500Y-131574250D01*
X108731500Y-131061750D01*
X108732553Y-131040309D01*
X108735703Y-131019074D01*
X108740919Y-130998250D01*
X108748151Y-130978038D01*
X108757330Y-130958632D01*
X108768366Y-130940219D01*
X108781154Y-130922976D01*
X108795570Y-130907070D01*
X108811476Y-130892654D01*
X108828719Y-130879866D01*
X108847132Y-130868830D01*
X108866538Y-130859651D01*
X108886750Y-130852419D01*
X108907574Y-130847203D01*
X108928809Y-130844053D01*
X108950250Y-130843000D01*
X109387750Y-130843000D01*
X109409191Y-130844053D01*
X109409191Y-130844053D01*
G37*
D11*
X109169000Y-131318000D03*
D10*
G36*
X110984191Y-130844053D02*
X111005426Y-130847203D01*
X111026250Y-130852419D01*
X111046462Y-130859651D01*
X111065868Y-130868830D01*
X111084281Y-130879866D01*
X111101524Y-130892654D01*
X111117430Y-130907070D01*
X111131846Y-130922976D01*
X111144634Y-130940219D01*
X111155670Y-130958632D01*
X111164849Y-130978038D01*
X111172081Y-130998250D01*
X111177297Y-131019074D01*
X111180447Y-131040309D01*
X111181500Y-131061750D01*
X111181500Y-131574250D01*
X111180447Y-131595691D01*
X111177297Y-131616926D01*
X111172081Y-131637750D01*
X111164849Y-131657962D01*
X111155670Y-131677368D01*
X111144634Y-131695781D01*
X111131846Y-131713024D01*
X111117430Y-131728930D01*
X111101524Y-131743346D01*
X111084281Y-131756134D01*
X111065868Y-131767170D01*
X111046462Y-131776349D01*
X111026250Y-131783581D01*
X111005426Y-131788797D01*
X110984191Y-131791947D01*
X110962750Y-131793000D01*
X110525250Y-131793000D01*
X110503809Y-131791947D01*
X110482574Y-131788797D01*
X110461750Y-131783581D01*
X110441538Y-131776349D01*
X110422132Y-131767170D01*
X110403719Y-131756134D01*
X110386476Y-131743346D01*
X110370570Y-131728930D01*
X110356154Y-131713024D01*
X110343366Y-131695781D01*
X110332330Y-131677368D01*
X110323151Y-131657962D01*
X110315919Y-131637750D01*
X110310703Y-131616926D01*
X110307553Y-131595691D01*
X110306500Y-131574250D01*
X110306500Y-131061750D01*
X110307553Y-131040309D01*
X110310703Y-131019074D01*
X110315919Y-130998250D01*
X110323151Y-130978038D01*
X110332330Y-130958632D01*
X110343366Y-130940219D01*
X110356154Y-130922976D01*
X110370570Y-130907070D01*
X110386476Y-130892654D01*
X110403719Y-130879866D01*
X110422132Y-130868830D01*
X110441538Y-130859651D01*
X110461750Y-130852419D01*
X110482574Y-130847203D01*
X110503809Y-130844053D01*
X110525250Y-130843000D01*
X110962750Y-130843000D01*
X110984191Y-130844053D01*
X110984191Y-130844053D01*
G37*
D11*
X110744000Y-131318000D03*
G04 #@! TD*
M02*
