G04 #@! TF.GenerationSoftware,KiCad,Pcbnew,(5.0.2)-1*
G04 #@! TF.CreationDate,2021-04-20T16:55:03+09:00*
G04 #@! TF.ProjectId,pi-ups,70692d75-7073-42e6-9b69-6361645f7063,rev?*
G04 #@! TF.SameCoordinates,Original*
G04 #@! TF.FileFunction,Soldermask,Top*
G04 #@! TF.FilePolarity,Negative*
%FSLAX46Y46*%
G04 Gerber Fmt 4.6, Leading zero omitted, Abs format (unit mm)*
G04 Created by KiCad (PCBNEW (5.0.2)-1) date 2021/04/20 16:55:03*
%MOMM*%
%LPD*%
G01*
G04 APERTURE LIST*
%ADD10C,0.100000*%
G04 APERTURE END LIST*
D10*
G36*
X89697122Y-128301401D02*
X89802526Y-128333376D01*
X89899674Y-128385303D01*
X89984820Y-128455180D01*
X90054697Y-128540325D01*
X90059760Y-128549797D01*
X90073374Y-128570171D01*
X90090701Y-128587498D01*
X90111075Y-128601112D01*
X90133714Y-128610490D01*
X90157748Y-128615270D01*
X90182252Y-128615270D01*
X90206286Y-128610490D01*
X90228925Y-128601112D01*
X90249299Y-128587498D01*
X90266626Y-128570171D01*
X90280240Y-128549797D01*
X90285303Y-128540325D01*
X90355180Y-128455180D01*
X90440326Y-128385303D01*
X90537474Y-128333376D01*
X90642878Y-128301401D01*
X90758640Y-128290000D01*
X92121360Y-128290000D01*
X92237122Y-128301401D01*
X92342526Y-128333376D01*
X92439674Y-128385303D01*
X92524820Y-128455180D01*
X92594697Y-128540325D01*
X92599760Y-128549797D01*
X92613374Y-128570171D01*
X92630701Y-128587498D01*
X92651075Y-128601112D01*
X92673714Y-128610490D01*
X92697748Y-128615270D01*
X92722252Y-128615270D01*
X92746286Y-128610490D01*
X92768925Y-128601112D01*
X92789299Y-128587498D01*
X92806626Y-128570171D01*
X92820240Y-128549797D01*
X92825303Y-128540325D01*
X92895180Y-128455180D01*
X92980326Y-128385303D01*
X93077474Y-128333376D01*
X93182878Y-128301401D01*
X93298640Y-128290000D01*
X94661360Y-128290000D01*
X94777122Y-128301401D01*
X94882526Y-128333376D01*
X94979674Y-128385303D01*
X95064820Y-128455180D01*
X95134697Y-128540325D01*
X95139760Y-128549797D01*
X95153374Y-128570171D01*
X95170701Y-128587498D01*
X95191075Y-128601112D01*
X95213714Y-128610490D01*
X95237748Y-128615270D01*
X95262252Y-128615270D01*
X95286286Y-128610490D01*
X95308925Y-128601112D01*
X95329299Y-128587498D01*
X95346626Y-128570171D01*
X95360240Y-128549797D01*
X95365303Y-128540325D01*
X95435180Y-128455180D01*
X95520326Y-128385303D01*
X95617474Y-128333376D01*
X95722878Y-128301401D01*
X95838640Y-128290000D01*
X97201360Y-128290000D01*
X97317122Y-128301401D01*
X97422526Y-128333376D01*
X97519674Y-128385303D01*
X97604820Y-128455180D01*
X97674697Y-128540325D01*
X97679760Y-128549797D01*
X97693374Y-128570171D01*
X97710701Y-128587498D01*
X97731075Y-128601112D01*
X97753714Y-128610490D01*
X97777748Y-128615270D01*
X97802252Y-128615270D01*
X97826286Y-128610490D01*
X97848925Y-128601112D01*
X97869299Y-128587498D01*
X97886626Y-128570171D01*
X97900240Y-128549797D01*
X97905303Y-128540325D01*
X97975180Y-128455180D01*
X98060326Y-128385303D01*
X98157474Y-128333376D01*
X98262878Y-128301401D01*
X98378640Y-128290000D01*
X99741360Y-128290000D01*
X99857122Y-128301401D01*
X99962526Y-128333376D01*
X100059674Y-128385303D01*
X100144820Y-128455180D01*
X100214697Y-128540325D01*
X100219760Y-128549797D01*
X100233374Y-128570171D01*
X100250701Y-128587498D01*
X100271075Y-128601112D01*
X100293714Y-128610490D01*
X100317748Y-128615270D01*
X100342252Y-128615270D01*
X100366286Y-128610490D01*
X100388925Y-128601112D01*
X100409299Y-128587498D01*
X100426626Y-128570171D01*
X100440240Y-128549797D01*
X100445303Y-128540325D01*
X100515180Y-128455180D01*
X100600326Y-128385303D01*
X100697474Y-128333376D01*
X100802878Y-128301401D01*
X100918640Y-128290000D01*
X102281360Y-128290000D01*
X102397122Y-128301401D01*
X102502526Y-128333376D01*
X102599674Y-128385303D01*
X102684820Y-128455180D01*
X102754697Y-128540325D01*
X102759760Y-128549797D01*
X102773374Y-128570171D01*
X102790701Y-128587498D01*
X102811075Y-128601112D01*
X102833714Y-128610490D01*
X102857748Y-128615270D01*
X102882252Y-128615270D01*
X102906286Y-128610490D01*
X102928925Y-128601112D01*
X102949299Y-128587498D01*
X102966626Y-128570171D01*
X102980240Y-128549797D01*
X102985303Y-128540325D01*
X103055180Y-128455180D01*
X103140326Y-128385303D01*
X103237474Y-128333376D01*
X103342878Y-128301401D01*
X103458640Y-128290000D01*
X104821360Y-128290000D01*
X104937122Y-128301401D01*
X105042526Y-128333376D01*
X105139674Y-128385303D01*
X105224820Y-128455180D01*
X105294697Y-128540325D01*
X105299760Y-128549797D01*
X105313374Y-128570171D01*
X105330701Y-128587498D01*
X105351075Y-128601112D01*
X105373714Y-128610490D01*
X105397748Y-128615270D01*
X105422252Y-128615270D01*
X105446286Y-128610490D01*
X105468925Y-128601112D01*
X105489299Y-128587498D01*
X105506626Y-128570171D01*
X105520240Y-128549797D01*
X105525303Y-128540325D01*
X105595180Y-128455180D01*
X105680326Y-128385303D01*
X105777474Y-128333376D01*
X105882878Y-128301401D01*
X105998640Y-128290000D01*
X107361360Y-128290000D01*
X107477122Y-128301401D01*
X107582526Y-128333376D01*
X107679674Y-128385303D01*
X107764820Y-128455180D01*
X107834697Y-128540326D01*
X107886624Y-128637474D01*
X107918599Y-128742878D01*
X107930000Y-128858640D01*
X107930000Y-130221360D01*
X107918599Y-130337122D01*
X107886624Y-130442526D01*
X107834697Y-130539674D01*
X107764820Y-130624820D01*
X107679675Y-130694697D01*
X107670203Y-130699760D01*
X107649829Y-130713374D01*
X107632502Y-130730701D01*
X107618888Y-130751075D01*
X107609510Y-130773714D01*
X107604730Y-130797748D01*
X107604730Y-130822252D01*
X107609510Y-130846286D01*
X107618888Y-130868925D01*
X107632502Y-130889299D01*
X107649829Y-130906626D01*
X107670203Y-130920240D01*
X107679675Y-130925303D01*
X107764820Y-130995180D01*
X107834697Y-131080326D01*
X107886624Y-131177474D01*
X107918599Y-131282878D01*
X107930000Y-131398640D01*
X107930000Y-132761360D01*
X107918599Y-132877122D01*
X107886624Y-132982526D01*
X107834697Y-133079674D01*
X107764820Y-133164820D01*
X107679675Y-133234697D01*
X107670203Y-133239760D01*
X107649829Y-133253374D01*
X107632502Y-133270701D01*
X107618888Y-133291075D01*
X107609510Y-133313714D01*
X107604730Y-133337748D01*
X107604730Y-133362252D01*
X107609510Y-133386286D01*
X107618888Y-133408925D01*
X107632502Y-133429299D01*
X107649829Y-133446626D01*
X107670203Y-133460240D01*
X107679675Y-133465303D01*
X107764820Y-133535180D01*
X107834697Y-133620326D01*
X107886624Y-133717474D01*
X107918599Y-133822878D01*
X107930000Y-133938640D01*
X107930000Y-135301360D01*
X107918599Y-135417122D01*
X107886624Y-135522526D01*
X107834697Y-135619674D01*
X107764820Y-135704820D01*
X107679675Y-135774697D01*
X107670203Y-135779760D01*
X107649829Y-135793374D01*
X107632502Y-135810701D01*
X107618888Y-135831075D01*
X107609510Y-135853714D01*
X107604730Y-135877748D01*
X107604730Y-135902252D01*
X107609510Y-135926286D01*
X107618888Y-135948925D01*
X107632502Y-135969299D01*
X107649829Y-135986626D01*
X107670203Y-136000240D01*
X107679675Y-136005303D01*
X107764820Y-136075180D01*
X107834697Y-136160326D01*
X107886624Y-136257474D01*
X107918599Y-136362878D01*
X107930000Y-136478640D01*
X107930000Y-137841360D01*
X107918599Y-137957122D01*
X107886624Y-138062526D01*
X107834697Y-138159674D01*
X107764820Y-138244820D01*
X107679675Y-138314697D01*
X107670203Y-138319760D01*
X107649829Y-138333374D01*
X107632502Y-138350701D01*
X107618888Y-138371075D01*
X107609510Y-138393714D01*
X107604730Y-138417748D01*
X107604730Y-138442252D01*
X107609510Y-138466286D01*
X107618888Y-138488925D01*
X107632502Y-138509299D01*
X107649829Y-138526626D01*
X107670203Y-138540240D01*
X107679675Y-138545303D01*
X107764820Y-138615180D01*
X107834697Y-138700326D01*
X107886624Y-138797474D01*
X107918599Y-138902878D01*
X107930000Y-139018640D01*
X107930000Y-140381360D01*
X107918599Y-140497122D01*
X107886624Y-140602526D01*
X107834697Y-140699674D01*
X107764820Y-140784820D01*
X107679675Y-140854697D01*
X107670203Y-140859760D01*
X107649829Y-140873374D01*
X107632502Y-140890701D01*
X107618888Y-140911075D01*
X107609510Y-140933714D01*
X107604730Y-140957748D01*
X107604730Y-140982252D01*
X107609510Y-141006286D01*
X107618888Y-141028925D01*
X107632502Y-141049299D01*
X107649829Y-141066626D01*
X107670203Y-141080240D01*
X107679675Y-141085303D01*
X107764820Y-141155180D01*
X107834697Y-141240326D01*
X107886624Y-141337474D01*
X107918599Y-141442878D01*
X107930000Y-141558640D01*
X107930000Y-142921360D01*
X107918599Y-143037122D01*
X107886624Y-143142526D01*
X107834697Y-143239674D01*
X107764820Y-143324820D01*
X107679674Y-143394697D01*
X107582526Y-143446624D01*
X107477122Y-143478599D01*
X107361360Y-143490000D01*
X105998640Y-143490000D01*
X105882878Y-143478599D01*
X105777474Y-143446624D01*
X105680326Y-143394697D01*
X105595180Y-143324820D01*
X105525303Y-143239675D01*
X105520240Y-143230203D01*
X105506626Y-143209829D01*
X105489299Y-143192502D01*
X105468925Y-143178888D01*
X105446286Y-143169510D01*
X105422252Y-143164730D01*
X105397748Y-143164730D01*
X105373714Y-143169510D01*
X105351075Y-143178888D01*
X105330701Y-143192502D01*
X105313374Y-143209829D01*
X105299760Y-143230203D01*
X105294697Y-143239675D01*
X105224820Y-143324820D01*
X105139674Y-143394697D01*
X105042526Y-143446624D01*
X104937122Y-143478599D01*
X104821360Y-143490000D01*
X103458640Y-143490000D01*
X103342878Y-143478599D01*
X103237474Y-143446624D01*
X103140326Y-143394697D01*
X103055180Y-143324820D01*
X102985303Y-143239675D01*
X102980240Y-143230203D01*
X102966626Y-143209829D01*
X102949299Y-143192502D01*
X102928925Y-143178888D01*
X102906286Y-143169510D01*
X102882252Y-143164730D01*
X102857748Y-143164730D01*
X102833714Y-143169510D01*
X102811075Y-143178888D01*
X102790701Y-143192502D01*
X102773374Y-143209829D01*
X102759760Y-143230203D01*
X102754697Y-143239675D01*
X102684820Y-143324820D01*
X102599674Y-143394697D01*
X102502526Y-143446624D01*
X102397122Y-143478599D01*
X102281360Y-143490000D01*
X100918640Y-143490000D01*
X100802878Y-143478599D01*
X100697474Y-143446624D01*
X100600326Y-143394697D01*
X100515180Y-143324820D01*
X100445303Y-143239675D01*
X100440240Y-143230203D01*
X100426626Y-143209829D01*
X100409299Y-143192502D01*
X100388925Y-143178888D01*
X100366286Y-143169510D01*
X100342252Y-143164730D01*
X100317748Y-143164730D01*
X100293714Y-143169510D01*
X100271075Y-143178888D01*
X100250701Y-143192502D01*
X100233374Y-143209829D01*
X100219760Y-143230203D01*
X100214697Y-143239675D01*
X100144820Y-143324820D01*
X100059674Y-143394697D01*
X99962526Y-143446624D01*
X99857122Y-143478599D01*
X99741360Y-143490000D01*
X98378640Y-143490000D01*
X98262878Y-143478599D01*
X98157474Y-143446624D01*
X98060326Y-143394697D01*
X97975180Y-143324820D01*
X97905303Y-143239675D01*
X97900240Y-143230203D01*
X97886626Y-143209829D01*
X97869299Y-143192502D01*
X97848925Y-143178888D01*
X97826286Y-143169510D01*
X97802252Y-143164730D01*
X97777748Y-143164730D01*
X97753714Y-143169510D01*
X97731075Y-143178888D01*
X97710701Y-143192502D01*
X97693374Y-143209829D01*
X97679760Y-143230203D01*
X97674697Y-143239675D01*
X97604820Y-143324820D01*
X97519674Y-143394697D01*
X97422526Y-143446624D01*
X97317122Y-143478599D01*
X97201360Y-143490000D01*
X95838640Y-143490000D01*
X95722878Y-143478599D01*
X95617474Y-143446624D01*
X95520326Y-143394697D01*
X95435180Y-143324820D01*
X95365303Y-143239674D01*
X95313376Y-143142526D01*
X95281401Y-143037122D01*
X95270000Y-142921360D01*
X95270000Y-141558640D01*
X95281401Y-141442878D01*
X95313376Y-141337474D01*
X95365303Y-141240326D01*
X95435180Y-141155180D01*
X95520325Y-141085303D01*
X95529797Y-141080240D01*
X95550171Y-141066626D01*
X95567498Y-141049299D01*
X95581112Y-141028925D01*
X95590490Y-141006286D01*
X95595270Y-140982252D01*
X95595270Y-140957748D01*
X97444730Y-140957748D01*
X97444730Y-140982252D01*
X97449510Y-141006286D01*
X97458888Y-141028925D01*
X97472502Y-141049299D01*
X97489829Y-141066626D01*
X97510203Y-141080240D01*
X97519675Y-141085303D01*
X97604820Y-141155180D01*
X97674697Y-141240325D01*
X97679760Y-141249797D01*
X97693374Y-141270171D01*
X97710701Y-141287498D01*
X97731075Y-141301112D01*
X97753714Y-141310490D01*
X97777748Y-141315270D01*
X97802252Y-141315270D01*
X97826286Y-141310490D01*
X97848925Y-141301112D01*
X97869299Y-141287498D01*
X97886626Y-141270171D01*
X97900240Y-141249797D01*
X97905303Y-141240325D01*
X97975180Y-141155180D01*
X98060325Y-141085303D01*
X98069797Y-141080240D01*
X98090171Y-141066626D01*
X98107498Y-141049299D01*
X98121112Y-141028925D01*
X98130490Y-141006286D01*
X98135270Y-140982252D01*
X98135270Y-140957748D01*
X99984730Y-140957748D01*
X99984730Y-140982252D01*
X99989510Y-141006286D01*
X99998888Y-141028925D01*
X100012502Y-141049299D01*
X100029829Y-141066626D01*
X100050203Y-141080240D01*
X100059675Y-141085303D01*
X100144820Y-141155180D01*
X100214697Y-141240325D01*
X100219760Y-141249797D01*
X100233374Y-141270171D01*
X100250701Y-141287498D01*
X100271075Y-141301112D01*
X100293714Y-141310490D01*
X100317748Y-141315270D01*
X100342252Y-141315270D01*
X100366286Y-141310490D01*
X100388925Y-141301112D01*
X100409299Y-141287498D01*
X100426626Y-141270171D01*
X100440240Y-141249797D01*
X100445303Y-141240325D01*
X100515180Y-141155180D01*
X100600325Y-141085303D01*
X100609797Y-141080240D01*
X100630171Y-141066626D01*
X100647498Y-141049299D01*
X100661112Y-141028925D01*
X100670490Y-141006286D01*
X100675270Y-140982252D01*
X100675270Y-140957748D01*
X102524730Y-140957748D01*
X102524730Y-140982252D01*
X102529510Y-141006286D01*
X102538888Y-141028925D01*
X102552502Y-141049299D01*
X102569829Y-141066626D01*
X102590203Y-141080240D01*
X102599675Y-141085303D01*
X102684820Y-141155180D01*
X102754697Y-141240325D01*
X102759760Y-141249797D01*
X102773374Y-141270171D01*
X102790701Y-141287498D01*
X102811075Y-141301112D01*
X102833714Y-141310490D01*
X102857748Y-141315270D01*
X102882252Y-141315270D01*
X102906286Y-141310490D01*
X102928925Y-141301112D01*
X102949299Y-141287498D01*
X102966626Y-141270171D01*
X102980240Y-141249797D01*
X102985303Y-141240325D01*
X103055180Y-141155180D01*
X103140325Y-141085303D01*
X103149797Y-141080240D01*
X103170171Y-141066626D01*
X103187498Y-141049299D01*
X103201112Y-141028925D01*
X103210490Y-141006286D01*
X103215270Y-140982252D01*
X103215270Y-140957748D01*
X105064730Y-140957748D01*
X105064730Y-140982252D01*
X105069510Y-141006286D01*
X105078888Y-141028925D01*
X105092502Y-141049299D01*
X105109829Y-141066626D01*
X105130203Y-141080240D01*
X105139675Y-141085303D01*
X105224820Y-141155180D01*
X105294697Y-141240325D01*
X105299760Y-141249797D01*
X105313374Y-141270171D01*
X105330701Y-141287498D01*
X105351075Y-141301112D01*
X105373714Y-141310490D01*
X105397748Y-141315270D01*
X105422252Y-141315270D01*
X105446286Y-141310490D01*
X105468925Y-141301112D01*
X105489299Y-141287498D01*
X105506626Y-141270171D01*
X105520240Y-141249797D01*
X105525303Y-141240325D01*
X105595180Y-141155180D01*
X105680325Y-141085303D01*
X105689797Y-141080240D01*
X105710171Y-141066626D01*
X105727498Y-141049299D01*
X105741112Y-141028925D01*
X105750490Y-141006286D01*
X105755270Y-140982252D01*
X105755270Y-140957748D01*
X105750490Y-140933714D01*
X105741112Y-140911075D01*
X105727498Y-140890701D01*
X105710171Y-140873374D01*
X105689797Y-140859760D01*
X105680325Y-140854697D01*
X105595180Y-140784820D01*
X105525303Y-140699675D01*
X105520240Y-140690203D01*
X105506626Y-140669829D01*
X105489299Y-140652502D01*
X105468925Y-140638888D01*
X105446286Y-140629510D01*
X105422252Y-140624730D01*
X105397748Y-140624730D01*
X105373714Y-140629510D01*
X105351075Y-140638888D01*
X105330701Y-140652502D01*
X105313374Y-140669829D01*
X105299760Y-140690203D01*
X105294697Y-140699675D01*
X105224820Y-140784820D01*
X105139675Y-140854697D01*
X105130203Y-140859760D01*
X105109829Y-140873374D01*
X105092502Y-140890701D01*
X105078888Y-140911075D01*
X105069510Y-140933714D01*
X105064730Y-140957748D01*
X103215270Y-140957748D01*
X103210490Y-140933714D01*
X103201112Y-140911075D01*
X103187498Y-140890701D01*
X103170171Y-140873374D01*
X103149797Y-140859760D01*
X103140325Y-140854697D01*
X103055180Y-140784820D01*
X102985303Y-140699675D01*
X102980240Y-140690203D01*
X102966626Y-140669829D01*
X102949299Y-140652502D01*
X102928925Y-140638888D01*
X102906286Y-140629510D01*
X102882252Y-140624730D01*
X102857748Y-140624730D01*
X102833714Y-140629510D01*
X102811075Y-140638888D01*
X102790701Y-140652502D01*
X102773374Y-140669829D01*
X102759760Y-140690203D01*
X102754697Y-140699675D01*
X102684820Y-140784820D01*
X102599675Y-140854697D01*
X102590203Y-140859760D01*
X102569829Y-140873374D01*
X102552502Y-140890701D01*
X102538888Y-140911075D01*
X102529510Y-140933714D01*
X102524730Y-140957748D01*
X100675270Y-140957748D01*
X100670490Y-140933714D01*
X100661112Y-140911075D01*
X100647498Y-140890701D01*
X100630171Y-140873374D01*
X100609797Y-140859760D01*
X100600325Y-140854697D01*
X100515180Y-140784820D01*
X100445303Y-140699675D01*
X100440240Y-140690203D01*
X100426626Y-140669829D01*
X100409299Y-140652502D01*
X100388925Y-140638888D01*
X100366286Y-140629510D01*
X100342252Y-140624730D01*
X100317748Y-140624730D01*
X100293714Y-140629510D01*
X100271075Y-140638888D01*
X100250701Y-140652502D01*
X100233374Y-140669829D01*
X100219760Y-140690203D01*
X100214697Y-140699675D01*
X100144820Y-140784820D01*
X100059675Y-140854697D01*
X100050203Y-140859760D01*
X100029829Y-140873374D01*
X100012502Y-140890701D01*
X99998888Y-140911075D01*
X99989510Y-140933714D01*
X99984730Y-140957748D01*
X98135270Y-140957748D01*
X98130490Y-140933714D01*
X98121112Y-140911075D01*
X98107498Y-140890701D01*
X98090171Y-140873374D01*
X98069797Y-140859760D01*
X98060325Y-140854697D01*
X97975180Y-140784820D01*
X97905303Y-140699675D01*
X97900240Y-140690203D01*
X97886626Y-140669829D01*
X97869299Y-140652502D01*
X97848925Y-140638888D01*
X97826286Y-140629510D01*
X97802252Y-140624730D01*
X97777748Y-140624730D01*
X97753714Y-140629510D01*
X97731075Y-140638888D01*
X97710701Y-140652502D01*
X97693374Y-140669829D01*
X97679760Y-140690203D01*
X97674697Y-140699675D01*
X97604820Y-140784820D01*
X97519675Y-140854697D01*
X97510203Y-140859760D01*
X97489829Y-140873374D01*
X97472502Y-140890701D01*
X97458888Y-140911075D01*
X97449510Y-140933714D01*
X97444730Y-140957748D01*
X95595270Y-140957748D01*
X95590490Y-140933714D01*
X95581112Y-140911075D01*
X95567498Y-140890701D01*
X95550171Y-140873374D01*
X95529797Y-140859760D01*
X95520325Y-140854697D01*
X95435180Y-140784820D01*
X95365303Y-140699674D01*
X95313376Y-140602526D01*
X95281401Y-140497122D01*
X95270000Y-140381360D01*
X95270000Y-139018640D01*
X95281401Y-138902878D01*
X95313376Y-138797474D01*
X95365303Y-138700326D01*
X95435180Y-138615180D01*
X95520325Y-138545303D01*
X95529797Y-138540240D01*
X95550171Y-138526626D01*
X95567498Y-138509299D01*
X95581112Y-138488925D01*
X95590490Y-138466286D01*
X95595270Y-138442252D01*
X95595270Y-138417748D01*
X97444730Y-138417748D01*
X97444730Y-138442252D01*
X97449510Y-138466286D01*
X97458888Y-138488925D01*
X97472502Y-138509299D01*
X97489829Y-138526626D01*
X97510203Y-138540240D01*
X97519675Y-138545303D01*
X97604820Y-138615180D01*
X97674697Y-138700325D01*
X97679760Y-138709797D01*
X97693374Y-138730171D01*
X97710701Y-138747498D01*
X97731075Y-138761112D01*
X97753714Y-138770490D01*
X97777748Y-138775270D01*
X97802252Y-138775270D01*
X97826286Y-138770490D01*
X97848925Y-138761112D01*
X97869299Y-138747498D01*
X97886626Y-138730171D01*
X97900240Y-138709797D01*
X97905303Y-138700325D01*
X97975180Y-138615180D01*
X98060325Y-138545303D01*
X98069797Y-138540240D01*
X98090171Y-138526626D01*
X98107498Y-138509299D01*
X98121112Y-138488925D01*
X98130490Y-138466286D01*
X98135270Y-138442252D01*
X98135270Y-138417748D01*
X99984730Y-138417748D01*
X99984730Y-138442252D01*
X99989510Y-138466286D01*
X99998888Y-138488925D01*
X100012502Y-138509299D01*
X100029829Y-138526626D01*
X100050203Y-138540240D01*
X100059675Y-138545303D01*
X100144820Y-138615180D01*
X100214697Y-138700325D01*
X100219760Y-138709797D01*
X100233374Y-138730171D01*
X100250701Y-138747498D01*
X100271075Y-138761112D01*
X100293714Y-138770490D01*
X100317748Y-138775270D01*
X100342252Y-138775270D01*
X100366286Y-138770490D01*
X100388925Y-138761112D01*
X100409299Y-138747498D01*
X100426626Y-138730171D01*
X100440240Y-138709797D01*
X100445303Y-138700325D01*
X100515180Y-138615180D01*
X100600325Y-138545303D01*
X100609797Y-138540240D01*
X100630171Y-138526626D01*
X100647498Y-138509299D01*
X100661112Y-138488925D01*
X100670490Y-138466286D01*
X100675270Y-138442252D01*
X100675270Y-138417748D01*
X102524730Y-138417748D01*
X102524730Y-138442252D01*
X102529510Y-138466286D01*
X102538888Y-138488925D01*
X102552502Y-138509299D01*
X102569829Y-138526626D01*
X102590203Y-138540240D01*
X102599675Y-138545303D01*
X102684820Y-138615180D01*
X102754697Y-138700325D01*
X102759760Y-138709797D01*
X102773374Y-138730171D01*
X102790701Y-138747498D01*
X102811075Y-138761112D01*
X102833714Y-138770490D01*
X102857748Y-138775270D01*
X102882252Y-138775270D01*
X102906286Y-138770490D01*
X102928925Y-138761112D01*
X102949299Y-138747498D01*
X102966626Y-138730171D01*
X102980240Y-138709797D01*
X102985303Y-138700325D01*
X103055180Y-138615180D01*
X103140325Y-138545303D01*
X103149797Y-138540240D01*
X103170171Y-138526626D01*
X103187498Y-138509299D01*
X103201112Y-138488925D01*
X103210490Y-138466286D01*
X103215270Y-138442252D01*
X103215270Y-138417748D01*
X105064730Y-138417748D01*
X105064730Y-138442252D01*
X105069510Y-138466286D01*
X105078888Y-138488925D01*
X105092502Y-138509299D01*
X105109829Y-138526626D01*
X105130203Y-138540240D01*
X105139675Y-138545303D01*
X105224820Y-138615180D01*
X105294697Y-138700325D01*
X105299760Y-138709797D01*
X105313374Y-138730171D01*
X105330701Y-138747498D01*
X105351075Y-138761112D01*
X105373714Y-138770490D01*
X105397748Y-138775270D01*
X105422252Y-138775270D01*
X105446286Y-138770490D01*
X105468925Y-138761112D01*
X105489299Y-138747498D01*
X105506626Y-138730171D01*
X105520240Y-138709797D01*
X105525303Y-138700325D01*
X105595180Y-138615180D01*
X105680325Y-138545303D01*
X105689797Y-138540240D01*
X105710171Y-138526626D01*
X105727498Y-138509299D01*
X105741112Y-138488925D01*
X105750490Y-138466286D01*
X105755270Y-138442252D01*
X105755270Y-138417748D01*
X105750490Y-138393714D01*
X105741112Y-138371075D01*
X105727498Y-138350701D01*
X105710171Y-138333374D01*
X105689797Y-138319760D01*
X105680325Y-138314697D01*
X105595180Y-138244820D01*
X105525303Y-138159675D01*
X105520240Y-138150203D01*
X105506626Y-138129829D01*
X105489299Y-138112502D01*
X105468925Y-138098888D01*
X105446286Y-138089510D01*
X105422252Y-138084730D01*
X105397748Y-138084730D01*
X105373714Y-138089510D01*
X105351075Y-138098888D01*
X105330701Y-138112502D01*
X105313374Y-138129829D01*
X105299760Y-138150203D01*
X105294697Y-138159675D01*
X105224820Y-138244820D01*
X105139675Y-138314697D01*
X105130203Y-138319760D01*
X105109829Y-138333374D01*
X105092502Y-138350701D01*
X105078888Y-138371075D01*
X105069510Y-138393714D01*
X105064730Y-138417748D01*
X103215270Y-138417748D01*
X103210490Y-138393714D01*
X103201112Y-138371075D01*
X103187498Y-138350701D01*
X103170171Y-138333374D01*
X103149797Y-138319760D01*
X103140325Y-138314697D01*
X103055180Y-138244820D01*
X102985303Y-138159675D01*
X102980240Y-138150203D01*
X102966626Y-138129829D01*
X102949299Y-138112502D01*
X102928925Y-138098888D01*
X102906286Y-138089510D01*
X102882252Y-138084730D01*
X102857748Y-138084730D01*
X102833714Y-138089510D01*
X102811075Y-138098888D01*
X102790701Y-138112502D01*
X102773374Y-138129829D01*
X102759760Y-138150203D01*
X102754697Y-138159675D01*
X102684820Y-138244820D01*
X102599675Y-138314697D01*
X102590203Y-138319760D01*
X102569829Y-138333374D01*
X102552502Y-138350701D01*
X102538888Y-138371075D01*
X102529510Y-138393714D01*
X102524730Y-138417748D01*
X100675270Y-138417748D01*
X100670490Y-138393714D01*
X100661112Y-138371075D01*
X100647498Y-138350701D01*
X100630171Y-138333374D01*
X100609797Y-138319760D01*
X100600325Y-138314697D01*
X100515180Y-138244820D01*
X100445303Y-138159675D01*
X100440240Y-138150203D01*
X100426626Y-138129829D01*
X100409299Y-138112502D01*
X100388925Y-138098888D01*
X100366286Y-138089510D01*
X100342252Y-138084730D01*
X100317748Y-138084730D01*
X100293714Y-138089510D01*
X100271075Y-138098888D01*
X100250701Y-138112502D01*
X100233374Y-138129829D01*
X100219760Y-138150203D01*
X100214697Y-138159675D01*
X100144820Y-138244820D01*
X100059675Y-138314697D01*
X100050203Y-138319760D01*
X100029829Y-138333374D01*
X100012502Y-138350701D01*
X99998888Y-138371075D01*
X99989510Y-138393714D01*
X99984730Y-138417748D01*
X98135270Y-138417748D01*
X98130490Y-138393714D01*
X98121112Y-138371075D01*
X98107498Y-138350701D01*
X98090171Y-138333374D01*
X98069797Y-138319760D01*
X98060325Y-138314697D01*
X97975180Y-138244820D01*
X97905303Y-138159675D01*
X97900240Y-138150203D01*
X97886626Y-138129829D01*
X97869299Y-138112502D01*
X97848925Y-138098888D01*
X97826286Y-138089510D01*
X97802252Y-138084730D01*
X97777748Y-138084730D01*
X97753714Y-138089510D01*
X97731075Y-138098888D01*
X97710701Y-138112502D01*
X97693374Y-138129829D01*
X97679760Y-138150203D01*
X97674697Y-138159675D01*
X97604820Y-138244820D01*
X97519675Y-138314697D01*
X97510203Y-138319760D01*
X97489829Y-138333374D01*
X97472502Y-138350701D01*
X97458888Y-138371075D01*
X97449510Y-138393714D01*
X97444730Y-138417748D01*
X95595270Y-138417748D01*
X95590490Y-138393714D01*
X95581112Y-138371075D01*
X95567498Y-138350701D01*
X95550171Y-138333374D01*
X95529797Y-138319760D01*
X95520325Y-138314697D01*
X95435180Y-138244820D01*
X95365303Y-138159674D01*
X95313376Y-138062526D01*
X95281401Y-137957122D01*
X95270000Y-137841360D01*
X95270000Y-136478640D01*
X95281401Y-136362878D01*
X95313376Y-136257474D01*
X95365303Y-136160326D01*
X95435180Y-136075180D01*
X95520325Y-136005303D01*
X95529797Y-136000240D01*
X95550171Y-135986626D01*
X95567498Y-135969299D01*
X95581112Y-135948925D01*
X95590490Y-135926286D01*
X95595270Y-135902252D01*
X95595270Y-135877748D01*
X97444730Y-135877748D01*
X97444730Y-135902252D01*
X97449510Y-135926286D01*
X97458888Y-135948925D01*
X97472502Y-135969299D01*
X97489829Y-135986626D01*
X97510203Y-136000240D01*
X97519675Y-136005303D01*
X97604820Y-136075180D01*
X97674697Y-136160325D01*
X97679760Y-136169797D01*
X97693374Y-136190171D01*
X97710701Y-136207498D01*
X97731075Y-136221112D01*
X97753714Y-136230490D01*
X97777748Y-136235270D01*
X97802252Y-136235270D01*
X97826286Y-136230490D01*
X97848925Y-136221112D01*
X97869299Y-136207498D01*
X97886626Y-136190171D01*
X97900240Y-136169797D01*
X97905303Y-136160325D01*
X97975180Y-136075180D01*
X98060325Y-136005303D01*
X98069797Y-136000240D01*
X98090171Y-135986626D01*
X98107498Y-135969299D01*
X98121112Y-135948925D01*
X98130490Y-135926286D01*
X98135270Y-135902252D01*
X98135270Y-135877748D01*
X99984730Y-135877748D01*
X99984730Y-135902252D01*
X99989510Y-135926286D01*
X99998888Y-135948925D01*
X100012502Y-135969299D01*
X100029829Y-135986626D01*
X100050203Y-136000240D01*
X100059675Y-136005303D01*
X100144820Y-136075180D01*
X100214697Y-136160325D01*
X100219760Y-136169797D01*
X100233374Y-136190171D01*
X100250701Y-136207498D01*
X100271075Y-136221112D01*
X100293714Y-136230490D01*
X100317748Y-136235270D01*
X100342252Y-136235270D01*
X100366286Y-136230490D01*
X100388925Y-136221112D01*
X100409299Y-136207498D01*
X100426626Y-136190171D01*
X100440240Y-136169797D01*
X100445303Y-136160325D01*
X100515180Y-136075180D01*
X100600325Y-136005303D01*
X100609797Y-136000240D01*
X100630171Y-135986626D01*
X100647498Y-135969299D01*
X100661112Y-135948925D01*
X100670490Y-135926286D01*
X100675270Y-135902252D01*
X100675270Y-135877748D01*
X102524730Y-135877748D01*
X102524730Y-135902252D01*
X102529510Y-135926286D01*
X102538888Y-135948925D01*
X102552502Y-135969299D01*
X102569829Y-135986626D01*
X102590203Y-136000240D01*
X102599675Y-136005303D01*
X102684820Y-136075180D01*
X102754697Y-136160325D01*
X102759760Y-136169797D01*
X102773374Y-136190171D01*
X102790701Y-136207498D01*
X102811075Y-136221112D01*
X102833714Y-136230490D01*
X102857748Y-136235270D01*
X102882252Y-136235270D01*
X102906286Y-136230490D01*
X102928925Y-136221112D01*
X102949299Y-136207498D01*
X102966626Y-136190171D01*
X102980240Y-136169797D01*
X102985303Y-136160325D01*
X103055180Y-136075180D01*
X103140325Y-136005303D01*
X103149797Y-136000240D01*
X103170171Y-135986626D01*
X103187498Y-135969299D01*
X103201112Y-135948925D01*
X103210490Y-135926286D01*
X103215270Y-135902252D01*
X103215270Y-135877748D01*
X105064730Y-135877748D01*
X105064730Y-135902252D01*
X105069510Y-135926286D01*
X105078888Y-135948925D01*
X105092502Y-135969299D01*
X105109829Y-135986626D01*
X105130203Y-136000240D01*
X105139675Y-136005303D01*
X105224820Y-136075180D01*
X105294697Y-136160325D01*
X105299760Y-136169797D01*
X105313374Y-136190171D01*
X105330701Y-136207498D01*
X105351075Y-136221112D01*
X105373714Y-136230490D01*
X105397748Y-136235270D01*
X105422252Y-136235270D01*
X105446286Y-136230490D01*
X105468925Y-136221112D01*
X105489299Y-136207498D01*
X105506626Y-136190171D01*
X105520240Y-136169797D01*
X105525303Y-136160325D01*
X105595180Y-136075180D01*
X105680325Y-136005303D01*
X105689797Y-136000240D01*
X105710171Y-135986626D01*
X105727498Y-135969299D01*
X105741112Y-135948925D01*
X105750490Y-135926286D01*
X105755270Y-135902252D01*
X105755270Y-135877748D01*
X105750490Y-135853714D01*
X105741112Y-135831075D01*
X105727498Y-135810701D01*
X105710171Y-135793374D01*
X105689797Y-135779760D01*
X105680325Y-135774697D01*
X105595180Y-135704820D01*
X105525303Y-135619675D01*
X105520240Y-135610203D01*
X105506626Y-135589829D01*
X105489299Y-135572502D01*
X105468925Y-135558888D01*
X105446286Y-135549510D01*
X105422252Y-135544730D01*
X105397748Y-135544730D01*
X105373714Y-135549510D01*
X105351075Y-135558888D01*
X105330701Y-135572502D01*
X105313374Y-135589829D01*
X105299760Y-135610203D01*
X105294697Y-135619675D01*
X105224820Y-135704820D01*
X105139675Y-135774697D01*
X105130203Y-135779760D01*
X105109829Y-135793374D01*
X105092502Y-135810701D01*
X105078888Y-135831075D01*
X105069510Y-135853714D01*
X105064730Y-135877748D01*
X103215270Y-135877748D01*
X103210490Y-135853714D01*
X103201112Y-135831075D01*
X103187498Y-135810701D01*
X103170171Y-135793374D01*
X103149797Y-135779760D01*
X103140325Y-135774697D01*
X103055180Y-135704820D01*
X102985303Y-135619675D01*
X102980240Y-135610203D01*
X102966626Y-135589829D01*
X102949299Y-135572502D01*
X102928925Y-135558888D01*
X102906286Y-135549510D01*
X102882252Y-135544730D01*
X102857748Y-135544730D01*
X102833714Y-135549510D01*
X102811075Y-135558888D01*
X102790701Y-135572502D01*
X102773374Y-135589829D01*
X102759760Y-135610203D01*
X102754697Y-135619675D01*
X102684820Y-135704820D01*
X102599675Y-135774697D01*
X102590203Y-135779760D01*
X102569829Y-135793374D01*
X102552502Y-135810701D01*
X102538888Y-135831075D01*
X102529510Y-135853714D01*
X102524730Y-135877748D01*
X100675270Y-135877748D01*
X100670490Y-135853714D01*
X100661112Y-135831075D01*
X100647498Y-135810701D01*
X100630171Y-135793374D01*
X100609797Y-135779760D01*
X100600325Y-135774697D01*
X100515180Y-135704820D01*
X100445303Y-135619675D01*
X100440240Y-135610203D01*
X100426626Y-135589829D01*
X100409299Y-135572502D01*
X100388925Y-135558888D01*
X100366286Y-135549510D01*
X100342252Y-135544730D01*
X100317748Y-135544730D01*
X100293714Y-135549510D01*
X100271075Y-135558888D01*
X100250701Y-135572502D01*
X100233374Y-135589829D01*
X100219760Y-135610203D01*
X100214697Y-135619675D01*
X100144820Y-135704820D01*
X100059675Y-135774697D01*
X100050203Y-135779760D01*
X100029829Y-135793374D01*
X100012502Y-135810701D01*
X99998888Y-135831075D01*
X99989510Y-135853714D01*
X99984730Y-135877748D01*
X98135270Y-135877748D01*
X98130490Y-135853714D01*
X98121112Y-135831075D01*
X98107498Y-135810701D01*
X98090171Y-135793374D01*
X98069797Y-135779760D01*
X98060325Y-135774697D01*
X97975180Y-135704820D01*
X97905303Y-135619675D01*
X97900240Y-135610203D01*
X97886626Y-135589829D01*
X97869299Y-135572502D01*
X97848925Y-135558888D01*
X97826286Y-135549510D01*
X97802252Y-135544730D01*
X97777748Y-135544730D01*
X97753714Y-135549510D01*
X97731075Y-135558888D01*
X97710701Y-135572502D01*
X97693374Y-135589829D01*
X97679760Y-135610203D01*
X97674697Y-135619675D01*
X97604820Y-135704820D01*
X97519675Y-135774697D01*
X97510203Y-135779760D01*
X97489829Y-135793374D01*
X97472502Y-135810701D01*
X97458888Y-135831075D01*
X97449510Y-135853714D01*
X97444730Y-135877748D01*
X95595270Y-135877748D01*
X95590490Y-135853714D01*
X95581112Y-135831075D01*
X95567498Y-135810701D01*
X95550171Y-135793374D01*
X95529797Y-135779760D01*
X95520325Y-135774697D01*
X95435180Y-135704820D01*
X95365303Y-135619675D01*
X95360240Y-135610203D01*
X95346626Y-135589829D01*
X95329299Y-135572502D01*
X95308925Y-135558888D01*
X95286286Y-135549510D01*
X95262252Y-135544730D01*
X95237748Y-135544730D01*
X95213714Y-135549510D01*
X95191075Y-135558888D01*
X95170701Y-135572502D01*
X95153374Y-135589829D01*
X95139760Y-135610203D01*
X95134697Y-135619675D01*
X95064820Y-135704820D01*
X94979674Y-135774697D01*
X94882526Y-135826624D01*
X94777122Y-135858599D01*
X94661360Y-135870000D01*
X93298640Y-135870000D01*
X93182878Y-135858599D01*
X93077474Y-135826624D01*
X92980326Y-135774697D01*
X92895180Y-135704820D01*
X92825303Y-135619675D01*
X92820240Y-135610203D01*
X92806626Y-135589829D01*
X92789299Y-135572502D01*
X92768925Y-135558888D01*
X92746286Y-135549510D01*
X92722252Y-135544730D01*
X92697748Y-135544730D01*
X92673714Y-135549510D01*
X92651075Y-135558888D01*
X92630701Y-135572502D01*
X92613374Y-135589829D01*
X92599760Y-135610203D01*
X92594697Y-135619675D01*
X92524820Y-135704820D01*
X92439674Y-135774697D01*
X92342526Y-135826624D01*
X92237122Y-135858599D01*
X92121360Y-135870000D01*
X90758640Y-135870000D01*
X90642878Y-135858599D01*
X90537474Y-135826624D01*
X90440326Y-135774697D01*
X90355180Y-135704820D01*
X90285303Y-135619675D01*
X90280240Y-135610203D01*
X90266626Y-135589829D01*
X90249299Y-135572502D01*
X90228925Y-135558888D01*
X90206286Y-135549510D01*
X90182252Y-135544730D01*
X90157748Y-135544730D01*
X90133714Y-135549510D01*
X90111075Y-135558888D01*
X90090701Y-135572502D01*
X90073374Y-135589829D01*
X90059760Y-135610203D01*
X90054697Y-135619675D01*
X89984820Y-135704820D01*
X89899674Y-135774697D01*
X89802526Y-135826624D01*
X89697122Y-135858599D01*
X89581360Y-135870000D01*
X88218640Y-135870000D01*
X88102878Y-135858599D01*
X87997474Y-135826624D01*
X87900326Y-135774697D01*
X87815180Y-135704820D01*
X87745303Y-135619674D01*
X87693376Y-135522526D01*
X87661401Y-135417122D01*
X87650000Y-135301360D01*
X87650000Y-133938640D01*
X87661401Y-133822878D01*
X87693376Y-133717474D01*
X87745303Y-133620326D01*
X87815180Y-133535180D01*
X87900325Y-133465303D01*
X87909797Y-133460240D01*
X87930171Y-133446626D01*
X87947498Y-133429299D01*
X87961112Y-133408925D01*
X87970490Y-133386286D01*
X87975270Y-133362252D01*
X87975270Y-133337748D01*
X89824730Y-133337748D01*
X89824730Y-133362252D01*
X89829510Y-133386286D01*
X89838888Y-133408925D01*
X89852502Y-133429299D01*
X89869829Y-133446626D01*
X89890203Y-133460240D01*
X89899675Y-133465303D01*
X89984820Y-133535180D01*
X90054697Y-133620325D01*
X90059760Y-133629797D01*
X90073374Y-133650171D01*
X90090701Y-133667498D01*
X90111075Y-133681112D01*
X90133714Y-133690490D01*
X90157748Y-133695270D01*
X90182252Y-133695270D01*
X90206286Y-133690490D01*
X90228925Y-133681112D01*
X90249299Y-133667498D01*
X90266626Y-133650171D01*
X90280240Y-133629797D01*
X90285303Y-133620325D01*
X90355180Y-133535180D01*
X90440325Y-133465303D01*
X90449797Y-133460240D01*
X90470171Y-133446626D01*
X90487498Y-133429299D01*
X90501112Y-133408925D01*
X90510490Y-133386286D01*
X90515270Y-133362252D01*
X90515270Y-133337748D01*
X92364730Y-133337748D01*
X92364730Y-133362252D01*
X92369510Y-133386286D01*
X92378888Y-133408925D01*
X92392502Y-133429299D01*
X92409829Y-133446626D01*
X92430203Y-133460240D01*
X92439675Y-133465303D01*
X92524820Y-133535180D01*
X92594697Y-133620325D01*
X92599760Y-133629797D01*
X92613374Y-133650171D01*
X92630701Y-133667498D01*
X92651075Y-133681112D01*
X92673714Y-133690490D01*
X92697748Y-133695270D01*
X92722252Y-133695270D01*
X92746286Y-133690490D01*
X92768925Y-133681112D01*
X92789299Y-133667498D01*
X92806626Y-133650171D01*
X92820240Y-133629797D01*
X92825303Y-133620325D01*
X92895180Y-133535180D01*
X92980325Y-133465303D01*
X92989797Y-133460240D01*
X93010171Y-133446626D01*
X93027498Y-133429299D01*
X93041112Y-133408925D01*
X93050490Y-133386286D01*
X93055270Y-133362252D01*
X93055270Y-133337748D01*
X94904730Y-133337748D01*
X94904730Y-133362252D01*
X94909510Y-133386286D01*
X94918888Y-133408925D01*
X94932502Y-133429299D01*
X94949829Y-133446626D01*
X94970203Y-133460240D01*
X94979675Y-133465303D01*
X95064820Y-133535180D01*
X95134697Y-133620325D01*
X95139760Y-133629797D01*
X95153374Y-133650171D01*
X95170701Y-133667498D01*
X95191075Y-133681112D01*
X95213714Y-133690490D01*
X95237748Y-133695270D01*
X95262252Y-133695270D01*
X95286286Y-133690490D01*
X95308925Y-133681112D01*
X95329299Y-133667498D01*
X95346626Y-133650171D01*
X95360240Y-133629797D01*
X95365303Y-133620325D01*
X95435180Y-133535180D01*
X95520325Y-133465303D01*
X95529797Y-133460240D01*
X95550171Y-133446626D01*
X95567498Y-133429299D01*
X95581112Y-133408925D01*
X95590490Y-133386286D01*
X95595270Y-133362252D01*
X95595270Y-133337748D01*
X97444730Y-133337748D01*
X97444730Y-133362252D01*
X97449510Y-133386286D01*
X97458888Y-133408925D01*
X97472502Y-133429299D01*
X97489829Y-133446626D01*
X97510203Y-133460240D01*
X97519675Y-133465303D01*
X97604820Y-133535180D01*
X97674697Y-133620325D01*
X97679760Y-133629797D01*
X97693374Y-133650171D01*
X97710701Y-133667498D01*
X97731075Y-133681112D01*
X97753714Y-133690490D01*
X97777748Y-133695270D01*
X97802252Y-133695270D01*
X97826286Y-133690490D01*
X97848925Y-133681112D01*
X97869299Y-133667498D01*
X97886626Y-133650171D01*
X97900240Y-133629797D01*
X97905303Y-133620325D01*
X97975180Y-133535180D01*
X98060325Y-133465303D01*
X98069797Y-133460240D01*
X98090171Y-133446626D01*
X98107498Y-133429299D01*
X98121112Y-133408925D01*
X98130490Y-133386286D01*
X98135270Y-133362252D01*
X98135270Y-133337748D01*
X99984730Y-133337748D01*
X99984730Y-133362252D01*
X99989510Y-133386286D01*
X99998888Y-133408925D01*
X100012502Y-133429299D01*
X100029829Y-133446626D01*
X100050203Y-133460240D01*
X100059675Y-133465303D01*
X100144820Y-133535180D01*
X100214697Y-133620325D01*
X100219760Y-133629797D01*
X100233374Y-133650171D01*
X100250701Y-133667498D01*
X100271075Y-133681112D01*
X100293714Y-133690490D01*
X100317748Y-133695270D01*
X100342252Y-133695270D01*
X100366286Y-133690490D01*
X100388925Y-133681112D01*
X100409299Y-133667498D01*
X100426626Y-133650171D01*
X100440240Y-133629797D01*
X100445303Y-133620325D01*
X100515180Y-133535180D01*
X100600325Y-133465303D01*
X100609797Y-133460240D01*
X100630171Y-133446626D01*
X100647498Y-133429299D01*
X100661112Y-133408925D01*
X100670490Y-133386286D01*
X100675270Y-133362252D01*
X100675270Y-133337748D01*
X102524730Y-133337748D01*
X102524730Y-133362252D01*
X102529510Y-133386286D01*
X102538888Y-133408925D01*
X102552502Y-133429299D01*
X102569829Y-133446626D01*
X102590203Y-133460240D01*
X102599675Y-133465303D01*
X102684820Y-133535180D01*
X102754697Y-133620325D01*
X102759760Y-133629797D01*
X102773374Y-133650171D01*
X102790701Y-133667498D01*
X102811075Y-133681112D01*
X102833714Y-133690490D01*
X102857748Y-133695270D01*
X102882252Y-133695270D01*
X102906286Y-133690490D01*
X102928925Y-133681112D01*
X102949299Y-133667498D01*
X102966626Y-133650171D01*
X102980240Y-133629797D01*
X102985303Y-133620325D01*
X103055180Y-133535180D01*
X103140325Y-133465303D01*
X103149797Y-133460240D01*
X103170171Y-133446626D01*
X103187498Y-133429299D01*
X103201112Y-133408925D01*
X103210490Y-133386286D01*
X103215270Y-133362252D01*
X103215270Y-133337748D01*
X105064730Y-133337748D01*
X105064730Y-133362252D01*
X105069510Y-133386286D01*
X105078888Y-133408925D01*
X105092502Y-133429299D01*
X105109829Y-133446626D01*
X105130203Y-133460240D01*
X105139675Y-133465303D01*
X105224820Y-133535180D01*
X105294697Y-133620325D01*
X105299760Y-133629797D01*
X105313374Y-133650171D01*
X105330701Y-133667498D01*
X105351075Y-133681112D01*
X105373714Y-133690490D01*
X105397748Y-133695270D01*
X105422252Y-133695270D01*
X105446286Y-133690490D01*
X105468925Y-133681112D01*
X105489299Y-133667498D01*
X105506626Y-133650171D01*
X105520240Y-133629797D01*
X105525303Y-133620325D01*
X105595180Y-133535180D01*
X105680325Y-133465303D01*
X105689797Y-133460240D01*
X105710171Y-133446626D01*
X105727498Y-133429299D01*
X105741112Y-133408925D01*
X105750490Y-133386286D01*
X105755270Y-133362252D01*
X105755270Y-133337748D01*
X105750490Y-133313714D01*
X105741112Y-133291075D01*
X105727498Y-133270701D01*
X105710171Y-133253374D01*
X105689797Y-133239760D01*
X105680325Y-133234697D01*
X105595180Y-133164820D01*
X105525303Y-133079675D01*
X105520240Y-133070203D01*
X105506626Y-133049829D01*
X105489299Y-133032502D01*
X105468925Y-133018888D01*
X105446286Y-133009510D01*
X105422252Y-133004730D01*
X105397748Y-133004730D01*
X105373714Y-133009510D01*
X105351075Y-133018888D01*
X105330701Y-133032502D01*
X105313374Y-133049829D01*
X105299760Y-133070203D01*
X105294697Y-133079675D01*
X105224820Y-133164820D01*
X105139675Y-133234697D01*
X105130203Y-133239760D01*
X105109829Y-133253374D01*
X105092502Y-133270701D01*
X105078888Y-133291075D01*
X105069510Y-133313714D01*
X105064730Y-133337748D01*
X103215270Y-133337748D01*
X103210490Y-133313714D01*
X103201112Y-133291075D01*
X103187498Y-133270701D01*
X103170171Y-133253374D01*
X103149797Y-133239760D01*
X103140325Y-133234697D01*
X103055180Y-133164820D01*
X102985303Y-133079675D01*
X102980240Y-133070203D01*
X102966626Y-133049829D01*
X102949299Y-133032502D01*
X102928925Y-133018888D01*
X102906286Y-133009510D01*
X102882252Y-133004730D01*
X102857748Y-133004730D01*
X102833714Y-133009510D01*
X102811075Y-133018888D01*
X102790701Y-133032502D01*
X102773374Y-133049829D01*
X102759760Y-133070203D01*
X102754697Y-133079675D01*
X102684820Y-133164820D01*
X102599675Y-133234697D01*
X102590203Y-133239760D01*
X102569829Y-133253374D01*
X102552502Y-133270701D01*
X102538888Y-133291075D01*
X102529510Y-133313714D01*
X102524730Y-133337748D01*
X100675270Y-133337748D01*
X100670490Y-133313714D01*
X100661112Y-133291075D01*
X100647498Y-133270701D01*
X100630171Y-133253374D01*
X100609797Y-133239760D01*
X100600325Y-133234697D01*
X100515180Y-133164820D01*
X100445303Y-133079675D01*
X100440240Y-133070203D01*
X100426626Y-133049829D01*
X100409299Y-133032502D01*
X100388925Y-133018888D01*
X100366286Y-133009510D01*
X100342252Y-133004730D01*
X100317748Y-133004730D01*
X100293714Y-133009510D01*
X100271075Y-133018888D01*
X100250701Y-133032502D01*
X100233374Y-133049829D01*
X100219760Y-133070203D01*
X100214697Y-133079675D01*
X100144820Y-133164820D01*
X100059675Y-133234697D01*
X100050203Y-133239760D01*
X100029829Y-133253374D01*
X100012502Y-133270701D01*
X99998888Y-133291075D01*
X99989510Y-133313714D01*
X99984730Y-133337748D01*
X98135270Y-133337748D01*
X98130490Y-133313714D01*
X98121112Y-133291075D01*
X98107498Y-133270701D01*
X98090171Y-133253374D01*
X98069797Y-133239760D01*
X98060325Y-133234697D01*
X97975180Y-133164820D01*
X97905303Y-133079675D01*
X97900240Y-133070203D01*
X97886626Y-133049829D01*
X97869299Y-133032502D01*
X97848925Y-133018888D01*
X97826286Y-133009510D01*
X97802252Y-133004730D01*
X97777748Y-133004730D01*
X97753714Y-133009510D01*
X97731075Y-133018888D01*
X97710701Y-133032502D01*
X97693374Y-133049829D01*
X97679760Y-133070203D01*
X97674697Y-133079675D01*
X97604820Y-133164820D01*
X97519675Y-133234697D01*
X97510203Y-133239760D01*
X97489829Y-133253374D01*
X97472502Y-133270701D01*
X97458888Y-133291075D01*
X97449510Y-133313714D01*
X97444730Y-133337748D01*
X95595270Y-133337748D01*
X95590490Y-133313714D01*
X95581112Y-133291075D01*
X95567498Y-133270701D01*
X95550171Y-133253374D01*
X95529797Y-133239760D01*
X95520325Y-133234697D01*
X95435180Y-133164820D01*
X95365303Y-133079675D01*
X95360240Y-133070203D01*
X95346626Y-133049829D01*
X95329299Y-133032502D01*
X95308925Y-133018888D01*
X95286286Y-133009510D01*
X95262252Y-133004730D01*
X95237748Y-133004730D01*
X95213714Y-133009510D01*
X95191075Y-133018888D01*
X95170701Y-133032502D01*
X95153374Y-133049829D01*
X95139760Y-133070203D01*
X95134697Y-133079675D01*
X95064820Y-133164820D01*
X94979675Y-133234697D01*
X94970203Y-133239760D01*
X94949829Y-133253374D01*
X94932502Y-133270701D01*
X94918888Y-133291075D01*
X94909510Y-133313714D01*
X94904730Y-133337748D01*
X93055270Y-133337748D01*
X93050490Y-133313714D01*
X93041112Y-133291075D01*
X93027498Y-133270701D01*
X93010171Y-133253374D01*
X92989797Y-133239760D01*
X92980325Y-133234697D01*
X92895180Y-133164820D01*
X92825303Y-133079675D01*
X92820240Y-133070203D01*
X92806626Y-133049829D01*
X92789299Y-133032502D01*
X92768925Y-133018888D01*
X92746286Y-133009510D01*
X92722252Y-133004730D01*
X92697748Y-133004730D01*
X92673714Y-133009510D01*
X92651075Y-133018888D01*
X92630701Y-133032502D01*
X92613374Y-133049829D01*
X92599760Y-133070203D01*
X92594697Y-133079675D01*
X92524820Y-133164820D01*
X92439675Y-133234697D01*
X92430203Y-133239760D01*
X92409829Y-133253374D01*
X92392502Y-133270701D01*
X92378888Y-133291075D01*
X92369510Y-133313714D01*
X92364730Y-133337748D01*
X90515270Y-133337748D01*
X90510490Y-133313714D01*
X90501112Y-133291075D01*
X90487498Y-133270701D01*
X90470171Y-133253374D01*
X90449797Y-133239760D01*
X90440325Y-133234697D01*
X90355180Y-133164820D01*
X90285303Y-133079675D01*
X90280240Y-133070203D01*
X90266626Y-133049829D01*
X90249299Y-133032502D01*
X90228925Y-133018888D01*
X90206286Y-133009510D01*
X90182252Y-133004730D01*
X90157748Y-133004730D01*
X90133714Y-133009510D01*
X90111075Y-133018888D01*
X90090701Y-133032502D01*
X90073374Y-133049829D01*
X90059760Y-133070203D01*
X90054697Y-133079675D01*
X89984820Y-133164820D01*
X89899675Y-133234697D01*
X89890203Y-133239760D01*
X89869829Y-133253374D01*
X89852502Y-133270701D01*
X89838888Y-133291075D01*
X89829510Y-133313714D01*
X89824730Y-133337748D01*
X87975270Y-133337748D01*
X87970490Y-133313714D01*
X87961112Y-133291075D01*
X87947498Y-133270701D01*
X87930171Y-133253374D01*
X87909797Y-133239760D01*
X87900325Y-133234697D01*
X87815180Y-133164820D01*
X87745303Y-133079674D01*
X87693376Y-132982526D01*
X87661401Y-132877122D01*
X87650000Y-132761360D01*
X87650000Y-131398640D01*
X87661401Y-131282878D01*
X87693376Y-131177474D01*
X87745303Y-131080326D01*
X87815180Y-130995180D01*
X87900325Y-130925303D01*
X87909797Y-130920240D01*
X87930171Y-130906626D01*
X87947498Y-130889299D01*
X87961112Y-130868925D01*
X87970490Y-130846286D01*
X87975270Y-130822252D01*
X87975270Y-130797748D01*
X89824730Y-130797748D01*
X89824730Y-130822252D01*
X89829510Y-130846286D01*
X89838888Y-130868925D01*
X89852502Y-130889299D01*
X89869829Y-130906626D01*
X89890203Y-130920240D01*
X89899675Y-130925303D01*
X89984820Y-130995180D01*
X90054697Y-131080325D01*
X90059760Y-131089797D01*
X90073374Y-131110171D01*
X90090701Y-131127498D01*
X90111075Y-131141112D01*
X90133714Y-131150490D01*
X90157748Y-131155270D01*
X90182252Y-131155270D01*
X90206286Y-131150490D01*
X90228925Y-131141112D01*
X90249299Y-131127498D01*
X90266626Y-131110171D01*
X90280240Y-131089797D01*
X90285303Y-131080325D01*
X90355180Y-130995180D01*
X90440325Y-130925303D01*
X90449797Y-130920240D01*
X90470171Y-130906626D01*
X90487498Y-130889299D01*
X90501112Y-130868925D01*
X90510490Y-130846286D01*
X90515270Y-130822252D01*
X90515270Y-130797748D01*
X92364730Y-130797748D01*
X92364730Y-130822252D01*
X92369510Y-130846286D01*
X92378888Y-130868925D01*
X92392502Y-130889299D01*
X92409829Y-130906626D01*
X92430203Y-130920240D01*
X92439675Y-130925303D01*
X92524820Y-130995180D01*
X92594697Y-131080325D01*
X92599760Y-131089797D01*
X92613374Y-131110171D01*
X92630701Y-131127498D01*
X92651075Y-131141112D01*
X92673714Y-131150490D01*
X92697748Y-131155270D01*
X92722252Y-131155270D01*
X92746286Y-131150490D01*
X92768925Y-131141112D01*
X92789299Y-131127498D01*
X92806626Y-131110171D01*
X92820240Y-131089797D01*
X92825303Y-131080325D01*
X92895180Y-130995180D01*
X92980325Y-130925303D01*
X92989797Y-130920240D01*
X93010171Y-130906626D01*
X93027498Y-130889299D01*
X93041112Y-130868925D01*
X93050490Y-130846286D01*
X93055270Y-130822252D01*
X93055270Y-130797748D01*
X94904730Y-130797748D01*
X94904730Y-130822252D01*
X94909510Y-130846286D01*
X94918888Y-130868925D01*
X94932502Y-130889299D01*
X94949829Y-130906626D01*
X94970203Y-130920240D01*
X94979675Y-130925303D01*
X95064820Y-130995180D01*
X95134697Y-131080325D01*
X95139760Y-131089797D01*
X95153374Y-131110171D01*
X95170701Y-131127498D01*
X95191075Y-131141112D01*
X95213714Y-131150490D01*
X95237748Y-131155270D01*
X95262252Y-131155270D01*
X95286286Y-131150490D01*
X95308925Y-131141112D01*
X95329299Y-131127498D01*
X95346626Y-131110171D01*
X95360240Y-131089797D01*
X95365303Y-131080325D01*
X95435180Y-130995180D01*
X95520325Y-130925303D01*
X95529797Y-130920240D01*
X95550171Y-130906626D01*
X95567498Y-130889299D01*
X95581112Y-130868925D01*
X95590490Y-130846286D01*
X95595270Y-130822252D01*
X95595270Y-130797748D01*
X97444730Y-130797748D01*
X97444730Y-130822252D01*
X97449510Y-130846286D01*
X97458888Y-130868925D01*
X97472502Y-130889299D01*
X97489829Y-130906626D01*
X97510203Y-130920240D01*
X97519675Y-130925303D01*
X97604820Y-130995180D01*
X97674697Y-131080325D01*
X97679760Y-131089797D01*
X97693374Y-131110171D01*
X97710701Y-131127498D01*
X97731075Y-131141112D01*
X97753714Y-131150490D01*
X97777748Y-131155270D01*
X97802252Y-131155270D01*
X97826286Y-131150490D01*
X97848925Y-131141112D01*
X97869299Y-131127498D01*
X97886626Y-131110171D01*
X97900240Y-131089797D01*
X97905303Y-131080325D01*
X97975180Y-130995180D01*
X98060325Y-130925303D01*
X98069797Y-130920240D01*
X98090171Y-130906626D01*
X98107498Y-130889299D01*
X98121112Y-130868925D01*
X98130490Y-130846286D01*
X98135270Y-130822252D01*
X98135270Y-130797748D01*
X99984730Y-130797748D01*
X99984730Y-130822252D01*
X99989510Y-130846286D01*
X99998888Y-130868925D01*
X100012502Y-130889299D01*
X100029829Y-130906626D01*
X100050203Y-130920240D01*
X100059675Y-130925303D01*
X100144820Y-130995180D01*
X100214697Y-131080325D01*
X100219760Y-131089797D01*
X100233374Y-131110171D01*
X100250701Y-131127498D01*
X100271075Y-131141112D01*
X100293714Y-131150490D01*
X100317748Y-131155270D01*
X100342252Y-131155270D01*
X100366286Y-131150490D01*
X100388925Y-131141112D01*
X100409299Y-131127498D01*
X100426626Y-131110171D01*
X100440240Y-131089797D01*
X100445303Y-131080325D01*
X100515180Y-130995180D01*
X100600325Y-130925303D01*
X100609797Y-130920240D01*
X100630171Y-130906626D01*
X100647498Y-130889299D01*
X100661112Y-130868925D01*
X100670490Y-130846286D01*
X100675270Y-130822252D01*
X100675270Y-130797748D01*
X102524730Y-130797748D01*
X102524730Y-130822252D01*
X102529510Y-130846286D01*
X102538888Y-130868925D01*
X102552502Y-130889299D01*
X102569829Y-130906626D01*
X102590203Y-130920240D01*
X102599675Y-130925303D01*
X102684820Y-130995180D01*
X102754697Y-131080325D01*
X102759760Y-131089797D01*
X102773374Y-131110171D01*
X102790701Y-131127498D01*
X102811075Y-131141112D01*
X102833714Y-131150490D01*
X102857748Y-131155270D01*
X102882252Y-131155270D01*
X102906286Y-131150490D01*
X102928925Y-131141112D01*
X102949299Y-131127498D01*
X102966626Y-131110171D01*
X102980240Y-131089797D01*
X102985303Y-131080325D01*
X103055180Y-130995180D01*
X103140325Y-130925303D01*
X103149797Y-130920240D01*
X103170171Y-130906626D01*
X103187498Y-130889299D01*
X103201112Y-130868925D01*
X103210490Y-130846286D01*
X103215270Y-130822252D01*
X103215270Y-130797748D01*
X105064730Y-130797748D01*
X105064730Y-130822252D01*
X105069510Y-130846286D01*
X105078888Y-130868925D01*
X105092502Y-130889299D01*
X105109829Y-130906626D01*
X105130203Y-130920240D01*
X105139675Y-130925303D01*
X105224820Y-130995180D01*
X105294697Y-131080325D01*
X105299760Y-131089797D01*
X105313374Y-131110171D01*
X105330701Y-131127498D01*
X105351075Y-131141112D01*
X105373714Y-131150490D01*
X105397748Y-131155270D01*
X105422252Y-131155270D01*
X105446286Y-131150490D01*
X105468925Y-131141112D01*
X105489299Y-131127498D01*
X105506626Y-131110171D01*
X105520240Y-131089797D01*
X105525303Y-131080325D01*
X105595180Y-130995180D01*
X105680325Y-130925303D01*
X105689797Y-130920240D01*
X105710171Y-130906626D01*
X105727498Y-130889299D01*
X105741112Y-130868925D01*
X105750490Y-130846286D01*
X105755270Y-130822252D01*
X105755270Y-130797748D01*
X105750490Y-130773714D01*
X105741112Y-130751075D01*
X105727498Y-130730701D01*
X105710171Y-130713374D01*
X105689797Y-130699760D01*
X105680325Y-130694697D01*
X105595180Y-130624820D01*
X105525303Y-130539675D01*
X105520240Y-130530203D01*
X105506626Y-130509829D01*
X105489299Y-130492502D01*
X105468925Y-130478888D01*
X105446286Y-130469510D01*
X105422252Y-130464730D01*
X105397748Y-130464730D01*
X105373714Y-130469510D01*
X105351075Y-130478888D01*
X105330701Y-130492502D01*
X105313374Y-130509829D01*
X105299760Y-130530203D01*
X105294697Y-130539675D01*
X105224820Y-130624820D01*
X105139675Y-130694697D01*
X105130203Y-130699760D01*
X105109829Y-130713374D01*
X105092502Y-130730701D01*
X105078888Y-130751075D01*
X105069510Y-130773714D01*
X105064730Y-130797748D01*
X103215270Y-130797748D01*
X103210490Y-130773714D01*
X103201112Y-130751075D01*
X103187498Y-130730701D01*
X103170171Y-130713374D01*
X103149797Y-130699760D01*
X103140325Y-130694697D01*
X103055180Y-130624820D01*
X102985303Y-130539675D01*
X102980240Y-130530203D01*
X102966626Y-130509829D01*
X102949299Y-130492502D01*
X102928925Y-130478888D01*
X102906286Y-130469510D01*
X102882252Y-130464730D01*
X102857748Y-130464730D01*
X102833714Y-130469510D01*
X102811075Y-130478888D01*
X102790701Y-130492502D01*
X102773374Y-130509829D01*
X102759760Y-130530203D01*
X102754697Y-130539675D01*
X102684820Y-130624820D01*
X102599675Y-130694697D01*
X102590203Y-130699760D01*
X102569829Y-130713374D01*
X102552502Y-130730701D01*
X102538888Y-130751075D01*
X102529510Y-130773714D01*
X102524730Y-130797748D01*
X100675270Y-130797748D01*
X100670490Y-130773714D01*
X100661112Y-130751075D01*
X100647498Y-130730701D01*
X100630171Y-130713374D01*
X100609797Y-130699760D01*
X100600325Y-130694697D01*
X100515180Y-130624820D01*
X100445303Y-130539675D01*
X100440240Y-130530203D01*
X100426626Y-130509829D01*
X100409299Y-130492502D01*
X100388925Y-130478888D01*
X100366286Y-130469510D01*
X100342252Y-130464730D01*
X100317748Y-130464730D01*
X100293714Y-130469510D01*
X100271075Y-130478888D01*
X100250701Y-130492502D01*
X100233374Y-130509829D01*
X100219760Y-130530203D01*
X100214697Y-130539675D01*
X100144820Y-130624820D01*
X100059675Y-130694697D01*
X100050203Y-130699760D01*
X100029829Y-130713374D01*
X100012502Y-130730701D01*
X99998888Y-130751075D01*
X99989510Y-130773714D01*
X99984730Y-130797748D01*
X98135270Y-130797748D01*
X98130490Y-130773714D01*
X98121112Y-130751075D01*
X98107498Y-130730701D01*
X98090171Y-130713374D01*
X98069797Y-130699760D01*
X98060325Y-130694697D01*
X97975180Y-130624820D01*
X97905303Y-130539675D01*
X97900240Y-130530203D01*
X97886626Y-130509829D01*
X97869299Y-130492502D01*
X97848925Y-130478888D01*
X97826286Y-130469510D01*
X97802252Y-130464730D01*
X97777748Y-130464730D01*
X97753714Y-130469510D01*
X97731075Y-130478888D01*
X97710701Y-130492502D01*
X97693374Y-130509829D01*
X97679760Y-130530203D01*
X97674697Y-130539675D01*
X97604820Y-130624820D01*
X97519675Y-130694697D01*
X97510203Y-130699760D01*
X97489829Y-130713374D01*
X97472502Y-130730701D01*
X97458888Y-130751075D01*
X97449510Y-130773714D01*
X97444730Y-130797748D01*
X95595270Y-130797748D01*
X95590490Y-130773714D01*
X95581112Y-130751075D01*
X95567498Y-130730701D01*
X95550171Y-130713374D01*
X95529797Y-130699760D01*
X95520325Y-130694697D01*
X95435180Y-130624820D01*
X95365303Y-130539675D01*
X95360240Y-130530203D01*
X95346626Y-130509829D01*
X95329299Y-130492502D01*
X95308925Y-130478888D01*
X95286286Y-130469510D01*
X95262252Y-130464730D01*
X95237748Y-130464730D01*
X95213714Y-130469510D01*
X95191075Y-130478888D01*
X95170701Y-130492502D01*
X95153374Y-130509829D01*
X95139760Y-130530203D01*
X95134697Y-130539675D01*
X95064820Y-130624820D01*
X94979675Y-130694697D01*
X94970203Y-130699760D01*
X94949829Y-130713374D01*
X94932502Y-130730701D01*
X94918888Y-130751075D01*
X94909510Y-130773714D01*
X94904730Y-130797748D01*
X93055270Y-130797748D01*
X93050490Y-130773714D01*
X93041112Y-130751075D01*
X93027498Y-130730701D01*
X93010171Y-130713374D01*
X92989797Y-130699760D01*
X92980325Y-130694697D01*
X92895180Y-130624820D01*
X92825303Y-130539675D01*
X92820240Y-130530203D01*
X92806626Y-130509829D01*
X92789299Y-130492502D01*
X92768925Y-130478888D01*
X92746286Y-130469510D01*
X92722252Y-130464730D01*
X92697748Y-130464730D01*
X92673714Y-130469510D01*
X92651075Y-130478888D01*
X92630701Y-130492502D01*
X92613374Y-130509829D01*
X92599760Y-130530203D01*
X92594697Y-130539675D01*
X92524820Y-130624820D01*
X92439675Y-130694697D01*
X92430203Y-130699760D01*
X92409829Y-130713374D01*
X92392502Y-130730701D01*
X92378888Y-130751075D01*
X92369510Y-130773714D01*
X92364730Y-130797748D01*
X90515270Y-130797748D01*
X90510490Y-130773714D01*
X90501112Y-130751075D01*
X90487498Y-130730701D01*
X90470171Y-130713374D01*
X90449797Y-130699760D01*
X90440325Y-130694697D01*
X90355180Y-130624820D01*
X90285303Y-130539675D01*
X90280240Y-130530203D01*
X90266626Y-130509829D01*
X90249299Y-130492502D01*
X90228925Y-130478888D01*
X90206286Y-130469510D01*
X90182252Y-130464730D01*
X90157748Y-130464730D01*
X90133714Y-130469510D01*
X90111075Y-130478888D01*
X90090701Y-130492502D01*
X90073374Y-130509829D01*
X90059760Y-130530203D01*
X90054697Y-130539675D01*
X89984820Y-130624820D01*
X89899675Y-130694697D01*
X89890203Y-130699760D01*
X89869829Y-130713374D01*
X89852502Y-130730701D01*
X89838888Y-130751075D01*
X89829510Y-130773714D01*
X89824730Y-130797748D01*
X87975270Y-130797748D01*
X87970490Y-130773714D01*
X87961112Y-130751075D01*
X87947498Y-130730701D01*
X87930171Y-130713374D01*
X87909797Y-130699760D01*
X87900325Y-130694697D01*
X87815180Y-130624820D01*
X87745303Y-130539674D01*
X87693376Y-130442526D01*
X87661401Y-130337122D01*
X87650000Y-130221360D01*
X87650000Y-128858640D01*
X87661401Y-128742878D01*
X87693376Y-128637474D01*
X87745303Y-128540326D01*
X87815180Y-128455180D01*
X87900326Y-128385303D01*
X87997474Y-128333376D01*
X88102878Y-128301401D01*
X88218640Y-128290000D01*
X89581360Y-128290000D01*
X89697122Y-128301401D01*
X89697122Y-128301401D01*
G37*
G36*
X123689836Y-140547193D02*
X123811324Y-140584046D01*
X123887763Y-140607233D01*
X124070172Y-140704733D01*
X124167757Y-140784820D01*
X124230054Y-140835946D01*
X124361267Y-140995829D01*
X124409092Y-141085303D01*
X124458767Y-141178238D01*
X124458767Y-141178239D01*
X124518807Y-141376165D01*
X124534000Y-141530423D01*
X124534000Y-141933578D01*
X124518807Y-142087836D01*
X124478780Y-142219787D01*
X124458767Y-142285763D01*
X124361267Y-142468172D01*
X124257067Y-142595139D01*
X124230054Y-142628054D01*
X124070171Y-142759267D01*
X123951300Y-142822805D01*
X123887762Y-142856767D01*
X123854146Y-142866964D01*
X123689835Y-142916807D01*
X123484000Y-142937080D01*
X123278164Y-142916807D01*
X123113853Y-142866964D01*
X123080237Y-142856767D01*
X122897828Y-142759267D01*
X122737946Y-142628054D01*
X122710933Y-142595139D01*
X122606733Y-142468171D01*
X122509234Y-142285763D01*
X122509233Y-142285762D01*
X122460858Y-142126289D01*
X122449193Y-142087835D01*
X122434000Y-141933577D01*
X122434000Y-141530422D01*
X122449193Y-141376164D01*
X122490399Y-141240325D01*
X122509233Y-141178237D01*
X122606734Y-140995828D01*
X122617876Y-140982252D01*
X122737947Y-140835946D01*
X122800244Y-140784820D01*
X122897829Y-140704733D01*
X123080238Y-140607233D01*
X123156677Y-140584046D01*
X123278165Y-140547193D01*
X123484000Y-140526920D01*
X123689836Y-140547193D01*
X123689836Y-140547193D01*
G37*
G36*
X113529836Y-140547193D02*
X113651324Y-140584046D01*
X113727763Y-140607233D01*
X113910172Y-140704733D01*
X114007757Y-140784820D01*
X114070054Y-140835946D01*
X114201267Y-140995829D01*
X114249092Y-141085303D01*
X114298767Y-141178238D01*
X114298767Y-141178239D01*
X114358807Y-141376165D01*
X114374000Y-141530423D01*
X114374000Y-141933578D01*
X114358807Y-142087836D01*
X114318780Y-142219787D01*
X114298767Y-142285763D01*
X114201267Y-142468172D01*
X114097067Y-142595139D01*
X114070054Y-142628054D01*
X113910171Y-142759267D01*
X113791300Y-142822805D01*
X113727762Y-142856767D01*
X113694146Y-142866964D01*
X113529835Y-142916807D01*
X113324000Y-142937080D01*
X113118164Y-142916807D01*
X112953853Y-142866964D01*
X112920237Y-142856767D01*
X112737828Y-142759267D01*
X112577946Y-142628054D01*
X112550933Y-142595139D01*
X112446733Y-142468171D01*
X112349234Y-142285763D01*
X112349233Y-142285762D01*
X112300858Y-142126289D01*
X112289193Y-142087835D01*
X112274000Y-141933577D01*
X112274000Y-141530422D01*
X112289193Y-141376164D01*
X112330399Y-141240325D01*
X112349233Y-141178237D01*
X112446734Y-140995828D01*
X112457876Y-140982252D01*
X112577947Y-140835946D01*
X112640244Y-140784820D01*
X112737829Y-140704733D01*
X112920238Y-140607233D01*
X112996677Y-140584046D01*
X113118165Y-140547193D01*
X113324000Y-140526920D01*
X113529836Y-140547193D01*
X113529836Y-140547193D01*
G37*
G36*
X116696325Y-140536831D02*
X116737598Y-140549351D01*
X116775629Y-140569679D01*
X116808964Y-140597036D01*
X116836321Y-140630371D01*
X116856649Y-140668402D01*
X116869169Y-140709675D01*
X116874000Y-140758726D01*
X116874000Y-142705274D01*
X116869169Y-142754325D01*
X116856649Y-142795598D01*
X116836321Y-142833629D01*
X116808964Y-142866964D01*
X116775629Y-142894321D01*
X116737598Y-142914649D01*
X116696325Y-142927169D01*
X116647274Y-142932000D01*
X115000726Y-142932000D01*
X114951675Y-142927169D01*
X114910402Y-142914649D01*
X114872371Y-142894321D01*
X114839036Y-142866964D01*
X114811679Y-142833629D01*
X114791351Y-142795598D01*
X114778831Y-142754325D01*
X114774000Y-142705274D01*
X114774000Y-140758726D01*
X114778831Y-140709675D01*
X114791351Y-140668402D01*
X114811679Y-140630371D01*
X114839036Y-140597036D01*
X114872371Y-140569679D01*
X114910402Y-140549351D01*
X114951675Y-140536831D01*
X115000726Y-140532000D01*
X116647274Y-140532000D01*
X116696325Y-140536831D01*
X116696325Y-140536831D01*
G37*
G36*
X126856325Y-140536831D02*
X126897598Y-140549351D01*
X126935629Y-140569679D01*
X126968964Y-140597036D01*
X126996321Y-140630371D01*
X127016649Y-140668402D01*
X127029169Y-140709675D01*
X127034000Y-140758726D01*
X127034000Y-142705274D01*
X127029169Y-142754325D01*
X127016649Y-142795598D01*
X126996321Y-142833629D01*
X126968964Y-142866964D01*
X126935629Y-142894321D01*
X126897598Y-142914649D01*
X126856325Y-142927169D01*
X126807274Y-142932000D01*
X125160726Y-142932000D01*
X125111675Y-142927169D01*
X125070402Y-142914649D01*
X125032371Y-142894321D01*
X124999036Y-142866964D01*
X124971679Y-142833629D01*
X124951351Y-142795598D01*
X124938831Y-142754325D01*
X124934000Y-142705274D01*
X124934000Y-140758726D01*
X124938831Y-140709675D01*
X124951351Y-140668402D01*
X124971679Y-140630371D01*
X124999036Y-140597036D01*
X125032371Y-140569679D01*
X125070402Y-140549351D01*
X125111675Y-140536831D01*
X125160726Y-140532000D01*
X126807274Y-140532000D01*
X126856325Y-140536831D01*
X126856325Y-140536831D01*
G37*
G36*
X148909122Y-139246115D02*
X149025041Y-139269173D01*
X149352620Y-139404861D01*
X149643511Y-139599228D01*
X149647436Y-139601851D01*
X149898149Y-139852564D01*
X149898151Y-139852567D01*
X150095139Y-140147380D01*
X150230827Y-140474959D01*
X150249668Y-140569679D01*
X150300000Y-140822714D01*
X150300000Y-141177286D01*
X150281524Y-141270171D01*
X150230827Y-141525041D01*
X150095139Y-141852620D01*
X150041044Y-141933579D01*
X149898149Y-142147436D01*
X149647436Y-142398149D01*
X149647433Y-142398151D01*
X149352620Y-142595139D01*
X149352619Y-142595140D01*
X149352618Y-142595140D01*
X149273156Y-142628054D01*
X149025041Y-142730827D01*
X148909122Y-142753885D01*
X148677286Y-142800000D01*
X148322714Y-142800000D01*
X148090878Y-142753885D01*
X147974959Y-142730827D01*
X147726844Y-142628054D01*
X147647382Y-142595140D01*
X147647381Y-142595140D01*
X147647380Y-142595139D01*
X147352567Y-142398151D01*
X147352564Y-142398149D01*
X147101851Y-142147436D01*
X146958956Y-141933579D01*
X146904861Y-141852620D01*
X146769173Y-141525041D01*
X146718476Y-141270171D01*
X146700000Y-141177286D01*
X146700000Y-140822714D01*
X146750332Y-140569679D01*
X146769173Y-140474959D01*
X146904861Y-140147380D01*
X147101849Y-139852567D01*
X147101851Y-139852564D01*
X147352564Y-139601851D01*
X147356489Y-139599228D01*
X147647380Y-139404861D01*
X147974959Y-139269173D01*
X148090878Y-139246115D01*
X148322714Y-139200000D01*
X148677286Y-139200000D01*
X148909122Y-139246115D01*
X148909122Y-139246115D01*
G37*
G36*
X90909122Y-139246115D02*
X91025041Y-139269173D01*
X91352620Y-139404861D01*
X91643511Y-139599228D01*
X91647436Y-139601851D01*
X91898149Y-139852564D01*
X91898151Y-139852567D01*
X92095139Y-140147380D01*
X92230827Y-140474959D01*
X92249668Y-140569679D01*
X92300000Y-140822714D01*
X92300000Y-141177286D01*
X92281524Y-141270171D01*
X92230827Y-141525041D01*
X92095139Y-141852620D01*
X92041044Y-141933579D01*
X91898149Y-142147436D01*
X91647436Y-142398149D01*
X91647433Y-142398151D01*
X91352620Y-142595139D01*
X91352619Y-142595140D01*
X91352618Y-142595140D01*
X91273156Y-142628054D01*
X91025041Y-142730827D01*
X90909122Y-142753885D01*
X90677286Y-142800000D01*
X90322714Y-142800000D01*
X90090878Y-142753885D01*
X89974959Y-142730827D01*
X89726844Y-142628054D01*
X89647382Y-142595140D01*
X89647381Y-142595140D01*
X89647380Y-142595139D01*
X89352567Y-142398151D01*
X89352564Y-142398149D01*
X89101851Y-142147436D01*
X88958956Y-141933579D01*
X88904861Y-141852620D01*
X88769173Y-141525041D01*
X88718476Y-141270171D01*
X88700000Y-141177286D01*
X88700000Y-140822714D01*
X88750332Y-140569679D01*
X88769173Y-140474959D01*
X88904861Y-140147380D01*
X89101849Y-139852567D01*
X89101851Y-139852564D01*
X89352564Y-139601851D01*
X89356489Y-139599228D01*
X89647380Y-139404861D01*
X89974959Y-139269173D01*
X90090878Y-139246115D01*
X90322714Y-139200000D01*
X90677286Y-139200000D01*
X90909122Y-139246115D01*
X90909122Y-139246115D01*
G37*
G36*
X138055000Y-142450000D02*
X135155000Y-142450000D01*
X135155000Y-139550000D01*
X138055000Y-139550000D01*
X138055000Y-142450000D01*
X138055000Y-142450000D01*
G37*
G36*
X142027947Y-139605722D02*
X142291833Y-139715027D01*
X142529324Y-139873713D01*
X142731287Y-140075676D01*
X142889973Y-140313167D01*
X142999278Y-140577053D01*
X143055000Y-140857186D01*
X143055000Y-141142814D01*
X142999278Y-141422947D01*
X142889973Y-141686833D01*
X142731287Y-141924324D01*
X142529324Y-142126287D01*
X142291833Y-142284973D01*
X142027947Y-142394278D01*
X141747814Y-142450000D01*
X141462186Y-142450000D01*
X141182053Y-142394278D01*
X140918167Y-142284973D01*
X140680676Y-142126287D01*
X140478713Y-141924324D01*
X140320027Y-141686833D01*
X140210722Y-141422947D01*
X140155000Y-141142814D01*
X140155000Y-140857186D01*
X140210722Y-140577053D01*
X140320027Y-140313167D01*
X140478713Y-140075676D01*
X140680676Y-139873713D01*
X140918167Y-139715027D01*
X141182053Y-139605722D01*
X141462186Y-139550000D01*
X141747814Y-139550000D01*
X142027947Y-139605722D01*
X142027947Y-139605722D01*
G37*
G36*
X117720000Y-137402000D02*
X116220000Y-137402000D01*
X116220000Y-135902000D01*
X117720000Y-135902000D01*
X117720000Y-137402000D01*
X117720000Y-137402000D01*
G37*
G36*
X128896000Y-137402000D02*
X127396000Y-137402000D01*
X127396000Y-135902000D01*
X128896000Y-135902000D01*
X128896000Y-137402000D01*
X128896000Y-137402000D01*
G37*
G36*
X126096000Y-137402000D02*
X124596000Y-137402000D01*
X124596000Y-135902000D01*
X126096000Y-135902000D01*
X126096000Y-137402000D01*
X126096000Y-137402000D01*
G37*
G36*
X114920000Y-137402000D02*
X113420000Y-137402000D01*
X113420000Y-135902000D01*
X114920000Y-135902000D01*
X114920000Y-137402000D01*
X114920000Y-137402000D01*
G37*
G36*
X113255929Y-132674676D02*
X113355894Y-132705000D01*
X113473177Y-132740577D01*
X113673395Y-132847596D01*
X113848881Y-132991613D01*
X113944898Y-133108611D01*
X113992905Y-133167108D01*
X113992906Y-133167110D01*
X114099923Y-133367324D01*
X114105675Y-133386286D01*
X114165824Y-133584571D01*
X114165824Y-133584573D01*
X114168102Y-133607702D01*
X114172883Y-133631736D01*
X114182260Y-133654375D01*
X114195874Y-133674749D01*
X114213201Y-133692076D01*
X114233576Y-133705690D01*
X114256215Y-133715068D01*
X114280248Y-133719848D01*
X114304752Y-133719848D01*
X114328786Y-133715067D01*
X114351425Y-133705690D01*
X114371799Y-133692076D01*
X114389126Y-133674749D01*
X114402740Y-133654374D01*
X114412118Y-133631735D01*
X114417500Y-133595450D01*
X114417500Y-132658000D01*
X116722500Y-132658000D01*
X116722500Y-135058000D01*
X114417500Y-135058000D01*
X114417500Y-134120551D01*
X114415098Y-134096165D01*
X114407985Y-134072716D01*
X114396434Y-134051105D01*
X114380888Y-134032163D01*
X114361946Y-134016617D01*
X114340335Y-134005066D01*
X114316886Y-133997953D01*
X114292500Y-133995551D01*
X114268114Y-133997953D01*
X114244665Y-134005066D01*
X114223054Y-134016617D01*
X114204112Y-134032163D01*
X114188566Y-134051105D01*
X114177015Y-134072716D01*
X114168102Y-134108299D01*
X114165824Y-134131428D01*
X114099923Y-134348677D01*
X113992904Y-134548895D01*
X113848887Y-134724381D01*
X113731889Y-134820398D01*
X113673392Y-134868405D01*
X113673390Y-134868406D01*
X113473176Y-134975423D01*
X113364551Y-135008374D01*
X113255928Y-135041324D01*
X113030000Y-135063576D01*
X112804071Y-135041324D01*
X112695447Y-135008373D01*
X112586823Y-134975423D01*
X112386605Y-134868404D01*
X112211119Y-134724387D01*
X112115102Y-134607389D01*
X112067095Y-134548892D01*
X111960078Y-134348677D01*
X111960077Y-134348676D01*
X111927126Y-134240051D01*
X111894176Y-134131428D01*
X111884398Y-134032151D01*
X111879617Y-134008117D01*
X111870240Y-133985478D01*
X111856626Y-133965104D01*
X111839299Y-133947777D01*
X111818924Y-133934163D01*
X111796285Y-133924785D01*
X111772252Y-133920005D01*
X111747748Y-133920005D01*
X111723714Y-133924786D01*
X111701075Y-133934163D01*
X111680701Y-133947777D01*
X111663374Y-133965104D01*
X111649760Y-133985479D01*
X111640382Y-134008118D01*
X111635602Y-134032151D01*
X111625824Y-134131428D01*
X111559923Y-134348677D01*
X111452904Y-134548895D01*
X111308887Y-134724381D01*
X111191889Y-134820398D01*
X111133392Y-134868405D01*
X111133390Y-134868406D01*
X110933176Y-134975423D01*
X110824551Y-135008374D01*
X110715928Y-135041324D01*
X110490000Y-135063576D01*
X110264071Y-135041324D01*
X110155447Y-135008373D01*
X110046823Y-134975423D01*
X109846605Y-134868404D01*
X109671119Y-134724387D01*
X109575102Y-134607389D01*
X109527095Y-134548892D01*
X109420078Y-134348677D01*
X109420077Y-134348676D01*
X109387126Y-134240051D01*
X109354176Y-134131428D01*
X109339801Y-133985478D01*
X109337500Y-133962115D01*
X109337500Y-133753884D01*
X109354176Y-133584572D01*
X109363736Y-133553058D01*
X109401277Y-133429299D01*
X109420077Y-133367323D01*
X109488261Y-133239760D01*
X109527095Y-133167107D01*
X109598850Y-133079674D01*
X109671117Y-132991616D01*
X109846606Y-132847596D01*
X110046824Y-132740577D01*
X110164107Y-132705000D01*
X110264072Y-132674676D01*
X110490000Y-132652424D01*
X110715929Y-132674676D01*
X110815894Y-132705000D01*
X110933177Y-132740577D01*
X111133395Y-132847596D01*
X111308881Y-132991613D01*
X111404898Y-133108611D01*
X111452905Y-133167108D01*
X111452906Y-133167110D01*
X111559923Y-133367324D01*
X111565675Y-133386286D01*
X111625824Y-133584571D01*
X111625824Y-133584573D01*
X111635602Y-133683849D01*
X111640383Y-133707883D01*
X111649760Y-133730522D01*
X111663374Y-133750896D01*
X111680701Y-133768223D01*
X111701076Y-133781837D01*
X111723715Y-133791215D01*
X111747748Y-133795995D01*
X111772252Y-133795995D01*
X111796286Y-133791214D01*
X111818925Y-133781837D01*
X111839299Y-133768223D01*
X111856626Y-133750896D01*
X111870240Y-133730521D01*
X111879618Y-133707882D01*
X111884398Y-133683849D01*
X111889722Y-133629797D01*
X111894176Y-133584571D01*
X111941277Y-133429299D01*
X111960077Y-133367323D01*
X112028261Y-133239760D01*
X112067095Y-133167107D01*
X112138850Y-133079674D01*
X112211117Y-132991616D01*
X112386606Y-132847596D01*
X112586824Y-132740577D01*
X112704107Y-132705000D01*
X112804072Y-132674676D01*
X113030000Y-132652424D01*
X113255929Y-132674676D01*
X113255929Y-132674676D01*
G37*
G36*
X124685929Y-132674676D02*
X124785894Y-132705000D01*
X124903177Y-132740577D01*
X125103395Y-132847596D01*
X125278881Y-132991613D01*
X125374898Y-133108611D01*
X125422905Y-133167108D01*
X125422906Y-133167110D01*
X125529923Y-133367324D01*
X125535675Y-133386286D01*
X125595824Y-133584571D01*
X125595824Y-133584573D01*
X125598102Y-133607702D01*
X125602883Y-133631736D01*
X125612260Y-133654375D01*
X125625874Y-133674749D01*
X125643201Y-133692076D01*
X125663576Y-133705690D01*
X125686215Y-133715068D01*
X125710248Y-133719848D01*
X125734752Y-133719848D01*
X125758786Y-133715067D01*
X125781425Y-133705690D01*
X125801799Y-133692076D01*
X125819126Y-133674749D01*
X125832740Y-133654374D01*
X125842118Y-133631735D01*
X125847500Y-133595450D01*
X125847500Y-132658000D01*
X128152500Y-132658000D01*
X128152500Y-135058000D01*
X125847500Y-135058000D01*
X125847500Y-134120551D01*
X125845098Y-134096165D01*
X125837985Y-134072716D01*
X125826434Y-134051105D01*
X125810888Y-134032163D01*
X125791946Y-134016617D01*
X125770335Y-134005066D01*
X125746886Y-133997953D01*
X125722500Y-133995551D01*
X125698114Y-133997953D01*
X125674665Y-134005066D01*
X125653054Y-134016617D01*
X125634112Y-134032163D01*
X125618566Y-134051105D01*
X125607015Y-134072716D01*
X125598102Y-134108299D01*
X125595824Y-134131428D01*
X125529923Y-134348677D01*
X125422904Y-134548895D01*
X125278887Y-134724381D01*
X125161889Y-134820398D01*
X125103392Y-134868405D01*
X125103390Y-134868406D01*
X124903176Y-134975423D01*
X124794551Y-135008374D01*
X124685928Y-135041324D01*
X124460000Y-135063576D01*
X124234071Y-135041324D01*
X124125447Y-135008373D01*
X124016823Y-134975423D01*
X123816605Y-134868404D01*
X123641119Y-134724387D01*
X123545102Y-134607389D01*
X123497095Y-134548892D01*
X123390078Y-134348677D01*
X123390077Y-134348676D01*
X123357126Y-134240051D01*
X123324176Y-134131428D01*
X123314398Y-134032151D01*
X123309617Y-134008117D01*
X123300240Y-133985478D01*
X123286626Y-133965104D01*
X123269299Y-133947777D01*
X123248924Y-133934163D01*
X123226285Y-133924785D01*
X123202252Y-133920005D01*
X123177748Y-133920005D01*
X123153714Y-133924786D01*
X123131075Y-133934163D01*
X123110701Y-133947777D01*
X123093374Y-133965104D01*
X123079760Y-133985479D01*
X123070382Y-134008118D01*
X123065602Y-134032151D01*
X123055824Y-134131428D01*
X122989923Y-134348677D01*
X122882904Y-134548895D01*
X122738887Y-134724381D01*
X122621889Y-134820398D01*
X122563392Y-134868405D01*
X122563390Y-134868406D01*
X122363176Y-134975423D01*
X122254551Y-135008374D01*
X122145928Y-135041324D01*
X121920000Y-135063576D01*
X121694071Y-135041324D01*
X121585447Y-135008373D01*
X121476823Y-134975423D01*
X121276605Y-134868404D01*
X121101119Y-134724387D01*
X121005102Y-134607389D01*
X120957095Y-134548892D01*
X120850078Y-134348677D01*
X120850077Y-134348676D01*
X120817126Y-134240051D01*
X120784176Y-134131428D01*
X120769801Y-133985478D01*
X120767500Y-133962115D01*
X120767500Y-133753884D01*
X120784176Y-133584572D01*
X120793736Y-133553058D01*
X120831277Y-133429299D01*
X120850077Y-133367323D01*
X120918261Y-133239760D01*
X120957095Y-133167107D01*
X121028850Y-133079674D01*
X121101117Y-132991616D01*
X121276606Y-132847596D01*
X121476824Y-132740577D01*
X121594107Y-132705000D01*
X121694072Y-132674676D01*
X121920000Y-132652424D01*
X122145929Y-132674676D01*
X122245894Y-132705000D01*
X122363177Y-132740577D01*
X122563395Y-132847596D01*
X122738881Y-132991613D01*
X122834898Y-133108611D01*
X122882905Y-133167108D01*
X122882906Y-133167110D01*
X122989923Y-133367324D01*
X122995675Y-133386286D01*
X123055824Y-133584571D01*
X123055824Y-133584573D01*
X123065602Y-133683849D01*
X123070383Y-133707883D01*
X123079760Y-133730522D01*
X123093374Y-133750896D01*
X123110701Y-133768223D01*
X123131076Y-133781837D01*
X123153715Y-133791215D01*
X123177748Y-133795995D01*
X123202252Y-133795995D01*
X123226286Y-133791214D01*
X123248925Y-133781837D01*
X123269299Y-133768223D01*
X123286626Y-133750896D01*
X123300240Y-133730521D01*
X123309618Y-133707882D01*
X123314398Y-133683849D01*
X123319722Y-133629797D01*
X123324176Y-133584571D01*
X123371277Y-133429299D01*
X123390077Y-133367323D01*
X123458261Y-133239760D01*
X123497095Y-133167107D01*
X123568850Y-133079674D01*
X123641117Y-132991616D01*
X123816606Y-132847596D01*
X124016824Y-132740577D01*
X124134107Y-132705000D01*
X124234072Y-132674676D01*
X124460000Y-132652424D01*
X124685929Y-132674676D01*
X124685929Y-132674676D01*
G37*
G36*
X136700770Y-130420372D02*
X136816689Y-130443429D01*
X136998678Y-130518811D01*
X137162463Y-130628249D01*
X137301751Y-130767537D01*
X137411189Y-130931322D01*
X137486571Y-131113311D01*
X137506962Y-131215823D01*
X137525000Y-131306507D01*
X137525000Y-131503493D01*
X137509628Y-131580770D01*
X137486571Y-131696689D01*
X137411189Y-131878678D01*
X137301751Y-132042463D01*
X137162463Y-132181751D01*
X136998678Y-132291189D01*
X136816689Y-132366571D01*
X136700770Y-132389628D01*
X136623493Y-132405000D01*
X136426507Y-132405000D01*
X136349230Y-132389628D01*
X136233311Y-132366571D01*
X136051322Y-132291189D01*
X135887537Y-132181751D01*
X135748249Y-132042463D01*
X135638811Y-131878678D01*
X135563429Y-131696689D01*
X135540372Y-131580770D01*
X135525000Y-131503493D01*
X135525000Y-131306507D01*
X135543038Y-131215823D01*
X135563429Y-131113311D01*
X135638811Y-130931322D01*
X135748249Y-130767537D01*
X135887537Y-130628249D01*
X136051322Y-130518811D01*
X136233311Y-130443429D01*
X136349230Y-130420372D01*
X136426507Y-130405000D01*
X136623493Y-130405000D01*
X136700770Y-130420372D01*
X136700770Y-130420372D01*
G37*
G36*
X148566017Y-128265724D02*
X148713630Y-128310503D01*
X148849677Y-128383222D01*
X148968919Y-128481081D01*
X149066778Y-128600323D01*
X149139497Y-128736370D01*
X149184276Y-128883983D01*
X149200000Y-129043640D01*
X149200000Y-131356360D01*
X149184276Y-131516017D01*
X149139497Y-131663630D01*
X149066778Y-131799677D01*
X148968919Y-131918919D01*
X148849677Y-132016778D01*
X148713630Y-132089497D01*
X148566017Y-132134276D01*
X148406360Y-132150000D01*
X146593640Y-132150000D01*
X146433983Y-132134276D01*
X146286370Y-132089497D01*
X146150323Y-132016778D01*
X146031081Y-131918919D01*
X145933222Y-131799677D01*
X145860503Y-131663630D01*
X145815724Y-131516017D01*
X145800000Y-131356360D01*
X145800000Y-129043640D01*
X145815724Y-128883983D01*
X145860503Y-128736370D01*
X145933222Y-128600323D01*
X146031081Y-128481081D01*
X146150323Y-128383222D01*
X146286370Y-128310503D01*
X146433983Y-128265724D01*
X146593640Y-128250000D01*
X148406360Y-128250000D01*
X148566017Y-128265724D01*
X148566017Y-128265724D01*
G37*
G36*
X143450000Y-132150000D02*
X139550000Y-132150000D01*
X139550000Y-128250000D01*
X143450000Y-128250000D01*
X143450000Y-132150000D01*
X143450000Y-132150000D01*
G37*
G36*
X124891122Y-130648517D02*
X124939085Y-130663066D01*
X124983275Y-130686686D01*
X125022018Y-130718482D01*
X125053814Y-130757225D01*
X125077434Y-130801415D01*
X125091983Y-130849378D01*
X125097500Y-130905391D01*
X125097500Y-131730609D01*
X125091983Y-131786622D01*
X125077434Y-131834585D01*
X125053814Y-131878775D01*
X125022018Y-131917518D01*
X124983275Y-131949314D01*
X124939085Y-131972934D01*
X124891122Y-131987483D01*
X124835109Y-131993000D01*
X124084891Y-131993000D01*
X124028878Y-131987483D01*
X123980915Y-131972934D01*
X123936725Y-131949314D01*
X123897982Y-131917518D01*
X123866186Y-131878775D01*
X123842566Y-131834585D01*
X123828017Y-131786622D01*
X123822500Y-131730609D01*
X123822500Y-130905391D01*
X123828017Y-130849378D01*
X123842566Y-130801415D01*
X123866186Y-130757225D01*
X123897982Y-130718482D01*
X123936725Y-130686686D01*
X123980915Y-130663066D01*
X124028878Y-130648517D01*
X124084891Y-130643000D01*
X124835109Y-130643000D01*
X124891122Y-130648517D01*
X124891122Y-130648517D01*
G37*
G36*
X126466122Y-130648517D02*
X126514085Y-130663066D01*
X126558275Y-130686686D01*
X126597018Y-130718482D01*
X126628814Y-130757225D01*
X126652434Y-130801415D01*
X126666983Y-130849378D01*
X126672500Y-130905391D01*
X126672500Y-131730609D01*
X126666983Y-131786622D01*
X126652434Y-131834585D01*
X126628814Y-131878775D01*
X126597018Y-131917518D01*
X126558275Y-131949314D01*
X126514085Y-131972934D01*
X126466122Y-131987483D01*
X126410109Y-131993000D01*
X125659891Y-131993000D01*
X125603878Y-131987483D01*
X125555915Y-131972934D01*
X125511725Y-131949314D01*
X125472982Y-131917518D01*
X125441186Y-131878775D01*
X125417566Y-131834585D01*
X125403017Y-131786622D01*
X125397500Y-131730609D01*
X125397500Y-130905391D01*
X125403017Y-130849378D01*
X125417566Y-130801415D01*
X125441186Y-130757225D01*
X125472982Y-130718482D01*
X125511725Y-130686686D01*
X125555915Y-130663066D01*
X125603878Y-130648517D01*
X125659891Y-130643000D01*
X126410109Y-130643000D01*
X126466122Y-130648517D01*
X126466122Y-130648517D01*
G37*
G36*
X113410122Y-130648517D02*
X113458085Y-130663066D01*
X113502275Y-130686686D01*
X113541018Y-130718482D01*
X113572814Y-130757225D01*
X113596434Y-130801415D01*
X113610983Y-130849378D01*
X113616500Y-130905391D01*
X113616500Y-131730609D01*
X113610983Y-131786622D01*
X113596434Y-131834585D01*
X113572814Y-131878775D01*
X113541018Y-131917518D01*
X113502275Y-131949314D01*
X113458085Y-131972934D01*
X113410122Y-131987483D01*
X113354109Y-131993000D01*
X112603891Y-131993000D01*
X112547878Y-131987483D01*
X112499915Y-131972934D01*
X112455725Y-131949314D01*
X112416982Y-131917518D01*
X112385186Y-131878775D01*
X112361566Y-131834585D01*
X112347017Y-131786622D01*
X112341500Y-131730609D01*
X112341500Y-130905391D01*
X112347017Y-130849378D01*
X112361566Y-130801415D01*
X112385186Y-130757225D01*
X112416982Y-130718482D01*
X112455725Y-130686686D01*
X112499915Y-130663066D01*
X112547878Y-130648517D01*
X112603891Y-130643000D01*
X113354109Y-130643000D01*
X113410122Y-130648517D01*
X113410122Y-130648517D01*
G37*
G36*
X122656122Y-130648517D02*
X122704085Y-130663066D01*
X122748275Y-130686686D01*
X122787018Y-130718482D01*
X122818814Y-130757225D01*
X122842434Y-130801415D01*
X122856983Y-130849378D01*
X122862500Y-130905391D01*
X122862500Y-131730609D01*
X122856983Y-131786622D01*
X122842434Y-131834585D01*
X122818814Y-131878775D01*
X122787018Y-131917518D01*
X122748275Y-131949314D01*
X122704085Y-131972934D01*
X122656122Y-131987483D01*
X122600109Y-131993000D01*
X121849891Y-131993000D01*
X121793878Y-131987483D01*
X121745915Y-131972934D01*
X121701725Y-131949314D01*
X121662982Y-131917518D01*
X121631186Y-131878775D01*
X121607566Y-131834585D01*
X121593017Y-131786622D01*
X121587500Y-131730609D01*
X121587500Y-130905391D01*
X121593017Y-130849378D01*
X121607566Y-130801415D01*
X121631186Y-130757225D01*
X121662982Y-130718482D01*
X121701725Y-130686686D01*
X121745915Y-130663066D01*
X121793878Y-130648517D01*
X121849891Y-130643000D01*
X122600109Y-130643000D01*
X122656122Y-130648517D01*
X122656122Y-130648517D01*
G37*
G36*
X121081122Y-130648517D02*
X121129085Y-130663066D01*
X121173275Y-130686686D01*
X121212018Y-130718482D01*
X121243814Y-130757225D01*
X121267434Y-130801415D01*
X121281983Y-130849378D01*
X121287500Y-130905391D01*
X121287500Y-131730609D01*
X121281983Y-131786622D01*
X121267434Y-131834585D01*
X121243814Y-131878775D01*
X121212018Y-131917518D01*
X121173275Y-131949314D01*
X121129085Y-131972934D01*
X121081122Y-131987483D01*
X121025109Y-131993000D01*
X120274891Y-131993000D01*
X120218878Y-131987483D01*
X120170915Y-131972934D01*
X120126725Y-131949314D01*
X120087982Y-131917518D01*
X120056186Y-131878775D01*
X120032566Y-131834585D01*
X120018017Y-131786622D01*
X120012500Y-131730609D01*
X120012500Y-130905391D01*
X120018017Y-130849378D01*
X120032566Y-130801415D01*
X120056186Y-130757225D01*
X120087982Y-130718482D01*
X120126725Y-130686686D01*
X120170915Y-130663066D01*
X120218878Y-130648517D01*
X120274891Y-130643000D01*
X121025109Y-130643000D01*
X121081122Y-130648517D01*
X121081122Y-130648517D01*
G37*
G36*
X114985122Y-130648517D02*
X115033085Y-130663066D01*
X115077275Y-130686686D01*
X115116018Y-130718482D01*
X115147814Y-130757225D01*
X115171434Y-130801415D01*
X115185983Y-130849378D01*
X115191500Y-130905391D01*
X115191500Y-131730609D01*
X115185983Y-131786622D01*
X115171434Y-131834585D01*
X115147814Y-131878775D01*
X115116018Y-131917518D01*
X115077275Y-131949314D01*
X115033085Y-131972934D01*
X114985122Y-131987483D01*
X114929109Y-131993000D01*
X114178891Y-131993000D01*
X114122878Y-131987483D01*
X114074915Y-131972934D01*
X114030725Y-131949314D01*
X113991982Y-131917518D01*
X113960186Y-131878775D01*
X113936566Y-131834585D01*
X113922017Y-131786622D01*
X113916500Y-131730609D01*
X113916500Y-130905391D01*
X113922017Y-130849378D01*
X113936566Y-130801415D01*
X113960186Y-130757225D01*
X113991982Y-130718482D01*
X114030725Y-130686686D01*
X114074915Y-130663066D01*
X114122878Y-130648517D01*
X114178891Y-130643000D01*
X114929109Y-130643000D01*
X114985122Y-130648517D01*
X114985122Y-130648517D01*
G37*
G36*
X111175122Y-130648517D02*
X111223085Y-130663066D01*
X111267275Y-130686686D01*
X111306018Y-130718482D01*
X111337814Y-130757225D01*
X111361434Y-130801415D01*
X111375983Y-130849378D01*
X111381500Y-130905391D01*
X111381500Y-131730609D01*
X111375983Y-131786622D01*
X111361434Y-131834585D01*
X111337814Y-131878775D01*
X111306018Y-131917518D01*
X111267275Y-131949314D01*
X111223085Y-131972934D01*
X111175122Y-131987483D01*
X111119109Y-131993000D01*
X110368891Y-131993000D01*
X110312878Y-131987483D01*
X110264915Y-131972934D01*
X110220725Y-131949314D01*
X110181982Y-131917518D01*
X110150186Y-131878775D01*
X110126566Y-131834585D01*
X110112017Y-131786622D01*
X110106500Y-131730609D01*
X110106500Y-130905391D01*
X110112017Y-130849378D01*
X110126566Y-130801415D01*
X110150186Y-130757225D01*
X110181982Y-130718482D01*
X110220725Y-130686686D01*
X110264915Y-130663066D01*
X110312878Y-130648517D01*
X110368891Y-130643000D01*
X111119109Y-130643000D01*
X111175122Y-130648517D01*
X111175122Y-130648517D01*
G37*
G36*
X109600122Y-130648517D02*
X109648085Y-130663066D01*
X109692275Y-130686686D01*
X109731018Y-130718482D01*
X109762814Y-130757225D01*
X109786434Y-130801415D01*
X109800983Y-130849378D01*
X109806500Y-130905391D01*
X109806500Y-131730609D01*
X109800983Y-131786622D01*
X109786434Y-131834585D01*
X109762814Y-131878775D01*
X109731018Y-131917518D01*
X109692275Y-131949314D01*
X109648085Y-131972934D01*
X109600122Y-131987483D01*
X109544109Y-131993000D01*
X108793891Y-131993000D01*
X108737878Y-131987483D01*
X108689915Y-131972934D01*
X108645725Y-131949314D01*
X108606982Y-131917518D01*
X108575186Y-131878775D01*
X108551566Y-131834585D01*
X108537017Y-131786622D01*
X108531500Y-131730609D01*
X108531500Y-130905391D01*
X108537017Y-130849378D01*
X108551566Y-130801415D01*
X108575186Y-130757225D01*
X108606982Y-130718482D01*
X108645725Y-130686686D01*
X108689915Y-130663066D01*
X108737878Y-130648517D01*
X108793891Y-130643000D01*
X109544109Y-130643000D01*
X109600122Y-130648517D01*
X109600122Y-130648517D01*
G37*
G36*
X137525000Y-129905000D02*
X135525000Y-129905000D01*
X135525000Y-127905000D01*
X137525000Y-127905000D01*
X137525000Y-129905000D01*
X137525000Y-129905000D01*
G37*
G36*
X145715398Y-123568126D02*
X145886472Y-123620021D01*
X146044121Y-123704286D01*
X146182307Y-123817693D01*
X146295714Y-123955879D01*
X146379979Y-124113528D01*
X146431874Y-124284602D01*
X146450000Y-124468640D01*
X146450000Y-126531360D01*
X146431874Y-126715398D01*
X146379979Y-126886472D01*
X146295714Y-127044121D01*
X146182307Y-127182307D01*
X146044121Y-127295714D01*
X145886472Y-127379979D01*
X145715398Y-127431874D01*
X145531360Y-127450000D01*
X143468640Y-127450000D01*
X143284602Y-127431874D01*
X143113528Y-127379979D01*
X142955879Y-127295714D01*
X142817693Y-127182307D01*
X142704286Y-127044121D01*
X142620021Y-126886472D01*
X142568126Y-126715398D01*
X142550000Y-126531360D01*
X142550000Y-124468640D01*
X142568126Y-124284602D01*
X142620021Y-124113528D01*
X142704286Y-123955879D01*
X142817693Y-123817693D01*
X142955879Y-123704286D01*
X143113528Y-123620021D01*
X143284602Y-123568126D01*
X143468640Y-123550000D01*
X145531360Y-123550000D01*
X145715398Y-123568126D01*
X145715398Y-123568126D01*
G37*
G36*
X138898622Y-125365517D02*
X138946585Y-125380066D01*
X138990775Y-125403686D01*
X139029518Y-125435482D01*
X139061314Y-125474225D01*
X139084934Y-125518415D01*
X139099483Y-125566378D01*
X139105000Y-125622391D01*
X139105000Y-126372609D01*
X139099483Y-126428622D01*
X139084934Y-126476585D01*
X139061314Y-126520775D01*
X139029518Y-126559518D01*
X138990775Y-126591314D01*
X138946585Y-126614934D01*
X138898622Y-126629483D01*
X138842609Y-126635000D01*
X138017391Y-126635000D01*
X137961378Y-126629483D01*
X137913415Y-126614934D01*
X137869225Y-126591314D01*
X137830482Y-126559518D01*
X137798686Y-126520775D01*
X137775066Y-126476585D01*
X137760517Y-126428622D01*
X137755000Y-126372609D01*
X137755000Y-125622391D01*
X137760517Y-125566378D01*
X137775066Y-125518415D01*
X137798686Y-125474225D01*
X137830482Y-125435482D01*
X137869225Y-125403686D01*
X137913415Y-125380066D01*
X137961378Y-125365517D01*
X138017391Y-125360000D01*
X138842609Y-125360000D01*
X138898622Y-125365517D01*
X138898622Y-125365517D01*
G37*
G36*
X135088622Y-125250517D02*
X135136585Y-125265066D01*
X135180775Y-125288686D01*
X135219518Y-125320482D01*
X135251314Y-125359225D01*
X135274934Y-125403415D01*
X135289483Y-125451378D01*
X135295000Y-125507391D01*
X135295000Y-126257609D01*
X135289483Y-126313622D01*
X135274934Y-126361585D01*
X135251314Y-126405775D01*
X135219518Y-126444518D01*
X135180775Y-126476314D01*
X135136585Y-126499934D01*
X135088622Y-126514483D01*
X135032609Y-126520000D01*
X134207391Y-126520000D01*
X134151378Y-126514483D01*
X134103415Y-126499934D01*
X134059225Y-126476314D01*
X134020482Y-126444518D01*
X133988686Y-126405775D01*
X133965066Y-126361585D01*
X133950517Y-126313622D01*
X133945000Y-126257609D01*
X133945000Y-125507391D01*
X133950517Y-125451378D01*
X133965066Y-125403415D01*
X133988686Y-125359225D01*
X134020482Y-125320482D01*
X134059225Y-125288686D01*
X134103415Y-125265066D01*
X134151378Y-125250517D01*
X134207391Y-125245000D01*
X135032609Y-125245000D01*
X135088622Y-125250517D01*
X135088622Y-125250517D01*
G37*
G36*
X124409122Y-122746115D02*
X124525041Y-122769173D01*
X124852620Y-122904861D01*
X125143511Y-123099228D01*
X125147436Y-123101851D01*
X125398149Y-123352564D01*
X125398151Y-123352567D01*
X125595139Y-123647380D01*
X125722924Y-123955879D01*
X125730827Y-123974960D01*
X125800000Y-124322714D01*
X125800000Y-124677286D01*
X125774907Y-124803435D01*
X125730827Y-125025041D01*
X125595139Y-125352620D01*
X125513885Y-125474225D01*
X125398149Y-125647436D01*
X125147436Y-125898149D01*
X125147433Y-125898151D01*
X124852620Y-126095139D01*
X124525041Y-126230827D01*
X124409122Y-126253885D01*
X124177286Y-126300000D01*
X123822714Y-126300000D01*
X123590878Y-126253885D01*
X123474959Y-126230827D01*
X123147380Y-126095139D01*
X122852567Y-125898151D01*
X122852564Y-125898149D01*
X122601851Y-125647436D01*
X122486115Y-125474225D01*
X122404861Y-125352620D01*
X122269173Y-125025041D01*
X122225093Y-124803435D01*
X122200000Y-124677286D01*
X122200000Y-124322714D01*
X122269173Y-123974960D01*
X122277077Y-123955879D01*
X122404861Y-123647380D01*
X122601849Y-123352567D01*
X122601851Y-123352564D01*
X122852564Y-123101851D01*
X122856489Y-123099228D01*
X123147380Y-122904861D01*
X123474959Y-122769173D01*
X123590878Y-122746115D01*
X123822714Y-122700000D01*
X124177286Y-122700000D01*
X124409122Y-122746115D01*
X124409122Y-122746115D01*
G37*
G36*
X100409122Y-122746115D02*
X100525041Y-122769173D01*
X100852620Y-122904861D01*
X101143511Y-123099228D01*
X101147436Y-123101851D01*
X101398149Y-123352564D01*
X101398151Y-123352567D01*
X101595139Y-123647380D01*
X101722924Y-123955879D01*
X101730827Y-123974960D01*
X101800000Y-124322714D01*
X101800000Y-124677286D01*
X101774907Y-124803435D01*
X101730827Y-125025041D01*
X101595139Y-125352620D01*
X101513885Y-125474225D01*
X101398149Y-125647436D01*
X101147436Y-125898149D01*
X101147433Y-125898151D01*
X100852620Y-126095139D01*
X100525041Y-126230827D01*
X100409122Y-126253885D01*
X100177286Y-126300000D01*
X99822714Y-126300000D01*
X99590878Y-126253885D01*
X99474959Y-126230827D01*
X99147380Y-126095139D01*
X98852567Y-125898151D01*
X98852564Y-125898149D01*
X98601851Y-125647436D01*
X98486115Y-125474225D01*
X98404861Y-125352620D01*
X98269173Y-125025041D01*
X98225093Y-124803435D01*
X98200000Y-124677286D01*
X98200000Y-124322714D01*
X98269173Y-123974960D01*
X98277077Y-123955879D01*
X98404861Y-123647380D01*
X98601849Y-123352567D01*
X98601851Y-123352564D01*
X98852564Y-123101851D01*
X98856489Y-123099228D01*
X99147380Y-122904861D01*
X99474959Y-122769173D01*
X99590878Y-122746115D01*
X99822714Y-122700000D01*
X100177286Y-122700000D01*
X100409122Y-122746115D01*
X100409122Y-122746115D01*
G37*
G36*
X138898622Y-123790517D02*
X138946585Y-123805066D01*
X138990775Y-123828686D01*
X139029518Y-123860482D01*
X139061314Y-123899225D01*
X139084934Y-123943415D01*
X139099483Y-123991378D01*
X139105000Y-124047391D01*
X139105000Y-124797609D01*
X139099483Y-124853622D01*
X139084934Y-124901585D01*
X139061314Y-124945775D01*
X139029518Y-124984518D01*
X138990775Y-125016314D01*
X138946585Y-125039934D01*
X138898622Y-125054483D01*
X138842609Y-125060000D01*
X138017391Y-125060000D01*
X137961378Y-125054483D01*
X137913415Y-125039934D01*
X137869225Y-125016314D01*
X137830482Y-124984518D01*
X137798686Y-124945775D01*
X137775066Y-124901585D01*
X137760517Y-124853622D01*
X137755000Y-124797609D01*
X137755000Y-124047391D01*
X137760517Y-123991378D01*
X137775066Y-123943415D01*
X137798686Y-123899225D01*
X137830482Y-123860482D01*
X137869225Y-123828686D01*
X137913415Y-123805066D01*
X137961378Y-123790517D01*
X138017391Y-123785000D01*
X138842609Y-123785000D01*
X138898622Y-123790517D01*
X138898622Y-123790517D01*
G37*
G36*
X135088622Y-123675517D02*
X135136585Y-123690066D01*
X135180775Y-123713686D01*
X135219518Y-123745482D01*
X135251314Y-123784225D01*
X135274934Y-123828415D01*
X135289483Y-123876378D01*
X135295000Y-123932391D01*
X135295000Y-124682609D01*
X135289483Y-124738622D01*
X135274934Y-124786585D01*
X135251314Y-124830775D01*
X135219518Y-124869518D01*
X135180775Y-124901314D01*
X135136585Y-124924934D01*
X135088622Y-124939483D01*
X135032609Y-124945000D01*
X134207391Y-124945000D01*
X134151378Y-124939483D01*
X134103415Y-124924934D01*
X134059225Y-124901314D01*
X134020482Y-124869518D01*
X133988686Y-124830775D01*
X133965066Y-124786585D01*
X133950517Y-124738622D01*
X133945000Y-124682609D01*
X133945000Y-123932391D01*
X133950517Y-123876378D01*
X133965066Y-123828415D01*
X133988686Y-123784225D01*
X134020482Y-123745482D01*
X134059225Y-123713686D01*
X134103415Y-123690066D01*
X134151378Y-123675517D01*
X134207391Y-123670000D01*
X135032609Y-123670000D01*
X135088622Y-123675517D01*
X135088622Y-123675517D01*
G37*
G36*
X140330000Y-122470000D02*
X138730000Y-122470000D01*
X138730000Y-119070000D01*
X140330000Y-119070000D01*
X140330000Y-122470000D01*
X140330000Y-122470000D01*
G37*
G36*
X142620000Y-122470000D02*
X141020000Y-122470000D01*
X141020000Y-119070000D01*
X142620000Y-119070000D01*
X142620000Y-122470000D01*
X142620000Y-122470000D01*
G37*
G36*
X144910000Y-122470000D02*
X143310000Y-122470000D01*
X143310000Y-119070000D01*
X144910000Y-119070000D01*
X144910000Y-122470000D01*
X144910000Y-122470000D01*
G37*
G36*
X135750000Y-109370000D02*
X135752402Y-109394386D01*
X135759515Y-109417835D01*
X135771066Y-109439446D01*
X135786612Y-109458388D01*
X135805554Y-109473934D01*
X135827165Y-109485485D01*
X135850614Y-109492598D01*
X135875000Y-109495000D01*
X138335000Y-109495000D01*
X138335000Y-111665000D01*
X136160000Y-111665000D01*
X136135614Y-111667402D01*
X136112165Y-111674515D01*
X136090554Y-111686066D01*
X136071612Y-111701612D01*
X136056066Y-111720554D01*
X136044515Y-111742165D01*
X136037402Y-111765614D01*
X136035000Y-111790000D01*
X136035000Y-120835000D01*
X135875000Y-120835000D01*
X135850614Y-120837402D01*
X135827165Y-120844515D01*
X135805554Y-120856066D01*
X135786612Y-120871612D01*
X135771066Y-120890554D01*
X135759515Y-120912165D01*
X135752402Y-120935614D01*
X135750000Y-120960000D01*
X135750000Y-122465000D01*
X134150000Y-122465000D01*
X134150000Y-120960000D01*
X134147598Y-120935614D01*
X134140485Y-120912165D01*
X134128934Y-120890554D01*
X134113388Y-120871612D01*
X134094446Y-120856066D01*
X134072835Y-120844515D01*
X134049386Y-120837402D01*
X134025000Y-120835000D01*
X133865000Y-120835000D01*
X133865000Y-118365000D01*
X133862598Y-118340614D01*
X133855485Y-118317165D01*
X133843934Y-118295554D01*
X133828388Y-118276612D01*
X133809446Y-118261066D01*
X133787835Y-118249515D01*
X133764386Y-118242402D01*
X133740000Y-118240000D01*
X132235000Y-118240000D01*
X132235000Y-116640000D01*
X133740000Y-116640000D01*
X133764386Y-116637598D01*
X133787835Y-116630485D01*
X133809446Y-116618934D01*
X133828388Y-116603388D01*
X133843934Y-116584446D01*
X133855485Y-116562835D01*
X133862598Y-116539386D01*
X133865000Y-116515000D01*
X133865000Y-116075000D01*
X133862598Y-116050614D01*
X133855485Y-116027165D01*
X133843934Y-116005554D01*
X133828388Y-115986612D01*
X133809446Y-115971066D01*
X133787835Y-115959515D01*
X133764386Y-115952402D01*
X133740000Y-115950000D01*
X132235000Y-115950000D01*
X132235000Y-114350000D01*
X133740000Y-114350000D01*
X133764386Y-114347598D01*
X133787835Y-114340485D01*
X133809446Y-114328934D01*
X133828388Y-114313388D01*
X133843934Y-114294446D01*
X133855485Y-114272835D01*
X133862598Y-114249386D01*
X133865000Y-114225000D01*
X133865000Y-113785000D01*
X133862598Y-113760614D01*
X133855485Y-113737165D01*
X133843934Y-113715554D01*
X133828388Y-113696612D01*
X133809446Y-113681066D01*
X133787835Y-113669515D01*
X133764386Y-113662402D01*
X133740000Y-113660000D01*
X132235000Y-113660000D01*
X132235000Y-112060000D01*
X133740000Y-112060000D01*
X133764386Y-112057598D01*
X133787835Y-112050485D01*
X133809446Y-112038934D01*
X133828388Y-112023388D01*
X133843934Y-112004446D01*
X133855485Y-111982835D01*
X133862598Y-111959386D01*
X133865000Y-111935000D01*
X133865000Y-109495000D01*
X134025000Y-109495000D01*
X134049386Y-109492598D01*
X134072835Y-109485485D01*
X134094446Y-109473934D01*
X134113388Y-109458388D01*
X134128934Y-109439446D01*
X134140485Y-109417835D01*
X134147598Y-109394386D01*
X134150000Y-109370000D01*
X134150000Y-107865000D01*
X135750000Y-107865000D01*
X135750000Y-109370000D01*
X135750000Y-109370000D01*
G37*
G36*
X150275000Y-118525000D02*
X148175000Y-118525000D01*
X148175000Y-116425000D01*
X150275000Y-116425000D01*
X150275000Y-118525000D01*
X150275000Y-118525000D01*
G37*
G36*
X146710000Y-118260000D02*
X143310000Y-118260000D01*
X143310000Y-116660000D01*
X146710000Y-116660000D01*
X146710000Y-118260000D01*
X146710000Y-118260000D01*
G37*
G36*
X149353707Y-113892596D02*
X149430836Y-113900193D01*
X149562787Y-113940220D01*
X149628763Y-113960233D01*
X149811172Y-114057733D01*
X149971054Y-114188946D01*
X150102267Y-114348828D01*
X150199767Y-114531237D01*
X150209667Y-114563875D01*
X150259807Y-114729164D01*
X150280080Y-114935000D01*
X150259807Y-115140836D01*
X150219780Y-115272787D01*
X150199767Y-115338763D01*
X150102267Y-115521172D01*
X149971054Y-115681054D01*
X149811172Y-115812267D01*
X149628763Y-115909767D01*
X149562787Y-115929780D01*
X149430836Y-115969807D01*
X149353707Y-115977403D01*
X149276580Y-115985000D01*
X149173420Y-115985000D01*
X149096293Y-115977403D01*
X149019164Y-115969807D01*
X148887213Y-115929780D01*
X148821237Y-115909767D01*
X148638828Y-115812267D01*
X148478946Y-115681054D01*
X148347733Y-115521172D01*
X148250233Y-115338763D01*
X148230220Y-115272787D01*
X148190193Y-115140836D01*
X148169920Y-114935000D01*
X148190193Y-114729164D01*
X148240333Y-114563875D01*
X148250233Y-114531237D01*
X148347733Y-114348828D01*
X148478946Y-114188946D01*
X148638828Y-114057733D01*
X148821237Y-113960233D01*
X148887213Y-113940220D01*
X149019164Y-113900193D01*
X149096293Y-113892596D01*
X149173420Y-113885000D01*
X149276580Y-113885000D01*
X149353707Y-113892596D01*
X149353707Y-113892596D01*
G37*
G36*
X146710000Y-115970000D02*
X143310000Y-115970000D01*
X143310000Y-114370000D01*
X146710000Y-114370000D01*
X146710000Y-115970000D01*
X146710000Y-115970000D01*
G37*
G36*
X131278622Y-113300517D02*
X131326585Y-113315066D01*
X131370775Y-113338686D01*
X131409518Y-113370482D01*
X131441314Y-113409225D01*
X131464934Y-113453415D01*
X131479483Y-113501378D01*
X131485000Y-113557391D01*
X131485000Y-114307609D01*
X131479483Y-114363622D01*
X131464934Y-114411585D01*
X131441314Y-114455775D01*
X131409518Y-114494518D01*
X131370775Y-114526314D01*
X131326585Y-114549934D01*
X131278622Y-114564483D01*
X131222609Y-114570000D01*
X130397391Y-114570000D01*
X130341378Y-114564483D01*
X130293415Y-114549934D01*
X130249225Y-114526314D01*
X130210482Y-114494518D01*
X130178686Y-114455775D01*
X130155066Y-114411585D01*
X130140517Y-114363622D01*
X130135000Y-114307609D01*
X130135000Y-113557391D01*
X130140517Y-113501378D01*
X130155066Y-113453415D01*
X130178686Y-113409225D01*
X130210482Y-113370482D01*
X130249225Y-113338686D01*
X130293415Y-113315066D01*
X130341378Y-113300517D01*
X130397391Y-113295000D01*
X131222609Y-113295000D01*
X131278622Y-113300517D01*
X131278622Y-113300517D01*
G37*
G36*
X146710000Y-113680000D02*
X143310000Y-113680000D01*
X143310000Y-112080000D01*
X146710000Y-112080000D01*
X146710000Y-113680000D01*
X146710000Y-113680000D01*
G37*
G36*
X149353707Y-111352597D02*
X149430836Y-111360193D01*
X149562787Y-111400220D01*
X149628763Y-111420233D01*
X149811172Y-111517733D01*
X149971054Y-111648946D01*
X150102267Y-111808828D01*
X150199767Y-111991237D01*
X150199767Y-111991238D01*
X150259807Y-112189164D01*
X150280080Y-112395000D01*
X150259807Y-112600836D01*
X150236930Y-112676250D01*
X150199767Y-112798763D01*
X150102267Y-112981172D01*
X149971054Y-113141054D01*
X149811172Y-113272267D01*
X149628763Y-113369767D01*
X149567469Y-113388360D01*
X149430836Y-113429807D01*
X149353707Y-113437404D01*
X149276580Y-113445000D01*
X149173420Y-113445000D01*
X149096293Y-113437404D01*
X149019164Y-113429807D01*
X148882531Y-113388360D01*
X148821237Y-113369767D01*
X148638828Y-113272267D01*
X148478946Y-113141054D01*
X148347733Y-112981172D01*
X148250233Y-112798763D01*
X148213070Y-112676250D01*
X148190193Y-112600836D01*
X148169920Y-112395000D01*
X148190193Y-112189164D01*
X148250233Y-111991238D01*
X148250233Y-111991237D01*
X148347733Y-111808828D01*
X148478946Y-111648946D01*
X148638828Y-111517733D01*
X148821237Y-111420233D01*
X148887213Y-111400220D01*
X149019164Y-111360193D01*
X149096293Y-111352597D01*
X149173420Y-111345000D01*
X149276580Y-111345000D01*
X149353707Y-111352597D01*
X149353707Y-111352597D01*
G37*
G36*
X131278622Y-111725517D02*
X131326585Y-111740066D01*
X131370775Y-111763686D01*
X131409518Y-111795482D01*
X131441314Y-111834225D01*
X131464934Y-111878415D01*
X131479483Y-111926378D01*
X131485000Y-111982391D01*
X131485000Y-112732609D01*
X131479483Y-112788622D01*
X131464934Y-112836585D01*
X131441314Y-112880775D01*
X131409518Y-112919518D01*
X131370775Y-112951314D01*
X131326585Y-112974934D01*
X131278622Y-112989483D01*
X131222609Y-112995000D01*
X130397391Y-112995000D01*
X130341378Y-112989483D01*
X130293415Y-112974934D01*
X130249225Y-112951314D01*
X130210482Y-112919518D01*
X130178686Y-112880775D01*
X130155066Y-112836585D01*
X130140517Y-112788622D01*
X130135000Y-112732609D01*
X130135000Y-111982391D01*
X130140517Y-111926378D01*
X130155066Y-111878415D01*
X130178686Y-111834225D01*
X130210482Y-111795482D01*
X130249225Y-111763686D01*
X130293415Y-111740066D01*
X130341378Y-111725517D01*
X130397391Y-111720000D01*
X131222609Y-111720000D01*
X131278622Y-111725517D01*
X131278622Y-111725517D01*
G37*
G36*
X140330000Y-111270000D02*
X138730000Y-111270000D01*
X138730000Y-107870000D01*
X140330000Y-107870000D01*
X140330000Y-111270000D01*
X140330000Y-111270000D01*
G37*
G36*
X144910000Y-111270000D02*
X143310000Y-111270000D01*
X143310000Y-107870000D01*
X144910000Y-107870000D01*
X144910000Y-111270000D01*
X144910000Y-111270000D01*
G37*
G36*
X142620000Y-111270000D02*
X141020000Y-111270000D01*
X141020000Y-107870000D01*
X142620000Y-107870000D01*
X142620000Y-111270000D01*
X142620000Y-111270000D01*
G37*
G36*
X131278622Y-108855517D02*
X131326585Y-108870066D01*
X131370775Y-108893686D01*
X131409518Y-108925482D01*
X131441314Y-108964225D01*
X131464934Y-109008415D01*
X131479483Y-109056378D01*
X131485000Y-109112391D01*
X131485000Y-109862609D01*
X131479483Y-109918622D01*
X131464934Y-109966585D01*
X131441314Y-110010775D01*
X131409518Y-110049518D01*
X131370775Y-110081314D01*
X131326585Y-110104934D01*
X131278622Y-110119483D01*
X131222609Y-110125000D01*
X130397391Y-110125000D01*
X130341378Y-110119483D01*
X130293415Y-110104934D01*
X130249225Y-110081314D01*
X130210482Y-110049518D01*
X130178686Y-110010775D01*
X130155066Y-109966585D01*
X130140517Y-109918622D01*
X130135000Y-109862609D01*
X130135000Y-109112391D01*
X130140517Y-109056378D01*
X130155066Y-109008415D01*
X130178686Y-108964225D01*
X130210482Y-108925482D01*
X130249225Y-108893686D01*
X130293415Y-108870066D01*
X130341378Y-108855517D01*
X130397391Y-108850000D01*
X131222609Y-108850000D01*
X131278622Y-108855517D01*
X131278622Y-108855517D01*
G37*
G36*
X131278622Y-107280517D02*
X131326585Y-107295066D01*
X131370775Y-107318686D01*
X131409518Y-107350482D01*
X131441314Y-107389225D01*
X131464934Y-107433415D01*
X131479483Y-107481378D01*
X131485000Y-107537391D01*
X131485000Y-108287609D01*
X131479483Y-108343622D01*
X131464934Y-108391585D01*
X131441314Y-108435775D01*
X131409518Y-108474518D01*
X131370775Y-108506314D01*
X131326585Y-108529934D01*
X131278622Y-108544483D01*
X131222609Y-108550000D01*
X130397391Y-108550000D01*
X130341378Y-108544483D01*
X130293415Y-108529934D01*
X130249225Y-108506314D01*
X130210482Y-108474518D01*
X130178686Y-108435775D01*
X130155066Y-108391585D01*
X130140517Y-108343622D01*
X130135000Y-108287609D01*
X130135000Y-107537391D01*
X130140517Y-107481378D01*
X130155066Y-107433415D01*
X130178686Y-107389225D01*
X130210482Y-107350482D01*
X130249225Y-107318686D01*
X130293415Y-107295066D01*
X130341378Y-107280517D01*
X130397391Y-107275000D01*
X131222609Y-107275000D01*
X131278622Y-107280517D01*
X131278622Y-107280517D01*
G37*
G36*
X140944122Y-106010517D02*
X140992085Y-106025066D01*
X141036275Y-106048686D01*
X141075018Y-106080482D01*
X141106814Y-106119225D01*
X141130434Y-106163415D01*
X141144983Y-106211378D01*
X141150500Y-106267391D01*
X141150500Y-107092609D01*
X141144983Y-107148622D01*
X141130434Y-107196585D01*
X141106814Y-107240775D01*
X141075018Y-107279518D01*
X141036275Y-107311314D01*
X140992085Y-107334934D01*
X140944122Y-107349483D01*
X140888109Y-107355000D01*
X140137891Y-107355000D01*
X140081878Y-107349483D01*
X140033915Y-107334934D01*
X139989725Y-107311314D01*
X139950982Y-107279518D01*
X139919186Y-107240775D01*
X139895566Y-107196585D01*
X139881017Y-107148622D01*
X139875500Y-107092609D01*
X139875500Y-106267391D01*
X139881017Y-106211378D01*
X139895566Y-106163415D01*
X139919186Y-106119225D01*
X139950982Y-106080482D01*
X139989725Y-106048686D01*
X140033915Y-106025066D01*
X140081878Y-106010517D01*
X140137891Y-106005000D01*
X140888109Y-106005000D01*
X140944122Y-106010517D01*
X140944122Y-106010517D01*
G37*
G36*
X139369122Y-106010517D02*
X139417085Y-106025066D01*
X139461275Y-106048686D01*
X139500018Y-106080482D01*
X139531814Y-106119225D01*
X139555434Y-106163415D01*
X139569983Y-106211378D01*
X139575500Y-106267391D01*
X139575500Y-107092609D01*
X139569983Y-107148622D01*
X139555434Y-107196585D01*
X139531814Y-107240775D01*
X139500018Y-107279518D01*
X139461275Y-107311314D01*
X139417085Y-107334934D01*
X139369122Y-107349483D01*
X139313109Y-107355000D01*
X138562891Y-107355000D01*
X138506878Y-107349483D01*
X138458915Y-107334934D01*
X138414725Y-107311314D01*
X138375982Y-107279518D01*
X138344186Y-107240775D01*
X138320566Y-107196585D01*
X138306017Y-107148622D01*
X138300500Y-107092609D01*
X138300500Y-106267391D01*
X138306017Y-106211378D01*
X138320566Y-106163415D01*
X138344186Y-106119225D01*
X138375982Y-106080482D01*
X138414725Y-106048686D01*
X138458915Y-106025066D01*
X138506878Y-106010517D01*
X138562891Y-106005000D01*
X139313109Y-106005000D01*
X139369122Y-106010517D01*
X139369122Y-106010517D01*
G37*
G36*
X90913325Y-104538831D02*
X90954598Y-104551351D01*
X90992629Y-104571679D01*
X91025964Y-104599036D01*
X91053321Y-104632371D01*
X91073649Y-104670402D01*
X91086169Y-104711675D01*
X91091000Y-104760726D01*
X91091000Y-106407274D01*
X91086169Y-106456325D01*
X91073649Y-106497598D01*
X91053321Y-106535629D01*
X91025964Y-106568964D01*
X90992629Y-106596321D01*
X90954598Y-106616649D01*
X90913325Y-106629169D01*
X90864274Y-106634000D01*
X88967726Y-106634000D01*
X88918675Y-106629169D01*
X88877402Y-106616649D01*
X88839371Y-106596321D01*
X88806036Y-106568964D01*
X88778679Y-106535629D01*
X88758351Y-106497598D01*
X88745831Y-106456325D01*
X88741000Y-106407274D01*
X88741000Y-104760726D01*
X88745831Y-104711675D01*
X88758351Y-104670402D01*
X88778679Y-104632371D01*
X88806036Y-104599036D01*
X88839371Y-104571679D01*
X88877402Y-104551351D01*
X88918675Y-104538831D01*
X88967726Y-104534000D01*
X90864274Y-104534000D01*
X90913325Y-104538831D01*
X90913325Y-104538831D01*
G37*
G36*
X150548000Y-106272000D02*
X147648000Y-106272000D01*
X147648000Y-103372000D01*
X150548000Y-103372000D01*
X150548000Y-106272000D01*
X150548000Y-106272000D01*
G37*
G36*
X136055000Y-106210000D02*
X134455000Y-106210000D01*
X134455000Y-104610000D01*
X136055000Y-104610000D01*
X136055000Y-106210000D01*
X136055000Y-106210000D01*
G37*
G36*
X141062000Y-105223000D02*
X139862000Y-105223000D01*
X139862000Y-104073000D01*
X141062000Y-104073000D01*
X141062000Y-105223000D01*
X141062000Y-105223000D01*
G37*
G36*
X139562000Y-105223000D02*
X138362000Y-105223000D01*
X138362000Y-104073000D01*
X139562000Y-104073000D01*
X139562000Y-105223000D01*
X139562000Y-105223000D01*
G37*
G36*
X135488352Y-102640743D02*
X135633941Y-102701048D01*
X135764973Y-102788601D01*
X135876399Y-102900027D01*
X135963952Y-103031059D01*
X136024257Y-103176648D01*
X136055000Y-103331205D01*
X136055000Y-103488795D01*
X136024257Y-103643352D01*
X135963952Y-103788941D01*
X135876399Y-103919973D01*
X135764973Y-104031399D01*
X135633941Y-104118952D01*
X135488352Y-104179257D01*
X135333795Y-104210000D01*
X135176205Y-104210000D01*
X135021648Y-104179257D01*
X134876059Y-104118952D01*
X134745027Y-104031399D01*
X134633601Y-103919973D01*
X134546048Y-103788941D01*
X134485743Y-103643352D01*
X134455000Y-103488795D01*
X134455000Y-103331205D01*
X134485743Y-103176648D01*
X134546048Y-103031059D01*
X134633601Y-102900027D01*
X134745027Y-102788601D01*
X134876059Y-102701048D01*
X135021648Y-102640743D01*
X135176205Y-102610000D01*
X135333795Y-102610000D01*
X135488352Y-102640743D01*
X135488352Y-102640743D01*
G37*
G36*
X90169707Y-102041597D02*
X90246836Y-102049193D01*
X90357169Y-102082662D01*
X90444763Y-102109233D01*
X90627172Y-102206733D01*
X90787054Y-102337946D01*
X90918267Y-102497828D01*
X91015767Y-102680237D01*
X91015767Y-102680238D01*
X91075807Y-102878164D01*
X91096080Y-103084000D01*
X91075807Y-103289836D01*
X91063257Y-103331207D01*
X91015767Y-103487763D01*
X90918267Y-103670172D01*
X90787054Y-103830054D01*
X90627172Y-103961267D01*
X90444763Y-104058767D01*
X90397842Y-104073000D01*
X90246836Y-104118807D01*
X90169707Y-104126404D01*
X90092580Y-104134000D01*
X89739420Y-104134000D01*
X89662293Y-104126404D01*
X89585164Y-104118807D01*
X89434158Y-104073000D01*
X89387237Y-104058767D01*
X89204828Y-103961267D01*
X89044946Y-103830054D01*
X88913733Y-103670172D01*
X88816233Y-103487763D01*
X88768743Y-103331207D01*
X88756193Y-103289836D01*
X88735920Y-103084000D01*
X88756193Y-102878164D01*
X88816233Y-102680238D01*
X88816233Y-102680237D01*
X88913733Y-102497828D01*
X89044946Y-102337946D01*
X89204828Y-102206733D01*
X89387237Y-102109233D01*
X89474831Y-102082662D01*
X89585164Y-102049193D01*
X89662293Y-102041597D01*
X89739420Y-102034000D01*
X90092580Y-102034000D01*
X90169707Y-102041597D01*
X90169707Y-102041597D01*
G37*
G36*
X140944122Y-101946517D02*
X140992085Y-101961066D01*
X141036275Y-101984686D01*
X141075018Y-102016482D01*
X141106814Y-102055225D01*
X141130434Y-102099415D01*
X141144983Y-102147378D01*
X141150500Y-102203391D01*
X141150500Y-103028609D01*
X141144983Y-103084622D01*
X141130434Y-103132585D01*
X141106814Y-103176775D01*
X141075018Y-103215518D01*
X141036275Y-103247314D01*
X140992085Y-103270934D01*
X140944122Y-103285483D01*
X140888109Y-103291000D01*
X140137891Y-103291000D01*
X140081878Y-103285483D01*
X140033915Y-103270934D01*
X139989725Y-103247314D01*
X139950982Y-103215518D01*
X139919186Y-103176775D01*
X139895566Y-103132585D01*
X139881017Y-103084622D01*
X139875500Y-103028609D01*
X139875500Y-102203391D01*
X139881017Y-102147378D01*
X139895566Y-102099415D01*
X139919186Y-102055225D01*
X139950982Y-102016482D01*
X139989725Y-101984686D01*
X140033915Y-101961066D01*
X140081878Y-101946517D01*
X140137891Y-101941000D01*
X140888109Y-101941000D01*
X140944122Y-101946517D01*
X140944122Y-101946517D01*
G37*
G36*
X139369122Y-101946517D02*
X139417085Y-101961066D01*
X139461275Y-101984686D01*
X139500018Y-102016482D01*
X139531814Y-102055225D01*
X139555434Y-102099415D01*
X139569983Y-102147378D01*
X139575500Y-102203391D01*
X139575500Y-103028609D01*
X139569983Y-103084622D01*
X139555434Y-103132585D01*
X139531814Y-103176775D01*
X139500018Y-103215518D01*
X139461275Y-103247314D01*
X139417085Y-103270934D01*
X139369122Y-103285483D01*
X139313109Y-103291000D01*
X138562891Y-103291000D01*
X138506878Y-103285483D01*
X138458915Y-103270934D01*
X138414725Y-103247314D01*
X138375982Y-103215518D01*
X138344186Y-103176775D01*
X138320566Y-103132585D01*
X138306017Y-103084622D01*
X138300500Y-103028609D01*
X138300500Y-102203391D01*
X138306017Y-102147378D01*
X138320566Y-102099415D01*
X138344186Y-102055225D01*
X138375982Y-102016482D01*
X138414725Y-101984686D01*
X138458915Y-101961066D01*
X138506878Y-101946517D01*
X138562891Y-101941000D01*
X139313109Y-101941000D01*
X139369122Y-101946517D01*
X139369122Y-101946517D01*
G37*
G36*
X100409122Y-98746115D02*
X100525041Y-98769173D01*
X100672020Y-98830054D01*
X100835282Y-98897679D01*
X100852620Y-98904861D01*
X100937037Y-98961267D01*
X101147436Y-99101851D01*
X101398149Y-99352564D01*
X101398151Y-99352567D01*
X101595139Y-99647380D01*
X101726625Y-99964814D01*
X101730827Y-99974960D01*
X101800000Y-100322714D01*
X101800000Y-100677286D01*
X101777612Y-100789836D01*
X101730827Y-101025041D01*
X101651614Y-101216277D01*
X101595140Y-101352618D01*
X101398149Y-101647436D01*
X101147436Y-101898149D01*
X101147433Y-101898151D01*
X100852620Y-102095139D01*
X100525041Y-102230827D01*
X100409122Y-102253885D01*
X100177286Y-102300000D01*
X99822714Y-102300000D01*
X99590878Y-102253885D01*
X99474959Y-102230827D01*
X99147380Y-102095139D01*
X98852567Y-101898151D01*
X98852564Y-101898149D01*
X98601851Y-101647436D01*
X98404860Y-101352618D01*
X98348386Y-101216277D01*
X98269173Y-101025041D01*
X98222388Y-100789836D01*
X98200000Y-100677286D01*
X98200000Y-100322714D01*
X98269173Y-99974960D01*
X98273376Y-99964814D01*
X98404861Y-99647380D01*
X98601849Y-99352567D01*
X98601851Y-99352564D01*
X98852564Y-99101851D01*
X99062963Y-98961267D01*
X99147380Y-98904861D01*
X99164719Y-98897679D01*
X99327980Y-98830054D01*
X99474959Y-98769173D01*
X99590878Y-98746115D01*
X99822714Y-98700000D01*
X100177286Y-98700000D01*
X100409122Y-98746115D01*
X100409122Y-98746115D01*
G37*
G36*
X124409122Y-98746115D02*
X124525041Y-98769173D01*
X124672020Y-98830054D01*
X124835282Y-98897679D01*
X124852620Y-98904861D01*
X124937037Y-98961267D01*
X125147436Y-99101851D01*
X125398149Y-99352564D01*
X125398151Y-99352567D01*
X125595139Y-99647380D01*
X125726625Y-99964814D01*
X125730827Y-99974960D01*
X125800000Y-100322714D01*
X125800000Y-100677286D01*
X125777612Y-100789836D01*
X125730827Y-101025041D01*
X125651614Y-101216277D01*
X125595140Y-101352618D01*
X125398149Y-101647436D01*
X125147436Y-101898149D01*
X125147433Y-101898151D01*
X124852620Y-102095139D01*
X124525041Y-102230827D01*
X124409122Y-102253885D01*
X124177286Y-102300000D01*
X123822714Y-102300000D01*
X123590878Y-102253885D01*
X123474959Y-102230827D01*
X123147380Y-102095139D01*
X122852567Y-101898151D01*
X122852564Y-101898149D01*
X122601851Y-101647436D01*
X122404860Y-101352618D01*
X122348386Y-101216277D01*
X122269173Y-101025041D01*
X122222388Y-100789836D01*
X122200000Y-100677286D01*
X122200000Y-100322714D01*
X122269173Y-99974960D01*
X122273376Y-99964814D01*
X122404861Y-99647380D01*
X122601849Y-99352567D01*
X122601851Y-99352564D01*
X122852564Y-99101851D01*
X123062963Y-98961267D01*
X123147380Y-98904861D01*
X123164719Y-98897679D01*
X123327980Y-98830054D01*
X123474959Y-98769173D01*
X123590878Y-98746115D01*
X123822714Y-98700000D01*
X124177286Y-98700000D01*
X124409122Y-98746115D01*
X124409122Y-98746115D01*
G37*
G36*
X90169707Y-99541596D02*
X90246836Y-99549193D01*
X90378787Y-99589220D01*
X90444763Y-99609233D01*
X90627172Y-99706733D01*
X90787054Y-99837946D01*
X90918267Y-99997828D01*
X91015767Y-100180237D01*
X91015767Y-100180238D01*
X91075807Y-100378164D01*
X91096080Y-100584000D01*
X91075807Y-100789836D01*
X91035780Y-100921787D01*
X91015767Y-100987763D01*
X90918267Y-101170172D01*
X90787054Y-101330054D01*
X90627172Y-101461267D01*
X90444763Y-101558767D01*
X90378787Y-101578780D01*
X90246836Y-101618807D01*
X90169707Y-101626404D01*
X90092580Y-101634000D01*
X89739420Y-101634000D01*
X89662293Y-101626404D01*
X89585164Y-101618807D01*
X89453213Y-101578780D01*
X89387237Y-101558767D01*
X89204828Y-101461267D01*
X89044946Y-101330054D01*
X88913733Y-101170172D01*
X88816233Y-100987763D01*
X88796220Y-100921787D01*
X88756193Y-100789836D01*
X88735920Y-100584000D01*
X88756193Y-100378164D01*
X88816233Y-100180238D01*
X88816233Y-100180237D01*
X88913733Y-99997828D01*
X89044946Y-99837946D01*
X89204828Y-99706733D01*
X89387237Y-99609233D01*
X89453213Y-99589220D01*
X89585164Y-99549193D01*
X89662293Y-99541596D01*
X89739420Y-99534000D01*
X90092580Y-99534000D01*
X90169707Y-99541596D01*
X90169707Y-99541596D01*
G37*
G36*
X149520947Y-98427722D02*
X149784833Y-98537027D01*
X150022324Y-98695713D01*
X150224287Y-98897676D01*
X150382973Y-99135167D01*
X150492278Y-99399053D01*
X150548000Y-99679186D01*
X150548000Y-99964814D01*
X150492278Y-100244947D01*
X150382973Y-100508833D01*
X150224287Y-100746324D01*
X150022324Y-100948287D01*
X149784833Y-101106973D01*
X149520947Y-101216278D01*
X149240814Y-101272000D01*
X148955186Y-101272000D01*
X148675053Y-101216278D01*
X148411167Y-101106973D01*
X148173676Y-100948287D01*
X147971713Y-100746324D01*
X147813027Y-100508833D01*
X147703722Y-100244947D01*
X147648000Y-99964814D01*
X147648000Y-99679186D01*
X147703722Y-99399053D01*
X147813027Y-99135167D01*
X147971713Y-98897676D01*
X148173676Y-98695713D01*
X148411167Y-98537027D01*
X148675053Y-98427722D01*
X148955186Y-98372000D01*
X149240814Y-98372000D01*
X149520947Y-98427722D01*
X149520947Y-98427722D01*
G37*
G36*
X141850000Y-100194000D02*
X137550000Y-100194000D01*
X137550000Y-95894000D01*
X141850000Y-95894000D01*
X141850000Y-100194000D01*
X141850000Y-100194000D01*
G37*
G36*
X133850000Y-100194000D02*
X129550000Y-100194000D01*
X129550000Y-95894000D01*
X133850000Y-95894000D01*
X133850000Y-100194000D01*
X133850000Y-100194000D01*
G37*
G36*
X90169707Y-97041596D02*
X90246836Y-97049193D01*
X90378787Y-97089220D01*
X90444763Y-97109233D01*
X90627172Y-97206733D01*
X90787054Y-97337946D01*
X90918267Y-97497828D01*
X91015767Y-97680237D01*
X91015767Y-97680238D01*
X91075807Y-97878164D01*
X91096080Y-98084000D01*
X91075807Y-98289836D01*
X91050883Y-98372000D01*
X91015767Y-98487763D01*
X90918267Y-98670172D01*
X90787054Y-98830054D01*
X90627172Y-98961267D01*
X90444763Y-99058767D01*
X90378787Y-99078780D01*
X90246836Y-99118807D01*
X90169707Y-99126404D01*
X90092580Y-99134000D01*
X89739420Y-99134000D01*
X89662293Y-99126403D01*
X89585164Y-99118807D01*
X89453213Y-99078780D01*
X89387237Y-99058767D01*
X89204828Y-98961267D01*
X89044946Y-98830054D01*
X88913733Y-98670172D01*
X88816233Y-98487763D01*
X88781117Y-98372000D01*
X88756193Y-98289836D01*
X88735920Y-98084000D01*
X88756193Y-97878164D01*
X88816233Y-97680238D01*
X88816233Y-97680237D01*
X88913733Y-97497828D01*
X89044946Y-97337946D01*
X89204828Y-97206733D01*
X89387237Y-97109233D01*
X89453213Y-97089220D01*
X89585164Y-97049193D01*
X89662293Y-97041597D01*
X89739420Y-97034000D01*
X90092580Y-97034000D01*
X90169707Y-97041596D01*
X90169707Y-97041596D01*
G37*
G36*
X118358707Y-92227596D02*
X118435836Y-92235193D01*
X118567787Y-92275220D01*
X118633763Y-92295233D01*
X118816172Y-92392733D01*
X118976054Y-92523946D01*
X119107267Y-92683828D01*
X119204767Y-92866237D01*
X119204767Y-92866238D01*
X119264807Y-93064164D01*
X119285080Y-93270000D01*
X119264807Y-93475836D01*
X119228617Y-93595139D01*
X119204767Y-93673763D01*
X119107267Y-93856172D01*
X118976054Y-94016054D01*
X118816172Y-94147267D01*
X118633763Y-94244767D01*
X118567787Y-94264780D01*
X118435836Y-94304807D01*
X118358707Y-94312403D01*
X118281580Y-94320000D01*
X118178420Y-94320000D01*
X118101293Y-94312404D01*
X118024164Y-94304807D01*
X117892213Y-94264780D01*
X117826237Y-94244767D01*
X117643828Y-94147267D01*
X117483946Y-94016054D01*
X117352733Y-93856172D01*
X117255233Y-93673763D01*
X117231383Y-93595139D01*
X117195193Y-93475836D01*
X117174920Y-93270000D01*
X117195193Y-93064164D01*
X117255233Y-92866238D01*
X117255233Y-92866237D01*
X117352733Y-92683828D01*
X117483946Y-92523946D01*
X117643828Y-92392733D01*
X117826237Y-92295233D01*
X117892213Y-92275220D01*
X118024164Y-92235193D01*
X118101293Y-92227596D01*
X118178420Y-92220000D01*
X118281580Y-92220000D01*
X118358707Y-92227596D01*
X118358707Y-92227596D01*
G37*
G36*
X103118707Y-92227596D02*
X103195836Y-92235193D01*
X103327787Y-92275220D01*
X103393763Y-92295233D01*
X103576172Y-92392733D01*
X103736054Y-92523946D01*
X103867267Y-92683828D01*
X103964767Y-92866237D01*
X103964767Y-92866238D01*
X104024807Y-93064164D01*
X104045080Y-93270000D01*
X104024807Y-93475836D01*
X103988617Y-93595139D01*
X103964767Y-93673763D01*
X103867267Y-93856172D01*
X103736054Y-94016054D01*
X103576172Y-94147267D01*
X103393763Y-94244767D01*
X103327787Y-94264780D01*
X103195836Y-94304807D01*
X103118707Y-94312404D01*
X103041580Y-94320000D01*
X102938420Y-94320000D01*
X102861293Y-94312404D01*
X102784164Y-94304807D01*
X102652213Y-94264780D01*
X102586237Y-94244767D01*
X102403828Y-94147267D01*
X102243946Y-94016054D01*
X102112733Y-93856172D01*
X102015233Y-93673763D01*
X101991383Y-93595139D01*
X101955193Y-93475836D01*
X101934920Y-93270000D01*
X101955193Y-93064164D01*
X102015233Y-92866238D01*
X102015233Y-92866237D01*
X102112733Y-92683828D01*
X102243946Y-92523946D01*
X102403828Y-92392733D01*
X102586237Y-92295233D01*
X102652213Y-92275220D01*
X102784164Y-92235193D01*
X102861293Y-92227596D01*
X102938420Y-92220000D01*
X103041580Y-92220000D01*
X103118707Y-92227596D01*
X103118707Y-92227596D01*
G37*
G36*
X131058707Y-92227596D02*
X131135836Y-92235193D01*
X131267787Y-92275220D01*
X131333763Y-92295233D01*
X131516172Y-92392733D01*
X131676054Y-92523946D01*
X131807267Y-92683828D01*
X131904767Y-92866237D01*
X131904767Y-92866238D01*
X131964807Y-93064164D01*
X131985080Y-93270000D01*
X131964807Y-93475836D01*
X131928617Y-93595139D01*
X131904767Y-93673763D01*
X131807267Y-93856172D01*
X131676054Y-94016054D01*
X131516172Y-94147267D01*
X131333763Y-94244767D01*
X131267787Y-94264780D01*
X131135836Y-94304807D01*
X131058707Y-94312403D01*
X130981580Y-94320000D01*
X130878420Y-94320000D01*
X130801293Y-94312404D01*
X130724164Y-94304807D01*
X130592213Y-94264780D01*
X130526237Y-94244767D01*
X130343828Y-94147267D01*
X130183946Y-94016054D01*
X130052733Y-93856172D01*
X129955233Y-93673763D01*
X129931383Y-93595139D01*
X129895193Y-93475836D01*
X129874920Y-93270000D01*
X129895193Y-93064164D01*
X129955233Y-92866238D01*
X129955233Y-92866237D01*
X130052733Y-92683828D01*
X130183946Y-92523946D01*
X130343828Y-92392733D01*
X130526237Y-92295233D01*
X130592213Y-92275220D01*
X130724164Y-92235193D01*
X130801293Y-92227596D01*
X130878420Y-92220000D01*
X130981580Y-92220000D01*
X131058707Y-92227596D01*
X131058707Y-92227596D01*
G37*
G36*
X100578707Y-92227596D02*
X100655836Y-92235193D01*
X100787787Y-92275220D01*
X100853763Y-92295233D01*
X101036172Y-92392733D01*
X101196054Y-92523946D01*
X101327267Y-92683828D01*
X101424767Y-92866237D01*
X101424767Y-92866238D01*
X101484807Y-93064164D01*
X101505080Y-93270000D01*
X101484807Y-93475836D01*
X101448617Y-93595139D01*
X101424767Y-93673763D01*
X101327267Y-93856172D01*
X101196054Y-94016054D01*
X101036172Y-94147267D01*
X100853763Y-94244767D01*
X100787787Y-94264780D01*
X100655836Y-94304807D01*
X100578707Y-94312404D01*
X100501580Y-94320000D01*
X100398420Y-94320000D01*
X100321293Y-94312404D01*
X100244164Y-94304807D01*
X100112213Y-94264780D01*
X100046237Y-94244767D01*
X99863828Y-94147267D01*
X99703946Y-94016054D01*
X99572733Y-93856172D01*
X99475233Y-93673763D01*
X99451383Y-93595139D01*
X99415193Y-93475836D01*
X99394920Y-93270000D01*
X99415193Y-93064164D01*
X99475233Y-92866238D01*
X99475233Y-92866237D01*
X99572733Y-92683828D01*
X99703946Y-92523946D01*
X99863828Y-92392733D01*
X100046237Y-92295233D01*
X100112213Y-92275220D01*
X100244164Y-92235193D01*
X100321293Y-92227596D01*
X100398420Y-92220000D01*
X100501580Y-92220000D01*
X100578707Y-92227596D01*
X100578707Y-92227596D01*
G37*
G36*
X98038707Y-92227596D02*
X98115836Y-92235193D01*
X98247787Y-92275220D01*
X98313763Y-92295233D01*
X98496172Y-92392733D01*
X98656054Y-92523946D01*
X98787267Y-92683828D01*
X98884767Y-92866237D01*
X98884767Y-92866238D01*
X98944807Y-93064164D01*
X98965080Y-93270000D01*
X98944807Y-93475836D01*
X98908617Y-93595139D01*
X98884767Y-93673763D01*
X98787267Y-93856172D01*
X98656054Y-94016054D01*
X98496172Y-94147267D01*
X98313763Y-94244767D01*
X98247787Y-94264780D01*
X98115836Y-94304807D01*
X98038707Y-94312404D01*
X97961580Y-94320000D01*
X97858420Y-94320000D01*
X97781293Y-94312404D01*
X97704164Y-94304807D01*
X97572213Y-94264780D01*
X97506237Y-94244767D01*
X97323828Y-94147267D01*
X97163946Y-94016054D01*
X97032733Y-93856172D01*
X96935233Y-93673763D01*
X96911383Y-93595139D01*
X96875193Y-93475836D01*
X96854920Y-93270000D01*
X96875193Y-93064164D01*
X96935233Y-92866238D01*
X96935233Y-92866237D01*
X97032733Y-92683828D01*
X97163946Y-92523946D01*
X97323828Y-92392733D01*
X97506237Y-92295233D01*
X97572213Y-92275220D01*
X97704164Y-92235193D01*
X97781293Y-92227596D01*
X97858420Y-92220000D01*
X97961580Y-92220000D01*
X98038707Y-92227596D01*
X98038707Y-92227596D01*
G37*
G36*
X96420000Y-94320000D02*
X94320000Y-94320000D01*
X94320000Y-92220000D01*
X96420000Y-92220000D01*
X96420000Y-94320000D01*
X96420000Y-94320000D01*
G37*
G36*
X105658707Y-92227596D02*
X105735836Y-92235193D01*
X105867787Y-92275220D01*
X105933763Y-92295233D01*
X106116172Y-92392733D01*
X106276054Y-92523946D01*
X106407267Y-92683828D01*
X106504767Y-92866237D01*
X106504767Y-92866238D01*
X106564807Y-93064164D01*
X106585080Y-93270000D01*
X106564807Y-93475836D01*
X106528617Y-93595139D01*
X106504767Y-93673763D01*
X106407267Y-93856172D01*
X106276054Y-94016054D01*
X106116172Y-94147267D01*
X105933763Y-94244767D01*
X105867787Y-94264780D01*
X105735836Y-94304807D01*
X105658707Y-94312404D01*
X105581580Y-94320000D01*
X105478420Y-94320000D01*
X105401293Y-94312404D01*
X105324164Y-94304807D01*
X105192213Y-94264780D01*
X105126237Y-94244767D01*
X104943828Y-94147267D01*
X104783946Y-94016054D01*
X104652733Y-93856172D01*
X104555233Y-93673763D01*
X104531383Y-93595139D01*
X104495193Y-93475836D01*
X104474920Y-93270000D01*
X104495193Y-93064164D01*
X104555233Y-92866238D01*
X104555233Y-92866237D01*
X104652733Y-92683828D01*
X104783946Y-92523946D01*
X104943828Y-92392733D01*
X105126237Y-92295233D01*
X105192213Y-92275220D01*
X105324164Y-92235193D01*
X105401293Y-92227596D01*
X105478420Y-92220000D01*
X105581580Y-92220000D01*
X105658707Y-92227596D01*
X105658707Y-92227596D01*
G37*
G36*
X108198707Y-92227596D02*
X108275836Y-92235193D01*
X108407787Y-92275220D01*
X108473763Y-92295233D01*
X108656172Y-92392733D01*
X108816054Y-92523946D01*
X108947267Y-92683828D01*
X109044767Y-92866237D01*
X109044767Y-92866238D01*
X109104807Y-93064164D01*
X109125080Y-93270000D01*
X109104807Y-93475836D01*
X109068617Y-93595139D01*
X109044767Y-93673763D01*
X108947267Y-93856172D01*
X108816054Y-94016054D01*
X108656172Y-94147267D01*
X108473763Y-94244767D01*
X108407787Y-94264780D01*
X108275836Y-94304807D01*
X108198707Y-94312404D01*
X108121580Y-94320000D01*
X108018420Y-94320000D01*
X107941293Y-94312404D01*
X107864164Y-94304807D01*
X107732213Y-94264780D01*
X107666237Y-94244767D01*
X107483828Y-94147267D01*
X107323946Y-94016054D01*
X107192733Y-93856172D01*
X107095233Y-93673763D01*
X107071383Y-93595139D01*
X107035193Y-93475836D01*
X107014920Y-93270000D01*
X107035193Y-93064164D01*
X107095233Y-92866238D01*
X107095233Y-92866237D01*
X107192733Y-92683828D01*
X107323946Y-92523946D01*
X107483828Y-92392733D01*
X107666237Y-92295233D01*
X107732213Y-92275220D01*
X107864164Y-92235193D01*
X107941293Y-92227596D01*
X108018420Y-92220000D01*
X108121580Y-92220000D01*
X108198707Y-92227596D01*
X108198707Y-92227596D01*
G37*
G36*
X110738707Y-92227596D02*
X110815836Y-92235193D01*
X110947787Y-92275220D01*
X111013763Y-92295233D01*
X111196172Y-92392733D01*
X111356054Y-92523946D01*
X111487267Y-92683828D01*
X111584767Y-92866237D01*
X111584767Y-92866238D01*
X111644807Y-93064164D01*
X111665080Y-93270000D01*
X111644807Y-93475836D01*
X111608617Y-93595139D01*
X111584767Y-93673763D01*
X111487267Y-93856172D01*
X111356054Y-94016054D01*
X111196172Y-94147267D01*
X111013763Y-94244767D01*
X110947787Y-94264780D01*
X110815836Y-94304807D01*
X110738707Y-94312404D01*
X110661580Y-94320000D01*
X110558420Y-94320000D01*
X110481293Y-94312404D01*
X110404164Y-94304807D01*
X110272213Y-94264780D01*
X110206237Y-94244767D01*
X110023828Y-94147267D01*
X109863946Y-94016054D01*
X109732733Y-93856172D01*
X109635233Y-93673763D01*
X109611383Y-93595139D01*
X109575193Y-93475836D01*
X109554920Y-93270000D01*
X109575193Y-93064164D01*
X109635233Y-92866238D01*
X109635233Y-92866237D01*
X109732733Y-92683828D01*
X109863946Y-92523946D01*
X110023828Y-92392733D01*
X110206237Y-92295233D01*
X110272213Y-92275220D01*
X110404164Y-92235193D01*
X110481293Y-92227596D01*
X110558420Y-92220000D01*
X110661580Y-92220000D01*
X110738707Y-92227596D01*
X110738707Y-92227596D01*
G37*
G36*
X113278707Y-92227596D02*
X113355836Y-92235193D01*
X113487787Y-92275220D01*
X113553763Y-92295233D01*
X113736172Y-92392733D01*
X113896054Y-92523946D01*
X114027267Y-92683828D01*
X114124767Y-92866237D01*
X114124767Y-92866238D01*
X114184807Y-93064164D01*
X114205080Y-93270000D01*
X114184807Y-93475836D01*
X114148617Y-93595139D01*
X114124767Y-93673763D01*
X114027267Y-93856172D01*
X113896054Y-94016054D01*
X113736172Y-94147267D01*
X113553763Y-94244767D01*
X113487787Y-94264780D01*
X113355836Y-94304807D01*
X113278707Y-94312404D01*
X113201580Y-94320000D01*
X113098420Y-94320000D01*
X113021293Y-94312404D01*
X112944164Y-94304807D01*
X112812213Y-94264780D01*
X112746237Y-94244767D01*
X112563828Y-94147267D01*
X112403946Y-94016054D01*
X112272733Y-93856172D01*
X112175233Y-93673763D01*
X112151383Y-93595139D01*
X112115193Y-93475836D01*
X112094920Y-93270000D01*
X112115193Y-93064164D01*
X112175233Y-92866238D01*
X112175233Y-92866237D01*
X112272733Y-92683828D01*
X112403946Y-92523946D01*
X112563828Y-92392733D01*
X112746237Y-92295233D01*
X112812213Y-92275220D01*
X112944164Y-92235193D01*
X113021293Y-92227596D01*
X113098420Y-92220000D01*
X113201580Y-92220000D01*
X113278707Y-92227596D01*
X113278707Y-92227596D01*
G37*
G36*
X125978707Y-92227596D02*
X126055836Y-92235193D01*
X126187787Y-92275220D01*
X126253763Y-92295233D01*
X126436172Y-92392733D01*
X126596054Y-92523946D01*
X126727267Y-92683828D01*
X126824767Y-92866237D01*
X126824767Y-92866238D01*
X126884807Y-93064164D01*
X126905080Y-93270000D01*
X126884807Y-93475836D01*
X126848617Y-93595139D01*
X126824767Y-93673763D01*
X126727267Y-93856172D01*
X126596054Y-94016054D01*
X126436172Y-94147267D01*
X126253763Y-94244767D01*
X126187787Y-94264780D01*
X126055836Y-94304807D01*
X125978707Y-94312403D01*
X125901580Y-94320000D01*
X125798420Y-94320000D01*
X125721293Y-94312404D01*
X125644164Y-94304807D01*
X125512213Y-94264780D01*
X125446237Y-94244767D01*
X125263828Y-94147267D01*
X125103946Y-94016054D01*
X124972733Y-93856172D01*
X124875233Y-93673763D01*
X124851383Y-93595139D01*
X124815193Y-93475836D01*
X124794920Y-93270000D01*
X124815193Y-93064164D01*
X124875233Y-92866238D01*
X124875233Y-92866237D01*
X124972733Y-92683828D01*
X125103946Y-92523946D01*
X125263828Y-92392733D01*
X125446237Y-92295233D01*
X125512213Y-92275220D01*
X125644164Y-92235193D01*
X125721293Y-92227596D01*
X125798420Y-92220000D01*
X125901580Y-92220000D01*
X125978707Y-92227596D01*
X125978707Y-92227596D01*
G37*
G36*
X115818707Y-92227596D02*
X115895836Y-92235193D01*
X116027787Y-92275220D01*
X116093763Y-92295233D01*
X116276172Y-92392733D01*
X116436054Y-92523946D01*
X116567267Y-92683828D01*
X116664767Y-92866237D01*
X116664767Y-92866238D01*
X116724807Y-93064164D01*
X116745080Y-93270000D01*
X116724807Y-93475836D01*
X116688617Y-93595139D01*
X116664767Y-93673763D01*
X116567267Y-93856172D01*
X116436054Y-94016054D01*
X116276172Y-94147267D01*
X116093763Y-94244767D01*
X116027787Y-94264780D01*
X115895836Y-94304807D01*
X115818707Y-94312404D01*
X115741580Y-94320000D01*
X115638420Y-94320000D01*
X115561293Y-94312404D01*
X115484164Y-94304807D01*
X115352213Y-94264780D01*
X115286237Y-94244767D01*
X115103828Y-94147267D01*
X114943946Y-94016054D01*
X114812733Y-93856172D01*
X114715233Y-93673763D01*
X114691383Y-93595139D01*
X114655193Y-93475836D01*
X114634920Y-93270000D01*
X114655193Y-93064164D01*
X114715233Y-92866238D01*
X114715233Y-92866237D01*
X114812733Y-92683828D01*
X114943946Y-92523946D01*
X115103828Y-92392733D01*
X115286237Y-92295233D01*
X115352213Y-92275220D01*
X115484164Y-92235193D01*
X115561293Y-92227596D01*
X115638420Y-92220000D01*
X115741580Y-92220000D01*
X115818707Y-92227596D01*
X115818707Y-92227596D01*
G37*
G36*
X143758707Y-92227596D02*
X143835836Y-92235193D01*
X143967787Y-92275220D01*
X144033763Y-92295233D01*
X144216172Y-92392733D01*
X144376054Y-92523946D01*
X144507267Y-92683828D01*
X144604767Y-92866237D01*
X144604767Y-92866238D01*
X144664807Y-93064164D01*
X144685080Y-93270000D01*
X144664807Y-93475836D01*
X144628617Y-93595139D01*
X144604767Y-93673763D01*
X144507267Y-93856172D01*
X144376054Y-94016054D01*
X144216172Y-94147267D01*
X144033763Y-94244767D01*
X143967787Y-94264780D01*
X143835836Y-94304807D01*
X143758707Y-94312403D01*
X143681580Y-94320000D01*
X143578420Y-94320000D01*
X143501293Y-94312404D01*
X143424164Y-94304807D01*
X143292213Y-94264780D01*
X143226237Y-94244767D01*
X143043828Y-94147267D01*
X142883946Y-94016054D01*
X142752733Y-93856172D01*
X142655233Y-93673763D01*
X142631383Y-93595139D01*
X142595193Y-93475836D01*
X142574920Y-93270000D01*
X142595193Y-93064164D01*
X142655233Y-92866238D01*
X142655233Y-92866237D01*
X142752733Y-92683828D01*
X142883946Y-92523946D01*
X143043828Y-92392733D01*
X143226237Y-92295233D01*
X143292213Y-92275220D01*
X143424164Y-92235193D01*
X143501293Y-92227597D01*
X143578420Y-92220000D01*
X143681580Y-92220000D01*
X143758707Y-92227596D01*
X143758707Y-92227596D01*
G37*
G36*
X141218707Y-92227596D02*
X141295836Y-92235193D01*
X141427787Y-92275220D01*
X141493763Y-92295233D01*
X141676172Y-92392733D01*
X141836054Y-92523946D01*
X141967267Y-92683828D01*
X142064767Y-92866237D01*
X142064767Y-92866238D01*
X142124807Y-93064164D01*
X142145080Y-93270000D01*
X142124807Y-93475836D01*
X142088617Y-93595139D01*
X142064767Y-93673763D01*
X141967267Y-93856172D01*
X141836054Y-94016054D01*
X141676172Y-94147267D01*
X141493763Y-94244767D01*
X141427787Y-94264780D01*
X141295836Y-94304807D01*
X141218707Y-94312403D01*
X141141580Y-94320000D01*
X141038420Y-94320000D01*
X140961293Y-94312404D01*
X140884164Y-94304807D01*
X140752213Y-94264780D01*
X140686237Y-94244767D01*
X140503828Y-94147267D01*
X140343946Y-94016054D01*
X140212733Y-93856172D01*
X140115233Y-93673763D01*
X140091383Y-93595139D01*
X140055193Y-93475836D01*
X140034920Y-93270000D01*
X140055193Y-93064164D01*
X140115233Y-92866238D01*
X140115233Y-92866237D01*
X140212733Y-92683828D01*
X140343946Y-92523946D01*
X140503828Y-92392733D01*
X140686237Y-92295233D01*
X140752213Y-92275220D01*
X140884164Y-92235193D01*
X140961293Y-92227597D01*
X141038420Y-92220000D01*
X141141580Y-92220000D01*
X141218707Y-92227596D01*
X141218707Y-92227596D01*
G37*
G36*
X138678707Y-92227596D02*
X138755836Y-92235193D01*
X138887787Y-92275220D01*
X138953763Y-92295233D01*
X139136172Y-92392733D01*
X139296054Y-92523946D01*
X139427267Y-92683828D01*
X139524767Y-92866237D01*
X139524767Y-92866238D01*
X139584807Y-93064164D01*
X139605080Y-93270000D01*
X139584807Y-93475836D01*
X139548617Y-93595139D01*
X139524767Y-93673763D01*
X139427267Y-93856172D01*
X139296054Y-94016054D01*
X139136172Y-94147267D01*
X138953763Y-94244767D01*
X138887787Y-94264780D01*
X138755836Y-94304807D01*
X138678707Y-94312403D01*
X138601580Y-94320000D01*
X138498420Y-94320000D01*
X138421293Y-94312404D01*
X138344164Y-94304807D01*
X138212213Y-94264780D01*
X138146237Y-94244767D01*
X137963828Y-94147267D01*
X137803946Y-94016054D01*
X137672733Y-93856172D01*
X137575233Y-93673763D01*
X137551383Y-93595139D01*
X137515193Y-93475836D01*
X137494920Y-93270000D01*
X137515193Y-93064164D01*
X137575233Y-92866238D01*
X137575233Y-92866237D01*
X137672733Y-92683828D01*
X137803946Y-92523946D01*
X137963828Y-92392733D01*
X138146237Y-92295233D01*
X138212213Y-92275220D01*
X138344164Y-92235193D01*
X138421293Y-92227597D01*
X138498420Y-92220000D01*
X138601580Y-92220000D01*
X138678707Y-92227596D01*
X138678707Y-92227596D01*
G37*
G36*
X136138707Y-92227596D02*
X136215836Y-92235193D01*
X136347787Y-92275220D01*
X136413763Y-92295233D01*
X136596172Y-92392733D01*
X136756054Y-92523946D01*
X136887267Y-92683828D01*
X136984767Y-92866237D01*
X136984767Y-92866238D01*
X137044807Y-93064164D01*
X137065080Y-93270000D01*
X137044807Y-93475836D01*
X137008617Y-93595139D01*
X136984767Y-93673763D01*
X136887267Y-93856172D01*
X136756054Y-94016054D01*
X136596172Y-94147267D01*
X136413763Y-94244767D01*
X136347787Y-94264780D01*
X136215836Y-94304807D01*
X136138707Y-94312403D01*
X136061580Y-94320000D01*
X135958420Y-94320000D01*
X135881293Y-94312404D01*
X135804164Y-94304807D01*
X135672213Y-94264780D01*
X135606237Y-94244767D01*
X135423828Y-94147267D01*
X135263946Y-94016054D01*
X135132733Y-93856172D01*
X135035233Y-93673763D01*
X135011383Y-93595139D01*
X134975193Y-93475836D01*
X134954920Y-93270000D01*
X134975193Y-93064164D01*
X135035233Y-92866238D01*
X135035233Y-92866237D01*
X135132733Y-92683828D01*
X135263946Y-92523946D01*
X135423828Y-92392733D01*
X135606237Y-92295233D01*
X135672213Y-92275220D01*
X135804164Y-92235193D01*
X135881293Y-92227596D01*
X135958420Y-92220000D01*
X136061580Y-92220000D01*
X136138707Y-92227596D01*
X136138707Y-92227596D01*
G37*
G36*
X133598707Y-92227596D02*
X133675836Y-92235193D01*
X133807787Y-92275220D01*
X133873763Y-92295233D01*
X134056172Y-92392733D01*
X134216054Y-92523946D01*
X134347267Y-92683828D01*
X134444767Y-92866237D01*
X134444767Y-92866238D01*
X134504807Y-93064164D01*
X134525080Y-93270000D01*
X134504807Y-93475836D01*
X134468617Y-93595139D01*
X134444767Y-93673763D01*
X134347267Y-93856172D01*
X134216054Y-94016054D01*
X134056172Y-94147267D01*
X133873763Y-94244767D01*
X133807787Y-94264780D01*
X133675836Y-94304807D01*
X133598707Y-94312403D01*
X133521580Y-94320000D01*
X133418420Y-94320000D01*
X133341293Y-94312404D01*
X133264164Y-94304807D01*
X133132213Y-94264780D01*
X133066237Y-94244767D01*
X132883828Y-94147267D01*
X132723946Y-94016054D01*
X132592733Y-93856172D01*
X132495233Y-93673763D01*
X132471383Y-93595139D01*
X132435193Y-93475836D01*
X132414920Y-93270000D01*
X132435193Y-93064164D01*
X132495233Y-92866238D01*
X132495233Y-92866237D01*
X132592733Y-92683828D01*
X132723946Y-92523946D01*
X132883828Y-92392733D01*
X133066237Y-92295233D01*
X133132213Y-92275220D01*
X133264164Y-92235193D01*
X133341293Y-92227596D01*
X133418420Y-92220000D01*
X133521580Y-92220000D01*
X133598707Y-92227596D01*
X133598707Y-92227596D01*
G37*
G36*
X128518707Y-92227596D02*
X128595836Y-92235193D01*
X128727787Y-92275220D01*
X128793763Y-92295233D01*
X128976172Y-92392733D01*
X129136054Y-92523946D01*
X129267267Y-92683828D01*
X129364767Y-92866237D01*
X129364767Y-92866238D01*
X129424807Y-93064164D01*
X129445080Y-93270000D01*
X129424807Y-93475836D01*
X129388617Y-93595139D01*
X129364767Y-93673763D01*
X129267267Y-93856172D01*
X129136054Y-94016054D01*
X128976172Y-94147267D01*
X128793763Y-94244767D01*
X128727787Y-94264780D01*
X128595836Y-94304807D01*
X128518707Y-94312403D01*
X128441580Y-94320000D01*
X128338420Y-94320000D01*
X128261293Y-94312404D01*
X128184164Y-94304807D01*
X128052213Y-94264780D01*
X127986237Y-94244767D01*
X127803828Y-94147267D01*
X127643946Y-94016054D01*
X127512733Y-93856172D01*
X127415233Y-93673763D01*
X127391383Y-93595139D01*
X127355193Y-93475836D01*
X127334920Y-93270000D01*
X127355193Y-93064164D01*
X127415233Y-92866238D01*
X127415233Y-92866237D01*
X127512733Y-92683828D01*
X127643946Y-92523946D01*
X127803828Y-92392733D01*
X127986237Y-92295233D01*
X128052213Y-92275220D01*
X128184164Y-92235193D01*
X128261293Y-92227596D01*
X128338420Y-92220000D01*
X128441580Y-92220000D01*
X128518707Y-92227596D01*
X128518707Y-92227596D01*
G37*
G36*
X123438707Y-92227596D02*
X123515836Y-92235193D01*
X123647787Y-92275220D01*
X123713763Y-92295233D01*
X123896172Y-92392733D01*
X124056054Y-92523946D01*
X124187267Y-92683828D01*
X124284767Y-92866237D01*
X124284767Y-92866238D01*
X124344807Y-93064164D01*
X124365080Y-93270000D01*
X124344807Y-93475836D01*
X124308617Y-93595139D01*
X124284767Y-93673763D01*
X124187267Y-93856172D01*
X124056054Y-94016054D01*
X123896172Y-94147267D01*
X123713763Y-94244767D01*
X123647787Y-94264780D01*
X123515836Y-94304807D01*
X123438707Y-94312403D01*
X123361580Y-94320000D01*
X123258420Y-94320000D01*
X123181293Y-94312404D01*
X123104164Y-94304807D01*
X122972213Y-94264780D01*
X122906237Y-94244767D01*
X122723828Y-94147267D01*
X122563946Y-94016054D01*
X122432733Y-93856172D01*
X122335233Y-93673763D01*
X122311383Y-93595139D01*
X122275193Y-93475836D01*
X122254920Y-93270000D01*
X122275193Y-93064164D01*
X122335233Y-92866238D01*
X122335233Y-92866237D01*
X122432733Y-92683828D01*
X122563946Y-92523946D01*
X122723828Y-92392733D01*
X122906237Y-92295233D01*
X122972213Y-92275220D01*
X123104164Y-92235193D01*
X123181293Y-92227596D01*
X123258420Y-92220000D01*
X123361580Y-92220000D01*
X123438707Y-92227596D01*
X123438707Y-92227596D01*
G37*
G36*
X120898707Y-92227596D02*
X120975836Y-92235193D01*
X121107787Y-92275220D01*
X121173763Y-92295233D01*
X121356172Y-92392733D01*
X121516054Y-92523946D01*
X121647267Y-92683828D01*
X121744767Y-92866237D01*
X121744767Y-92866238D01*
X121804807Y-93064164D01*
X121825080Y-93270000D01*
X121804807Y-93475836D01*
X121768617Y-93595139D01*
X121744767Y-93673763D01*
X121647267Y-93856172D01*
X121516054Y-94016054D01*
X121356172Y-94147267D01*
X121173763Y-94244767D01*
X121107787Y-94264780D01*
X120975836Y-94304807D01*
X120898707Y-94312403D01*
X120821580Y-94320000D01*
X120718420Y-94320000D01*
X120641293Y-94312404D01*
X120564164Y-94304807D01*
X120432213Y-94264780D01*
X120366237Y-94244767D01*
X120183828Y-94147267D01*
X120023946Y-94016054D01*
X119892733Y-93856172D01*
X119795233Y-93673763D01*
X119771383Y-93595139D01*
X119735193Y-93475836D01*
X119714920Y-93270000D01*
X119735193Y-93064164D01*
X119795233Y-92866238D01*
X119795233Y-92866237D01*
X119892733Y-92683828D01*
X120023946Y-92523946D01*
X120183828Y-92392733D01*
X120366237Y-92295233D01*
X120432213Y-92275220D01*
X120564164Y-92235193D01*
X120641293Y-92227596D01*
X120718420Y-92220000D01*
X120821580Y-92220000D01*
X120898707Y-92227596D01*
X120898707Y-92227596D01*
G37*
G36*
X90909122Y-90246115D02*
X91025041Y-90269173D01*
X91352620Y-90404861D01*
X91531169Y-90524164D01*
X91647436Y-90601851D01*
X91898149Y-90852564D01*
X91898151Y-90852567D01*
X92086040Y-91133762D01*
X92095140Y-91147382D01*
X92230827Y-91474960D01*
X92300000Y-91822714D01*
X92300000Y-92177286D01*
X92276539Y-92295233D01*
X92230827Y-92525041D01*
X92095139Y-92852620D01*
X91953790Y-93064164D01*
X91898149Y-93147436D01*
X91647436Y-93398149D01*
X91647433Y-93398151D01*
X91352620Y-93595139D01*
X91025041Y-93730827D01*
X90909122Y-93753885D01*
X90677286Y-93800000D01*
X90322714Y-93800000D01*
X90090878Y-93753885D01*
X89974959Y-93730827D01*
X89647380Y-93595139D01*
X89352567Y-93398151D01*
X89352564Y-93398149D01*
X89101851Y-93147436D01*
X89046210Y-93064164D01*
X88904861Y-92852620D01*
X88769173Y-92525041D01*
X88723461Y-92295233D01*
X88700000Y-92177286D01*
X88700000Y-91822714D01*
X88769173Y-91474960D01*
X88904860Y-91147382D01*
X88913961Y-91133762D01*
X89101849Y-90852567D01*
X89101851Y-90852564D01*
X89352564Y-90601851D01*
X89468831Y-90524164D01*
X89647380Y-90404861D01*
X89974959Y-90269173D01*
X90090878Y-90246115D01*
X90322714Y-90200000D01*
X90677286Y-90200000D01*
X90909122Y-90246115D01*
X90909122Y-90246115D01*
G37*
G36*
X148909122Y-90246115D02*
X149025041Y-90269173D01*
X149352620Y-90404861D01*
X149531169Y-90524164D01*
X149647436Y-90601851D01*
X149898149Y-90852564D01*
X149898151Y-90852567D01*
X150086040Y-91133762D01*
X150095140Y-91147382D01*
X150230827Y-91474960D01*
X150300000Y-91822714D01*
X150300000Y-92177286D01*
X150276539Y-92295233D01*
X150230827Y-92525041D01*
X150095139Y-92852620D01*
X149953790Y-93064164D01*
X149898149Y-93147436D01*
X149647436Y-93398149D01*
X149647433Y-93398151D01*
X149352620Y-93595139D01*
X149025041Y-93730827D01*
X148909122Y-93753885D01*
X148677286Y-93800000D01*
X148322714Y-93800000D01*
X148090878Y-93753885D01*
X147974959Y-93730827D01*
X147647380Y-93595139D01*
X147352567Y-93398151D01*
X147352564Y-93398149D01*
X147101851Y-93147436D01*
X147046210Y-93064164D01*
X146904861Y-92852620D01*
X146769173Y-92525041D01*
X146723461Y-92295233D01*
X146700000Y-92177286D01*
X146700000Y-91822714D01*
X146769173Y-91474960D01*
X146904860Y-91147382D01*
X146913961Y-91133762D01*
X147101849Y-90852567D01*
X147101851Y-90852564D01*
X147352564Y-90601851D01*
X147468831Y-90524164D01*
X147647380Y-90404861D01*
X147974959Y-90269173D01*
X148090878Y-90246115D01*
X148322714Y-90200000D01*
X148677286Y-90200000D01*
X148909122Y-90246115D01*
X148909122Y-90246115D01*
G37*
G36*
X100578707Y-89687596D02*
X100655836Y-89695193D01*
X100787787Y-89735220D01*
X100853763Y-89755233D01*
X101036172Y-89852733D01*
X101196054Y-89983946D01*
X101327267Y-90143828D01*
X101424767Y-90326237D01*
X101424767Y-90326238D01*
X101484807Y-90524164D01*
X101505080Y-90730000D01*
X101484807Y-90935836D01*
X101444780Y-91067787D01*
X101424767Y-91133763D01*
X101327267Y-91316172D01*
X101196054Y-91476054D01*
X101036172Y-91607267D01*
X100853763Y-91704767D01*
X100787787Y-91724780D01*
X100655836Y-91764807D01*
X100578707Y-91772403D01*
X100501580Y-91780000D01*
X100398420Y-91780000D01*
X100321293Y-91772403D01*
X100244164Y-91764807D01*
X100112213Y-91724780D01*
X100046237Y-91704767D01*
X99863828Y-91607267D01*
X99703946Y-91476054D01*
X99572733Y-91316172D01*
X99475233Y-91133763D01*
X99455220Y-91067787D01*
X99415193Y-90935836D01*
X99394920Y-90730000D01*
X99415193Y-90524164D01*
X99475233Y-90326238D01*
X99475233Y-90326237D01*
X99572733Y-90143828D01*
X99703946Y-89983946D01*
X99863828Y-89852733D01*
X100046237Y-89755233D01*
X100112213Y-89735220D01*
X100244164Y-89695193D01*
X100321293Y-89687596D01*
X100398420Y-89680000D01*
X100501580Y-89680000D01*
X100578707Y-89687596D01*
X100578707Y-89687596D01*
G37*
G36*
X105658707Y-89687596D02*
X105735836Y-89695193D01*
X105867787Y-89735220D01*
X105933763Y-89755233D01*
X106116172Y-89852733D01*
X106276054Y-89983946D01*
X106407267Y-90143828D01*
X106504767Y-90326237D01*
X106504767Y-90326238D01*
X106564807Y-90524164D01*
X106585080Y-90730000D01*
X106564807Y-90935836D01*
X106524780Y-91067787D01*
X106504767Y-91133763D01*
X106407267Y-91316172D01*
X106276054Y-91476054D01*
X106116172Y-91607267D01*
X105933763Y-91704767D01*
X105867787Y-91724780D01*
X105735836Y-91764807D01*
X105658707Y-91772403D01*
X105581580Y-91780000D01*
X105478420Y-91780000D01*
X105401293Y-91772403D01*
X105324164Y-91764807D01*
X105192213Y-91724780D01*
X105126237Y-91704767D01*
X104943828Y-91607267D01*
X104783946Y-91476054D01*
X104652733Y-91316172D01*
X104555233Y-91133763D01*
X104535220Y-91067787D01*
X104495193Y-90935836D01*
X104474920Y-90730000D01*
X104495193Y-90524164D01*
X104555233Y-90326238D01*
X104555233Y-90326237D01*
X104652733Y-90143828D01*
X104783946Y-89983946D01*
X104943828Y-89852733D01*
X105126237Y-89755233D01*
X105192213Y-89735220D01*
X105324164Y-89695193D01*
X105401293Y-89687596D01*
X105478420Y-89680000D01*
X105581580Y-89680000D01*
X105658707Y-89687596D01*
X105658707Y-89687596D01*
G37*
G36*
X108198707Y-89687596D02*
X108275836Y-89695193D01*
X108407787Y-89735220D01*
X108473763Y-89755233D01*
X108656172Y-89852733D01*
X108816054Y-89983946D01*
X108947267Y-90143828D01*
X109044767Y-90326237D01*
X109044767Y-90326238D01*
X109104807Y-90524164D01*
X109125080Y-90730000D01*
X109104807Y-90935836D01*
X109064780Y-91067787D01*
X109044767Y-91133763D01*
X108947267Y-91316172D01*
X108816054Y-91476054D01*
X108656172Y-91607267D01*
X108473763Y-91704767D01*
X108407787Y-91724780D01*
X108275836Y-91764807D01*
X108198707Y-91772403D01*
X108121580Y-91780000D01*
X108018420Y-91780000D01*
X107941293Y-91772403D01*
X107864164Y-91764807D01*
X107732213Y-91724780D01*
X107666237Y-91704767D01*
X107483828Y-91607267D01*
X107323946Y-91476054D01*
X107192733Y-91316172D01*
X107095233Y-91133763D01*
X107075220Y-91067787D01*
X107035193Y-90935836D01*
X107014920Y-90730000D01*
X107035193Y-90524164D01*
X107095233Y-90326238D01*
X107095233Y-90326237D01*
X107192733Y-90143828D01*
X107323946Y-89983946D01*
X107483828Y-89852733D01*
X107666237Y-89755233D01*
X107732213Y-89735220D01*
X107864164Y-89695193D01*
X107941293Y-89687596D01*
X108018420Y-89680000D01*
X108121580Y-89680000D01*
X108198707Y-89687596D01*
X108198707Y-89687596D01*
G37*
G36*
X110738707Y-89687596D02*
X110815836Y-89695193D01*
X110947787Y-89735220D01*
X111013763Y-89755233D01*
X111196172Y-89852733D01*
X111356054Y-89983946D01*
X111487267Y-90143828D01*
X111584767Y-90326237D01*
X111584767Y-90326238D01*
X111644807Y-90524164D01*
X111665080Y-90730000D01*
X111644807Y-90935836D01*
X111604780Y-91067787D01*
X111584767Y-91133763D01*
X111487267Y-91316172D01*
X111356054Y-91476054D01*
X111196172Y-91607267D01*
X111013763Y-91704767D01*
X110947787Y-91724780D01*
X110815836Y-91764807D01*
X110738707Y-91772403D01*
X110661580Y-91780000D01*
X110558420Y-91780000D01*
X110481293Y-91772403D01*
X110404164Y-91764807D01*
X110272213Y-91724780D01*
X110206237Y-91704767D01*
X110023828Y-91607267D01*
X109863946Y-91476054D01*
X109732733Y-91316172D01*
X109635233Y-91133763D01*
X109615220Y-91067787D01*
X109575193Y-90935836D01*
X109554920Y-90730000D01*
X109575193Y-90524164D01*
X109635233Y-90326238D01*
X109635233Y-90326237D01*
X109732733Y-90143828D01*
X109863946Y-89983946D01*
X110023828Y-89852733D01*
X110206237Y-89755233D01*
X110272213Y-89735220D01*
X110404164Y-89695193D01*
X110481293Y-89687596D01*
X110558420Y-89680000D01*
X110661580Y-89680000D01*
X110738707Y-89687596D01*
X110738707Y-89687596D01*
G37*
G36*
X115818707Y-89687596D02*
X115895836Y-89695193D01*
X116027787Y-89735220D01*
X116093763Y-89755233D01*
X116276172Y-89852733D01*
X116436054Y-89983946D01*
X116567267Y-90143828D01*
X116664767Y-90326237D01*
X116664767Y-90326238D01*
X116724807Y-90524164D01*
X116745080Y-90730000D01*
X116724807Y-90935836D01*
X116684780Y-91067787D01*
X116664767Y-91133763D01*
X116567267Y-91316172D01*
X116436054Y-91476054D01*
X116276172Y-91607267D01*
X116093763Y-91704767D01*
X116027787Y-91724780D01*
X115895836Y-91764807D01*
X115818707Y-91772403D01*
X115741580Y-91780000D01*
X115638420Y-91780000D01*
X115561293Y-91772403D01*
X115484164Y-91764807D01*
X115352213Y-91724780D01*
X115286237Y-91704767D01*
X115103828Y-91607267D01*
X114943946Y-91476054D01*
X114812733Y-91316172D01*
X114715233Y-91133763D01*
X114695220Y-91067787D01*
X114655193Y-90935836D01*
X114634920Y-90730000D01*
X114655193Y-90524164D01*
X114715233Y-90326238D01*
X114715233Y-90326237D01*
X114812733Y-90143828D01*
X114943946Y-89983946D01*
X115103828Y-89852733D01*
X115286237Y-89755233D01*
X115352213Y-89735220D01*
X115484164Y-89695193D01*
X115561293Y-89687596D01*
X115638420Y-89680000D01*
X115741580Y-89680000D01*
X115818707Y-89687596D01*
X115818707Y-89687596D01*
G37*
G36*
X113278707Y-89687596D02*
X113355836Y-89695193D01*
X113487787Y-89735220D01*
X113553763Y-89755233D01*
X113736172Y-89852733D01*
X113896054Y-89983946D01*
X114027267Y-90143828D01*
X114124767Y-90326237D01*
X114124767Y-90326238D01*
X114184807Y-90524164D01*
X114205080Y-90730000D01*
X114184807Y-90935836D01*
X114144780Y-91067787D01*
X114124767Y-91133763D01*
X114027267Y-91316172D01*
X113896054Y-91476054D01*
X113736172Y-91607267D01*
X113553763Y-91704767D01*
X113487787Y-91724780D01*
X113355836Y-91764807D01*
X113278707Y-91772403D01*
X113201580Y-91780000D01*
X113098420Y-91780000D01*
X113021293Y-91772403D01*
X112944164Y-91764807D01*
X112812213Y-91724780D01*
X112746237Y-91704767D01*
X112563828Y-91607267D01*
X112403946Y-91476054D01*
X112272733Y-91316172D01*
X112175233Y-91133763D01*
X112155220Y-91067787D01*
X112115193Y-90935836D01*
X112094920Y-90730000D01*
X112115193Y-90524164D01*
X112175233Y-90326238D01*
X112175233Y-90326237D01*
X112272733Y-90143828D01*
X112403946Y-89983946D01*
X112563828Y-89852733D01*
X112746237Y-89755233D01*
X112812213Y-89735220D01*
X112944164Y-89695193D01*
X113021293Y-89687596D01*
X113098420Y-89680000D01*
X113201580Y-89680000D01*
X113278707Y-89687596D01*
X113278707Y-89687596D01*
G37*
G36*
X141218707Y-89687596D02*
X141295836Y-89695193D01*
X141427787Y-89735220D01*
X141493763Y-89755233D01*
X141676172Y-89852733D01*
X141836054Y-89983946D01*
X141967267Y-90143828D01*
X142064767Y-90326237D01*
X142064767Y-90326238D01*
X142124807Y-90524164D01*
X142145080Y-90730000D01*
X142124807Y-90935836D01*
X142084780Y-91067787D01*
X142064767Y-91133763D01*
X141967267Y-91316172D01*
X141836054Y-91476054D01*
X141676172Y-91607267D01*
X141493763Y-91704767D01*
X141427787Y-91724780D01*
X141295836Y-91764807D01*
X141218707Y-91772403D01*
X141141580Y-91780000D01*
X141038420Y-91780000D01*
X140961293Y-91772403D01*
X140884164Y-91764807D01*
X140752213Y-91724780D01*
X140686237Y-91704767D01*
X140503828Y-91607267D01*
X140343946Y-91476054D01*
X140212733Y-91316172D01*
X140115233Y-91133763D01*
X140095220Y-91067787D01*
X140055193Y-90935836D01*
X140034920Y-90730000D01*
X140055193Y-90524164D01*
X140115233Y-90326238D01*
X140115233Y-90326237D01*
X140212733Y-90143828D01*
X140343946Y-89983946D01*
X140503828Y-89852733D01*
X140686237Y-89755233D01*
X140752213Y-89735220D01*
X140884164Y-89695193D01*
X140961293Y-89687596D01*
X141038420Y-89680000D01*
X141141580Y-89680000D01*
X141218707Y-89687596D01*
X141218707Y-89687596D01*
G37*
G36*
X138678707Y-89687596D02*
X138755836Y-89695193D01*
X138887787Y-89735220D01*
X138953763Y-89755233D01*
X139136172Y-89852733D01*
X139296054Y-89983946D01*
X139427267Y-90143828D01*
X139524767Y-90326237D01*
X139524767Y-90326238D01*
X139584807Y-90524164D01*
X139605080Y-90730000D01*
X139584807Y-90935836D01*
X139544780Y-91067787D01*
X139524767Y-91133763D01*
X139427267Y-91316172D01*
X139296054Y-91476054D01*
X139136172Y-91607267D01*
X138953763Y-91704767D01*
X138887787Y-91724780D01*
X138755836Y-91764807D01*
X138678707Y-91772403D01*
X138601580Y-91780000D01*
X138498420Y-91780000D01*
X138421293Y-91772403D01*
X138344164Y-91764807D01*
X138212213Y-91724780D01*
X138146237Y-91704767D01*
X137963828Y-91607267D01*
X137803946Y-91476054D01*
X137672733Y-91316172D01*
X137575233Y-91133763D01*
X137555220Y-91067787D01*
X137515193Y-90935836D01*
X137494920Y-90730000D01*
X137515193Y-90524164D01*
X137575233Y-90326238D01*
X137575233Y-90326237D01*
X137672733Y-90143828D01*
X137803946Y-89983946D01*
X137963828Y-89852733D01*
X138146237Y-89755233D01*
X138212213Y-89735220D01*
X138344164Y-89695193D01*
X138421293Y-89687596D01*
X138498420Y-89680000D01*
X138601580Y-89680000D01*
X138678707Y-89687596D01*
X138678707Y-89687596D01*
G37*
G36*
X98038707Y-89687596D02*
X98115836Y-89695193D01*
X98247787Y-89735220D01*
X98313763Y-89755233D01*
X98496172Y-89852733D01*
X98656054Y-89983946D01*
X98787267Y-90143828D01*
X98884767Y-90326237D01*
X98884767Y-90326238D01*
X98944807Y-90524164D01*
X98965080Y-90730000D01*
X98944807Y-90935836D01*
X98904780Y-91067787D01*
X98884767Y-91133763D01*
X98787267Y-91316172D01*
X98656054Y-91476054D01*
X98496172Y-91607267D01*
X98313763Y-91704767D01*
X98247787Y-91724780D01*
X98115836Y-91764807D01*
X98038707Y-91772403D01*
X97961580Y-91780000D01*
X97858420Y-91780000D01*
X97781293Y-91772403D01*
X97704164Y-91764807D01*
X97572213Y-91724780D01*
X97506237Y-91704767D01*
X97323828Y-91607267D01*
X97163946Y-91476054D01*
X97032733Y-91316172D01*
X96935233Y-91133763D01*
X96915220Y-91067787D01*
X96875193Y-90935836D01*
X96854920Y-90730000D01*
X96875193Y-90524164D01*
X96935233Y-90326238D01*
X96935233Y-90326237D01*
X97032733Y-90143828D01*
X97163946Y-89983946D01*
X97323828Y-89852733D01*
X97506237Y-89755233D01*
X97572213Y-89735220D01*
X97704164Y-89695193D01*
X97781293Y-89687596D01*
X97858420Y-89680000D01*
X97961580Y-89680000D01*
X98038707Y-89687596D01*
X98038707Y-89687596D01*
G37*
G36*
X136138707Y-89687596D02*
X136215836Y-89695193D01*
X136347787Y-89735220D01*
X136413763Y-89755233D01*
X136596172Y-89852733D01*
X136756054Y-89983946D01*
X136887267Y-90143828D01*
X136984767Y-90326237D01*
X136984767Y-90326238D01*
X137044807Y-90524164D01*
X137065080Y-90730000D01*
X137044807Y-90935836D01*
X137004780Y-91067787D01*
X136984767Y-91133763D01*
X136887267Y-91316172D01*
X136756054Y-91476054D01*
X136596172Y-91607267D01*
X136413763Y-91704767D01*
X136347787Y-91724780D01*
X136215836Y-91764807D01*
X136138707Y-91772403D01*
X136061580Y-91780000D01*
X135958420Y-91780000D01*
X135881293Y-91772403D01*
X135804164Y-91764807D01*
X135672213Y-91724780D01*
X135606237Y-91704767D01*
X135423828Y-91607267D01*
X135263946Y-91476054D01*
X135132733Y-91316172D01*
X135035233Y-91133763D01*
X135015220Y-91067787D01*
X134975193Y-90935836D01*
X134954920Y-90730000D01*
X134975193Y-90524164D01*
X135035233Y-90326238D01*
X135035233Y-90326237D01*
X135132733Y-90143828D01*
X135263946Y-89983946D01*
X135423828Y-89852733D01*
X135606237Y-89755233D01*
X135672213Y-89735220D01*
X135804164Y-89695193D01*
X135881293Y-89687596D01*
X135958420Y-89680000D01*
X136061580Y-89680000D01*
X136138707Y-89687596D01*
X136138707Y-89687596D01*
G37*
G36*
X133598707Y-89687596D02*
X133675836Y-89695193D01*
X133807787Y-89735220D01*
X133873763Y-89755233D01*
X134056172Y-89852733D01*
X134216054Y-89983946D01*
X134347267Y-90143828D01*
X134444767Y-90326237D01*
X134444767Y-90326238D01*
X134504807Y-90524164D01*
X134525080Y-90730000D01*
X134504807Y-90935836D01*
X134464780Y-91067787D01*
X134444767Y-91133763D01*
X134347267Y-91316172D01*
X134216054Y-91476054D01*
X134056172Y-91607267D01*
X133873763Y-91704767D01*
X133807787Y-91724780D01*
X133675836Y-91764807D01*
X133598707Y-91772403D01*
X133521580Y-91780000D01*
X133418420Y-91780000D01*
X133341293Y-91772403D01*
X133264164Y-91764807D01*
X133132213Y-91724780D01*
X133066237Y-91704767D01*
X132883828Y-91607267D01*
X132723946Y-91476054D01*
X132592733Y-91316172D01*
X132495233Y-91133763D01*
X132475220Y-91067787D01*
X132435193Y-90935836D01*
X132414920Y-90730000D01*
X132435193Y-90524164D01*
X132495233Y-90326238D01*
X132495233Y-90326237D01*
X132592733Y-90143828D01*
X132723946Y-89983946D01*
X132883828Y-89852733D01*
X133066237Y-89755233D01*
X133132213Y-89735220D01*
X133264164Y-89695193D01*
X133341293Y-89687596D01*
X133418420Y-89680000D01*
X133521580Y-89680000D01*
X133598707Y-89687596D01*
X133598707Y-89687596D01*
G37*
G36*
X95498707Y-89687596D02*
X95575836Y-89695193D01*
X95707787Y-89735220D01*
X95773763Y-89755233D01*
X95956172Y-89852733D01*
X96116054Y-89983946D01*
X96247267Y-90143828D01*
X96344767Y-90326237D01*
X96344767Y-90326238D01*
X96404807Y-90524164D01*
X96425080Y-90730000D01*
X96404807Y-90935836D01*
X96364780Y-91067787D01*
X96344767Y-91133763D01*
X96247267Y-91316172D01*
X96116054Y-91476054D01*
X95956172Y-91607267D01*
X95773763Y-91704767D01*
X95707787Y-91724780D01*
X95575836Y-91764807D01*
X95498707Y-91772403D01*
X95421580Y-91780000D01*
X95318420Y-91780000D01*
X95241293Y-91772403D01*
X95164164Y-91764807D01*
X95032213Y-91724780D01*
X94966237Y-91704767D01*
X94783828Y-91607267D01*
X94623946Y-91476054D01*
X94492733Y-91316172D01*
X94395233Y-91133763D01*
X94375220Y-91067787D01*
X94335193Y-90935836D01*
X94314920Y-90730000D01*
X94335193Y-90524164D01*
X94395233Y-90326238D01*
X94395233Y-90326237D01*
X94492733Y-90143828D01*
X94623946Y-89983946D01*
X94783828Y-89852733D01*
X94966237Y-89755233D01*
X95032213Y-89735220D01*
X95164164Y-89695193D01*
X95241293Y-89687596D01*
X95318420Y-89680000D01*
X95421580Y-89680000D01*
X95498707Y-89687596D01*
X95498707Y-89687596D01*
G37*
G36*
X131058707Y-89687596D02*
X131135836Y-89695193D01*
X131267787Y-89735220D01*
X131333763Y-89755233D01*
X131516172Y-89852733D01*
X131676054Y-89983946D01*
X131807267Y-90143828D01*
X131904767Y-90326237D01*
X131904767Y-90326238D01*
X131964807Y-90524164D01*
X131985080Y-90730000D01*
X131964807Y-90935836D01*
X131924780Y-91067787D01*
X131904767Y-91133763D01*
X131807267Y-91316172D01*
X131676054Y-91476054D01*
X131516172Y-91607267D01*
X131333763Y-91704767D01*
X131267787Y-91724780D01*
X131135836Y-91764807D01*
X131058707Y-91772403D01*
X130981580Y-91780000D01*
X130878420Y-91780000D01*
X130801293Y-91772403D01*
X130724164Y-91764807D01*
X130592213Y-91724780D01*
X130526237Y-91704767D01*
X130343828Y-91607267D01*
X130183946Y-91476054D01*
X130052733Y-91316172D01*
X129955233Y-91133763D01*
X129935220Y-91067787D01*
X129895193Y-90935836D01*
X129874920Y-90730000D01*
X129895193Y-90524164D01*
X129955233Y-90326238D01*
X129955233Y-90326237D01*
X130052733Y-90143828D01*
X130183946Y-89983946D01*
X130343828Y-89852733D01*
X130526237Y-89755233D01*
X130592213Y-89735220D01*
X130724164Y-89695193D01*
X130801293Y-89687596D01*
X130878420Y-89680000D01*
X130981580Y-89680000D01*
X131058707Y-89687596D01*
X131058707Y-89687596D01*
G37*
G36*
X128518707Y-89687596D02*
X128595836Y-89695193D01*
X128727787Y-89735220D01*
X128793763Y-89755233D01*
X128976172Y-89852733D01*
X129136054Y-89983946D01*
X129267267Y-90143828D01*
X129364767Y-90326237D01*
X129364767Y-90326238D01*
X129424807Y-90524164D01*
X129445080Y-90730000D01*
X129424807Y-90935836D01*
X129384780Y-91067787D01*
X129364767Y-91133763D01*
X129267267Y-91316172D01*
X129136054Y-91476054D01*
X128976172Y-91607267D01*
X128793763Y-91704767D01*
X128727787Y-91724780D01*
X128595836Y-91764807D01*
X128518707Y-91772403D01*
X128441580Y-91780000D01*
X128338420Y-91780000D01*
X128261293Y-91772403D01*
X128184164Y-91764807D01*
X128052213Y-91724780D01*
X127986237Y-91704767D01*
X127803828Y-91607267D01*
X127643946Y-91476054D01*
X127512733Y-91316172D01*
X127415233Y-91133763D01*
X127395220Y-91067787D01*
X127355193Y-90935836D01*
X127334920Y-90730000D01*
X127355193Y-90524164D01*
X127415233Y-90326238D01*
X127415233Y-90326237D01*
X127512733Y-90143828D01*
X127643946Y-89983946D01*
X127803828Y-89852733D01*
X127986237Y-89755233D01*
X128052213Y-89735220D01*
X128184164Y-89695193D01*
X128261293Y-89687596D01*
X128338420Y-89680000D01*
X128441580Y-89680000D01*
X128518707Y-89687596D01*
X128518707Y-89687596D01*
G37*
G36*
X103118707Y-89687596D02*
X103195836Y-89695193D01*
X103327787Y-89735220D01*
X103393763Y-89755233D01*
X103576172Y-89852733D01*
X103736054Y-89983946D01*
X103867267Y-90143828D01*
X103964767Y-90326237D01*
X103964767Y-90326238D01*
X104024807Y-90524164D01*
X104045080Y-90730000D01*
X104024807Y-90935836D01*
X103984780Y-91067787D01*
X103964767Y-91133763D01*
X103867267Y-91316172D01*
X103736054Y-91476054D01*
X103576172Y-91607267D01*
X103393763Y-91704767D01*
X103327787Y-91724780D01*
X103195836Y-91764807D01*
X103118707Y-91772403D01*
X103041580Y-91780000D01*
X102938420Y-91780000D01*
X102861293Y-91772403D01*
X102784164Y-91764807D01*
X102652213Y-91724780D01*
X102586237Y-91704767D01*
X102403828Y-91607267D01*
X102243946Y-91476054D01*
X102112733Y-91316172D01*
X102015233Y-91133763D01*
X101995220Y-91067787D01*
X101955193Y-90935836D01*
X101934920Y-90730000D01*
X101955193Y-90524164D01*
X102015233Y-90326238D01*
X102015233Y-90326237D01*
X102112733Y-90143828D01*
X102243946Y-89983946D01*
X102403828Y-89852733D01*
X102586237Y-89755233D01*
X102652213Y-89735220D01*
X102784164Y-89695193D01*
X102861293Y-89687596D01*
X102938420Y-89680000D01*
X103041580Y-89680000D01*
X103118707Y-89687596D01*
X103118707Y-89687596D01*
G37*
G36*
X125978707Y-89687596D02*
X126055836Y-89695193D01*
X126187787Y-89735220D01*
X126253763Y-89755233D01*
X126436172Y-89852733D01*
X126596054Y-89983946D01*
X126727267Y-90143828D01*
X126824767Y-90326237D01*
X126824767Y-90326238D01*
X126884807Y-90524164D01*
X126905080Y-90730000D01*
X126884807Y-90935836D01*
X126844780Y-91067787D01*
X126824767Y-91133763D01*
X126727267Y-91316172D01*
X126596054Y-91476054D01*
X126436172Y-91607267D01*
X126253763Y-91704767D01*
X126187787Y-91724780D01*
X126055836Y-91764807D01*
X125978707Y-91772403D01*
X125901580Y-91780000D01*
X125798420Y-91780000D01*
X125721293Y-91772403D01*
X125644164Y-91764807D01*
X125512213Y-91724780D01*
X125446237Y-91704767D01*
X125263828Y-91607267D01*
X125103946Y-91476054D01*
X124972733Y-91316172D01*
X124875233Y-91133763D01*
X124855220Y-91067787D01*
X124815193Y-90935836D01*
X124794920Y-90730000D01*
X124815193Y-90524164D01*
X124875233Y-90326238D01*
X124875233Y-90326237D01*
X124972733Y-90143828D01*
X125103946Y-89983946D01*
X125263828Y-89852733D01*
X125446237Y-89755233D01*
X125512213Y-89735220D01*
X125644164Y-89695193D01*
X125721293Y-89687596D01*
X125798420Y-89680000D01*
X125901580Y-89680000D01*
X125978707Y-89687596D01*
X125978707Y-89687596D01*
G37*
G36*
X123438707Y-89687596D02*
X123515836Y-89695193D01*
X123647787Y-89735220D01*
X123713763Y-89755233D01*
X123896172Y-89852733D01*
X124056054Y-89983946D01*
X124187267Y-90143828D01*
X124284767Y-90326237D01*
X124284767Y-90326238D01*
X124344807Y-90524164D01*
X124365080Y-90730000D01*
X124344807Y-90935836D01*
X124304780Y-91067787D01*
X124284767Y-91133763D01*
X124187267Y-91316172D01*
X124056054Y-91476054D01*
X123896172Y-91607267D01*
X123713763Y-91704767D01*
X123647787Y-91724780D01*
X123515836Y-91764807D01*
X123438707Y-91772403D01*
X123361580Y-91780000D01*
X123258420Y-91780000D01*
X123181293Y-91772403D01*
X123104164Y-91764807D01*
X122972213Y-91724780D01*
X122906237Y-91704767D01*
X122723828Y-91607267D01*
X122563946Y-91476054D01*
X122432733Y-91316172D01*
X122335233Y-91133763D01*
X122315220Y-91067787D01*
X122275193Y-90935836D01*
X122254920Y-90730000D01*
X122275193Y-90524164D01*
X122335233Y-90326238D01*
X122335233Y-90326237D01*
X122432733Y-90143828D01*
X122563946Y-89983946D01*
X122723828Y-89852733D01*
X122906237Y-89755233D01*
X122972213Y-89735220D01*
X123104164Y-89695193D01*
X123181293Y-89687596D01*
X123258420Y-89680000D01*
X123361580Y-89680000D01*
X123438707Y-89687596D01*
X123438707Y-89687596D01*
G37*
G36*
X120898707Y-89687596D02*
X120975836Y-89695193D01*
X121107787Y-89735220D01*
X121173763Y-89755233D01*
X121356172Y-89852733D01*
X121516054Y-89983946D01*
X121647267Y-90143828D01*
X121744767Y-90326237D01*
X121744767Y-90326238D01*
X121804807Y-90524164D01*
X121825080Y-90730000D01*
X121804807Y-90935836D01*
X121764780Y-91067787D01*
X121744767Y-91133763D01*
X121647267Y-91316172D01*
X121516054Y-91476054D01*
X121356172Y-91607267D01*
X121173763Y-91704767D01*
X121107787Y-91724780D01*
X120975836Y-91764807D01*
X120898707Y-91772403D01*
X120821580Y-91780000D01*
X120718420Y-91780000D01*
X120641293Y-91772403D01*
X120564164Y-91764807D01*
X120432213Y-91724780D01*
X120366237Y-91704767D01*
X120183828Y-91607267D01*
X120023946Y-91476054D01*
X119892733Y-91316172D01*
X119795233Y-91133763D01*
X119775220Y-91067787D01*
X119735193Y-90935836D01*
X119714920Y-90730000D01*
X119735193Y-90524164D01*
X119795233Y-90326238D01*
X119795233Y-90326237D01*
X119892733Y-90143828D01*
X120023946Y-89983946D01*
X120183828Y-89852733D01*
X120366237Y-89755233D01*
X120432213Y-89735220D01*
X120564164Y-89695193D01*
X120641293Y-89687596D01*
X120718420Y-89680000D01*
X120821580Y-89680000D01*
X120898707Y-89687596D01*
X120898707Y-89687596D01*
G37*
G36*
X143758707Y-89687596D02*
X143835836Y-89695193D01*
X143967787Y-89735220D01*
X144033763Y-89755233D01*
X144216172Y-89852733D01*
X144376054Y-89983946D01*
X144507267Y-90143828D01*
X144604767Y-90326237D01*
X144604767Y-90326238D01*
X144664807Y-90524164D01*
X144685080Y-90730000D01*
X144664807Y-90935836D01*
X144624780Y-91067787D01*
X144604767Y-91133763D01*
X144507267Y-91316172D01*
X144376054Y-91476054D01*
X144216172Y-91607267D01*
X144033763Y-91704767D01*
X143967787Y-91724780D01*
X143835836Y-91764807D01*
X143758707Y-91772403D01*
X143681580Y-91780000D01*
X143578420Y-91780000D01*
X143501293Y-91772403D01*
X143424164Y-91764807D01*
X143292213Y-91724780D01*
X143226237Y-91704767D01*
X143043828Y-91607267D01*
X142883946Y-91476054D01*
X142752733Y-91316172D01*
X142655233Y-91133763D01*
X142635220Y-91067787D01*
X142595193Y-90935836D01*
X142574920Y-90730000D01*
X142595193Y-90524164D01*
X142655233Y-90326238D01*
X142655233Y-90326237D01*
X142752733Y-90143828D01*
X142883946Y-89983946D01*
X143043828Y-89852733D01*
X143226237Y-89755233D01*
X143292213Y-89735220D01*
X143424164Y-89695193D01*
X143501293Y-89687596D01*
X143578420Y-89680000D01*
X143681580Y-89680000D01*
X143758707Y-89687596D01*
X143758707Y-89687596D01*
G37*
G36*
X118358707Y-89687596D02*
X118435836Y-89695193D01*
X118567787Y-89735220D01*
X118633763Y-89755233D01*
X118816172Y-89852733D01*
X118976054Y-89983946D01*
X119107267Y-90143828D01*
X119204767Y-90326237D01*
X119204767Y-90326238D01*
X119264807Y-90524164D01*
X119285080Y-90730000D01*
X119264807Y-90935836D01*
X119224780Y-91067787D01*
X119204767Y-91133763D01*
X119107267Y-91316172D01*
X118976054Y-91476054D01*
X118816172Y-91607267D01*
X118633763Y-91704767D01*
X118567787Y-91724780D01*
X118435836Y-91764807D01*
X118358707Y-91772403D01*
X118281580Y-91780000D01*
X118178420Y-91780000D01*
X118101293Y-91772403D01*
X118024164Y-91764807D01*
X117892213Y-91724780D01*
X117826237Y-91704767D01*
X117643828Y-91607267D01*
X117483946Y-91476054D01*
X117352733Y-91316172D01*
X117255233Y-91133763D01*
X117235220Y-91067787D01*
X117195193Y-90935836D01*
X117174920Y-90730000D01*
X117195193Y-90524164D01*
X117255233Y-90326238D01*
X117255233Y-90326237D01*
X117352733Y-90143828D01*
X117483946Y-89983946D01*
X117643828Y-89852733D01*
X117826237Y-89755233D01*
X117892213Y-89735220D01*
X118024164Y-89695193D01*
X118101293Y-89687596D01*
X118178420Y-89680000D01*
X118281580Y-89680000D01*
X118358707Y-89687596D01*
X118358707Y-89687596D01*
G37*
M02*
