M48
;DRILL file {KiCad (5.0.2)-1} date 2021/04/20 16:55:09
;FORMAT={-:-/ absolute / metric / decimal}
FMAT,2
METRIC,TZ
T1C0.400
T2C0.600
T3C0.800
T4C0.950
T5C1.000
T6C1.100
T7C1.300
%
G90
G05
T1
X88.Y-107.
X91.948Y-96.774
X93.5Y-108.5
X104.648Y-97.536
X105.664Y-97.536
X113.324Y-139.446
X114.554Y-138.176
X117.348Y-138.938
X118.11Y-134.874
X121.92Y-138.938
X123.484Y-139.446
X129.794Y-136.652
X130.03Y-132.28
X130.175Y-96.52
X130.175Y-98.044
X130.175Y-99.695
X130.5Y-111.
X131.Y-115.5
X131.318Y-117.602
X131.5Y-123.5
X131.572Y-120.65
X132.5Y-101.
X133.Y-109.5
X133.Y-119.
X133.Y-123.5
X133.096Y-111.506
X133.096Y-114.046
X133.5Y-104.
X134.5Y-127.
X137.5Y-107.
X139.5Y-101.
X143.764Y-96.266
X145.796Y-119.126
X145.796Y-121.666
X147.32Y-115.062
X148.082Y-120.65
T2
X135.255Y-103.41
X135.255Y-105.41
T3
X136.525Y-128.905
X136.525Y-131.405
T4
X89.916Y-98.084
X89.916Y-100.584
X89.916Y-103.084
X89.916Y-105.584
T5
X104.14Y-129.54
X101.6Y-132.08
X96.52Y-132.08
X91.44Y-132.08
X96.52Y-137.16
X88.9Y-132.08
X101.6Y-142.24
X93.98Y-129.54
X104.14Y-139.7
X99.06Y-139.7
X91.44Y-134.62
X101.6Y-139.7
X91.44Y-129.54
X95.37Y-90.73
X95.37Y-93.27
X97.91Y-90.73
X97.91Y-93.27
X100.45Y-90.73
X100.45Y-93.27
X102.99Y-90.73
X102.99Y-93.27
X105.53Y-90.73
X105.53Y-93.27
X108.07Y-90.73
X108.07Y-93.27
X110.61Y-90.73
X110.61Y-93.27
X113.15Y-90.73
X113.15Y-93.27
X115.69Y-90.73
X115.69Y-93.27
X118.23Y-90.73
X118.23Y-93.27
X120.77Y-90.73
X120.77Y-93.27
X123.31Y-90.73
X123.31Y-93.27
X125.85Y-90.73
X125.85Y-93.27
X128.39Y-90.73
X128.39Y-93.27
X130.93Y-90.73
X130.93Y-93.27
X133.47Y-90.73
X133.47Y-93.27
X136.01Y-90.73
X136.01Y-93.27
X138.55Y-90.73
X138.55Y-93.27
X141.09Y-90.73
X141.09Y-93.27
X143.63Y-90.73
X143.63Y-93.27
X104.14Y-134.62
X104.14Y-132.08
X123.484Y-141.732
X125.984Y-141.732
X101.6Y-134.62
X96.52Y-139.7
X99.06Y-142.24
X106.68Y-139.7
X101.6Y-129.54
X101.6Y-137.16
X93.98Y-132.08
X106.68Y-132.08
X106.68Y-134.62
X113.324Y-141.732
X115.824Y-141.732
X88.9Y-129.54
X96.52Y-142.24
X106.68Y-142.24
X106.68Y-129.54
X106.68Y-137.16
X99.06Y-134.62
X88.9Y-134.62
X149.225Y-112.395
X149.225Y-114.935
X149.225Y-117.475
X99.06Y-129.54
X93.98Y-134.62
X99.06Y-137.16
X96.52Y-134.62
X104.14Y-142.24
X96.52Y-129.54
X99.06Y-132.08
X104.14Y-137.16
T6
X121.92Y-133.858
X124.46Y-133.858
X127.Y-133.858
X110.49Y-133.858
X113.03Y-133.858
X115.57Y-133.858
T7
X149.098Y-99.822
X149.098Y-104.822
X136.605Y-141.
X141.605Y-141.
T5
X141.5Y-131.2G85X141.5Y-129.2
G05
X145.5Y-125.5G85X143.5Y-125.5
G05
X147.5Y-131.2G85X147.5Y-129.2
G05
T0
M30
