G04 #@! TF.GenerationSoftware,KiCad,Pcbnew,(5.0.2)-1*
G04 #@! TF.CreationDate,2021-04-20T16:55:03+09:00*
G04 #@! TF.ProjectId,pi-ups,70692d75-7073-42e6-9b69-6361645f7063,rev?*
G04 #@! TF.SameCoordinates,Original*
G04 #@! TF.FileFunction,Copper,L2,Bot*
G04 #@! TF.FilePolarity,Positive*
%FSLAX46Y46*%
G04 Gerber Fmt 4.6, Leading zero omitted, Abs format (unit mm)*
G04 Created by KiCad (PCBNEW (5.0.2)-1) date 2021/04/20 16:55:03*
%MOMM*%
%LPD*%
G01*
G04 APERTURE LIST*
G04 #@! TA.AperFunction,Conductor*
%ADD10C,0.100000*%
G04 #@! TD*
G04 #@! TA.AperFunction,ComponentPad*
%ADD11C,2.100000*%
G04 #@! TD*
G04 #@! TA.AperFunction,SMDPad,CuDef*
%ADD12C,0.875000*%
G04 #@! TD*
G04 #@! TA.AperFunction,ComponentPad*
%ADD13R,1.600000X1.600000*%
G04 #@! TD*
G04 #@! TA.AperFunction,ComponentPad*
%ADD14C,1.600000*%
G04 #@! TD*
G04 #@! TA.AperFunction,ComponentPad*
%ADD15R,1.200000X1.200000*%
G04 #@! TD*
G04 #@! TA.AperFunction,ComponentPad*
%ADD16C,1.200000*%
G04 #@! TD*
G04 #@! TA.AperFunction,ComponentPad*
%ADD17C,2.500000*%
G04 #@! TD*
G04 #@! TA.AperFunction,ComponentPad*
%ADD18R,2.500000X2.500000*%
G04 #@! TD*
G04 #@! TA.AperFunction,ComponentPad*
%ADD19R,1.700000X1.700000*%
G04 #@! TD*
G04 #@! TA.AperFunction,ComponentPad*
%ADD20O,1.700000X1.700000*%
G04 #@! TD*
G04 #@! TA.AperFunction,ComponentPad*
%ADD21R,3.500000X3.500000*%
G04 #@! TD*
G04 #@! TA.AperFunction,ComponentPad*
%ADD22C,3.000000*%
G04 #@! TD*
G04 #@! TA.AperFunction,ComponentPad*
%ADD23C,3.500000*%
G04 #@! TD*
G04 #@! TA.AperFunction,ComponentPad*
%ADD24O,1.700000X2.000000*%
G04 #@! TD*
G04 #@! TA.AperFunction,ComponentPad*
%ADD25C,1.700000*%
G04 #@! TD*
G04 #@! TA.AperFunction,ComponentPad*
%ADD26O,1.950000X1.700000*%
G04 #@! TD*
G04 #@! TA.AperFunction,ComponentPad*
%ADD27R,1.905000X2.000000*%
G04 #@! TD*
G04 #@! TA.AperFunction,ComponentPad*
%ADD28O,1.905000X2.000000*%
G04 #@! TD*
G04 #@! TA.AperFunction,ViaPad*
%ADD29C,0.800000*%
G04 #@! TD*
G04 #@! TA.AperFunction,Conductor*
%ADD30C,1.200000*%
G04 #@! TD*
G04 #@! TA.AperFunction,Conductor*
%ADD31C,0.250000*%
G04 #@! TD*
G04 #@! TA.AperFunction,Conductor*
%ADD32C,1.000000*%
G04 #@! TD*
G04 #@! TA.AperFunction,Conductor*
%ADD33C,0.254000*%
G04 #@! TD*
G04 APERTURE END LIST*
D10*
G04 #@! TO.N,*
G04 #@! TO.C,*
G36*
X89476459Y-131032528D02*
X89527422Y-131040088D01*
X89577399Y-131052606D01*
X89625909Y-131069963D01*
X89672483Y-131091991D01*
X89716674Y-131118478D01*
X89758056Y-131149170D01*
X89796231Y-131183769D01*
X89830830Y-131221944D01*
X89861522Y-131263326D01*
X89888009Y-131307517D01*
X89910037Y-131354091D01*
X89927394Y-131402601D01*
X89939912Y-131452578D01*
X89947472Y-131503541D01*
X89950000Y-131555000D01*
X89950000Y-132605000D01*
X89947472Y-132656459D01*
X89939912Y-132707422D01*
X89927394Y-132757399D01*
X89910037Y-132805909D01*
X89888009Y-132852483D01*
X89861522Y-132896674D01*
X89830830Y-132938056D01*
X89796231Y-132976231D01*
X89758056Y-133010830D01*
X89716674Y-133041522D01*
X89672483Y-133068009D01*
X89625909Y-133090037D01*
X89577399Y-133107394D01*
X89527422Y-133119912D01*
X89476459Y-133127472D01*
X89425000Y-133130000D01*
X88375000Y-133130000D01*
X88323541Y-133127472D01*
X88272578Y-133119912D01*
X88222601Y-133107394D01*
X88174091Y-133090037D01*
X88127517Y-133068009D01*
X88083326Y-133041522D01*
X88041944Y-133010830D01*
X88003769Y-132976231D01*
X87969170Y-132938056D01*
X87938478Y-132896674D01*
X87911991Y-132852483D01*
X87889963Y-132805909D01*
X87872606Y-132757399D01*
X87860088Y-132707422D01*
X87852528Y-132656459D01*
X87850000Y-132605000D01*
X87850000Y-131555000D01*
X87852528Y-131503541D01*
X87860088Y-131452578D01*
X87872606Y-131402601D01*
X87889963Y-131354091D01*
X87911991Y-131307517D01*
X87938478Y-131263326D01*
X87969170Y-131221944D01*
X88003769Y-131183769D01*
X88041944Y-131149170D01*
X88083326Y-131118478D01*
X88127517Y-131091991D01*
X88174091Y-131069963D01*
X88222601Y-131052606D01*
X88272578Y-131040088D01*
X88323541Y-131032528D01*
X88375000Y-131030000D01*
X89425000Y-131030000D01*
X89476459Y-131032528D01*
X89476459Y-131032528D01*
G37*
D11*
G04 #@! TD*
G04 #@! TO.P,,*
G04 #@! TO.N,*
X88900000Y-132080000D03*
D10*
G04 #@! TO.N,*
G04 #@! TO.C,*
G36*
X89476459Y-133572528D02*
X89527422Y-133580088D01*
X89577399Y-133592606D01*
X89625909Y-133609963D01*
X89672483Y-133631991D01*
X89716674Y-133658478D01*
X89758056Y-133689170D01*
X89796231Y-133723769D01*
X89830830Y-133761944D01*
X89861522Y-133803326D01*
X89888009Y-133847517D01*
X89910037Y-133894091D01*
X89927394Y-133942601D01*
X89939912Y-133992578D01*
X89947472Y-134043541D01*
X89950000Y-134095000D01*
X89950000Y-135145000D01*
X89947472Y-135196459D01*
X89939912Y-135247422D01*
X89927394Y-135297399D01*
X89910037Y-135345909D01*
X89888009Y-135392483D01*
X89861522Y-135436674D01*
X89830830Y-135478056D01*
X89796231Y-135516231D01*
X89758056Y-135550830D01*
X89716674Y-135581522D01*
X89672483Y-135608009D01*
X89625909Y-135630037D01*
X89577399Y-135647394D01*
X89527422Y-135659912D01*
X89476459Y-135667472D01*
X89425000Y-135670000D01*
X88375000Y-135670000D01*
X88323541Y-135667472D01*
X88272578Y-135659912D01*
X88222601Y-135647394D01*
X88174091Y-135630037D01*
X88127517Y-135608009D01*
X88083326Y-135581522D01*
X88041944Y-135550830D01*
X88003769Y-135516231D01*
X87969170Y-135478056D01*
X87938478Y-135436674D01*
X87911991Y-135392483D01*
X87889963Y-135345909D01*
X87872606Y-135297399D01*
X87860088Y-135247422D01*
X87852528Y-135196459D01*
X87850000Y-135145000D01*
X87850000Y-134095000D01*
X87852528Y-134043541D01*
X87860088Y-133992578D01*
X87872606Y-133942601D01*
X87889963Y-133894091D01*
X87911991Y-133847517D01*
X87938478Y-133803326D01*
X87969170Y-133761944D01*
X88003769Y-133723769D01*
X88041944Y-133689170D01*
X88083326Y-133658478D01*
X88127517Y-133631991D01*
X88174091Y-133609963D01*
X88222601Y-133592606D01*
X88272578Y-133580088D01*
X88323541Y-133572528D01*
X88375000Y-133570000D01*
X89425000Y-133570000D01*
X89476459Y-133572528D01*
X89476459Y-133572528D01*
G37*
D11*
G04 #@! TD*
G04 #@! TO.P,,*
G04 #@! TO.N,*
X88900000Y-134620000D03*
D10*
G04 #@! TO.N,*
G04 #@! TO.C,*
G36*
X89476459Y-128492528D02*
X89527422Y-128500088D01*
X89577399Y-128512606D01*
X89625909Y-128529963D01*
X89672483Y-128551991D01*
X89716674Y-128578478D01*
X89758056Y-128609170D01*
X89796231Y-128643769D01*
X89830830Y-128681944D01*
X89861522Y-128723326D01*
X89888009Y-128767517D01*
X89910037Y-128814091D01*
X89927394Y-128862601D01*
X89939912Y-128912578D01*
X89947472Y-128963541D01*
X89950000Y-129015000D01*
X89950000Y-130065000D01*
X89947472Y-130116459D01*
X89939912Y-130167422D01*
X89927394Y-130217399D01*
X89910037Y-130265909D01*
X89888009Y-130312483D01*
X89861522Y-130356674D01*
X89830830Y-130398056D01*
X89796231Y-130436231D01*
X89758056Y-130470830D01*
X89716674Y-130501522D01*
X89672483Y-130528009D01*
X89625909Y-130550037D01*
X89577399Y-130567394D01*
X89527422Y-130579912D01*
X89476459Y-130587472D01*
X89425000Y-130590000D01*
X88375000Y-130590000D01*
X88323541Y-130587472D01*
X88272578Y-130579912D01*
X88222601Y-130567394D01*
X88174091Y-130550037D01*
X88127517Y-130528009D01*
X88083326Y-130501522D01*
X88041944Y-130470830D01*
X88003769Y-130436231D01*
X87969170Y-130398056D01*
X87938478Y-130356674D01*
X87911991Y-130312483D01*
X87889963Y-130265909D01*
X87872606Y-130217399D01*
X87860088Y-130167422D01*
X87852528Y-130116459D01*
X87850000Y-130065000D01*
X87850000Y-129015000D01*
X87852528Y-128963541D01*
X87860088Y-128912578D01*
X87872606Y-128862601D01*
X87889963Y-128814091D01*
X87911991Y-128767517D01*
X87938478Y-128723326D01*
X87969170Y-128681944D01*
X88003769Y-128643769D01*
X88041944Y-128609170D01*
X88083326Y-128578478D01*
X88127517Y-128551991D01*
X88174091Y-128529963D01*
X88222601Y-128512606D01*
X88272578Y-128500088D01*
X88323541Y-128492528D01*
X88375000Y-128490000D01*
X89425000Y-128490000D01*
X89476459Y-128492528D01*
X89476459Y-128492528D01*
G37*
D11*
G04 #@! TD*
G04 #@! TO.P,,*
G04 #@! TO.N,*
X88900000Y-129540000D03*
D10*
G04 #@! TO.N,*
G04 #@! TO.C,*
G36*
X92016459Y-128492528D02*
X92067422Y-128500088D01*
X92117399Y-128512606D01*
X92165909Y-128529963D01*
X92212483Y-128551991D01*
X92256674Y-128578478D01*
X92298056Y-128609170D01*
X92336231Y-128643769D01*
X92370830Y-128681944D01*
X92401522Y-128723326D01*
X92428009Y-128767517D01*
X92450037Y-128814091D01*
X92467394Y-128862601D01*
X92479912Y-128912578D01*
X92487472Y-128963541D01*
X92490000Y-129015000D01*
X92490000Y-130065000D01*
X92487472Y-130116459D01*
X92479912Y-130167422D01*
X92467394Y-130217399D01*
X92450037Y-130265909D01*
X92428009Y-130312483D01*
X92401522Y-130356674D01*
X92370830Y-130398056D01*
X92336231Y-130436231D01*
X92298056Y-130470830D01*
X92256674Y-130501522D01*
X92212483Y-130528009D01*
X92165909Y-130550037D01*
X92117399Y-130567394D01*
X92067422Y-130579912D01*
X92016459Y-130587472D01*
X91965000Y-130590000D01*
X90915000Y-130590000D01*
X90863541Y-130587472D01*
X90812578Y-130579912D01*
X90762601Y-130567394D01*
X90714091Y-130550037D01*
X90667517Y-130528009D01*
X90623326Y-130501522D01*
X90581944Y-130470830D01*
X90543769Y-130436231D01*
X90509170Y-130398056D01*
X90478478Y-130356674D01*
X90451991Y-130312483D01*
X90429963Y-130265909D01*
X90412606Y-130217399D01*
X90400088Y-130167422D01*
X90392528Y-130116459D01*
X90390000Y-130065000D01*
X90390000Y-129015000D01*
X90392528Y-128963541D01*
X90400088Y-128912578D01*
X90412606Y-128862601D01*
X90429963Y-128814091D01*
X90451991Y-128767517D01*
X90478478Y-128723326D01*
X90509170Y-128681944D01*
X90543769Y-128643769D01*
X90581944Y-128609170D01*
X90623326Y-128578478D01*
X90667517Y-128551991D01*
X90714091Y-128529963D01*
X90762601Y-128512606D01*
X90812578Y-128500088D01*
X90863541Y-128492528D01*
X90915000Y-128490000D01*
X91965000Y-128490000D01*
X92016459Y-128492528D01*
X92016459Y-128492528D01*
G37*
D11*
G04 #@! TD*
G04 #@! TO.P,,*
G04 #@! TO.N,*
X91440000Y-129540000D03*
D10*
G04 #@! TO.N,*
G04 #@! TO.C,*
G36*
X92016459Y-131032528D02*
X92067422Y-131040088D01*
X92117399Y-131052606D01*
X92165909Y-131069963D01*
X92212483Y-131091991D01*
X92256674Y-131118478D01*
X92298056Y-131149170D01*
X92336231Y-131183769D01*
X92370830Y-131221944D01*
X92401522Y-131263326D01*
X92428009Y-131307517D01*
X92450037Y-131354091D01*
X92467394Y-131402601D01*
X92479912Y-131452578D01*
X92487472Y-131503541D01*
X92490000Y-131555000D01*
X92490000Y-132605000D01*
X92487472Y-132656459D01*
X92479912Y-132707422D01*
X92467394Y-132757399D01*
X92450037Y-132805909D01*
X92428009Y-132852483D01*
X92401522Y-132896674D01*
X92370830Y-132938056D01*
X92336231Y-132976231D01*
X92298056Y-133010830D01*
X92256674Y-133041522D01*
X92212483Y-133068009D01*
X92165909Y-133090037D01*
X92117399Y-133107394D01*
X92067422Y-133119912D01*
X92016459Y-133127472D01*
X91965000Y-133130000D01*
X90915000Y-133130000D01*
X90863541Y-133127472D01*
X90812578Y-133119912D01*
X90762601Y-133107394D01*
X90714091Y-133090037D01*
X90667517Y-133068009D01*
X90623326Y-133041522D01*
X90581944Y-133010830D01*
X90543769Y-132976231D01*
X90509170Y-132938056D01*
X90478478Y-132896674D01*
X90451991Y-132852483D01*
X90429963Y-132805909D01*
X90412606Y-132757399D01*
X90400088Y-132707422D01*
X90392528Y-132656459D01*
X90390000Y-132605000D01*
X90390000Y-131555000D01*
X90392528Y-131503541D01*
X90400088Y-131452578D01*
X90412606Y-131402601D01*
X90429963Y-131354091D01*
X90451991Y-131307517D01*
X90478478Y-131263326D01*
X90509170Y-131221944D01*
X90543769Y-131183769D01*
X90581944Y-131149170D01*
X90623326Y-131118478D01*
X90667517Y-131091991D01*
X90714091Y-131069963D01*
X90762601Y-131052606D01*
X90812578Y-131040088D01*
X90863541Y-131032528D01*
X90915000Y-131030000D01*
X91965000Y-131030000D01*
X92016459Y-131032528D01*
X92016459Y-131032528D01*
G37*
D11*
G04 #@! TD*
G04 #@! TO.P,,*
G04 #@! TO.N,*
X91440000Y-132080000D03*
D10*
G04 #@! TO.N,*
G04 #@! TO.C,*
G36*
X92016459Y-133572528D02*
X92067422Y-133580088D01*
X92117399Y-133592606D01*
X92165909Y-133609963D01*
X92212483Y-133631991D01*
X92256674Y-133658478D01*
X92298056Y-133689170D01*
X92336231Y-133723769D01*
X92370830Y-133761944D01*
X92401522Y-133803326D01*
X92428009Y-133847517D01*
X92450037Y-133894091D01*
X92467394Y-133942601D01*
X92479912Y-133992578D01*
X92487472Y-134043541D01*
X92490000Y-134095000D01*
X92490000Y-135145000D01*
X92487472Y-135196459D01*
X92479912Y-135247422D01*
X92467394Y-135297399D01*
X92450037Y-135345909D01*
X92428009Y-135392483D01*
X92401522Y-135436674D01*
X92370830Y-135478056D01*
X92336231Y-135516231D01*
X92298056Y-135550830D01*
X92256674Y-135581522D01*
X92212483Y-135608009D01*
X92165909Y-135630037D01*
X92117399Y-135647394D01*
X92067422Y-135659912D01*
X92016459Y-135667472D01*
X91965000Y-135670000D01*
X90915000Y-135670000D01*
X90863541Y-135667472D01*
X90812578Y-135659912D01*
X90762601Y-135647394D01*
X90714091Y-135630037D01*
X90667517Y-135608009D01*
X90623326Y-135581522D01*
X90581944Y-135550830D01*
X90543769Y-135516231D01*
X90509170Y-135478056D01*
X90478478Y-135436674D01*
X90451991Y-135392483D01*
X90429963Y-135345909D01*
X90412606Y-135297399D01*
X90400088Y-135247422D01*
X90392528Y-135196459D01*
X90390000Y-135145000D01*
X90390000Y-134095000D01*
X90392528Y-134043541D01*
X90400088Y-133992578D01*
X90412606Y-133942601D01*
X90429963Y-133894091D01*
X90451991Y-133847517D01*
X90478478Y-133803326D01*
X90509170Y-133761944D01*
X90543769Y-133723769D01*
X90581944Y-133689170D01*
X90623326Y-133658478D01*
X90667517Y-133631991D01*
X90714091Y-133609963D01*
X90762601Y-133592606D01*
X90812578Y-133580088D01*
X90863541Y-133572528D01*
X90915000Y-133570000D01*
X91965000Y-133570000D01*
X92016459Y-133572528D01*
X92016459Y-133572528D01*
G37*
D11*
G04 #@! TD*
G04 #@! TO.P,,*
G04 #@! TO.N,*
X91440000Y-134620000D03*
D10*
G04 #@! TO.N,*
G04 #@! TO.C,*
G36*
X94556459Y-128492528D02*
X94607422Y-128500088D01*
X94657399Y-128512606D01*
X94705909Y-128529963D01*
X94752483Y-128551991D01*
X94796674Y-128578478D01*
X94838056Y-128609170D01*
X94876231Y-128643769D01*
X94910830Y-128681944D01*
X94941522Y-128723326D01*
X94968009Y-128767517D01*
X94990037Y-128814091D01*
X95007394Y-128862601D01*
X95019912Y-128912578D01*
X95027472Y-128963541D01*
X95030000Y-129015000D01*
X95030000Y-130065000D01*
X95027472Y-130116459D01*
X95019912Y-130167422D01*
X95007394Y-130217399D01*
X94990037Y-130265909D01*
X94968009Y-130312483D01*
X94941522Y-130356674D01*
X94910830Y-130398056D01*
X94876231Y-130436231D01*
X94838056Y-130470830D01*
X94796674Y-130501522D01*
X94752483Y-130528009D01*
X94705909Y-130550037D01*
X94657399Y-130567394D01*
X94607422Y-130579912D01*
X94556459Y-130587472D01*
X94505000Y-130590000D01*
X93455000Y-130590000D01*
X93403541Y-130587472D01*
X93352578Y-130579912D01*
X93302601Y-130567394D01*
X93254091Y-130550037D01*
X93207517Y-130528009D01*
X93163326Y-130501522D01*
X93121944Y-130470830D01*
X93083769Y-130436231D01*
X93049170Y-130398056D01*
X93018478Y-130356674D01*
X92991991Y-130312483D01*
X92969963Y-130265909D01*
X92952606Y-130217399D01*
X92940088Y-130167422D01*
X92932528Y-130116459D01*
X92930000Y-130065000D01*
X92930000Y-129015000D01*
X92932528Y-128963541D01*
X92940088Y-128912578D01*
X92952606Y-128862601D01*
X92969963Y-128814091D01*
X92991991Y-128767517D01*
X93018478Y-128723326D01*
X93049170Y-128681944D01*
X93083769Y-128643769D01*
X93121944Y-128609170D01*
X93163326Y-128578478D01*
X93207517Y-128551991D01*
X93254091Y-128529963D01*
X93302601Y-128512606D01*
X93352578Y-128500088D01*
X93403541Y-128492528D01*
X93455000Y-128490000D01*
X94505000Y-128490000D01*
X94556459Y-128492528D01*
X94556459Y-128492528D01*
G37*
D11*
G04 #@! TD*
G04 #@! TO.P,,*
G04 #@! TO.N,*
X93980000Y-129540000D03*
D10*
G04 #@! TO.N,*
G04 #@! TO.C,*
G36*
X94556459Y-131032528D02*
X94607422Y-131040088D01*
X94657399Y-131052606D01*
X94705909Y-131069963D01*
X94752483Y-131091991D01*
X94796674Y-131118478D01*
X94838056Y-131149170D01*
X94876231Y-131183769D01*
X94910830Y-131221944D01*
X94941522Y-131263326D01*
X94968009Y-131307517D01*
X94990037Y-131354091D01*
X95007394Y-131402601D01*
X95019912Y-131452578D01*
X95027472Y-131503541D01*
X95030000Y-131555000D01*
X95030000Y-132605000D01*
X95027472Y-132656459D01*
X95019912Y-132707422D01*
X95007394Y-132757399D01*
X94990037Y-132805909D01*
X94968009Y-132852483D01*
X94941522Y-132896674D01*
X94910830Y-132938056D01*
X94876231Y-132976231D01*
X94838056Y-133010830D01*
X94796674Y-133041522D01*
X94752483Y-133068009D01*
X94705909Y-133090037D01*
X94657399Y-133107394D01*
X94607422Y-133119912D01*
X94556459Y-133127472D01*
X94505000Y-133130000D01*
X93455000Y-133130000D01*
X93403541Y-133127472D01*
X93352578Y-133119912D01*
X93302601Y-133107394D01*
X93254091Y-133090037D01*
X93207517Y-133068009D01*
X93163326Y-133041522D01*
X93121944Y-133010830D01*
X93083769Y-132976231D01*
X93049170Y-132938056D01*
X93018478Y-132896674D01*
X92991991Y-132852483D01*
X92969963Y-132805909D01*
X92952606Y-132757399D01*
X92940088Y-132707422D01*
X92932528Y-132656459D01*
X92930000Y-132605000D01*
X92930000Y-131555000D01*
X92932528Y-131503541D01*
X92940088Y-131452578D01*
X92952606Y-131402601D01*
X92969963Y-131354091D01*
X92991991Y-131307517D01*
X93018478Y-131263326D01*
X93049170Y-131221944D01*
X93083769Y-131183769D01*
X93121944Y-131149170D01*
X93163326Y-131118478D01*
X93207517Y-131091991D01*
X93254091Y-131069963D01*
X93302601Y-131052606D01*
X93352578Y-131040088D01*
X93403541Y-131032528D01*
X93455000Y-131030000D01*
X94505000Y-131030000D01*
X94556459Y-131032528D01*
X94556459Y-131032528D01*
G37*
D11*
G04 #@! TD*
G04 #@! TO.P,,*
G04 #@! TO.N,*
X93980000Y-132080000D03*
D10*
G04 #@! TO.N,*
G04 #@! TO.C,*
G36*
X94556459Y-133572528D02*
X94607422Y-133580088D01*
X94657399Y-133592606D01*
X94705909Y-133609963D01*
X94752483Y-133631991D01*
X94796674Y-133658478D01*
X94838056Y-133689170D01*
X94876231Y-133723769D01*
X94910830Y-133761944D01*
X94941522Y-133803326D01*
X94968009Y-133847517D01*
X94990037Y-133894091D01*
X95007394Y-133942601D01*
X95019912Y-133992578D01*
X95027472Y-134043541D01*
X95030000Y-134095000D01*
X95030000Y-135145000D01*
X95027472Y-135196459D01*
X95019912Y-135247422D01*
X95007394Y-135297399D01*
X94990037Y-135345909D01*
X94968009Y-135392483D01*
X94941522Y-135436674D01*
X94910830Y-135478056D01*
X94876231Y-135516231D01*
X94838056Y-135550830D01*
X94796674Y-135581522D01*
X94752483Y-135608009D01*
X94705909Y-135630037D01*
X94657399Y-135647394D01*
X94607422Y-135659912D01*
X94556459Y-135667472D01*
X94505000Y-135670000D01*
X93455000Y-135670000D01*
X93403541Y-135667472D01*
X93352578Y-135659912D01*
X93302601Y-135647394D01*
X93254091Y-135630037D01*
X93207517Y-135608009D01*
X93163326Y-135581522D01*
X93121944Y-135550830D01*
X93083769Y-135516231D01*
X93049170Y-135478056D01*
X93018478Y-135436674D01*
X92991991Y-135392483D01*
X92969963Y-135345909D01*
X92952606Y-135297399D01*
X92940088Y-135247422D01*
X92932528Y-135196459D01*
X92930000Y-135145000D01*
X92930000Y-134095000D01*
X92932528Y-134043541D01*
X92940088Y-133992578D01*
X92952606Y-133942601D01*
X92969963Y-133894091D01*
X92991991Y-133847517D01*
X93018478Y-133803326D01*
X93049170Y-133761944D01*
X93083769Y-133723769D01*
X93121944Y-133689170D01*
X93163326Y-133658478D01*
X93207517Y-133631991D01*
X93254091Y-133609963D01*
X93302601Y-133592606D01*
X93352578Y-133580088D01*
X93403541Y-133572528D01*
X93455000Y-133570000D01*
X94505000Y-133570000D01*
X94556459Y-133572528D01*
X94556459Y-133572528D01*
G37*
D11*
G04 #@! TD*
G04 #@! TO.P,,*
G04 #@! TO.N,*
X93980000Y-134620000D03*
D10*
G04 #@! TO.N,*
G04 #@! TO.C,*
G36*
X102176459Y-128492528D02*
X102227422Y-128500088D01*
X102277399Y-128512606D01*
X102325909Y-128529963D01*
X102372483Y-128551991D01*
X102416674Y-128578478D01*
X102458056Y-128609170D01*
X102496231Y-128643769D01*
X102530830Y-128681944D01*
X102561522Y-128723326D01*
X102588009Y-128767517D01*
X102610037Y-128814091D01*
X102627394Y-128862601D01*
X102639912Y-128912578D01*
X102647472Y-128963541D01*
X102650000Y-129015000D01*
X102650000Y-130065000D01*
X102647472Y-130116459D01*
X102639912Y-130167422D01*
X102627394Y-130217399D01*
X102610037Y-130265909D01*
X102588009Y-130312483D01*
X102561522Y-130356674D01*
X102530830Y-130398056D01*
X102496231Y-130436231D01*
X102458056Y-130470830D01*
X102416674Y-130501522D01*
X102372483Y-130528009D01*
X102325909Y-130550037D01*
X102277399Y-130567394D01*
X102227422Y-130579912D01*
X102176459Y-130587472D01*
X102125000Y-130590000D01*
X101075000Y-130590000D01*
X101023541Y-130587472D01*
X100972578Y-130579912D01*
X100922601Y-130567394D01*
X100874091Y-130550037D01*
X100827517Y-130528009D01*
X100783326Y-130501522D01*
X100741944Y-130470830D01*
X100703769Y-130436231D01*
X100669170Y-130398056D01*
X100638478Y-130356674D01*
X100611991Y-130312483D01*
X100589963Y-130265909D01*
X100572606Y-130217399D01*
X100560088Y-130167422D01*
X100552528Y-130116459D01*
X100550000Y-130065000D01*
X100550000Y-129015000D01*
X100552528Y-128963541D01*
X100560088Y-128912578D01*
X100572606Y-128862601D01*
X100589963Y-128814091D01*
X100611991Y-128767517D01*
X100638478Y-128723326D01*
X100669170Y-128681944D01*
X100703769Y-128643769D01*
X100741944Y-128609170D01*
X100783326Y-128578478D01*
X100827517Y-128551991D01*
X100874091Y-128529963D01*
X100922601Y-128512606D01*
X100972578Y-128500088D01*
X101023541Y-128492528D01*
X101075000Y-128490000D01*
X102125000Y-128490000D01*
X102176459Y-128492528D01*
X102176459Y-128492528D01*
G37*
D11*
G04 #@! TD*
G04 #@! TO.P,,*
G04 #@! TO.N,*
X101600000Y-129540000D03*
D10*
G04 #@! TO.N,*
G04 #@! TO.C,*
G36*
X104716459Y-128492528D02*
X104767422Y-128500088D01*
X104817399Y-128512606D01*
X104865909Y-128529963D01*
X104912483Y-128551991D01*
X104956674Y-128578478D01*
X104998056Y-128609170D01*
X105036231Y-128643769D01*
X105070830Y-128681944D01*
X105101522Y-128723326D01*
X105128009Y-128767517D01*
X105150037Y-128814091D01*
X105167394Y-128862601D01*
X105179912Y-128912578D01*
X105187472Y-128963541D01*
X105190000Y-129015000D01*
X105190000Y-130065000D01*
X105187472Y-130116459D01*
X105179912Y-130167422D01*
X105167394Y-130217399D01*
X105150037Y-130265909D01*
X105128009Y-130312483D01*
X105101522Y-130356674D01*
X105070830Y-130398056D01*
X105036231Y-130436231D01*
X104998056Y-130470830D01*
X104956674Y-130501522D01*
X104912483Y-130528009D01*
X104865909Y-130550037D01*
X104817399Y-130567394D01*
X104767422Y-130579912D01*
X104716459Y-130587472D01*
X104665000Y-130590000D01*
X103615000Y-130590000D01*
X103563541Y-130587472D01*
X103512578Y-130579912D01*
X103462601Y-130567394D01*
X103414091Y-130550037D01*
X103367517Y-130528009D01*
X103323326Y-130501522D01*
X103281944Y-130470830D01*
X103243769Y-130436231D01*
X103209170Y-130398056D01*
X103178478Y-130356674D01*
X103151991Y-130312483D01*
X103129963Y-130265909D01*
X103112606Y-130217399D01*
X103100088Y-130167422D01*
X103092528Y-130116459D01*
X103090000Y-130065000D01*
X103090000Y-129015000D01*
X103092528Y-128963541D01*
X103100088Y-128912578D01*
X103112606Y-128862601D01*
X103129963Y-128814091D01*
X103151991Y-128767517D01*
X103178478Y-128723326D01*
X103209170Y-128681944D01*
X103243769Y-128643769D01*
X103281944Y-128609170D01*
X103323326Y-128578478D01*
X103367517Y-128551991D01*
X103414091Y-128529963D01*
X103462601Y-128512606D01*
X103512578Y-128500088D01*
X103563541Y-128492528D01*
X103615000Y-128490000D01*
X104665000Y-128490000D01*
X104716459Y-128492528D01*
X104716459Y-128492528D01*
G37*
D11*
G04 #@! TD*
G04 #@! TO.P,,*
G04 #@! TO.N,*
X104140000Y-129540000D03*
D10*
G04 #@! TO.N,*
G04 #@! TO.C,*
G36*
X107256459Y-128492528D02*
X107307422Y-128500088D01*
X107357399Y-128512606D01*
X107405909Y-128529963D01*
X107452483Y-128551991D01*
X107496674Y-128578478D01*
X107538056Y-128609170D01*
X107576231Y-128643769D01*
X107610830Y-128681944D01*
X107641522Y-128723326D01*
X107668009Y-128767517D01*
X107690037Y-128814091D01*
X107707394Y-128862601D01*
X107719912Y-128912578D01*
X107727472Y-128963541D01*
X107730000Y-129015000D01*
X107730000Y-130065000D01*
X107727472Y-130116459D01*
X107719912Y-130167422D01*
X107707394Y-130217399D01*
X107690037Y-130265909D01*
X107668009Y-130312483D01*
X107641522Y-130356674D01*
X107610830Y-130398056D01*
X107576231Y-130436231D01*
X107538056Y-130470830D01*
X107496674Y-130501522D01*
X107452483Y-130528009D01*
X107405909Y-130550037D01*
X107357399Y-130567394D01*
X107307422Y-130579912D01*
X107256459Y-130587472D01*
X107205000Y-130590000D01*
X106155000Y-130590000D01*
X106103541Y-130587472D01*
X106052578Y-130579912D01*
X106002601Y-130567394D01*
X105954091Y-130550037D01*
X105907517Y-130528009D01*
X105863326Y-130501522D01*
X105821944Y-130470830D01*
X105783769Y-130436231D01*
X105749170Y-130398056D01*
X105718478Y-130356674D01*
X105691991Y-130312483D01*
X105669963Y-130265909D01*
X105652606Y-130217399D01*
X105640088Y-130167422D01*
X105632528Y-130116459D01*
X105630000Y-130065000D01*
X105630000Y-129015000D01*
X105632528Y-128963541D01*
X105640088Y-128912578D01*
X105652606Y-128862601D01*
X105669963Y-128814091D01*
X105691991Y-128767517D01*
X105718478Y-128723326D01*
X105749170Y-128681944D01*
X105783769Y-128643769D01*
X105821944Y-128609170D01*
X105863326Y-128578478D01*
X105907517Y-128551991D01*
X105954091Y-128529963D01*
X106002601Y-128512606D01*
X106052578Y-128500088D01*
X106103541Y-128492528D01*
X106155000Y-128490000D01*
X107205000Y-128490000D01*
X107256459Y-128492528D01*
X107256459Y-128492528D01*
G37*
D11*
G04 #@! TD*
G04 #@! TO.P,,*
G04 #@! TO.N,*
X106680000Y-129540000D03*
D10*
G04 #@! TO.N,*
G04 #@! TO.C,*
G36*
X99636459Y-128492528D02*
X99687422Y-128500088D01*
X99737399Y-128512606D01*
X99785909Y-128529963D01*
X99832483Y-128551991D01*
X99876674Y-128578478D01*
X99918056Y-128609170D01*
X99956231Y-128643769D01*
X99990830Y-128681944D01*
X100021522Y-128723326D01*
X100048009Y-128767517D01*
X100070037Y-128814091D01*
X100087394Y-128862601D01*
X100099912Y-128912578D01*
X100107472Y-128963541D01*
X100110000Y-129015000D01*
X100110000Y-130065000D01*
X100107472Y-130116459D01*
X100099912Y-130167422D01*
X100087394Y-130217399D01*
X100070037Y-130265909D01*
X100048009Y-130312483D01*
X100021522Y-130356674D01*
X99990830Y-130398056D01*
X99956231Y-130436231D01*
X99918056Y-130470830D01*
X99876674Y-130501522D01*
X99832483Y-130528009D01*
X99785909Y-130550037D01*
X99737399Y-130567394D01*
X99687422Y-130579912D01*
X99636459Y-130587472D01*
X99585000Y-130590000D01*
X98535000Y-130590000D01*
X98483541Y-130587472D01*
X98432578Y-130579912D01*
X98382601Y-130567394D01*
X98334091Y-130550037D01*
X98287517Y-130528009D01*
X98243326Y-130501522D01*
X98201944Y-130470830D01*
X98163769Y-130436231D01*
X98129170Y-130398056D01*
X98098478Y-130356674D01*
X98071991Y-130312483D01*
X98049963Y-130265909D01*
X98032606Y-130217399D01*
X98020088Y-130167422D01*
X98012528Y-130116459D01*
X98010000Y-130065000D01*
X98010000Y-129015000D01*
X98012528Y-128963541D01*
X98020088Y-128912578D01*
X98032606Y-128862601D01*
X98049963Y-128814091D01*
X98071991Y-128767517D01*
X98098478Y-128723326D01*
X98129170Y-128681944D01*
X98163769Y-128643769D01*
X98201944Y-128609170D01*
X98243326Y-128578478D01*
X98287517Y-128551991D01*
X98334091Y-128529963D01*
X98382601Y-128512606D01*
X98432578Y-128500088D01*
X98483541Y-128492528D01*
X98535000Y-128490000D01*
X99585000Y-128490000D01*
X99636459Y-128492528D01*
X99636459Y-128492528D01*
G37*
D11*
G04 #@! TD*
G04 #@! TO.P,,*
G04 #@! TO.N,*
X99060000Y-129540000D03*
D10*
G04 #@! TO.N,*
G04 #@! TO.C,*
G36*
X97096459Y-128492528D02*
X97147422Y-128500088D01*
X97197399Y-128512606D01*
X97245909Y-128529963D01*
X97292483Y-128551991D01*
X97336674Y-128578478D01*
X97378056Y-128609170D01*
X97416231Y-128643769D01*
X97450830Y-128681944D01*
X97481522Y-128723326D01*
X97508009Y-128767517D01*
X97530037Y-128814091D01*
X97547394Y-128862601D01*
X97559912Y-128912578D01*
X97567472Y-128963541D01*
X97570000Y-129015000D01*
X97570000Y-130065000D01*
X97567472Y-130116459D01*
X97559912Y-130167422D01*
X97547394Y-130217399D01*
X97530037Y-130265909D01*
X97508009Y-130312483D01*
X97481522Y-130356674D01*
X97450830Y-130398056D01*
X97416231Y-130436231D01*
X97378056Y-130470830D01*
X97336674Y-130501522D01*
X97292483Y-130528009D01*
X97245909Y-130550037D01*
X97197399Y-130567394D01*
X97147422Y-130579912D01*
X97096459Y-130587472D01*
X97045000Y-130590000D01*
X95995000Y-130590000D01*
X95943541Y-130587472D01*
X95892578Y-130579912D01*
X95842601Y-130567394D01*
X95794091Y-130550037D01*
X95747517Y-130528009D01*
X95703326Y-130501522D01*
X95661944Y-130470830D01*
X95623769Y-130436231D01*
X95589170Y-130398056D01*
X95558478Y-130356674D01*
X95531991Y-130312483D01*
X95509963Y-130265909D01*
X95492606Y-130217399D01*
X95480088Y-130167422D01*
X95472528Y-130116459D01*
X95470000Y-130065000D01*
X95470000Y-129015000D01*
X95472528Y-128963541D01*
X95480088Y-128912578D01*
X95492606Y-128862601D01*
X95509963Y-128814091D01*
X95531991Y-128767517D01*
X95558478Y-128723326D01*
X95589170Y-128681944D01*
X95623769Y-128643769D01*
X95661944Y-128609170D01*
X95703326Y-128578478D01*
X95747517Y-128551991D01*
X95794091Y-128529963D01*
X95842601Y-128512606D01*
X95892578Y-128500088D01*
X95943541Y-128492528D01*
X95995000Y-128490000D01*
X97045000Y-128490000D01*
X97096459Y-128492528D01*
X97096459Y-128492528D01*
G37*
D11*
G04 #@! TD*
G04 #@! TO.P,,*
G04 #@! TO.N,*
X96520000Y-129540000D03*
D10*
G04 #@! TO.N,*
G04 #@! TO.C,*
G36*
X104716459Y-131032528D02*
X104767422Y-131040088D01*
X104817399Y-131052606D01*
X104865909Y-131069963D01*
X104912483Y-131091991D01*
X104956674Y-131118478D01*
X104998056Y-131149170D01*
X105036231Y-131183769D01*
X105070830Y-131221944D01*
X105101522Y-131263326D01*
X105128009Y-131307517D01*
X105150037Y-131354091D01*
X105167394Y-131402601D01*
X105179912Y-131452578D01*
X105187472Y-131503541D01*
X105190000Y-131555000D01*
X105190000Y-132605000D01*
X105187472Y-132656459D01*
X105179912Y-132707422D01*
X105167394Y-132757399D01*
X105150037Y-132805909D01*
X105128009Y-132852483D01*
X105101522Y-132896674D01*
X105070830Y-132938056D01*
X105036231Y-132976231D01*
X104998056Y-133010830D01*
X104956674Y-133041522D01*
X104912483Y-133068009D01*
X104865909Y-133090037D01*
X104817399Y-133107394D01*
X104767422Y-133119912D01*
X104716459Y-133127472D01*
X104665000Y-133130000D01*
X103615000Y-133130000D01*
X103563541Y-133127472D01*
X103512578Y-133119912D01*
X103462601Y-133107394D01*
X103414091Y-133090037D01*
X103367517Y-133068009D01*
X103323326Y-133041522D01*
X103281944Y-133010830D01*
X103243769Y-132976231D01*
X103209170Y-132938056D01*
X103178478Y-132896674D01*
X103151991Y-132852483D01*
X103129963Y-132805909D01*
X103112606Y-132757399D01*
X103100088Y-132707422D01*
X103092528Y-132656459D01*
X103090000Y-132605000D01*
X103090000Y-131555000D01*
X103092528Y-131503541D01*
X103100088Y-131452578D01*
X103112606Y-131402601D01*
X103129963Y-131354091D01*
X103151991Y-131307517D01*
X103178478Y-131263326D01*
X103209170Y-131221944D01*
X103243769Y-131183769D01*
X103281944Y-131149170D01*
X103323326Y-131118478D01*
X103367517Y-131091991D01*
X103414091Y-131069963D01*
X103462601Y-131052606D01*
X103512578Y-131040088D01*
X103563541Y-131032528D01*
X103615000Y-131030000D01*
X104665000Y-131030000D01*
X104716459Y-131032528D01*
X104716459Y-131032528D01*
G37*
D11*
G04 #@! TD*
G04 #@! TO.P,,*
G04 #@! TO.N,*
X104140000Y-132080000D03*
D10*
G04 #@! TO.N,*
G04 #@! TO.C,*
G36*
X102176459Y-131032528D02*
X102227422Y-131040088D01*
X102277399Y-131052606D01*
X102325909Y-131069963D01*
X102372483Y-131091991D01*
X102416674Y-131118478D01*
X102458056Y-131149170D01*
X102496231Y-131183769D01*
X102530830Y-131221944D01*
X102561522Y-131263326D01*
X102588009Y-131307517D01*
X102610037Y-131354091D01*
X102627394Y-131402601D01*
X102639912Y-131452578D01*
X102647472Y-131503541D01*
X102650000Y-131555000D01*
X102650000Y-132605000D01*
X102647472Y-132656459D01*
X102639912Y-132707422D01*
X102627394Y-132757399D01*
X102610037Y-132805909D01*
X102588009Y-132852483D01*
X102561522Y-132896674D01*
X102530830Y-132938056D01*
X102496231Y-132976231D01*
X102458056Y-133010830D01*
X102416674Y-133041522D01*
X102372483Y-133068009D01*
X102325909Y-133090037D01*
X102277399Y-133107394D01*
X102227422Y-133119912D01*
X102176459Y-133127472D01*
X102125000Y-133130000D01*
X101075000Y-133130000D01*
X101023541Y-133127472D01*
X100972578Y-133119912D01*
X100922601Y-133107394D01*
X100874091Y-133090037D01*
X100827517Y-133068009D01*
X100783326Y-133041522D01*
X100741944Y-133010830D01*
X100703769Y-132976231D01*
X100669170Y-132938056D01*
X100638478Y-132896674D01*
X100611991Y-132852483D01*
X100589963Y-132805909D01*
X100572606Y-132757399D01*
X100560088Y-132707422D01*
X100552528Y-132656459D01*
X100550000Y-132605000D01*
X100550000Y-131555000D01*
X100552528Y-131503541D01*
X100560088Y-131452578D01*
X100572606Y-131402601D01*
X100589963Y-131354091D01*
X100611991Y-131307517D01*
X100638478Y-131263326D01*
X100669170Y-131221944D01*
X100703769Y-131183769D01*
X100741944Y-131149170D01*
X100783326Y-131118478D01*
X100827517Y-131091991D01*
X100874091Y-131069963D01*
X100922601Y-131052606D01*
X100972578Y-131040088D01*
X101023541Y-131032528D01*
X101075000Y-131030000D01*
X102125000Y-131030000D01*
X102176459Y-131032528D01*
X102176459Y-131032528D01*
G37*
D11*
G04 #@! TD*
G04 #@! TO.P,,*
G04 #@! TO.N,*
X101600000Y-132080000D03*
D10*
G04 #@! TO.N,*
G04 #@! TO.C,*
G36*
X107256459Y-131032528D02*
X107307422Y-131040088D01*
X107357399Y-131052606D01*
X107405909Y-131069963D01*
X107452483Y-131091991D01*
X107496674Y-131118478D01*
X107538056Y-131149170D01*
X107576231Y-131183769D01*
X107610830Y-131221944D01*
X107641522Y-131263326D01*
X107668009Y-131307517D01*
X107690037Y-131354091D01*
X107707394Y-131402601D01*
X107719912Y-131452578D01*
X107727472Y-131503541D01*
X107730000Y-131555000D01*
X107730000Y-132605000D01*
X107727472Y-132656459D01*
X107719912Y-132707422D01*
X107707394Y-132757399D01*
X107690037Y-132805909D01*
X107668009Y-132852483D01*
X107641522Y-132896674D01*
X107610830Y-132938056D01*
X107576231Y-132976231D01*
X107538056Y-133010830D01*
X107496674Y-133041522D01*
X107452483Y-133068009D01*
X107405909Y-133090037D01*
X107357399Y-133107394D01*
X107307422Y-133119912D01*
X107256459Y-133127472D01*
X107205000Y-133130000D01*
X106155000Y-133130000D01*
X106103541Y-133127472D01*
X106052578Y-133119912D01*
X106002601Y-133107394D01*
X105954091Y-133090037D01*
X105907517Y-133068009D01*
X105863326Y-133041522D01*
X105821944Y-133010830D01*
X105783769Y-132976231D01*
X105749170Y-132938056D01*
X105718478Y-132896674D01*
X105691991Y-132852483D01*
X105669963Y-132805909D01*
X105652606Y-132757399D01*
X105640088Y-132707422D01*
X105632528Y-132656459D01*
X105630000Y-132605000D01*
X105630000Y-131555000D01*
X105632528Y-131503541D01*
X105640088Y-131452578D01*
X105652606Y-131402601D01*
X105669963Y-131354091D01*
X105691991Y-131307517D01*
X105718478Y-131263326D01*
X105749170Y-131221944D01*
X105783769Y-131183769D01*
X105821944Y-131149170D01*
X105863326Y-131118478D01*
X105907517Y-131091991D01*
X105954091Y-131069963D01*
X106002601Y-131052606D01*
X106052578Y-131040088D01*
X106103541Y-131032528D01*
X106155000Y-131030000D01*
X107205000Y-131030000D01*
X107256459Y-131032528D01*
X107256459Y-131032528D01*
G37*
D11*
G04 #@! TD*
G04 #@! TO.P,,*
G04 #@! TO.N,*
X106680000Y-132080000D03*
D10*
G04 #@! TO.N,*
G04 #@! TO.C,*
G36*
X99636459Y-131032528D02*
X99687422Y-131040088D01*
X99737399Y-131052606D01*
X99785909Y-131069963D01*
X99832483Y-131091991D01*
X99876674Y-131118478D01*
X99918056Y-131149170D01*
X99956231Y-131183769D01*
X99990830Y-131221944D01*
X100021522Y-131263326D01*
X100048009Y-131307517D01*
X100070037Y-131354091D01*
X100087394Y-131402601D01*
X100099912Y-131452578D01*
X100107472Y-131503541D01*
X100110000Y-131555000D01*
X100110000Y-132605000D01*
X100107472Y-132656459D01*
X100099912Y-132707422D01*
X100087394Y-132757399D01*
X100070037Y-132805909D01*
X100048009Y-132852483D01*
X100021522Y-132896674D01*
X99990830Y-132938056D01*
X99956231Y-132976231D01*
X99918056Y-133010830D01*
X99876674Y-133041522D01*
X99832483Y-133068009D01*
X99785909Y-133090037D01*
X99737399Y-133107394D01*
X99687422Y-133119912D01*
X99636459Y-133127472D01*
X99585000Y-133130000D01*
X98535000Y-133130000D01*
X98483541Y-133127472D01*
X98432578Y-133119912D01*
X98382601Y-133107394D01*
X98334091Y-133090037D01*
X98287517Y-133068009D01*
X98243326Y-133041522D01*
X98201944Y-133010830D01*
X98163769Y-132976231D01*
X98129170Y-132938056D01*
X98098478Y-132896674D01*
X98071991Y-132852483D01*
X98049963Y-132805909D01*
X98032606Y-132757399D01*
X98020088Y-132707422D01*
X98012528Y-132656459D01*
X98010000Y-132605000D01*
X98010000Y-131555000D01*
X98012528Y-131503541D01*
X98020088Y-131452578D01*
X98032606Y-131402601D01*
X98049963Y-131354091D01*
X98071991Y-131307517D01*
X98098478Y-131263326D01*
X98129170Y-131221944D01*
X98163769Y-131183769D01*
X98201944Y-131149170D01*
X98243326Y-131118478D01*
X98287517Y-131091991D01*
X98334091Y-131069963D01*
X98382601Y-131052606D01*
X98432578Y-131040088D01*
X98483541Y-131032528D01*
X98535000Y-131030000D01*
X99585000Y-131030000D01*
X99636459Y-131032528D01*
X99636459Y-131032528D01*
G37*
D11*
G04 #@! TD*
G04 #@! TO.P,,*
G04 #@! TO.N,*
X99060000Y-132080000D03*
D10*
G04 #@! TO.N,*
G04 #@! TO.C,*
G36*
X97096459Y-131032528D02*
X97147422Y-131040088D01*
X97197399Y-131052606D01*
X97245909Y-131069963D01*
X97292483Y-131091991D01*
X97336674Y-131118478D01*
X97378056Y-131149170D01*
X97416231Y-131183769D01*
X97450830Y-131221944D01*
X97481522Y-131263326D01*
X97508009Y-131307517D01*
X97530037Y-131354091D01*
X97547394Y-131402601D01*
X97559912Y-131452578D01*
X97567472Y-131503541D01*
X97570000Y-131555000D01*
X97570000Y-132605000D01*
X97567472Y-132656459D01*
X97559912Y-132707422D01*
X97547394Y-132757399D01*
X97530037Y-132805909D01*
X97508009Y-132852483D01*
X97481522Y-132896674D01*
X97450830Y-132938056D01*
X97416231Y-132976231D01*
X97378056Y-133010830D01*
X97336674Y-133041522D01*
X97292483Y-133068009D01*
X97245909Y-133090037D01*
X97197399Y-133107394D01*
X97147422Y-133119912D01*
X97096459Y-133127472D01*
X97045000Y-133130000D01*
X95995000Y-133130000D01*
X95943541Y-133127472D01*
X95892578Y-133119912D01*
X95842601Y-133107394D01*
X95794091Y-133090037D01*
X95747517Y-133068009D01*
X95703326Y-133041522D01*
X95661944Y-133010830D01*
X95623769Y-132976231D01*
X95589170Y-132938056D01*
X95558478Y-132896674D01*
X95531991Y-132852483D01*
X95509963Y-132805909D01*
X95492606Y-132757399D01*
X95480088Y-132707422D01*
X95472528Y-132656459D01*
X95470000Y-132605000D01*
X95470000Y-131555000D01*
X95472528Y-131503541D01*
X95480088Y-131452578D01*
X95492606Y-131402601D01*
X95509963Y-131354091D01*
X95531991Y-131307517D01*
X95558478Y-131263326D01*
X95589170Y-131221944D01*
X95623769Y-131183769D01*
X95661944Y-131149170D01*
X95703326Y-131118478D01*
X95747517Y-131091991D01*
X95794091Y-131069963D01*
X95842601Y-131052606D01*
X95892578Y-131040088D01*
X95943541Y-131032528D01*
X95995000Y-131030000D01*
X97045000Y-131030000D01*
X97096459Y-131032528D01*
X97096459Y-131032528D01*
G37*
D11*
G04 #@! TD*
G04 #@! TO.P,,*
G04 #@! TO.N,*
X96520000Y-132080000D03*
D10*
G04 #@! TO.N,*
G04 #@! TO.C,*
G36*
X102176459Y-133572528D02*
X102227422Y-133580088D01*
X102277399Y-133592606D01*
X102325909Y-133609963D01*
X102372483Y-133631991D01*
X102416674Y-133658478D01*
X102458056Y-133689170D01*
X102496231Y-133723769D01*
X102530830Y-133761944D01*
X102561522Y-133803326D01*
X102588009Y-133847517D01*
X102610037Y-133894091D01*
X102627394Y-133942601D01*
X102639912Y-133992578D01*
X102647472Y-134043541D01*
X102650000Y-134095000D01*
X102650000Y-135145000D01*
X102647472Y-135196459D01*
X102639912Y-135247422D01*
X102627394Y-135297399D01*
X102610037Y-135345909D01*
X102588009Y-135392483D01*
X102561522Y-135436674D01*
X102530830Y-135478056D01*
X102496231Y-135516231D01*
X102458056Y-135550830D01*
X102416674Y-135581522D01*
X102372483Y-135608009D01*
X102325909Y-135630037D01*
X102277399Y-135647394D01*
X102227422Y-135659912D01*
X102176459Y-135667472D01*
X102125000Y-135670000D01*
X101075000Y-135670000D01*
X101023541Y-135667472D01*
X100972578Y-135659912D01*
X100922601Y-135647394D01*
X100874091Y-135630037D01*
X100827517Y-135608009D01*
X100783326Y-135581522D01*
X100741944Y-135550830D01*
X100703769Y-135516231D01*
X100669170Y-135478056D01*
X100638478Y-135436674D01*
X100611991Y-135392483D01*
X100589963Y-135345909D01*
X100572606Y-135297399D01*
X100560088Y-135247422D01*
X100552528Y-135196459D01*
X100550000Y-135145000D01*
X100550000Y-134095000D01*
X100552528Y-134043541D01*
X100560088Y-133992578D01*
X100572606Y-133942601D01*
X100589963Y-133894091D01*
X100611991Y-133847517D01*
X100638478Y-133803326D01*
X100669170Y-133761944D01*
X100703769Y-133723769D01*
X100741944Y-133689170D01*
X100783326Y-133658478D01*
X100827517Y-133631991D01*
X100874091Y-133609963D01*
X100922601Y-133592606D01*
X100972578Y-133580088D01*
X101023541Y-133572528D01*
X101075000Y-133570000D01*
X102125000Y-133570000D01*
X102176459Y-133572528D01*
X102176459Y-133572528D01*
G37*
D11*
G04 #@! TD*
G04 #@! TO.P,,*
G04 #@! TO.N,*
X101600000Y-134620000D03*
D10*
G04 #@! TO.N,*
G04 #@! TO.C,*
G36*
X107256459Y-133572528D02*
X107307422Y-133580088D01*
X107357399Y-133592606D01*
X107405909Y-133609963D01*
X107452483Y-133631991D01*
X107496674Y-133658478D01*
X107538056Y-133689170D01*
X107576231Y-133723769D01*
X107610830Y-133761944D01*
X107641522Y-133803326D01*
X107668009Y-133847517D01*
X107690037Y-133894091D01*
X107707394Y-133942601D01*
X107719912Y-133992578D01*
X107727472Y-134043541D01*
X107730000Y-134095000D01*
X107730000Y-135145000D01*
X107727472Y-135196459D01*
X107719912Y-135247422D01*
X107707394Y-135297399D01*
X107690037Y-135345909D01*
X107668009Y-135392483D01*
X107641522Y-135436674D01*
X107610830Y-135478056D01*
X107576231Y-135516231D01*
X107538056Y-135550830D01*
X107496674Y-135581522D01*
X107452483Y-135608009D01*
X107405909Y-135630037D01*
X107357399Y-135647394D01*
X107307422Y-135659912D01*
X107256459Y-135667472D01*
X107205000Y-135670000D01*
X106155000Y-135670000D01*
X106103541Y-135667472D01*
X106052578Y-135659912D01*
X106002601Y-135647394D01*
X105954091Y-135630037D01*
X105907517Y-135608009D01*
X105863326Y-135581522D01*
X105821944Y-135550830D01*
X105783769Y-135516231D01*
X105749170Y-135478056D01*
X105718478Y-135436674D01*
X105691991Y-135392483D01*
X105669963Y-135345909D01*
X105652606Y-135297399D01*
X105640088Y-135247422D01*
X105632528Y-135196459D01*
X105630000Y-135145000D01*
X105630000Y-134095000D01*
X105632528Y-134043541D01*
X105640088Y-133992578D01*
X105652606Y-133942601D01*
X105669963Y-133894091D01*
X105691991Y-133847517D01*
X105718478Y-133803326D01*
X105749170Y-133761944D01*
X105783769Y-133723769D01*
X105821944Y-133689170D01*
X105863326Y-133658478D01*
X105907517Y-133631991D01*
X105954091Y-133609963D01*
X106002601Y-133592606D01*
X106052578Y-133580088D01*
X106103541Y-133572528D01*
X106155000Y-133570000D01*
X107205000Y-133570000D01*
X107256459Y-133572528D01*
X107256459Y-133572528D01*
G37*
D11*
G04 #@! TD*
G04 #@! TO.P,,*
G04 #@! TO.N,*
X106680000Y-134620000D03*
D10*
G04 #@! TO.N,*
G04 #@! TO.C,*
G36*
X99636459Y-133572528D02*
X99687422Y-133580088D01*
X99737399Y-133592606D01*
X99785909Y-133609963D01*
X99832483Y-133631991D01*
X99876674Y-133658478D01*
X99918056Y-133689170D01*
X99956231Y-133723769D01*
X99990830Y-133761944D01*
X100021522Y-133803326D01*
X100048009Y-133847517D01*
X100070037Y-133894091D01*
X100087394Y-133942601D01*
X100099912Y-133992578D01*
X100107472Y-134043541D01*
X100110000Y-134095000D01*
X100110000Y-135145000D01*
X100107472Y-135196459D01*
X100099912Y-135247422D01*
X100087394Y-135297399D01*
X100070037Y-135345909D01*
X100048009Y-135392483D01*
X100021522Y-135436674D01*
X99990830Y-135478056D01*
X99956231Y-135516231D01*
X99918056Y-135550830D01*
X99876674Y-135581522D01*
X99832483Y-135608009D01*
X99785909Y-135630037D01*
X99737399Y-135647394D01*
X99687422Y-135659912D01*
X99636459Y-135667472D01*
X99585000Y-135670000D01*
X98535000Y-135670000D01*
X98483541Y-135667472D01*
X98432578Y-135659912D01*
X98382601Y-135647394D01*
X98334091Y-135630037D01*
X98287517Y-135608009D01*
X98243326Y-135581522D01*
X98201944Y-135550830D01*
X98163769Y-135516231D01*
X98129170Y-135478056D01*
X98098478Y-135436674D01*
X98071991Y-135392483D01*
X98049963Y-135345909D01*
X98032606Y-135297399D01*
X98020088Y-135247422D01*
X98012528Y-135196459D01*
X98010000Y-135145000D01*
X98010000Y-134095000D01*
X98012528Y-134043541D01*
X98020088Y-133992578D01*
X98032606Y-133942601D01*
X98049963Y-133894091D01*
X98071991Y-133847517D01*
X98098478Y-133803326D01*
X98129170Y-133761944D01*
X98163769Y-133723769D01*
X98201944Y-133689170D01*
X98243326Y-133658478D01*
X98287517Y-133631991D01*
X98334091Y-133609963D01*
X98382601Y-133592606D01*
X98432578Y-133580088D01*
X98483541Y-133572528D01*
X98535000Y-133570000D01*
X99585000Y-133570000D01*
X99636459Y-133572528D01*
X99636459Y-133572528D01*
G37*
D11*
G04 #@! TD*
G04 #@! TO.P,,*
G04 #@! TO.N,*
X99060000Y-134620000D03*
D10*
G04 #@! TO.N,*
G04 #@! TO.C,*
G36*
X104716459Y-133572528D02*
X104767422Y-133580088D01*
X104817399Y-133592606D01*
X104865909Y-133609963D01*
X104912483Y-133631991D01*
X104956674Y-133658478D01*
X104998056Y-133689170D01*
X105036231Y-133723769D01*
X105070830Y-133761944D01*
X105101522Y-133803326D01*
X105128009Y-133847517D01*
X105150037Y-133894091D01*
X105167394Y-133942601D01*
X105179912Y-133992578D01*
X105187472Y-134043541D01*
X105190000Y-134095000D01*
X105190000Y-135145000D01*
X105187472Y-135196459D01*
X105179912Y-135247422D01*
X105167394Y-135297399D01*
X105150037Y-135345909D01*
X105128009Y-135392483D01*
X105101522Y-135436674D01*
X105070830Y-135478056D01*
X105036231Y-135516231D01*
X104998056Y-135550830D01*
X104956674Y-135581522D01*
X104912483Y-135608009D01*
X104865909Y-135630037D01*
X104817399Y-135647394D01*
X104767422Y-135659912D01*
X104716459Y-135667472D01*
X104665000Y-135670000D01*
X103615000Y-135670000D01*
X103563541Y-135667472D01*
X103512578Y-135659912D01*
X103462601Y-135647394D01*
X103414091Y-135630037D01*
X103367517Y-135608009D01*
X103323326Y-135581522D01*
X103281944Y-135550830D01*
X103243769Y-135516231D01*
X103209170Y-135478056D01*
X103178478Y-135436674D01*
X103151991Y-135392483D01*
X103129963Y-135345909D01*
X103112606Y-135297399D01*
X103100088Y-135247422D01*
X103092528Y-135196459D01*
X103090000Y-135145000D01*
X103090000Y-134095000D01*
X103092528Y-134043541D01*
X103100088Y-133992578D01*
X103112606Y-133942601D01*
X103129963Y-133894091D01*
X103151991Y-133847517D01*
X103178478Y-133803326D01*
X103209170Y-133761944D01*
X103243769Y-133723769D01*
X103281944Y-133689170D01*
X103323326Y-133658478D01*
X103367517Y-133631991D01*
X103414091Y-133609963D01*
X103462601Y-133592606D01*
X103512578Y-133580088D01*
X103563541Y-133572528D01*
X103615000Y-133570000D01*
X104665000Y-133570000D01*
X104716459Y-133572528D01*
X104716459Y-133572528D01*
G37*
D11*
G04 #@! TD*
G04 #@! TO.P,,*
G04 #@! TO.N,*
X104140000Y-134620000D03*
D10*
G04 #@! TO.N,*
G04 #@! TO.C,*
G36*
X97096459Y-133572528D02*
X97147422Y-133580088D01*
X97197399Y-133592606D01*
X97245909Y-133609963D01*
X97292483Y-133631991D01*
X97336674Y-133658478D01*
X97378056Y-133689170D01*
X97416231Y-133723769D01*
X97450830Y-133761944D01*
X97481522Y-133803326D01*
X97508009Y-133847517D01*
X97530037Y-133894091D01*
X97547394Y-133942601D01*
X97559912Y-133992578D01*
X97567472Y-134043541D01*
X97570000Y-134095000D01*
X97570000Y-135145000D01*
X97567472Y-135196459D01*
X97559912Y-135247422D01*
X97547394Y-135297399D01*
X97530037Y-135345909D01*
X97508009Y-135392483D01*
X97481522Y-135436674D01*
X97450830Y-135478056D01*
X97416231Y-135516231D01*
X97378056Y-135550830D01*
X97336674Y-135581522D01*
X97292483Y-135608009D01*
X97245909Y-135630037D01*
X97197399Y-135647394D01*
X97147422Y-135659912D01*
X97096459Y-135667472D01*
X97045000Y-135670000D01*
X95995000Y-135670000D01*
X95943541Y-135667472D01*
X95892578Y-135659912D01*
X95842601Y-135647394D01*
X95794091Y-135630037D01*
X95747517Y-135608009D01*
X95703326Y-135581522D01*
X95661944Y-135550830D01*
X95623769Y-135516231D01*
X95589170Y-135478056D01*
X95558478Y-135436674D01*
X95531991Y-135392483D01*
X95509963Y-135345909D01*
X95492606Y-135297399D01*
X95480088Y-135247422D01*
X95472528Y-135196459D01*
X95470000Y-135145000D01*
X95470000Y-134095000D01*
X95472528Y-134043541D01*
X95480088Y-133992578D01*
X95492606Y-133942601D01*
X95509963Y-133894091D01*
X95531991Y-133847517D01*
X95558478Y-133803326D01*
X95589170Y-133761944D01*
X95623769Y-133723769D01*
X95661944Y-133689170D01*
X95703326Y-133658478D01*
X95747517Y-133631991D01*
X95794091Y-133609963D01*
X95842601Y-133592606D01*
X95892578Y-133580088D01*
X95943541Y-133572528D01*
X95995000Y-133570000D01*
X97045000Y-133570000D01*
X97096459Y-133572528D01*
X97096459Y-133572528D01*
G37*
D11*
G04 #@! TD*
G04 #@! TO.P,,*
G04 #@! TO.N,*
X96520000Y-134620000D03*
D10*
G04 #@! TO.N,*
G04 #@! TO.C,*
G36*
X104716459Y-136112528D02*
X104767422Y-136120088D01*
X104817399Y-136132606D01*
X104865909Y-136149963D01*
X104912483Y-136171991D01*
X104956674Y-136198478D01*
X104998056Y-136229170D01*
X105036231Y-136263769D01*
X105070830Y-136301944D01*
X105101522Y-136343326D01*
X105128009Y-136387517D01*
X105150037Y-136434091D01*
X105167394Y-136482601D01*
X105179912Y-136532578D01*
X105187472Y-136583541D01*
X105190000Y-136635000D01*
X105190000Y-137685000D01*
X105187472Y-137736459D01*
X105179912Y-137787422D01*
X105167394Y-137837399D01*
X105150037Y-137885909D01*
X105128009Y-137932483D01*
X105101522Y-137976674D01*
X105070830Y-138018056D01*
X105036231Y-138056231D01*
X104998056Y-138090830D01*
X104956674Y-138121522D01*
X104912483Y-138148009D01*
X104865909Y-138170037D01*
X104817399Y-138187394D01*
X104767422Y-138199912D01*
X104716459Y-138207472D01*
X104665000Y-138210000D01*
X103615000Y-138210000D01*
X103563541Y-138207472D01*
X103512578Y-138199912D01*
X103462601Y-138187394D01*
X103414091Y-138170037D01*
X103367517Y-138148009D01*
X103323326Y-138121522D01*
X103281944Y-138090830D01*
X103243769Y-138056231D01*
X103209170Y-138018056D01*
X103178478Y-137976674D01*
X103151991Y-137932483D01*
X103129963Y-137885909D01*
X103112606Y-137837399D01*
X103100088Y-137787422D01*
X103092528Y-137736459D01*
X103090000Y-137685000D01*
X103090000Y-136635000D01*
X103092528Y-136583541D01*
X103100088Y-136532578D01*
X103112606Y-136482601D01*
X103129963Y-136434091D01*
X103151991Y-136387517D01*
X103178478Y-136343326D01*
X103209170Y-136301944D01*
X103243769Y-136263769D01*
X103281944Y-136229170D01*
X103323326Y-136198478D01*
X103367517Y-136171991D01*
X103414091Y-136149963D01*
X103462601Y-136132606D01*
X103512578Y-136120088D01*
X103563541Y-136112528D01*
X103615000Y-136110000D01*
X104665000Y-136110000D01*
X104716459Y-136112528D01*
X104716459Y-136112528D01*
G37*
D11*
G04 #@! TD*
G04 #@! TO.P,,*
G04 #@! TO.N,*
X104140000Y-137160000D03*
D10*
G04 #@! TO.N,*
G04 #@! TO.C,*
G36*
X99636459Y-136112528D02*
X99687422Y-136120088D01*
X99737399Y-136132606D01*
X99785909Y-136149963D01*
X99832483Y-136171991D01*
X99876674Y-136198478D01*
X99918056Y-136229170D01*
X99956231Y-136263769D01*
X99990830Y-136301944D01*
X100021522Y-136343326D01*
X100048009Y-136387517D01*
X100070037Y-136434091D01*
X100087394Y-136482601D01*
X100099912Y-136532578D01*
X100107472Y-136583541D01*
X100110000Y-136635000D01*
X100110000Y-137685000D01*
X100107472Y-137736459D01*
X100099912Y-137787422D01*
X100087394Y-137837399D01*
X100070037Y-137885909D01*
X100048009Y-137932483D01*
X100021522Y-137976674D01*
X99990830Y-138018056D01*
X99956231Y-138056231D01*
X99918056Y-138090830D01*
X99876674Y-138121522D01*
X99832483Y-138148009D01*
X99785909Y-138170037D01*
X99737399Y-138187394D01*
X99687422Y-138199912D01*
X99636459Y-138207472D01*
X99585000Y-138210000D01*
X98535000Y-138210000D01*
X98483541Y-138207472D01*
X98432578Y-138199912D01*
X98382601Y-138187394D01*
X98334091Y-138170037D01*
X98287517Y-138148009D01*
X98243326Y-138121522D01*
X98201944Y-138090830D01*
X98163769Y-138056231D01*
X98129170Y-138018056D01*
X98098478Y-137976674D01*
X98071991Y-137932483D01*
X98049963Y-137885909D01*
X98032606Y-137837399D01*
X98020088Y-137787422D01*
X98012528Y-137736459D01*
X98010000Y-137685000D01*
X98010000Y-136635000D01*
X98012528Y-136583541D01*
X98020088Y-136532578D01*
X98032606Y-136482601D01*
X98049963Y-136434091D01*
X98071991Y-136387517D01*
X98098478Y-136343326D01*
X98129170Y-136301944D01*
X98163769Y-136263769D01*
X98201944Y-136229170D01*
X98243326Y-136198478D01*
X98287517Y-136171991D01*
X98334091Y-136149963D01*
X98382601Y-136132606D01*
X98432578Y-136120088D01*
X98483541Y-136112528D01*
X98535000Y-136110000D01*
X99585000Y-136110000D01*
X99636459Y-136112528D01*
X99636459Y-136112528D01*
G37*
D11*
G04 #@! TD*
G04 #@! TO.P,,*
G04 #@! TO.N,*
X99060000Y-137160000D03*
D10*
G04 #@! TO.N,*
G04 #@! TO.C,*
G36*
X102176459Y-136112528D02*
X102227422Y-136120088D01*
X102277399Y-136132606D01*
X102325909Y-136149963D01*
X102372483Y-136171991D01*
X102416674Y-136198478D01*
X102458056Y-136229170D01*
X102496231Y-136263769D01*
X102530830Y-136301944D01*
X102561522Y-136343326D01*
X102588009Y-136387517D01*
X102610037Y-136434091D01*
X102627394Y-136482601D01*
X102639912Y-136532578D01*
X102647472Y-136583541D01*
X102650000Y-136635000D01*
X102650000Y-137685000D01*
X102647472Y-137736459D01*
X102639912Y-137787422D01*
X102627394Y-137837399D01*
X102610037Y-137885909D01*
X102588009Y-137932483D01*
X102561522Y-137976674D01*
X102530830Y-138018056D01*
X102496231Y-138056231D01*
X102458056Y-138090830D01*
X102416674Y-138121522D01*
X102372483Y-138148009D01*
X102325909Y-138170037D01*
X102277399Y-138187394D01*
X102227422Y-138199912D01*
X102176459Y-138207472D01*
X102125000Y-138210000D01*
X101075000Y-138210000D01*
X101023541Y-138207472D01*
X100972578Y-138199912D01*
X100922601Y-138187394D01*
X100874091Y-138170037D01*
X100827517Y-138148009D01*
X100783326Y-138121522D01*
X100741944Y-138090830D01*
X100703769Y-138056231D01*
X100669170Y-138018056D01*
X100638478Y-137976674D01*
X100611991Y-137932483D01*
X100589963Y-137885909D01*
X100572606Y-137837399D01*
X100560088Y-137787422D01*
X100552528Y-137736459D01*
X100550000Y-137685000D01*
X100550000Y-136635000D01*
X100552528Y-136583541D01*
X100560088Y-136532578D01*
X100572606Y-136482601D01*
X100589963Y-136434091D01*
X100611991Y-136387517D01*
X100638478Y-136343326D01*
X100669170Y-136301944D01*
X100703769Y-136263769D01*
X100741944Y-136229170D01*
X100783326Y-136198478D01*
X100827517Y-136171991D01*
X100874091Y-136149963D01*
X100922601Y-136132606D01*
X100972578Y-136120088D01*
X101023541Y-136112528D01*
X101075000Y-136110000D01*
X102125000Y-136110000D01*
X102176459Y-136112528D01*
X102176459Y-136112528D01*
G37*
D11*
G04 #@! TD*
G04 #@! TO.P,,*
G04 #@! TO.N,*
X101600000Y-137160000D03*
D10*
G04 #@! TO.N,*
G04 #@! TO.C,*
G36*
X97096459Y-136112528D02*
X97147422Y-136120088D01*
X97197399Y-136132606D01*
X97245909Y-136149963D01*
X97292483Y-136171991D01*
X97336674Y-136198478D01*
X97378056Y-136229170D01*
X97416231Y-136263769D01*
X97450830Y-136301944D01*
X97481522Y-136343326D01*
X97508009Y-136387517D01*
X97530037Y-136434091D01*
X97547394Y-136482601D01*
X97559912Y-136532578D01*
X97567472Y-136583541D01*
X97570000Y-136635000D01*
X97570000Y-137685000D01*
X97567472Y-137736459D01*
X97559912Y-137787422D01*
X97547394Y-137837399D01*
X97530037Y-137885909D01*
X97508009Y-137932483D01*
X97481522Y-137976674D01*
X97450830Y-138018056D01*
X97416231Y-138056231D01*
X97378056Y-138090830D01*
X97336674Y-138121522D01*
X97292483Y-138148009D01*
X97245909Y-138170037D01*
X97197399Y-138187394D01*
X97147422Y-138199912D01*
X97096459Y-138207472D01*
X97045000Y-138210000D01*
X95995000Y-138210000D01*
X95943541Y-138207472D01*
X95892578Y-138199912D01*
X95842601Y-138187394D01*
X95794091Y-138170037D01*
X95747517Y-138148009D01*
X95703326Y-138121522D01*
X95661944Y-138090830D01*
X95623769Y-138056231D01*
X95589170Y-138018056D01*
X95558478Y-137976674D01*
X95531991Y-137932483D01*
X95509963Y-137885909D01*
X95492606Y-137837399D01*
X95480088Y-137787422D01*
X95472528Y-137736459D01*
X95470000Y-137685000D01*
X95470000Y-136635000D01*
X95472528Y-136583541D01*
X95480088Y-136532578D01*
X95492606Y-136482601D01*
X95509963Y-136434091D01*
X95531991Y-136387517D01*
X95558478Y-136343326D01*
X95589170Y-136301944D01*
X95623769Y-136263769D01*
X95661944Y-136229170D01*
X95703326Y-136198478D01*
X95747517Y-136171991D01*
X95794091Y-136149963D01*
X95842601Y-136132606D01*
X95892578Y-136120088D01*
X95943541Y-136112528D01*
X95995000Y-136110000D01*
X97045000Y-136110000D01*
X97096459Y-136112528D01*
X97096459Y-136112528D01*
G37*
D11*
G04 #@! TD*
G04 #@! TO.P,,*
G04 #@! TO.N,*
X96520000Y-137160000D03*
D10*
G04 #@! TO.N,*
G04 #@! TO.C,*
G36*
X107256459Y-136112528D02*
X107307422Y-136120088D01*
X107357399Y-136132606D01*
X107405909Y-136149963D01*
X107452483Y-136171991D01*
X107496674Y-136198478D01*
X107538056Y-136229170D01*
X107576231Y-136263769D01*
X107610830Y-136301944D01*
X107641522Y-136343326D01*
X107668009Y-136387517D01*
X107690037Y-136434091D01*
X107707394Y-136482601D01*
X107719912Y-136532578D01*
X107727472Y-136583541D01*
X107730000Y-136635000D01*
X107730000Y-137685000D01*
X107727472Y-137736459D01*
X107719912Y-137787422D01*
X107707394Y-137837399D01*
X107690037Y-137885909D01*
X107668009Y-137932483D01*
X107641522Y-137976674D01*
X107610830Y-138018056D01*
X107576231Y-138056231D01*
X107538056Y-138090830D01*
X107496674Y-138121522D01*
X107452483Y-138148009D01*
X107405909Y-138170037D01*
X107357399Y-138187394D01*
X107307422Y-138199912D01*
X107256459Y-138207472D01*
X107205000Y-138210000D01*
X106155000Y-138210000D01*
X106103541Y-138207472D01*
X106052578Y-138199912D01*
X106002601Y-138187394D01*
X105954091Y-138170037D01*
X105907517Y-138148009D01*
X105863326Y-138121522D01*
X105821944Y-138090830D01*
X105783769Y-138056231D01*
X105749170Y-138018056D01*
X105718478Y-137976674D01*
X105691991Y-137932483D01*
X105669963Y-137885909D01*
X105652606Y-137837399D01*
X105640088Y-137787422D01*
X105632528Y-137736459D01*
X105630000Y-137685000D01*
X105630000Y-136635000D01*
X105632528Y-136583541D01*
X105640088Y-136532578D01*
X105652606Y-136482601D01*
X105669963Y-136434091D01*
X105691991Y-136387517D01*
X105718478Y-136343326D01*
X105749170Y-136301944D01*
X105783769Y-136263769D01*
X105821944Y-136229170D01*
X105863326Y-136198478D01*
X105907517Y-136171991D01*
X105954091Y-136149963D01*
X106002601Y-136132606D01*
X106052578Y-136120088D01*
X106103541Y-136112528D01*
X106155000Y-136110000D01*
X107205000Y-136110000D01*
X107256459Y-136112528D01*
X107256459Y-136112528D01*
G37*
D11*
G04 #@! TD*
G04 #@! TO.P,,*
G04 #@! TO.N,*
X106680000Y-137160000D03*
D10*
G04 #@! TO.N,*
G04 #@! TO.C,*
G36*
X104716459Y-138652528D02*
X104767422Y-138660088D01*
X104817399Y-138672606D01*
X104865909Y-138689963D01*
X104912483Y-138711991D01*
X104956674Y-138738478D01*
X104998056Y-138769170D01*
X105036231Y-138803769D01*
X105070830Y-138841944D01*
X105101522Y-138883326D01*
X105128009Y-138927517D01*
X105150037Y-138974091D01*
X105167394Y-139022601D01*
X105179912Y-139072578D01*
X105187472Y-139123541D01*
X105190000Y-139175000D01*
X105190000Y-140225000D01*
X105187472Y-140276459D01*
X105179912Y-140327422D01*
X105167394Y-140377399D01*
X105150037Y-140425909D01*
X105128009Y-140472483D01*
X105101522Y-140516674D01*
X105070830Y-140558056D01*
X105036231Y-140596231D01*
X104998056Y-140630830D01*
X104956674Y-140661522D01*
X104912483Y-140688009D01*
X104865909Y-140710037D01*
X104817399Y-140727394D01*
X104767422Y-140739912D01*
X104716459Y-140747472D01*
X104665000Y-140750000D01*
X103615000Y-140750000D01*
X103563541Y-140747472D01*
X103512578Y-140739912D01*
X103462601Y-140727394D01*
X103414091Y-140710037D01*
X103367517Y-140688009D01*
X103323326Y-140661522D01*
X103281944Y-140630830D01*
X103243769Y-140596231D01*
X103209170Y-140558056D01*
X103178478Y-140516674D01*
X103151991Y-140472483D01*
X103129963Y-140425909D01*
X103112606Y-140377399D01*
X103100088Y-140327422D01*
X103092528Y-140276459D01*
X103090000Y-140225000D01*
X103090000Y-139175000D01*
X103092528Y-139123541D01*
X103100088Y-139072578D01*
X103112606Y-139022601D01*
X103129963Y-138974091D01*
X103151991Y-138927517D01*
X103178478Y-138883326D01*
X103209170Y-138841944D01*
X103243769Y-138803769D01*
X103281944Y-138769170D01*
X103323326Y-138738478D01*
X103367517Y-138711991D01*
X103414091Y-138689963D01*
X103462601Y-138672606D01*
X103512578Y-138660088D01*
X103563541Y-138652528D01*
X103615000Y-138650000D01*
X104665000Y-138650000D01*
X104716459Y-138652528D01*
X104716459Y-138652528D01*
G37*
D11*
G04 #@! TD*
G04 #@! TO.P,,*
G04 #@! TO.N,*
X104140000Y-139700000D03*
D10*
G04 #@! TO.N,*
G04 #@! TO.C,*
G36*
X102176459Y-138652528D02*
X102227422Y-138660088D01*
X102277399Y-138672606D01*
X102325909Y-138689963D01*
X102372483Y-138711991D01*
X102416674Y-138738478D01*
X102458056Y-138769170D01*
X102496231Y-138803769D01*
X102530830Y-138841944D01*
X102561522Y-138883326D01*
X102588009Y-138927517D01*
X102610037Y-138974091D01*
X102627394Y-139022601D01*
X102639912Y-139072578D01*
X102647472Y-139123541D01*
X102650000Y-139175000D01*
X102650000Y-140225000D01*
X102647472Y-140276459D01*
X102639912Y-140327422D01*
X102627394Y-140377399D01*
X102610037Y-140425909D01*
X102588009Y-140472483D01*
X102561522Y-140516674D01*
X102530830Y-140558056D01*
X102496231Y-140596231D01*
X102458056Y-140630830D01*
X102416674Y-140661522D01*
X102372483Y-140688009D01*
X102325909Y-140710037D01*
X102277399Y-140727394D01*
X102227422Y-140739912D01*
X102176459Y-140747472D01*
X102125000Y-140750000D01*
X101075000Y-140750000D01*
X101023541Y-140747472D01*
X100972578Y-140739912D01*
X100922601Y-140727394D01*
X100874091Y-140710037D01*
X100827517Y-140688009D01*
X100783326Y-140661522D01*
X100741944Y-140630830D01*
X100703769Y-140596231D01*
X100669170Y-140558056D01*
X100638478Y-140516674D01*
X100611991Y-140472483D01*
X100589963Y-140425909D01*
X100572606Y-140377399D01*
X100560088Y-140327422D01*
X100552528Y-140276459D01*
X100550000Y-140225000D01*
X100550000Y-139175000D01*
X100552528Y-139123541D01*
X100560088Y-139072578D01*
X100572606Y-139022601D01*
X100589963Y-138974091D01*
X100611991Y-138927517D01*
X100638478Y-138883326D01*
X100669170Y-138841944D01*
X100703769Y-138803769D01*
X100741944Y-138769170D01*
X100783326Y-138738478D01*
X100827517Y-138711991D01*
X100874091Y-138689963D01*
X100922601Y-138672606D01*
X100972578Y-138660088D01*
X101023541Y-138652528D01*
X101075000Y-138650000D01*
X102125000Y-138650000D01*
X102176459Y-138652528D01*
X102176459Y-138652528D01*
G37*
D11*
G04 #@! TD*
G04 #@! TO.P,,*
G04 #@! TO.N,*
X101600000Y-139700000D03*
D10*
G04 #@! TO.N,*
G04 #@! TO.C,*
G36*
X99636459Y-138652528D02*
X99687422Y-138660088D01*
X99737399Y-138672606D01*
X99785909Y-138689963D01*
X99832483Y-138711991D01*
X99876674Y-138738478D01*
X99918056Y-138769170D01*
X99956231Y-138803769D01*
X99990830Y-138841944D01*
X100021522Y-138883326D01*
X100048009Y-138927517D01*
X100070037Y-138974091D01*
X100087394Y-139022601D01*
X100099912Y-139072578D01*
X100107472Y-139123541D01*
X100110000Y-139175000D01*
X100110000Y-140225000D01*
X100107472Y-140276459D01*
X100099912Y-140327422D01*
X100087394Y-140377399D01*
X100070037Y-140425909D01*
X100048009Y-140472483D01*
X100021522Y-140516674D01*
X99990830Y-140558056D01*
X99956231Y-140596231D01*
X99918056Y-140630830D01*
X99876674Y-140661522D01*
X99832483Y-140688009D01*
X99785909Y-140710037D01*
X99737399Y-140727394D01*
X99687422Y-140739912D01*
X99636459Y-140747472D01*
X99585000Y-140750000D01*
X98535000Y-140750000D01*
X98483541Y-140747472D01*
X98432578Y-140739912D01*
X98382601Y-140727394D01*
X98334091Y-140710037D01*
X98287517Y-140688009D01*
X98243326Y-140661522D01*
X98201944Y-140630830D01*
X98163769Y-140596231D01*
X98129170Y-140558056D01*
X98098478Y-140516674D01*
X98071991Y-140472483D01*
X98049963Y-140425909D01*
X98032606Y-140377399D01*
X98020088Y-140327422D01*
X98012528Y-140276459D01*
X98010000Y-140225000D01*
X98010000Y-139175000D01*
X98012528Y-139123541D01*
X98020088Y-139072578D01*
X98032606Y-139022601D01*
X98049963Y-138974091D01*
X98071991Y-138927517D01*
X98098478Y-138883326D01*
X98129170Y-138841944D01*
X98163769Y-138803769D01*
X98201944Y-138769170D01*
X98243326Y-138738478D01*
X98287517Y-138711991D01*
X98334091Y-138689963D01*
X98382601Y-138672606D01*
X98432578Y-138660088D01*
X98483541Y-138652528D01*
X98535000Y-138650000D01*
X99585000Y-138650000D01*
X99636459Y-138652528D01*
X99636459Y-138652528D01*
G37*
D11*
G04 #@! TD*
G04 #@! TO.P,,*
G04 #@! TO.N,*
X99060000Y-139700000D03*
D10*
G04 #@! TO.N,*
G04 #@! TO.C,*
G36*
X97096459Y-138652528D02*
X97147422Y-138660088D01*
X97197399Y-138672606D01*
X97245909Y-138689963D01*
X97292483Y-138711991D01*
X97336674Y-138738478D01*
X97378056Y-138769170D01*
X97416231Y-138803769D01*
X97450830Y-138841944D01*
X97481522Y-138883326D01*
X97508009Y-138927517D01*
X97530037Y-138974091D01*
X97547394Y-139022601D01*
X97559912Y-139072578D01*
X97567472Y-139123541D01*
X97570000Y-139175000D01*
X97570000Y-140225000D01*
X97567472Y-140276459D01*
X97559912Y-140327422D01*
X97547394Y-140377399D01*
X97530037Y-140425909D01*
X97508009Y-140472483D01*
X97481522Y-140516674D01*
X97450830Y-140558056D01*
X97416231Y-140596231D01*
X97378056Y-140630830D01*
X97336674Y-140661522D01*
X97292483Y-140688009D01*
X97245909Y-140710037D01*
X97197399Y-140727394D01*
X97147422Y-140739912D01*
X97096459Y-140747472D01*
X97045000Y-140750000D01*
X95995000Y-140750000D01*
X95943541Y-140747472D01*
X95892578Y-140739912D01*
X95842601Y-140727394D01*
X95794091Y-140710037D01*
X95747517Y-140688009D01*
X95703326Y-140661522D01*
X95661944Y-140630830D01*
X95623769Y-140596231D01*
X95589170Y-140558056D01*
X95558478Y-140516674D01*
X95531991Y-140472483D01*
X95509963Y-140425909D01*
X95492606Y-140377399D01*
X95480088Y-140327422D01*
X95472528Y-140276459D01*
X95470000Y-140225000D01*
X95470000Y-139175000D01*
X95472528Y-139123541D01*
X95480088Y-139072578D01*
X95492606Y-139022601D01*
X95509963Y-138974091D01*
X95531991Y-138927517D01*
X95558478Y-138883326D01*
X95589170Y-138841944D01*
X95623769Y-138803769D01*
X95661944Y-138769170D01*
X95703326Y-138738478D01*
X95747517Y-138711991D01*
X95794091Y-138689963D01*
X95842601Y-138672606D01*
X95892578Y-138660088D01*
X95943541Y-138652528D01*
X95995000Y-138650000D01*
X97045000Y-138650000D01*
X97096459Y-138652528D01*
X97096459Y-138652528D01*
G37*
D11*
G04 #@! TD*
G04 #@! TO.P,,*
G04 #@! TO.N,*
X96520000Y-139700000D03*
D10*
G04 #@! TO.N,*
G04 #@! TO.C,*
G36*
X107256459Y-138652528D02*
X107307422Y-138660088D01*
X107357399Y-138672606D01*
X107405909Y-138689963D01*
X107452483Y-138711991D01*
X107496674Y-138738478D01*
X107538056Y-138769170D01*
X107576231Y-138803769D01*
X107610830Y-138841944D01*
X107641522Y-138883326D01*
X107668009Y-138927517D01*
X107690037Y-138974091D01*
X107707394Y-139022601D01*
X107719912Y-139072578D01*
X107727472Y-139123541D01*
X107730000Y-139175000D01*
X107730000Y-140225000D01*
X107727472Y-140276459D01*
X107719912Y-140327422D01*
X107707394Y-140377399D01*
X107690037Y-140425909D01*
X107668009Y-140472483D01*
X107641522Y-140516674D01*
X107610830Y-140558056D01*
X107576231Y-140596231D01*
X107538056Y-140630830D01*
X107496674Y-140661522D01*
X107452483Y-140688009D01*
X107405909Y-140710037D01*
X107357399Y-140727394D01*
X107307422Y-140739912D01*
X107256459Y-140747472D01*
X107205000Y-140750000D01*
X106155000Y-140750000D01*
X106103541Y-140747472D01*
X106052578Y-140739912D01*
X106002601Y-140727394D01*
X105954091Y-140710037D01*
X105907517Y-140688009D01*
X105863326Y-140661522D01*
X105821944Y-140630830D01*
X105783769Y-140596231D01*
X105749170Y-140558056D01*
X105718478Y-140516674D01*
X105691991Y-140472483D01*
X105669963Y-140425909D01*
X105652606Y-140377399D01*
X105640088Y-140327422D01*
X105632528Y-140276459D01*
X105630000Y-140225000D01*
X105630000Y-139175000D01*
X105632528Y-139123541D01*
X105640088Y-139072578D01*
X105652606Y-139022601D01*
X105669963Y-138974091D01*
X105691991Y-138927517D01*
X105718478Y-138883326D01*
X105749170Y-138841944D01*
X105783769Y-138803769D01*
X105821944Y-138769170D01*
X105863326Y-138738478D01*
X105907517Y-138711991D01*
X105954091Y-138689963D01*
X106002601Y-138672606D01*
X106052578Y-138660088D01*
X106103541Y-138652528D01*
X106155000Y-138650000D01*
X107205000Y-138650000D01*
X107256459Y-138652528D01*
X107256459Y-138652528D01*
G37*
D11*
G04 #@! TD*
G04 #@! TO.P,,*
G04 #@! TO.N,*
X106680000Y-139700000D03*
D10*
G04 #@! TO.N,*
G04 #@! TO.C,*
G36*
X107256459Y-141192528D02*
X107307422Y-141200088D01*
X107357399Y-141212606D01*
X107405909Y-141229963D01*
X107452483Y-141251991D01*
X107496674Y-141278478D01*
X107538056Y-141309170D01*
X107576231Y-141343769D01*
X107610830Y-141381944D01*
X107641522Y-141423326D01*
X107668009Y-141467517D01*
X107690037Y-141514091D01*
X107707394Y-141562601D01*
X107719912Y-141612578D01*
X107727472Y-141663541D01*
X107730000Y-141715000D01*
X107730000Y-142765000D01*
X107727472Y-142816459D01*
X107719912Y-142867422D01*
X107707394Y-142917399D01*
X107690037Y-142965909D01*
X107668009Y-143012483D01*
X107641522Y-143056674D01*
X107610830Y-143098056D01*
X107576231Y-143136231D01*
X107538056Y-143170830D01*
X107496674Y-143201522D01*
X107452483Y-143228009D01*
X107405909Y-143250037D01*
X107357399Y-143267394D01*
X107307422Y-143279912D01*
X107256459Y-143287472D01*
X107205000Y-143290000D01*
X106155000Y-143290000D01*
X106103541Y-143287472D01*
X106052578Y-143279912D01*
X106002601Y-143267394D01*
X105954091Y-143250037D01*
X105907517Y-143228009D01*
X105863326Y-143201522D01*
X105821944Y-143170830D01*
X105783769Y-143136231D01*
X105749170Y-143098056D01*
X105718478Y-143056674D01*
X105691991Y-143012483D01*
X105669963Y-142965909D01*
X105652606Y-142917399D01*
X105640088Y-142867422D01*
X105632528Y-142816459D01*
X105630000Y-142765000D01*
X105630000Y-141715000D01*
X105632528Y-141663541D01*
X105640088Y-141612578D01*
X105652606Y-141562601D01*
X105669963Y-141514091D01*
X105691991Y-141467517D01*
X105718478Y-141423326D01*
X105749170Y-141381944D01*
X105783769Y-141343769D01*
X105821944Y-141309170D01*
X105863326Y-141278478D01*
X105907517Y-141251991D01*
X105954091Y-141229963D01*
X106002601Y-141212606D01*
X106052578Y-141200088D01*
X106103541Y-141192528D01*
X106155000Y-141190000D01*
X107205000Y-141190000D01*
X107256459Y-141192528D01*
X107256459Y-141192528D01*
G37*
D11*
G04 #@! TD*
G04 #@! TO.P,,*
G04 #@! TO.N,*
X106680000Y-142240000D03*
D10*
G04 #@! TO.N,*
G04 #@! TO.C,*
G36*
X104716459Y-141192528D02*
X104767422Y-141200088D01*
X104817399Y-141212606D01*
X104865909Y-141229963D01*
X104912483Y-141251991D01*
X104956674Y-141278478D01*
X104998056Y-141309170D01*
X105036231Y-141343769D01*
X105070830Y-141381944D01*
X105101522Y-141423326D01*
X105128009Y-141467517D01*
X105150037Y-141514091D01*
X105167394Y-141562601D01*
X105179912Y-141612578D01*
X105187472Y-141663541D01*
X105190000Y-141715000D01*
X105190000Y-142765000D01*
X105187472Y-142816459D01*
X105179912Y-142867422D01*
X105167394Y-142917399D01*
X105150037Y-142965909D01*
X105128009Y-143012483D01*
X105101522Y-143056674D01*
X105070830Y-143098056D01*
X105036231Y-143136231D01*
X104998056Y-143170830D01*
X104956674Y-143201522D01*
X104912483Y-143228009D01*
X104865909Y-143250037D01*
X104817399Y-143267394D01*
X104767422Y-143279912D01*
X104716459Y-143287472D01*
X104665000Y-143290000D01*
X103615000Y-143290000D01*
X103563541Y-143287472D01*
X103512578Y-143279912D01*
X103462601Y-143267394D01*
X103414091Y-143250037D01*
X103367517Y-143228009D01*
X103323326Y-143201522D01*
X103281944Y-143170830D01*
X103243769Y-143136231D01*
X103209170Y-143098056D01*
X103178478Y-143056674D01*
X103151991Y-143012483D01*
X103129963Y-142965909D01*
X103112606Y-142917399D01*
X103100088Y-142867422D01*
X103092528Y-142816459D01*
X103090000Y-142765000D01*
X103090000Y-141715000D01*
X103092528Y-141663541D01*
X103100088Y-141612578D01*
X103112606Y-141562601D01*
X103129963Y-141514091D01*
X103151991Y-141467517D01*
X103178478Y-141423326D01*
X103209170Y-141381944D01*
X103243769Y-141343769D01*
X103281944Y-141309170D01*
X103323326Y-141278478D01*
X103367517Y-141251991D01*
X103414091Y-141229963D01*
X103462601Y-141212606D01*
X103512578Y-141200088D01*
X103563541Y-141192528D01*
X103615000Y-141190000D01*
X104665000Y-141190000D01*
X104716459Y-141192528D01*
X104716459Y-141192528D01*
G37*
D11*
G04 #@! TD*
G04 #@! TO.P,,*
G04 #@! TO.N,*
X104140000Y-142240000D03*
D10*
G04 #@! TO.N,*
G04 #@! TO.C,*
G36*
X102176459Y-141192528D02*
X102227422Y-141200088D01*
X102277399Y-141212606D01*
X102325909Y-141229963D01*
X102372483Y-141251991D01*
X102416674Y-141278478D01*
X102458056Y-141309170D01*
X102496231Y-141343769D01*
X102530830Y-141381944D01*
X102561522Y-141423326D01*
X102588009Y-141467517D01*
X102610037Y-141514091D01*
X102627394Y-141562601D01*
X102639912Y-141612578D01*
X102647472Y-141663541D01*
X102650000Y-141715000D01*
X102650000Y-142765000D01*
X102647472Y-142816459D01*
X102639912Y-142867422D01*
X102627394Y-142917399D01*
X102610037Y-142965909D01*
X102588009Y-143012483D01*
X102561522Y-143056674D01*
X102530830Y-143098056D01*
X102496231Y-143136231D01*
X102458056Y-143170830D01*
X102416674Y-143201522D01*
X102372483Y-143228009D01*
X102325909Y-143250037D01*
X102277399Y-143267394D01*
X102227422Y-143279912D01*
X102176459Y-143287472D01*
X102125000Y-143290000D01*
X101075000Y-143290000D01*
X101023541Y-143287472D01*
X100972578Y-143279912D01*
X100922601Y-143267394D01*
X100874091Y-143250037D01*
X100827517Y-143228009D01*
X100783326Y-143201522D01*
X100741944Y-143170830D01*
X100703769Y-143136231D01*
X100669170Y-143098056D01*
X100638478Y-143056674D01*
X100611991Y-143012483D01*
X100589963Y-142965909D01*
X100572606Y-142917399D01*
X100560088Y-142867422D01*
X100552528Y-142816459D01*
X100550000Y-142765000D01*
X100550000Y-141715000D01*
X100552528Y-141663541D01*
X100560088Y-141612578D01*
X100572606Y-141562601D01*
X100589963Y-141514091D01*
X100611991Y-141467517D01*
X100638478Y-141423326D01*
X100669170Y-141381944D01*
X100703769Y-141343769D01*
X100741944Y-141309170D01*
X100783326Y-141278478D01*
X100827517Y-141251991D01*
X100874091Y-141229963D01*
X100922601Y-141212606D01*
X100972578Y-141200088D01*
X101023541Y-141192528D01*
X101075000Y-141190000D01*
X102125000Y-141190000D01*
X102176459Y-141192528D01*
X102176459Y-141192528D01*
G37*
D11*
G04 #@! TD*
G04 #@! TO.P,,*
G04 #@! TO.N,*
X101600000Y-142240000D03*
D10*
G04 #@! TO.N,*
G04 #@! TO.C,*
G36*
X99636459Y-141192528D02*
X99687422Y-141200088D01*
X99737399Y-141212606D01*
X99785909Y-141229963D01*
X99832483Y-141251991D01*
X99876674Y-141278478D01*
X99918056Y-141309170D01*
X99956231Y-141343769D01*
X99990830Y-141381944D01*
X100021522Y-141423326D01*
X100048009Y-141467517D01*
X100070037Y-141514091D01*
X100087394Y-141562601D01*
X100099912Y-141612578D01*
X100107472Y-141663541D01*
X100110000Y-141715000D01*
X100110000Y-142765000D01*
X100107472Y-142816459D01*
X100099912Y-142867422D01*
X100087394Y-142917399D01*
X100070037Y-142965909D01*
X100048009Y-143012483D01*
X100021522Y-143056674D01*
X99990830Y-143098056D01*
X99956231Y-143136231D01*
X99918056Y-143170830D01*
X99876674Y-143201522D01*
X99832483Y-143228009D01*
X99785909Y-143250037D01*
X99737399Y-143267394D01*
X99687422Y-143279912D01*
X99636459Y-143287472D01*
X99585000Y-143290000D01*
X98535000Y-143290000D01*
X98483541Y-143287472D01*
X98432578Y-143279912D01*
X98382601Y-143267394D01*
X98334091Y-143250037D01*
X98287517Y-143228009D01*
X98243326Y-143201522D01*
X98201944Y-143170830D01*
X98163769Y-143136231D01*
X98129170Y-143098056D01*
X98098478Y-143056674D01*
X98071991Y-143012483D01*
X98049963Y-142965909D01*
X98032606Y-142917399D01*
X98020088Y-142867422D01*
X98012528Y-142816459D01*
X98010000Y-142765000D01*
X98010000Y-141715000D01*
X98012528Y-141663541D01*
X98020088Y-141612578D01*
X98032606Y-141562601D01*
X98049963Y-141514091D01*
X98071991Y-141467517D01*
X98098478Y-141423326D01*
X98129170Y-141381944D01*
X98163769Y-141343769D01*
X98201944Y-141309170D01*
X98243326Y-141278478D01*
X98287517Y-141251991D01*
X98334091Y-141229963D01*
X98382601Y-141212606D01*
X98432578Y-141200088D01*
X98483541Y-141192528D01*
X98535000Y-141190000D01*
X99585000Y-141190000D01*
X99636459Y-141192528D01*
X99636459Y-141192528D01*
G37*
D11*
G04 #@! TD*
G04 #@! TO.P,,*
G04 #@! TO.N,*
X99060000Y-142240000D03*
D10*
G04 #@! TO.N,Net-(C6-Pad2)*
G04 #@! TO.C,C6*
G36*
X114260691Y-138972053D02*
X114281926Y-138975203D01*
X114302750Y-138980419D01*
X114322962Y-138987651D01*
X114342368Y-138996830D01*
X114360781Y-139007866D01*
X114378024Y-139020654D01*
X114393930Y-139035070D01*
X114408346Y-139050976D01*
X114421134Y-139068219D01*
X114432170Y-139086632D01*
X114441349Y-139106038D01*
X114448581Y-139126250D01*
X114453797Y-139147074D01*
X114456947Y-139168309D01*
X114458000Y-139189750D01*
X114458000Y-139702250D01*
X114456947Y-139723691D01*
X114453797Y-139744926D01*
X114448581Y-139765750D01*
X114441349Y-139785962D01*
X114432170Y-139805368D01*
X114421134Y-139823781D01*
X114408346Y-139841024D01*
X114393930Y-139856930D01*
X114378024Y-139871346D01*
X114360781Y-139884134D01*
X114342368Y-139895170D01*
X114322962Y-139904349D01*
X114302750Y-139911581D01*
X114281926Y-139916797D01*
X114260691Y-139919947D01*
X114239250Y-139921000D01*
X113801750Y-139921000D01*
X113780309Y-139919947D01*
X113759074Y-139916797D01*
X113738250Y-139911581D01*
X113718038Y-139904349D01*
X113698632Y-139895170D01*
X113680219Y-139884134D01*
X113662976Y-139871346D01*
X113647070Y-139856930D01*
X113632654Y-139841024D01*
X113619866Y-139823781D01*
X113608830Y-139805368D01*
X113599651Y-139785962D01*
X113592419Y-139765750D01*
X113587203Y-139744926D01*
X113584053Y-139723691D01*
X113583000Y-139702250D01*
X113583000Y-139189750D01*
X113584053Y-139168309D01*
X113587203Y-139147074D01*
X113592419Y-139126250D01*
X113599651Y-139106038D01*
X113608830Y-139086632D01*
X113619866Y-139068219D01*
X113632654Y-139050976D01*
X113647070Y-139035070D01*
X113662976Y-139020654D01*
X113680219Y-139007866D01*
X113698632Y-138996830D01*
X113718038Y-138987651D01*
X113738250Y-138980419D01*
X113759074Y-138975203D01*
X113780309Y-138972053D01*
X113801750Y-138971000D01*
X114239250Y-138971000D01*
X114260691Y-138972053D01*
X114260691Y-138972053D01*
G37*
D12*
G04 #@! TD*
G04 #@! TO.P,C6,2*
G04 #@! TO.N,Net-(C6-Pad2)*
X114020500Y-139446000D03*
D10*
G04 #@! TO.N,Vin*
G04 #@! TO.C,C6*
G36*
X115835691Y-138972053D02*
X115856926Y-138975203D01*
X115877750Y-138980419D01*
X115897962Y-138987651D01*
X115917368Y-138996830D01*
X115935781Y-139007866D01*
X115953024Y-139020654D01*
X115968930Y-139035070D01*
X115983346Y-139050976D01*
X115996134Y-139068219D01*
X116007170Y-139086632D01*
X116016349Y-139106038D01*
X116023581Y-139126250D01*
X116028797Y-139147074D01*
X116031947Y-139168309D01*
X116033000Y-139189750D01*
X116033000Y-139702250D01*
X116031947Y-139723691D01*
X116028797Y-139744926D01*
X116023581Y-139765750D01*
X116016349Y-139785962D01*
X116007170Y-139805368D01*
X115996134Y-139823781D01*
X115983346Y-139841024D01*
X115968930Y-139856930D01*
X115953024Y-139871346D01*
X115935781Y-139884134D01*
X115917368Y-139895170D01*
X115897962Y-139904349D01*
X115877750Y-139911581D01*
X115856926Y-139916797D01*
X115835691Y-139919947D01*
X115814250Y-139921000D01*
X115376750Y-139921000D01*
X115355309Y-139919947D01*
X115334074Y-139916797D01*
X115313250Y-139911581D01*
X115293038Y-139904349D01*
X115273632Y-139895170D01*
X115255219Y-139884134D01*
X115237976Y-139871346D01*
X115222070Y-139856930D01*
X115207654Y-139841024D01*
X115194866Y-139823781D01*
X115183830Y-139805368D01*
X115174651Y-139785962D01*
X115167419Y-139765750D01*
X115162203Y-139744926D01*
X115159053Y-139723691D01*
X115158000Y-139702250D01*
X115158000Y-139189750D01*
X115159053Y-139168309D01*
X115162203Y-139147074D01*
X115167419Y-139126250D01*
X115174651Y-139106038D01*
X115183830Y-139086632D01*
X115194866Y-139068219D01*
X115207654Y-139050976D01*
X115222070Y-139035070D01*
X115237976Y-139020654D01*
X115255219Y-139007866D01*
X115273632Y-138996830D01*
X115293038Y-138987651D01*
X115313250Y-138980419D01*
X115334074Y-138975203D01*
X115355309Y-138972053D01*
X115376750Y-138971000D01*
X115814250Y-138971000D01*
X115835691Y-138972053D01*
X115835691Y-138972053D01*
G37*
D12*
G04 #@! TD*
G04 #@! TO.P,C6,1*
G04 #@! TO.N,Vin*
X115595500Y-139446000D03*
D13*
G04 #@! TO.P,C1,1*
G04 #@! TO.N,Vin*
X136525000Y-128905000D03*
D14*
G04 #@! TO.P,C1,2*
G04 #@! TO.N,GND*
X136525000Y-131405000D03*
G04 #@! TD*
D15*
G04 #@! TO.P,C4,1*
G04 #@! TO.N,/5V*
X135255000Y-105410000D03*
D16*
G04 #@! TO.P,C4,2*
G04 #@! TO.N,GND*
X135255000Y-103410000D03*
G04 #@! TD*
D17*
G04 #@! TO.P,J1,2*
G04 #@! TO.N,Vin*
X141605000Y-141000000D03*
D18*
G04 #@! TO.P,J1,1*
G04 #@! TO.N,GND*
X136605000Y-141000000D03*
G04 #@! TD*
D19*
G04 #@! TO.P,J4,1*
G04 #@! TO.N,pi-01*
X95370000Y-93270000D03*
D20*
G04 #@! TO.P,J4,2*
G04 #@! TO.N,pi-02*
X95370000Y-90730000D03*
G04 #@! TO.P,J4,3*
G04 #@! TO.N,pi-03*
X97910000Y-93270000D03*
G04 #@! TO.P,J4,4*
G04 #@! TO.N,pi-02*
X97910000Y-90730000D03*
G04 #@! TO.P,J4,5*
G04 #@! TO.N,pi-05*
X100450000Y-93270000D03*
G04 #@! TO.P,J4,6*
G04 #@! TO.N,GND*
X100450000Y-90730000D03*
G04 #@! TO.P,J4,7*
G04 #@! TO.N,N/C*
X102990000Y-93270000D03*
G04 #@! TO.P,J4,8*
X102990000Y-90730000D03*
G04 #@! TO.P,J4,9*
G04 #@! TO.N,GND*
X105530000Y-93270000D03*
G04 #@! TO.P,J4,10*
G04 #@! TO.N,N/C*
X105530000Y-90730000D03*
G04 #@! TO.P,J4,11*
X108070000Y-93270000D03*
G04 #@! TO.P,J4,12*
X108070000Y-90730000D03*
G04 #@! TO.P,J4,13*
X110610000Y-93270000D03*
G04 #@! TO.P,J4,14*
G04 #@! TO.N,GND*
X110610000Y-90730000D03*
G04 #@! TO.P,J4,15*
G04 #@! TO.N,N/C*
X113150000Y-93270000D03*
G04 #@! TO.P,J4,16*
X113150000Y-90730000D03*
G04 #@! TO.P,J4,17*
G04 #@! TO.N,pi-01*
X115690000Y-93270000D03*
G04 #@! TO.P,J4,18*
G04 #@! TO.N,N/C*
X115690000Y-90730000D03*
G04 #@! TO.P,J4,19*
X118230000Y-93270000D03*
G04 #@! TO.P,J4,20*
G04 #@! TO.N,GND*
X118230000Y-90730000D03*
G04 #@! TO.P,J4,21*
G04 #@! TO.N,N/C*
X120770000Y-93270000D03*
G04 #@! TO.P,J4,22*
X120770000Y-90730000D03*
G04 #@! TO.P,J4,23*
X123310000Y-93270000D03*
G04 #@! TO.P,J4,24*
X123310000Y-90730000D03*
G04 #@! TO.P,J4,25*
G04 #@! TO.N,GND*
X125850000Y-93270000D03*
G04 #@! TO.P,J4,26*
G04 #@! TO.N,N/C*
X125850000Y-90730000D03*
G04 #@! TO.P,J4,27*
X128390000Y-93270000D03*
G04 #@! TO.P,J4,28*
X128390000Y-90730000D03*
G04 #@! TO.P,J4,29*
X130930000Y-93270000D03*
G04 #@! TO.P,J4,30*
G04 #@! TO.N,GND*
X130930000Y-90730000D03*
G04 #@! TO.P,J4,31*
G04 #@! TO.N,N/C*
X133470000Y-93270000D03*
G04 #@! TO.P,J4,32*
G04 #@! TO.N,pi-32*
X133470000Y-90730000D03*
G04 #@! TO.P,J4,33*
G04 #@! TO.N,N/C*
X136010000Y-93270000D03*
G04 #@! TO.P,J4,34*
G04 #@! TO.N,GND*
X136010000Y-90730000D03*
G04 #@! TO.P,J4,35*
G04 #@! TO.N,pi-35*
X138550000Y-93270000D03*
G04 #@! TO.P,J4,36*
G04 #@! TO.N,N/C*
X138550000Y-90730000D03*
G04 #@! TO.P,J4,37*
X141090000Y-93270000D03*
G04 #@! TO.P,J4,38*
X141090000Y-90730000D03*
G04 #@! TO.P,J4,39*
G04 #@! TO.N,GND*
X143630000Y-93270000D03*
G04 #@! TO.P,J4,40*
G04 #@! TO.N,N/C*
X143630000Y-90730000D03*
G04 #@! TD*
D18*
G04 #@! TO.P,J3,1*
G04 #@! TO.N,GND*
X149098000Y-104822000D03*
D17*
G04 #@! TO.P,J3,2*
G04 #@! TO.N,/5V*
X149098000Y-99822000D03*
G04 #@! TD*
D19*
G04 #@! TO.P,SW1,1*
G04 #@! TO.N,Net-(R1-Pad2)*
X149225000Y-117475000D03*
D20*
G04 #@! TO.P,SW1,2*
X149225000Y-114935000D03*
G04 #@! TO.P,SW1,3*
G04 #@! TO.N,GND*
X149225000Y-112395000D03*
G04 #@! TD*
D21*
G04 #@! TO.P,J2,1*
G04 #@! TO.N,Vin*
X141500000Y-130200000D03*
D10*
G04 #@! TD*
G04 #@! TO.N,GND*
G04 #@! TO.C,J2*
G36*
X148323513Y-128453611D02*
X148396318Y-128464411D01*
X148467714Y-128482295D01*
X148537013Y-128507090D01*
X148603548Y-128538559D01*
X148666678Y-128576398D01*
X148725795Y-128620242D01*
X148780330Y-128669670D01*
X148829758Y-128724205D01*
X148873602Y-128783322D01*
X148911441Y-128846452D01*
X148942910Y-128912987D01*
X148967705Y-128982286D01*
X148985589Y-129053682D01*
X148996389Y-129126487D01*
X149000000Y-129200000D01*
X149000000Y-131200000D01*
X148996389Y-131273513D01*
X148985589Y-131346318D01*
X148967705Y-131417714D01*
X148942910Y-131487013D01*
X148911441Y-131553548D01*
X148873602Y-131616678D01*
X148829758Y-131675795D01*
X148780330Y-131730330D01*
X148725795Y-131779758D01*
X148666678Y-131823602D01*
X148603548Y-131861441D01*
X148537013Y-131892910D01*
X148467714Y-131917705D01*
X148396318Y-131935589D01*
X148323513Y-131946389D01*
X148250000Y-131950000D01*
X146750000Y-131950000D01*
X146676487Y-131946389D01*
X146603682Y-131935589D01*
X146532286Y-131917705D01*
X146462987Y-131892910D01*
X146396452Y-131861441D01*
X146333322Y-131823602D01*
X146274205Y-131779758D01*
X146219670Y-131730330D01*
X146170242Y-131675795D01*
X146126398Y-131616678D01*
X146088559Y-131553548D01*
X146057090Y-131487013D01*
X146032295Y-131417714D01*
X146014411Y-131346318D01*
X146003611Y-131273513D01*
X146000000Y-131200000D01*
X146000000Y-129200000D01*
X146003611Y-129126487D01*
X146014411Y-129053682D01*
X146032295Y-128982286D01*
X146057090Y-128912987D01*
X146088559Y-128846452D01*
X146126398Y-128783322D01*
X146170242Y-128724205D01*
X146219670Y-128669670D01*
X146274205Y-128620242D01*
X146333322Y-128576398D01*
X146396452Y-128538559D01*
X146462987Y-128507090D01*
X146532286Y-128482295D01*
X146603682Y-128464411D01*
X146676487Y-128453611D01*
X146750000Y-128450000D01*
X148250000Y-128450000D01*
X148323513Y-128453611D01*
X148323513Y-128453611D01*
G37*
D22*
G04 #@! TO.P,J2,2*
G04 #@! TO.N,GND*
X147500000Y-130200000D03*
D10*
G04 #@! TD*
G04 #@! TO.N,N/C*
G04 #@! TO.C,J2*
G36*
X145460765Y-123754213D02*
X145545704Y-123766813D01*
X145628999Y-123787677D01*
X145709848Y-123816605D01*
X145787472Y-123853319D01*
X145861124Y-123897464D01*
X145930094Y-123948616D01*
X145993718Y-124006282D01*
X146051384Y-124069906D01*
X146102536Y-124138876D01*
X146146681Y-124212528D01*
X146183395Y-124290152D01*
X146212323Y-124371001D01*
X146233187Y-124454296D01*
X146245787Y-124539235D01*
X146250000Y-124625000D01*
X146250000Y-126375000D01*
X146245787Y-126460765D01*
X146233187Y-126545704D01*
X146212323Y-126628999D01*
X146183395Y-126709848D01*
X146146681Y-126787472D01*
X146102536Y-126861124D01*
X146051384Y-126930094D01*
X145993718Y-126993718D01*
X145930094Y-127051384D01*
X145861124Y-127102536D01*
X145787472Y-127146681D01*
X145709848Y-127183395D01*
X145628999Y-127212323D01*
X145545704Y-127233187D01*
X145460765Y-127245787D01*
X145375000Y-127250000D01*
X143625000Y-127250000D01*
X143539235Y-127245787D01*
X143454296Y-127233187D01*
X143371001Y-127212323D01*
X143290152Y-127183395D01*
X143212528Y-127146681D01*
X143138876Y-127102536D01*
X143069906Y-127051384D01*
X143006282Y-126993718D01*
X142948616Y-126930094D01*
X142897464Y-126861124D01*
X142853319Y-126787472D01*
X142816605Y-126709848D01*
X142787677Y-126628999D01*
X142766813Y-126545704D01*
X142754213Y-126460765D01*
X142750000Y-126375000D01*
X142750000Y-124625000D01*
X142754213Y-124539235D01*
X142766813Y-124454296D01*
X142787677Y-124371001D01*
X142816605Y-124290152D01*
X142853319Y-124212528D01*
X142897464Y-124138876D01*
X142948616Y-124069906D01*
X143006282Y-124006282D01*
X143069906Y-123948616D01*
X143138876Y-123897464D01*
X143212528Y-123853319D01*
X143290152Y-123816605D01*
X143371001Y-123787677D01*
X143454296Y-123766813D01*
X143539235Y-123754213D01*
X143625000Y-123750000D01*
X145375000Y-123750000D01*
X145460765Y-123754213D01*
X145460765Y-123754213D01*
G37*
D23*
G04 #@! TO.P,J2,3*
G04 #@! TO.N,N/C*
X144500000Y-125500000D03*
G04 #@! TD*
D24*
G04 #@! TO.P,J6,2*
G04 #@! TO.N,Net-(C6-Pad2)*
X113324000Y-141732000D03*
D10*
G04 #@! TD*
G04 #@! TO.N,Vin*
G04 #@! TO.C,J6*
G36*
X116448504Y-140733204D02*
X116472773Y-140736804D01*
X116496571Y-140742765D01*
X116519671Y-140751030D01*
X116541849Y-140761520D01*
X116562893Y-140774133D01*
X116582598Y-140788747D01*
X116600777Y-140805223D01*
X116617253Y-140823402D01*
X116631867Y-140843107D01*
X116644480Y-140864151D01*
X116654970Y-140886329D01*
X116663235Y-140909429D01*
X116669196Y-140933227D01*
X116672796Y-140957496D01*
X116674000Y-140982000D01*
X116674000Y-142482000D01*
X116672796Y-142506504D01*
X116669196Y-142530773D01*
X116663235Y-142554571D01*
X116654970Y-142577671D01*
X116644480Y-142599849D01*
X116631867Y-142620893D01*
X116617253Y-142640598D01*
X116600777Y-142658777D01*
X116582598Y-142675253D01*
X116562893Y-142689867D01*
X116541849Y-142702480D01*
X116519671Y-142712970D01*
X116496571Y-142721235D01*
X116472773Y-142727196D01*
X116448504Y-142730796D01*
X116424000Y-142732000D01*
X115224000Y-142732000D01*
X115199496Y-142730796D01*
X115175227Y-142727196D01*
X115151429Y-142721235D01*
X115128329Y-142712970D01*
X115106151Y-142702480D01*
X115085107Y-142689867D01*
X115065402Y-142675253D01*
X115047223Y-142658777D01*
X115030747Y-142640598D01*
X115016133Y-142620893D01*
X115003520Y-142599849D01*
X114993030Y-142577671D01*
X114984765Y-142554571D01*
X114978804Y-142530773D01*
X114975204Y-142506504D01*
X114974000Y-142482000D01*
X114974000Y-140982000D01*
X114975204Y-140957496D01*
X114978804Y-140933227D01*
X114984765Y-140909429D01*
X114993030Y-140886329D01*
X115003520Y-140864151D01*
X115016133Y-140843107D01*
X115030747Y-140823402D01*
X115047223Y-140805223D01*
X115065402Y-140788747D01*
X115085107Y-140774133D01*
X115106151Y-140761520D01*
X115128329Y-140751030D01*
X115151429Y-140742765D01*
X115175227Y-140736804D01*
X115199496Y-140733204D01*
X115224000Y-140732000D01*
X116424000Y-140732000D01*
X116448504Y-140733204D01*
X116448504Y-140733204D01*
G37*
D25*
G04 #@! TO.P,J6,1*
G04 #@! TO.N,Vin*
X115824000Y-141732000D03*
G04 #@! TD*
D10*
G04 #@! TO.N,pi-05*
G04 #@! TO.C,J5*
G36*
X90665504Y-104735204D02*
X90689773Y-104738804D01*
X90713571Y-104744765D01*
X90736671Y-104753030D01*
X90758849Y-104763520D01*
X90779893Y-104776133D01*
X90799598Y-104790747D01*
X90817777Y-104807223D01*
X90834253Y-104825402D01*
X90848867Y-104845107D01*
X90861480Y-104866151D01*
X90871970Y-104888329D01*
X90880235Y-104911429D01*
X90886196Y-104935227D01*
X90889796Y-104959496D01*
X90891000Y-104984000D01*
X90891000Y-106184000D01*
X90889796Y-106208504D01*
X90886196Y-106232773D01*
X90880235Y-106256571D01*
X90871970Y-106279671D01*
X90861480Y-106301849D01*
X90848867Y-106322893D01*
X90834253Y-106342598D01*
X90817777Y-106360777D01*
X90799598Y-106377253D01*
X90779893Y-106391867D01*
X90758849Y-106404480D01*
X90736671Y-106414970D01*
X90713571Y-106423235D01*
X90689773Y-106429196D01*
X90665504Y-106432796D01*
X90641000Y-106434000D01*
X89191000Y-106434000D01*
X89166496Y-106432796D01*
X89142227Y-106429196D01*
X89118429Y-106423235D01*
X89095329Y-106414970D01*
X89073151Y-106404480D01*
X89052107Y-106391867D01*
X89032402Y-106377253D01*
X89014223Y-106360777D01*
X88997747Y-106342598D01*
X88983133Y-106322893D01*
X88970520Y-106301849D01*
X88960030Y-106279671D01*
X88951765Y-106256571D01*
X88945804Y-106232773D01*
X88942204Y-106208504D01*
X88941000Y-106184000D01*
X88941000Y-104984000D01*
X88942204Y-104959496D01*
X88945804Y-104935227D01*
X88951765Y-104911429D01*
X88960030Y-104888329D01*
X88970520Y-104866151D01*
X88983133Y-104845107D01*
X88997747Y-104825402D01*
X89014223Y-104807223D01*
X89032402Y-104790747D01*
X89052107Y-104776133D01*
X89073151Y-104763520D01*
X89095329Y-104753030D01*
X89118429Y-104744765D01*
X89142227Y-104738804D01*
X89166496Y-104735204D01*
X89191000Y-104734000D01*
X90641000Y-104734000D01*
X90665504Y-104735204D01*
X90665504Y-104735204D01*
G37*
D25*
G04 #@! TD*
G04 #@! TO.P,J5,1*
G04 #@! TO.N,pi-05*
X89916000Y-105584000D03*
D26*
G04 #@! TO.P,J5,2*
G04 #@! TO.N,pi-03*
X89916000Y-103084000D03*
G04 #@! TO.P,J5,3*
G04 #@! TO.N,pi-01*
X89916000Y-100584000D03*
G04 #@! TO.P,J5,4*
G04 #@! TO.N,GND*
X89916000Y-98084000D03*
G04 #@! TD*
D10*
G04 #@! TO.N,Vin*
G04 #@! TO.C,J7*
G36*
X126608504Y-140733204D02*
X126632773Y-140736804D01*
X126656571Y-140742765D01*
X126679671Y-140751030D01*
X126701849Y-140761520D01*
X126722893Y-140774133D01*
X126742598Y-140788747D01*
X126760777Y-140805223D01*
X126777253Y-140823402D01*
X126791867Y-140843107D01*
X126804480Y-140864151D01*
X126814970Y-140886329D01*
X126823235Y-140909429D01*
X126829196Y-140933227D01*
X126832796Y-140957496D01*
X126834000Y-140982000D01*
X126834000Y-142482000D01*
X126832796Y-142506504D01*
X126829196Y-142530773D01*
X126823235Y-142554571D01*
X126814970Y-142577671D01*
X126804480Y-142599849D01*
X126791867Y-142620893D01*
X126777253Y-142640598D01*
X126760777Y-142658777D01*
X126742598Y-142675253D01*
X126722893Y-142689867D01*
X126701849Y-142702480D01*
X126679671Y-142712970D01*
X126656571Y-142721235D01*
X126632773Y-142727196D01*
X126608504Y-142730796D01*
X126584000Y-142732000D01*
X125384000Y-142732000D01*
X125359496Y-142730796D01*
X125335227Y-142727196D01*
X125311429Y-142721235D01*
X125288329Y-142712970D01*
X125266151Y-142702480D01*
X125245107Y-142689867D01*
X125225402Y-142675253D01*
X125207223Y-142658777D01*
X125190747Y-142640598D01*
X125176133Y-142620893D01*
X125163520Y-142599849D01*
X125153030Y-142577671D01*
X125144765Y-142554571D01*
X125138804Y-142530773D01*
X125135204Y-142506504D01*
X125134000Y-142482000D01*
X125134000Y-140982000D01*
X125135204Y-140957496D01*
X125138804Y-140933227D01*
X125144765Y-140909429D01*
X125153030Y-140886329D01*
X125163520Y-140864151D01*
X125176133Y-140843107D01*
X125190747Y-140823402D01*
X125207223Y-140805223D01*
X125225402Y-140788747D01*
X125245107Y-140774133D01*
X125266151Y-140761520D01*
X125288329Y-140751030D01*
X125311429Y-140742765D01*
X125335227Y-140736804D01*
X125359496Y-140733204D01*
X125384000Y-140732000D01*
X126584000Y-140732000D01*
X126608504Y-140733204D01*
X126608504Y-140733204D01*
G37*
D25*
G04 #@! TD*
G04 #@! TO.P,J7,1*
G04 #@! TO.N,Vin*
X125984000Y-141732000D03*
D24*
G04 #@! TO.P,J7,2*
G04 #@! TO.N,Net-(C5-Pad2)*
X123484000Y-141732000D03*
G04 #@! TD*
D27*
G04 #@! TO.P,Q1,1*
G04 #@! TO.N,GND*
X127000000Y-133858000D03*
D28*
G04 #@! TO.P,Q1,2*
G04 #@! TO.N,Net-(C5-Pad2)*
X124460000Y-133858000D03*
G04 #@! TO.P,Q1,3*
G04 #@! TO.N,Net-(Q1-Pad3)*
X121920000Y-133858000D03*
G04 #@! TD*
G04 #@! TO.P,Q2,3*
G04 #@! TO.N,Net-(Q2-Pad3)*
X110490000Y-133858000D03*
G04 #@! TO.P,Q2,2*
G04 #@! TO.N,Net-(C6-Pad2)*
X113030000Y-133858000D03*
D27*
G04 #@! TO.P,Q2,1*
G04 #@! TO.N,GND*
X115570000Y-133858000D03*
G04 #@! TD*
D10*
G04 #@! TO.N,Vin*
G04 #@! TO.C,C5*
G36*
X125970191Y-138972053D02*
X125991426Y-138975203D01*
X126012250Y-138980419D01*
X126032462Y-138987651D01*
X126051868Y-138996830D01*
X126070281Y-139007866D01*
X126087524Y-139020654D01*
X126103430Y-139035070D01*
X126117846Y-139050976D01*
X126130634Y-139068219D01*
X126141670Y-139086632D01*
X126150849Y-139106038D01*
X126158081Y-139126250D01*
X126163297Y-139147074D01*
X126166447Y-139168309D01*
X126167500Y-139189750D01*
X126167500Y-139702250D01*
X126166447Y-139723691D01*
X126163297Y-139744926D01*
X126158081Y-139765750D01*
X126150849Y-139785962D01*
X126141670Y-139805368D01*
X126130634Y-139823781D01*
X126117846Y-139841024D01*
X126103430Y-139856930D01*
X126087524Y-139871346D01*
X126070281Y-139884134D01*
X126051868Y-139895170D01*
X126032462Y-139904349D01*
X126012250Y-139911581D01*
X125991426Y-139916797D01*
X125970191Y-139919947D01*
X125948750Y-139921000D01*
X125511250Y-139921000D01*
X125489809Y-139919947D01*
X125468574Y-139916797D01*
X125447750Y-139911581D01*
X125427538Y-139904349D01*
X125408132Y-139895170D01*
X125389719Y-139884134D01*
X125372476Y-139871346D01*
X125356570Y-139856930D01*
X125342154Y-139841024D01*
X125329366Y-139823781D01*
X125318330Y-139805368D01*
X125309151Y-139785962D01*
X125301919Y-139765750D01*
X125296703Y-139744926D01*
X125293553Y-139723691D01*
X125292500Y-139702250D01*
X125292500Y-139189750D01*
X125293553Y-139168309D01*
X125296703Y-139147074D01*
X125301919Y-139126250D01*
X125309151Y-139106038D01*
X125318330Y-139086632D01*
X125329366Y-139068219D01*
X125342154Y-139050976D01*
X125356570Y-139035070D01*
X125372476Y-139020654D01*
X125389719Y-139007866D01*
X125408132Y-138996830D01*
X125427538Y-138987651D01*
X125447750Y-138980419D01*
X125468574Y-138975203D01*
X125489809Y-138972053D01*
X125511250Y-138971000D01*
X125948750Y-138971000D01*
X125970191Y-138972053D01*
X125970191Y-138972053D01*
G37*
D12*
G04 #@! TD*
G04 #@! TO.P,C5,1*
G04 #@! TO.N,Vin*
X125730000Y-139446000D03*
D10*
G04 #@! TO.N,Net-(C5-Pad2)*
G04 #@! TO.C,C5*
G36*
X124395191Y-138972053D02*
X124416426Y-138975203D01*
X124437250Y-138980419D01*
X124457462Y-138987651D01*
X124476868Y-138996830D01*
X124495281Y-139007866D01*
X124512524Y-139020654D01*
X124528430Y-139035070D01*
X124542846Y-139050976D01*
X124555634Y-139068219D01*
X124566670Y-139086632D01*
X124575849Y-139106038D01*
X124583081Y-139126250D01*
X124588297Y-139147074D01*
X124591447Y-139168309D01*
X124592500Y-139189750D01*
X124592500Y-139702250D01*
X124591447Y-139723691D01*
X124588297Y-139744926D01*
X124583081Y-139765750D01*
X124575849Y-139785962D01*
X124566670Y-139805368D01*
X124555634Y-139823781D01*
X124542846Y-139841024D01*
X124528430Y-139856930D01*
X124512524Y-139871346D01*
X124495281Y-139884134D01*
X124476868Y-139895170D01*
X124457462Y-139904349D01*
X124437250Y-139911581D01*
X124416426Y-139916797D01*
X124395191Y-139919947D01*
X124373750Y-139921000D01*
X123936250Y-139921000D01*
X123914809Y-139919947D01*
X123893574Y-139916797D01*
X123872750Y-139911581D01*
X123852538Y-139904349D01*
X123833132Y-139895170D01*
X123814719Y-139884134D01*
X123797476Y-139871346D01*
X123781570Y-139856930D01*
X123767154Y-139841024D01*
X123754366Y-139823781D01*
X123743330Y-139805368D01*
X123734151Y-139785962D01*
X123726919Y-139765750D01*
X123721703Y-139744926D01*
X123718553Y-139723691D01*
X123717500Y-139702250D01*
X123717500Y-139189750D01*
X123718553Y-139168309D01*
X123721703Y-139147074D01*
X123726919Y-139126250D01*
X123734151Y-139106038D01*
X123743330Y-139086632D01*
X123754366Y-139068219D01*
X123767154Y-139050976D01*
X123781570Y-139035070D01*
X123797476Y-139020654D01*
X123814719Y-139007866D01*
X123833132Y-138996830D01*
X123852538Y-138987651D01*
X123872750Y-138980419D01*
X123893574Y-138975203D01*
X123914809Y-138972053D01*
X123936250Y-138971000D01*
X124373750Y-138971000D01*
X124395191Y-138972053D01*
X124395191Y-138972053D01*
G37*
D12*
G04 #@! TD*
G04 #@! TO.P,C5,2*
G04 #@! TO.N,Net-(C5-Pad2)*
X124155000Y-139446000D03*
D10*
G04 #@! TO.N,pi-01*
G04 #@! TO.C,R9*
G36*
X93277691Y-104563553D02*
X93298926Y-104566703D01*
X93319750Y-104571919D01*
X93339962Y-104579151D01*
X93359368Y-104588330D01*
X93377781Y-104599366D01*
X93395024Y-104612154D01*
X93410930Y-104626570D01*
X93425346Y-104642476D01*
X93438134Y-104659719D01*
X93449170Y-104678132D01*
X93458349Y-104697538D01*
X93465581Y-104717750D01*
X93470797Y-104738574D01*
X93473947Y-104759809D01*
X93475000Y-104781250D01*
X93475000Y-105218750D01*
X93473947Y-105240191D01*
X93470797Y-105261426D01*
X93465581Y-105282250D01*
X93458349Y-105302462D01*
X93449170Y-105321868D01*
X93438134Y-105340281D01*
X93425346Y-105357524D01*
X93410930Y-105373430D01*
X93395024Y-105387846D01*
X93377781Y-105400634D01*
X93359368Y-105411670D01*
X93339962Y-105420849D01*
X93319750Y-105428081D01*
X93298926Y-105433297D01*
X93277691Y-105436447D01*
X93256250Y-105437500D01*
X92743750Y-105437500D01*
X92722309Y-105436447D01*
X92701074Y-105433297D01*
X92680250Y-105428081D01*
X92660038Y-105420849D01*
X92640632Y-105411670D01*
X92622219Y-105400634D01*
X92604976Y-105387846D01*
X92589070Y-105373430D01*
X92574654Y-105357524D01*
X92561866Y-105340281D01*
X92550830Y-105321868D01*
X92541651Y-105302462D01*
X92534419Y-105282250D01*
X92529203Y-105261426D01*
X92526053Y-105240191D01*
X92525000Y-105218750D01*
X92525000Y-104781250D01*
X92526053Y-104759809D01*
X92529203Y-104738574D01*
X92534419Y-104717750D01*
X92541651Y-104697538D01*
X92550830Y-104678132D01*
X92561866Y-104659719D01*
X92574654Y-104642476D01*
X92589070Y-104626570D01*
X92604976Y-104612154D01*
X92622219Y-104599366D01*
X92640632Y-104588330D01*
X92660038Y-104579151D01*
X92680250Y-104571919D01*
X92701074Y-104566703D01*
X92722309Y-104563553D01*
X92743750Y-104562500D01*
X93256250Y-104562500D01*
X93277691Y-104563553D01*
X93277691Y-104563553D01*
G37*
D12*
G04 #@! TD*
G04 #@! TO.P,R9,1*
G04 #@! TO.N,pi-01*
X93000000Y-105000000D03*
D10*
G04 #@! TO.N,pi-05*
G04 #@! TO.C,R9*
G36*
X93277691Y-106138553D02*
X93298926Y-106141703D01*
X93319750Y-106146919D01*
X93339962Y-106154151D01*
X93359368Y-106163330D01*
X93377781Y-106174366D01*
X93395024Y-106187154D01*
X93410930Y-106201570D01*
X93425346Y-106217476D01*
X93438134Y-106234719D01*
X93449170Y-106253132D01*
X93458349Y-106272538D01*
X93465581Y-106292750D01*
X93470797Y-106313574D01*
X93473947Y-106334809D01*
X93475000Y-106356250D01*
X93475000Y-106793750D01*
X93473947Y-106815191D01*
X93470797Y-106836426D01*
X93465581Y-106857250D01*
X93458349Y-106877462D01*
X93449170Y-106896868D01*
X93438134Y-106915281D01*
X93425346Y-106932524D01*
X93410930Y-106948430D01*
X93395024Y-106962846D01*
X93377781Y-106975634D01*
X93359368Y-106986670D01*
X93339962Y-106995849D01*
X93319750Y-107003081D01*
X93298926Y-107008297D01*
X93277691Y-107011447D01*
X93256250Y-107012500D01*
X92743750Y-107012500D01*
X92722309Y-107011447D01*
X92701074Y-107008297D01*
X92680250Y-107003081D01*
X92660038Y-106995849D01*
X92640632Y-106986670D01*
X92622219Y-106975634D01*
X92604976Y-106962846D01*
X92589070Y-106948430D01*
X92574654Y-106932524D01*
X92561866Y-106915281D01*
X92550830Y-106896868D01*
X92541651Y-106877462D01*
X92534419Y-106857250D01*
X92529203Y-106836426D01*
X92526053Y-106815191D01*
X92525000Y-106793750D01*
X92525000Y-106356250D01*
X92526053Y-106334809D01*
X92529203Y-106313574D01*
X92534419Y-106292750D01*
X92541651Y-106272538D01*
X92550830Y-106253132D01*
X92561866Y-106234719D01*
X92574654Y-106217476D01*
X92589070Y-106201570D01*
X92604976Y-106187154D01*
X92622219Y-106174366D01*
X92640632Y-106163330D01*
X92660038Y-106154151D01*
X92680250Y-106146919D01*
X92701074Y-106141703D01*
X92722309Y-106138553D01*
X92743750Y-106137500D01*
X93256250Y-106137500D01*
X93277691Y-106138553D01*
X93277691Y-106138553D01*
G37*
D12*
G04 #@! TD*
G04 #@! TO.P,R9,2*
G04 #@! TO.N,pi-05*
X93000000Y-106575000D03*
D10*
G04 #@! TO.N,pi-03*
G04 #@! TO.C,R10*
G36*
X93277691Y-102351053D02*
X93298926Y-102354203D01*
X93319750Y-102359419D01*
X93339962Y-102366651D01*
X93359368Y-102375830D01*
X93377781Y-102386866D01*
X93395024Y-102399654D01*
X93410930Y-102414070D01*
X93425346Y-102429976D01*
X93438134Y-102447219D01*
X93449170Y-102465632D01*
X93458349Y-102485038D01*
X93465581Y-102505250D01*
X93470797Y-102526074D01*
X93473947Y-102547309D01*
X93475000Y-102568750D01*
X93475000Y-103006250D01*
X93473947Y-103027691D01*
X93470797Y-103048926D01*
X93465581Y-103069750D01*
X93458349Y-103089962D01*
X93449170Y-103109368D01*
X93438134Y-103127781D01*
X93425346Y-103145024D01*
X93410930Y-103160930D01*
X93395024Y-103175346D01*
X93377781Y-103188134D01*
X93359368Y-103199170D01*
X93339962Y-103208349D01*
X93319750Y-103215581D01*
X93298926Y-103220797D01*
X93277691Y-103223947D01*
X93256250Y-103225000D01*
X92743750Y-103225000D01*
X92722309Y-103223947D01*
X92701074Y-103220797D01*
X92680250Y-103215581D01*
X92660038Y-103208349D01*
X92640632Y-103199170D01*
X92622219Y-103188134D01*
X92604976Y-103175346D01*
X92589070Y-103160930D01*
X92574654Y-103145024D01*
X92561866Y-103127781D01*
X92550830Y-103109368D01*
X92541651Y-103089962D01*
X92534419Y-103069750D01*
X92529203Y-103048926D01*
X92526053Y-103027691D01*
X92525000Y-103006250D01*
X92525000Y-102568750D01*
X92526053Y-102547309D01*
X92529203Y-102526074D01*
X92534419Y-102505250D01*
X92541651Y-102485038D01*
X92550830Y-102465632D01*
X92561866Y-102447219D01*
X92574654Y-102429976D01*
X92589070Y-102414070D01*
X92604976Y-102399654D01*
X92622219Y-102386866D01*
X92640632Y-102375830D01*
X92660038Y-102366651D01*
X92680250Y-102359419D01*
X92701074Y-102354203D01*
X92722309Y-102351053D01*
X92743750Y-102350000D01*
X93256250Y-102350000D01*
X93277691Y-102351053D01*
X93277691Y-102351053D01*
G37*
D12*
G04 #@! TD*
G04 #@! TO.P,R10,2*
G04 #@! TO.N,pi-03*
X93000000Y-102787500D03*
D10*
G04 #@! TO.N,pi-01*
G04 #@! TO.C,R10*
G36*
X93277691Y-100776053D02*
X93298926Y-100779203D01*
X93319750Y-100784419D01*
X93339962Y-100791651D01*
X93359368Y-100800830D01*
X93377781Y-100811866D01*
X93395024Y-100824654D01*
X93410930Y-100839070D01*
X93425346Y-100854976D01*
X93438134Y-100872219D01*
X93449170Y-100890632D01*
X93458349Y-100910038D01*
X93465581Y-100930250D01*
X93470797Y-100951074D01*
X93473947Y-100972309D01*
X93475000Y-100993750D01*
X93475000Y-101431250D01*
X93473947Y-101452691D01*
X93470797Y-101473926D01*
X93465581Y-101494750D01*
X93458349Y-101514962D01*
X93449170Y-101534368D01*
X93438134Y-101552781D01*
X93425346Y-101570024D01*
X93410930Y-101585930D01*
X93395024Y-101600346D01*
X93377781Y-101613134D01*
X93359368Y-101624170D01*
X93339962Y-101633349D01*
X93319750Y-101640581D01*
X93298926Y-101645797D01*
X93277691Y-101648947D01*
X93256250Y-101650000D01*
X92743750Y-101650000D01*
X92722309Y-101648947D01*
X92701074Y-101645797D01*
X92680250Y-101640581D01*
X92660038Y-101633349D01*
X92640632Y-101624170D01*
X92622219Y-101613134D01*
X92604976Y-101600346D01*
X92589070Y-101585930D01*
X92574654Y-101570024D01*
X92561866Y-101552781D01*
X92550830Y-101534368D01*
X92541651Y-101514962D01*
X92534419Y-101494750D01*
X92529203Y-101473926D01*
X92526053Y-101452691D01*
X92525000Y-101431250D01*
X92525000Y-100993750D01*
X92526053Y-100972309D01*
X92529203Y-100951074D01*
X92534419Y-100930250D01*
X92541651Y-100910038D01*
X92550830Y-100890632D01*
X92561866Y-100872219D01*
X92574654Y-100854976D01*
X92589070Y-100839070D01*
X92604976Y-100824654D01*
X92622219Y-100811866D01*
X92640632Y-100800830D01*
X92660038Y-100791651D01*
X92680250Y-100784419D01*
X92701074Y-100779203D01*
X92722309Y-100776053D01*
X92743750Y-100775000D01*
X93256250Y-100775000D01*
X93277691Y-100776053D01*
X93277691Y-100776053D01*
G37*
D12*
G04 #@! TD*
G04 #@! TO.P,R10,1*
G04 #@! TO.N,pi-01*
X93000000Y-101212500D03*
D10*
G04 #@! TO.N,*
G04 #@! TO.C,*
G36*
X97096459Y-141192528D02*
X97147422Y-141200088D01*
X97197399Y-141212606D01*
X97245909Y-141229963D01*
X97292483Y-141251991D01*
X97336674Y-141278478D01*
X97378056Y-141309170D01*
X97416231Y-141343769D01*
X97450830Y-141381944D01*
X97481522Y-141423326D01*
X97508009Y-141467517D01*
X97530037Y-141514091D01*
X97547394Y-141562601D01*
X97559912Y-141612578D01*
X97567472Y-141663541D01*
X97570000Y-141715000D01*
X97570000Y-142765000D01*
X97567472Y-142816459D01*
X97559912Y-142867422D01*
X97547394Y-142917399D01*
X97530037Y-142965909D01*
X97508009Y-143012483D01*
X97481522Y-143056674D01*
X97450830Y-143098056D01*
X97416231Y-143136231D01*
X97378056Y-143170830D01*
X97336674Y-143201522D01*
X97292483Y-143228009D01*
X97245909Y-143250037D01*
X97197399Y-143267394D01*
X97147422Y-143279912D01*
X97096459Y-143287472D01*
X97045000Y-143290000D01*
X95995000Y-143290000D01*
X95943541Y-143287472D01*
X95892578Y-143279912D01*
X95842601Y-143267394D01*
X95794091Y-143250037D01*
X95747517Y-143228009D01*
X95703326Y-143201522D01*
X95661944Y-143170830D01*
X95623769Y-143136231D01*
X95589170Y-143098056D01*
X95558478Y-143056674D01*
X95531991Y-143012483D01*
X95509963Y-142965909D01*
X95492606Y-142917399D01*
X95480088Y-142867422D01*
X95472528Y-142816459D01*
X95470000Y-142765000D01*
X95470000Y-141715000D01*
X95472528Y-141663541D01*
X95480088Y-141612578D01*
X95492606Y-141562601D01*
X95509963Y-141514091D01*
X95531991Y-141467517D01*
X95558478Y-141423326D01*
X95589170Y-141381944D01*
X95623769Y-141343769D01*
X95661944Y-141309170D01*
X95703326Y-141278478D01*
X95747517Y-141251991D01*
X95794091Y-141229963D01*
X95842601Y-141212606D01*
X95892578Y-141200088D01*
X95943541Y-141192528D01*
X95995000Y-141190000D01*
X97045000Y-141190000D01*
X97096459Y-141192528D01*
X97096459Y-141192528D01*
G37*
D11*
G04 #@! TD*
G04 #@! TO.P,,*
G04 #@! TO.N,*
X96520000Y-142240000D03*
D29*
G04 #@! TO.N,pi-02*
X130175000Y-96520000D03*
X130175000Y-99695000D03*
X130175000Y-98044000D03*
G04 #@! TO.N,GND*
X137500000Y-107000000D03*
X134500000Y-127000000D03*
X131000000Y-115500000D03*
X131500000Y-123500000D03*
X133000000Y-123500000D03*
X133000000Y-119000000D03*
X133000000Y-109500000D03*
X130500000Y-111000000D03*
X133500000Y-104000000D03*
X139500000Y-101000000D03*
X132500000Y-101000000D03*
X88000000Y-107000000D03*
X93500000Y-108500000D03*
X114554000Y-138176000D03*
X117348000Y-138938000D03*
X121920000Y-138938000D03*
X129794000Y-136652000D03*
X118110000Y-134874000D03*
X133096000Y-111506000D03*
X133096000Y-114046000D03*
X131318000Y-117602000D03*
X145796000Y-121666000D03*
X145796000Y-119126000D03*
X148082000Y-120650000D03*
X147320000Y-115062000D03*
X105664000Y-97536000D03*
X104648000Y-97536000D03*
X131572000Y-120650000D03*
X143764000Y-96266000D03*
X91948000Y-96774000D03*
X130030000Y-132280000D03*
G04 #@! TO.N,Net-(C5-Pad2)*
X123484000Y-139446000D03*
G04 #@! TO.N,Net-(C6-Pad2)*
X113324000Y-139446000D03*
G04 #@! TD*
D30*
G04 #@! TO.N,pi-02*
X95370000Y-90730000D02*
X97910000Y-90730000D01*
X130175000Y-96520000D02*
X130175000Y-96520000D01*
X130175000Y-99695000D02*
X130175000Y-99695000D01*
X130175000Y-99695000D02*
X130175000Y-97790000D01*
X130175000Y-97790000D02*
X130175000Y-96520000D01*
X129540000Y-95885000D02*
X130175000Y-96520000D01*
X94488000Y-95885000D02*
X129540000Y-95885000D01*
X93345000Y-94742000D02*
X94488000Y-95885000D01*
X93345000Y-91552919D02*
X93345000Y-94742000D01*
X94167919Y-90730000D02*
X93345000Y-91552919D01*
X95370000Y-90730000D02*
X94167919Y-90730000D01*
D31*
G04 #@! TO.N,pi-01*
X94390000Y-105000000D02*
X93000000Y-105000000D01*
X94615000Y-104775000D02*
X94390000Y-105000000D01*
X94615000Y-101600000D02*
X94615000Y-104775000D01*
X94227500Y-101212500D02*
X94615000Y-101600000D01*
X93000000Y-101212500D02*
X94227500Y-101212500D01*
X90544500Y-101212500D02*
X89916000Y-100584000D01*
X93000000Y-101212500D02*
X90544500Y-101212500D01*
D32*
G04 #@! TO.N,Vin*
X141605000Y-130305000D02*
X141500000Y-130200000D01*
D30*
X125984000Y-138430000D02*
X125984000Y-141732000D01*
X124968000Y-137414000D02*
X125984000Y-138430000D01*
X116332000Y-137414000D02*
X124968000Y-137414000D01*
X115824000Y-137922000D02*
X116332000Y-137414000D01*
X115824000Y-141732000D02*
X115824000Y-137922000D01*
D31*
G04 #@! TO.N,GND*
X147500000Y-130200000D02*
X144932000Y-130200000D01*
X144932000Y-130200000D02*
X144272000Y-129540000D01*
X145082000Y-130200000D02*
X144272000Y-129390000D01*
X145460000Y-130200000D02*
X145082000Y-130200000D01*
X144272000Y-129390000D02*
X144272000Y-128886998D01*
X144272000Y-129540000D02*
X144272000Y-129390000D01*
X147500000Y-130200000D02*
X145460000Y-130200000D01*
X144882000Y-130200000D02*
X145460000Y-130200000D01*
X144526000Y-129844000D02*
X144882000Y-130200000D01*
X144526000Y-128778000D02*
X144526000Y-129844000D01*
X143300000Y-127790000D02*
X143360000Y-127850000D01*
X142600000Y-127790000D02*
X143300000Y-127790000D01*
X143360000Y-127850000D02*
X143580000Y-127850000D01*
X143580000Y-127850000D02*
X143746000Y-128016000D01*
X143746000Y-128016000D02*
X143764000Y-128016000D01*
X143764000Y-128016000D02*
X144526000Y-128778000D01*
G04 #@! TO.N,pi-03*
X90212500Y-102787500D02*
X89916000Y-103084000D01*
X93000000Y-102787500D02*
X90212500Y-102787500D01*
G04 #@! TO.N,pi-05*
X90907000Y-106575000D02*
X89916000Y-105584000D01*
X93000000Y-106575000D02*
X90907000Y-106575000D01*
D30*
G04 #@! TO.N,Net-(C5-Pad2)*
X123901000Y-139446000D02*
X123484000Y-139446000D01*
G04 #@! TO.N,Net-(C6-Pad2)*
X113741000Y-139446000D02*
X113324000Y-139446000D01*
G04 #@! TD*
D33*
G04 #@! TO.N,GND*
G36*
X149525708Y-88776100D02*
X150023212Y-88956685D01*
X150465835Y-89246881D01*
X150829823Y-89631116D01*
X151095658Y-90088784D01*
X151251892Y-90604629D01*
X151275850Y-90873070D01*
X151265001Y-90927612D01*
X151265000Y-141953761D01*
X151203892Y-142437482D01*
X151041561Y-142847483D01*
X150782371Y-143204228D01*
X150442606Y-143485306D01*
X150043610Y-143673058D01*
X149576070Y-143762247D01*
X149488465Y-143765000D01*
X107778180Y-143765000D01*
X108034040Y-143594040D01*
X108288193Y-143213673D01*
X108377440Y-142765000D01*
X108377440Y-141715000D01*
X108321893Y-141435744D01*
X111839000Y-141435744D01*
X111839000Y-142028255D01*
X111925161Y-142461417D01*
X112253375Y-142952625D01*
X112744582Y-143280839D01*
X113324000Y-143396092D01*
X113903417Y-143280839D01*
X114394625Y-142952625D01*
X114437242Y-142888844D01*
X114589414Y-143116586D01*
X114880565Y-143311126D01*
X115224000Y-143379440D01*
X116424000Y-143379440D01*
X116767435Y-143311126D01*
X117058586Y-143116586D01*
X117253126Y-142825435D01*
X117321440Y-142482000D01*
X117321440Y-140982000D01*
X117253126Y-140638565D01*
X117059000Y-140348034D01*
X117059000Y-138649000D01*
X122531217Y-138649000D01*
X122320656Y-138964127D01*
X122224805Y-139446000D01*
X122320656Y-139927873D01*
X122593615Y-140336385D01*
X122634441Y-140363664D01*
X122413375Y-140511375D01*
X122085161Y-141002582D01*
X121999000Y-141435744D01*
X121999000Y-142028255D01*
X122085161Y-142461417D01*
X122413375Y-142952625D01*
X122904582Y-143280839D01*
X123484000Y-143396092D01*
X124063417Y-143280839D01*
X124554625Y-142952625D01*
X124597242Y-142888844D01*
X124749414Y-143116586D01*
X125040565Y-143311126D01*
X125384000Y-143379440D01*
X126584000Y-143379440D01*
X126927435Y-143311126D01*
X127218586Y-143116586D01*
X127413126Y-142825435D01*
X127481440Y-142482000D01*
X127481440Y-141285750D01*
X134720000Y-141285750D01*
X134720000Y-142376310D01*
X134816673Y-142609699D01*
X134995302Y-142788327D01*
X135228691Y-142885000D01*
X136319250Y-142885000D01*
X136478000Y-142726250D01*
X136478000Y-141127000D01*
X136732000Y-141127000D01*
X136732000Y-142726250D01*
X136890750Y-142885000D01*
X137981309Y-142885000D01*
X138214698Y-142788327D01*
X138393327Y-142609699D01*
X138490000Y-142376310D01*
X138490000Y-141285750D01*
X138331250Y-141127000D01*
X136732000Y-141127000D01*
X136478000Y-141127000D01*
X134878750Y-141127000D01*
X134720000Y-141285750D01*
X127481440Y-141285750D01*
X127481440Y-140982000D01*
X127413126Y-140638565D01*
X127219000Y-140348034D01*
X127219000Y-138551632D01*
X127243194Y-138430000D01*
X127219000Y-138308368D01*
X127219000Y-138308364D01*
X127147344Y-137948127D01*
X126943286Y-137642732D01*
X126943285Y-137642731D01*
X126874385Y-137539615D01*
X126771269Y-137470715D01*
X125927286Y-136626733D01*
X125858385Y-136523615D01*
X125449873Y-136250656D01*
X125089636Y-136179000D01*
X125089632Y-136179000D01*
X124968000Y-136154806D01*
X124846368Y-136179000D01*
X116453630Y-136179000D01*
X116331999Y-136154806D01*
X116210368Y-136179000D01*
X116210364Y-136179000D01*
X115850127Y-136250656D01*
X115441615Y-136523615D01*
X115372713Y-136626734D01*
X115036732Y-136962715D01*
X114933616Y-137031615D01*
X114864716Y-137134731D01*
X114864714Y-137134733D01*
X114660656Y-137440128D01*
X114564806Y-137922000D01*
X114589001Y-138043637D01*
X114589001Y-138401705D01*
X114570727Y-138389495D01*
X114303097Y-138336260D01*
X114222873Y-138282656D01*
X113862636Y-138211000D01*
X113202364Y-138211000D01*
X112842127Y-138282656D01*
X112433615Y-138555615D01*
X112160656Y-138964127D01*
X112064805Y-139446000D01*
X112160656Y-139927873D01*
X112433615Y-140336385D01*
X112474441Y-140363664D01*
X112253375Y-140511375D01*
X111925161Y-141002582D01*
X111839000Y-141435744D01*
X108321893Y-141435744D01*
X108288193Y-141266327D01*
X108090194Y-140970000D01*
X108288193Y-140673673D01*
X108377440Y-140225000D01*
X108377440Y-139175000D01*
X108288193Y-138726327D01*
X108090194Y-138430000D01*
X108288193Y-138133673D01*
X108377440Y-137685000D01*
X108377440Y-136635000D01*
X108288193Y-136186327D01*
X108090194Y-135890000D01*
X108288193Y-135593673D01*
X108377440Y-135145000D01*
X108377440Y-134095000D01*
X108289750Y-133654150D01*
X108902500Y-133654150D01*
X108902500Y-134061849D01*
X108994609Y-134524910D01*
X109345477Y-135050023D01*
X109870589Y-135400891D01*
X110490000Y-135524100D01*
X111109410Y-135400891D01*
X111634523Y-135050023D01*
X111760000Y-134862233D01*
X111885477Y-135050023D01*
X112410589Y-135400891D01*
X113030000Y-135524100D01*
X113649410Y-135400891D01*
X114045444Y-135136270D01*
X114079173Y-135217699D01*
X114257802Y-135396327D01*
X114491191Y-135493000D01*
X115284250Y-135493000D01*
X115443000Y-135334250D01*
X115443000Y-133985000D01*
X115697000Y-133985000D01*
X115697000Y-135334250D01*
X115855750Y-135493000D01*
X116648809Y-135493000D01*
X116882198Y-135396327D01*
X117060827Y-135217699D01*
X117157500Y-134984310D01*
X117157500Y-134143750D01*
X116998750Y-133985000D01*
X115697000Y-133985000D01*
X115443000Y-133985000D01*
X115423000Y-133985000D01*
X115423000Y-133731000D01*
X115443000Y-133731000D01*
X115443000Y-132381750D01*
X115697000Y-132381750D01*
X115697000Y-133731000D01*
X116998750Y-133731000D01*
X117075600Y-133654150D01*
X120332500Y-133654150D01*
X120332500Y-134061849D01*
X120424609Y-134524910D01*
X120775477Y-135050023D01*
X121300589Y-135400891D01*
X121920000Y-135524100D01*
X122539410Y-135400891D01*
X123064523Y-135050023D01*
X123190000Y-134862233D01*
X123315477Y-135050023D01*
X123840589Y-135400891D01*
X124460000Y-135524100D01*
X125079410Y-135400891D01*
X125475444Y-135136270D01*
X125509173Y-135217699D01*
X125687802Y-135396327D01*
X125921191Y-135493000D01*
X126714250Y-135493000D01*
X126873000Y-135334250D01*
X126873000Y-133985000D01*
X127127000Y-133985000D01*
X127127000Y-135334250D01*
X127285750Y-135493000D01*
X128078809Y-135493000D01*
X128312198Y-135396327D01*
X128490827Y-135217699D01*
X128587500Y-134984310D01*
X128587500Y-134143750D01*
X128428750Y-133985000D01*
X127127000Y-133985000D01*
X126873000Y-133985000D01*
X126853000Y-133985000D01*
X126853000Y-133731000D01*
X126873000Y-133731000D01*
X126873000Y-132381750D01*
X127127000Y-132381750D01*
X127127000Y-133731000D01*
X128428750Y-133731000D01*
X128587500Y-133572250D01*
X128587500Y-132731690D01*
X128490827Y-132498301D01*
X128312198Y-132319673D01*
X128078809Y-132223000D01*
X127285750Y-132223000D01*
X127127000Y-132381750D01*
X126873000Y-132381750D01*
X126714250Y-132223000D01*
X125921191Y-132223000D01*
X125687802Y-132319673D01*
X125509173Y-132498301D01*
X125475444Y-132579729D01*
X125079411Y-132315109D01*
X124460000Y-132191900D01*
X123840590Y-132315109D01*
X123315477Y-132665977D01*
X123190000Y-132853767D01*
X123064523Y-132665977D01*
X122539411Y-132315109D01*
X121920000Y-132191900D01*
X121300590Y-132315109D01*
X120775477Y-132665977D01*
X120424609Y-133191089D01*
X120332500Y-133654150D01*
X117075600Y-133654150D01*
X117157500Y-133572250D01*
X117157500Y-132731690D01*
X117060827Y-132498301D01*
X116882198Y-132319673D01*
X116648809Y-132223000D01*
X115855750Y-132223000D01*
X115697000Y-132381750D01*
X115443000Y-132381750D01*
X115284250Y-132223000D01*
X114491191Y-132223000D01*
X114257802Y-132319673D01*
X114079173Y-132498301D01*
X114045444Y-132579729D01*
X113649411Y-132315109D01*
X113030000Y-132191900D01*
X112410590Y-132315109D01*
X111885477Y-132665977D01*
X111760000Y-132853767D01*
X111634523Y-132665977D01*
X111109411Y-132315109D01*
X110490000Y-132191900D01*
X109870590Y-132315109D01*
X109345477Y-132665977D01*
X108994609Y-133191089D01*
X108902500Y-133654150D01*
X108289750Y-133654150D01*
X108288193Y-133646327D01*
X108090194Y-133350000D01*
X108288193Y-133053673D01*
X108377440Y-132605000D01*
X108377440Y-131555000D01*
X108288193Y-131106327D01*
X108090194Y-130810000D01*
X108288193Y-130513673D01*
X108377440Y-130065000D01*
X108377440Y-129015000D01*
X108288193Y-128566327D01*
X108034040Y-128185960D01*
X107653673Y-127931807D01*
X107205000Y-127842560D01*
X106155000Y-127842560D01*
X105706327Y-127931807D01*
X105410000Y-128129806D01*
X105113673Y-127931807D01*
X104665000Y-127842560D01*
X103615000Y-127842560D01*
X103166327Y-127931807D01*
X102870000Y-128129806D01*
X102573673Y-127931807D01*
X102125000Y-127842560D01*
X101075000Y-127842560D01*
X100626327Y-127931807D01*
X100330000Y-128129806D01*
X100033673Y-127931807D01*
X99585000Y-127842560D01*
X98535000Y-127842560D01*
X98086327Y-127931807D01*
X97790000Y-128129806D01*
X97493673Y-127931807D01*
X97045000Y-127842560D01*
X95995000Y-127842560D01*
X95546327Y-127931807D01*
X95250000Y-128129806D01*
X94953673Y-127931807D01*
X94505000Y-127842560D01*
X93455000Y-127842560D01*
X93006327Y-127931807D01*
X92710000Y-128129806D01*
X92413673Y-127931807D01*
X91965000Y-127842560D01*
X90915000Y-127842560D01*
X90466327Y-127931807D01*
X90170000Y-128129806D01*
X89873673Y-127931807D01*
X89425000Y-127842560D01*
X88375000Y-127842560D01*
X87926327Y-127931807D01*
X87735000Y-128059648D01*
X87735000Y-126072390D01*
X87768475Y-125904099D01*
X87822798Y-125822799D01*
X87904101Y-125768475D01*
X88072390Y-125735000D01*
X91072388Y-125735000D01*
X91143389Y-125720877D01*
X91143391Y-125720877D01*
X91526074Y-125644757D01*
X91791027Y-125535010D01*
X92115451Y-125318238D01*
X92250641Y-125183046D01*
X92318237Y-125115451D01*
X92535010Y-124791027D01*
X92587101Y-124665267D01*
X92644757Y-124526074D01*
X92720877Y-124143391D01*
X92720877Y-124143389D01*
X92735000Y-124072388D01*
X92735000Y-124055431D01*
X97765000Y-124055431D01*
X97765000Y-124944569D01*
X98105259Y-125766026D01*
X98733974Y-126394741D01*
X99555431Y-126735000D01*
X100444569Y-126735000D01*
X101266026Y-126394741D01*
X101894741Y-125766026D01*
X102235000Y-124944569D01*
X102235000Y-124055431D01*
X101894741Y-123233974D01*
X101266026Y-122605259D01*
X100444569Y-122265000D01*
X99555431Y-122265000D01*
X98733974Y-122605259D01*
X98105259Y-123233974D01*
X97765000Y-124055431D01*
X92735000Y-124055431D01*
X92735000Y-111851598D01*
X98250668Y-111851598D01*
X98262549Y-113364287D01*
X98440352Y-114866537D01*
X98781930Y-116340204D01*
X99283157Y-117767489D01*
X99937979Y-119131152D01*
X100738487Y-120414724D01*
X101675012Y-121602701D01*
X102736244Y-122680735D01*
X103909364Y-123635805D01*
X105180204Y-124456376D01*
X106533413Y-125132536D01*
X107952649Y-125656120D01*
X109420769Y-126020803D01*
X110920041Y-126222180D01*
X112432357Y-126257820D01*
X113939451Y-126127292D01*
X115423120Y-125832171D01*
X116865444Y-125376024D01*
X118249003Y-124764359D01*
X119469512Y-124055431D01*
X121765000Y-124055431D01*
X121765000Y-124944569D01*
X122105259Y-125766026D01*
X122733974Y-126394741D01*
X123555431Y-126735000D01*
X124444569Y-126735000D01*
X125266026Y-126394741D01*
X125894741Y-125766026D01*
X126235000Y-124944569D01*
X126235000Y-124927613D01*
X130265000Y-124927613D01*
X130265001Y-138572388D01*
X130279123Y-138643384D01*
X130279123Y-138643390D01*
X130317183Y-138834733D01*
X130317184Y-138834735D01*
X130317184Y-138834737D01*
X130426932Y-139099689D01*
X130535319Y-139261900D01*
X130593805Y-139320385D01*
X130738100Y-139464681D01*
X130900311Y-139573068D01*
X130900314Y-139573069D01*
X130900315Y-139573070D01*
X130949261Y-139593344D01*
X131165263Y-139682816D01*
X131165266Y-139682816D01*
X131165268Y-139682817D01*
X131356610Y-139720877D01*
X131356611Y-139720877D01*
X131427612Y-139735000D01*
X132572388Y-139735000D01*
X132643389Y-139720877D01*
X132643390Y-139720877D01*
X132834733Y-139682817D01*
X132834735Y-139682816D01*
X132834737Y-139682816D01*
X132977478Y-139623690D01*
X134720000Y-139623690D01*
X134720000Y-140714250D01*
X134878750Y-140873000D01*
X136478000Y-140873000D01*
X136478000Y-139273750D01*
X136732000Y-139273750D01*
X136732000Y-140873000D01*
X138331250Y-140873000D01*
X138490000Y-140714250D01*
X138490000Y-140625050D01*
X139720000Y-140625050D01*
X139720000Y-141374950D01*
X140006974Y-142067767D01*
X140537233Y-142598026D01*
X141230050Y-142885000D01*
X141979950Y-142885000D01*
X142672767Y-142598026D01*
X143203026Y-142067767D01*
X143490000Y-141374950D01*
X143490000Y-140625050D01*
X143461163Y-140555431D01*
X146265000Y-140555431D01*
X146265000Y-141444569D01*
X146605259Y-142266026D01*
X147233974Y-142894741D01*
X148055431Y-143235000D01*
X148944569Y-143235000D01*
X149766026Y-142894741D01*
X150394741Y-142266026D01*
X150735000Y-141444569D01*
X150735000Y-140555431D01*
X150394741Y-139733974D01*
X149766026Y-139105259D01*
X148944569Y-138765000D01*
X148055431Y-138765000D01*
X147233974Y-139105259D01*
X146605259Y-139733974D01*
X146265000Y-140555431D01*
X143461163Y-140555431D01*
X143203026Y-139932233D01*
X142672767Y-139401974D01*
X141979950Y-139115000D01*
X141230050Y-139115000D01*
X140537233Y-139401974D01*
X140006974Y-139932233D01*
X139720000Y-140625050D01*
X138490000Y-140625050D01*
X138490000Y-139623690D01*
X138393327Y-139390301D01*
X138214698Y-139211673D01*
X137981309Y-139115000D01*
X136890750Y-139115000D01*
X136732000Y-139273750D01*
X136478000Y-139273750D01*
X136319250Y-139115000D01*
X135228691Y-139115000D01*
X134995302Y-139211673D01*
X134816673Y-139390301D01*
X134720000Y-139623690D01*
X132977478Y-139623690D01*
X133050739Y-139593344D01*
X133099685Y-139573070D01*
X133099686Y-139573069D01*
X133099689Y-139573068D01*
X133261900Y-139464681D01*
X133356295Y-139370285D01*
X133464681Y-139261900D01*
X133573068Y-139099689D01*
X133682816Y-138834737D01*
X133682816Y-138834734D01*
X133682817Y-138834732D01*
X133720877Y-138643390D01*
X133720877Y-138643389D01*
X133735000Y-138572388D01*
X133735000Y-132412745D01*
X135696861Y-132412745D01*
X135770995Y-132658864D01*
X136308223Y-132851965D01*
X136878454Y-132824778D01*
X137279005Y-132658864D01*
X137353139Y-132412745D01*
X136525000Y-131584605D01*
X135696861Y-132412745D01*
X133735000Y-132412745D01*
X133735000Y-131188223D01*
X135078035Y-131188223D01*
X135105222Y-131758454D01*
X135271136Y-132159005D01*
X135517255Y-132233139D01*
X136345395Y-131405000D01*
X136704605Y-131405000D01*
X137532745Y-132233139D01*
X137778864Y-132159005D01*
X137971965Y-131621777D01*
X137944778Y-131051546D01*
X137778864Y-130650995D01*
X137532745Y-130576861D01*
X136704605Y-131405000D01*
X136345395Y-131405000D01*
X135517255Y-130576861D01*
X135271136Y-130650995D01*
X135078035Y-131188223D01*
X133735000Y-131188223D01*
X133735000Y-128105000D01*
X135077560Y-128105000D01*
X135077560Y-129705000D01*
X135126843Y-129952765D01*
X135267191Y-130162809D01*
X135477235Y-130303157D01*
X135711187Y-130349693D01*
X135696861Y-130397255D01*
X136525000Y-131225395D01*
X137353139Y-130397255D01*
X137338813Y-130349693D01*
X137572765Y-130303157D01*
X137782809Y-130162809D01*
X137923157Y-129952765D01*
X137972440Y-129705000D01*
X137972440Y-128450000D01*
X139102560Y-128450000D01*
X139102560Y-131950000D01*
X139151843Y-132197765D01*
X139292191Y-132407809D01*
X139502235Y-132548157D01*
X139750000Y-132597440D01*
X143250000Y-132597440D01*
X143497765Y-132548157D01*
X143707809Y-132407809D01*
X143848157Y-132197765D01*
X143897440Y-131950000D01*
X143897440Y-130485750D01*
X145365000Y-130485750D01*
X145365000Y-132076310D01*
X145461673Y-132309699D01*
X145640302Y-132488327D01*
X145873691Y-132585000D01*
X147214250Y-132585000D01*
X147373000Y-132426250D01*
X147373000Y-130327000D01*
X147627000Y-130327000D01*
X147627000Y-132426250D01*
X147785750Y-132585000D01*
X149126309Y-132585000D01*
X149359698Y-132488327D01*
X149538327Y-132309699D01*
X149635000Y-132076310D01*
X149635000Y-130485750D01*
X149476250Y-130327000D01*
X147627000Y-130327000D01*
X147373000Y-130327000D01*
X145523750Y-130327000D01*
X145365000Y-130485750D01*
X143897440Y-130485750D01*
X143897440Y-128450000D01*
X143872316Y-128323690D01*
X145365000Y-128323690D01*
X145365000Y-129914250D01*
X145523750Y-130073000D01*
X147373000Y-130073000D01*
X147373000Y-127973750D01*
X147627000Y-127973750D01*
X147627000Y-130073000D01*
X149476250Y-130073000D01*
X149635000Y-129914250D01*
X149635000Y-128323690D01*
X149538327Y-128090301D01*
X149359698Y-127911673D01*
X149126309Y-127815000D01*
X147785750Y-127815000D01*
X147627000Y-127973750D01*
X147373000Y-127973750D01*
X147214250Y-127815000D01*
X145873691Y-127815000D01*
X145640302Y-127911673D01*
X145461673Y-128090301D01*
X145365000Y-128323690D01*
X143872316Y-128323690D01*
X143848157Y-128202235D01*
X143707809Y-127992191D01*
X143540999Y-127880731D01*
X143625000Y-127897440D01*
X145375000Y-127897440D01*
X145957613Y-127781551D01*
X146451528Y-127451528D01*
X146781551Y-126957613D01*
X146897440Y-126375000D01*
X146897440Y-124625000D01*
X146781551Y-124042387D01*
X146451528Y-123548472D01*
X145957613Y-123218449D01*
X145375000Y-123102560D01*
X143625000Y-123102560D01*
X143042387Y-123218449D01*
X142548472Y-123548472D01*
X142218449Y-124042387D01*
X142102560Y-124625000D01*
X142102560Y-126375000D01*
X142218449Y-126957613D01*
X142548472Y-127451528D01*
X143042387Y-127781551D01*
X143148006Y-127802560D01*
X139750000Y-127802560D01*
X139502235Y-127851843D01*
X139292191Y-127992191D01*
X139151843Y-128202235D01*
X139102560Y-128450000D01*
X137972440Y-128450000D01*
X137972440Y-128105000D01*
X137923157Y-127857235D01*
X137782809Y-127647191D01*
X137572765Y-127506843D01*
X137325000Y-127457560D01*
X135725000Y-127457560D01*
X135477235Y-127506843D01*
X135267191Y-127647191D01*
X135126843Y-127857235D01*
X135077560Y-128105000D01*
X133735000Y-128105000D01*
X133735000Y-124927612D01*
X133720877Y-124856609D01*
X133682817Y-124665268D01*
X133682816Y-124665265D01*
X133682816Y-124665263D01*
X133573068Y-124400311D01*
X133464681Y-124238100D01*
X133314360Y-124087780D01*
X133261900Y-124035319D01*
X133099689Y-123926932D01*
X133099686Y-123926931D01*
X133099685Y-123926930D01*
X132929916Y-123856609D01*
X132834737Y-123817184D01*
X132834735Y-123817184D01*
X132834733Y-123817183D01*
X132643390Y-123779123D01*
X132643389Y-123779123D01*
X132572388Y-123765000D01*
X131427612Y-123765000D01*
X131356611Y-123779123D01*
X131356610Y-123779123D01*
X131165268Y-123817183D01*
X131165266Y-123817184D01*
X131165263Y-123817184D01*
X130964600Y-123900303D01*
X130900315Y-123926930D01*
X130900314Y-123926931D01*
X130900311Y-123926932D01*
X130738100Y-124035319D01*
X130630029Y-124143391D01*
X130535319Y-124238100D01*
X130426932Y-124400311D01*
X130317184Y-124665263D01*
X130317184Y-124665265D01*
X130317183Y-124665267D01*
X130279123Y-124856610D01*
X130265000Y-124927613D01*
X126235000Y-124927613D01*
X126235000Y-124055431D01*
X125894741Y-123233974D01*
X125266026Y-122605259D01*
X124444569Y-122265000D01*
X123555431Y-122265000D01*
X122733974Y-122605259D01*
X122105259Y-123233974D01*
X121765000Y-124055431D01*
X119469512Y-124055431D01*
X119557086Y-124004564D01*
X120773894Y-123105816D01*
X121884730Y-122078970D01*
X122876177Y-120936428D01*
X123736261Y-119691990D01*
X124454593Y-118360687D01*
X125022498Y-116958598D01*
X125433116Y-115502657D01*
X125527599Y-114935000D01*
X147710908Y-114935000D01*
X147826161Y-115514418D01*
X148154375Y-116005625D01*
X148172619Y-116017816D01*
X148127235Y-116026843D01*
X147917191Y-116167191D01*
X147776843Y-116377235D01*
X147727560Y-116625000D01*
X147727560Y-118325000D01*
X147776843Y-118572765D01*
X147917191Y-118782809D01*
X148127235Y-118923157D01*
X148375000Y-118972440D01*
X150075000Y-118972440D01*
X150322765Y-118923157D01*
X150532809Y-118782809D01*
X150673157Y-118572765D01*
X150722440Y-118325000D01*
X150722440Y-116625000D01*
X150673157Y-116377235D01*
X150532809Y-116167191D01*
X150322765Y-116026843D01*
X150277381Y-116017816D01*
X150295625Y-116005625D01*
X150623839Y-115514418D01*
X150739092Y-114935000D01*
X150623839Y-114355582D01*
X150295625Y-113864375D01*
X149976522Y-113651157D01*
X150106358Y-113590183D01*
X150496645Y-113161924D01*
X150666476Y-112751890D01*
X150545155Y-112522000D01*
X149352000Y-112522000D01*
X149352000Y-112542000D01*
X149098000Y-112542000D01*
X149098000Y-112522000D01*
X147904845Y-112522000D01*
X147783524Y-112751890D01*
X147953355Y-113161924D01*
X148343642Y-113590183D01*
X148473478Y-113651157D01*
X148154375Y-113864375D01*
X147826161Y-114355582D01*
X147710908Y-114935000D01*
X125527599Y-114935000D01*
X125681487Y-114010450D01*
X125764612Y-112500000D01*
X125762914Y-112283795D01*
X125745519Y-112038110D01*
X147783524Y-112038110D01*
X147904845Y-112268000D01*
X149098000Y-112268000D01*
X149098000Y-111074181D01*
X149352000Y-111074181D01*
X149352000Y-112268000D01*
X150545155Y-112268000D01*
X150666476Y-112038110D01*
X150496645Y-111628076D01*
X150106358Y-111199817D01*
X149581892Y-110953514D01*
X149352000Y-111074181D01*
X149098000Y-111074181D01*
X148868108Y-110953514D01*
X148343642Y-111199817D01*
X147953355Y-111628076D01*
X147783524Y-112038110D01*
X125745519Y-112038110D01*
X125656074Y-110774837D01*
X125384295Y-109286715D01*
X124950859Y-107837404D01*
X124361001Y-106444408D01*
X123621846Y-105124552D01*
X122742322Y-103893777D01*
X122157678Y-103241036D01*
X134007193Y-103241036D01*
X134037518Y-103731413D01*
X134166836Y-104043617D01*
X134392263Y-104093129D01*
X134276570Y-104208822D01*
X134330718Y-104262970D01*
X134197191Y-104352191D01*
X134056843Y-104562235D01*
X134007560Y-104810000D01*
X134007560Y-106010000D01*
X134056843Y-106257765D01*
X134197191Y-106467809D01*
X134407235Y-106608157D01*
X134655000Y-106657440D01*
X135855000Y-106657440D01*
X136102765Y-106608157D01*
X136312809Y-106467809D01*
X136453157Y-106257765D01*
X136502440Y-106010000D01*
X136502440Y-105107750D01*
X147213000Y-105107750D01*
X147213000Y-106198309D01*
X147309673Y-106431698D01*
X147488301Y-106610327D01*
X147721690Y-106707000D01*
X148812250Y-106707000D01*
X148971000Y-106548250D01*
X148971000Y-104949000D01*
X149225000Y-104949000D01*
X149225000Y-106548250D01*
X149383750Y-106707000D01*
X150474310Y-106707000D01*
X150707699Y-106610327D01*
X150886327Y-106431698D01*
X150983000Y-106198309D01*
X150983000Y-105107750D01*
X150824250Y-104949000D01*
X149225000Y-104949000D01*
X148971000Y-104949000D01*
X147371750Y-104949000D01*
X147213000Y-105107750D01*
X136502440Y-105107750D01*
X136502440Y-104810000D01*
X136453157Y-104562235D01*
X136312809Y-104352191D01*
X136179282Y-104262970D01*
X136233430Y-104208822D01*
X136117737Y-104093129D01*
X136343164Y-104043617D01*
X136502807Y-103578964D01*
X136494566Y-103445691D01*
X147213000Y-103445691D01*
X147213000Y-104536250D01*
X147371750Y-104695000D01*
X148971000Y-104695000D01*
X148971000Y-103095750D01*
X149225000Y-103095750D01*
X149225000Y-104695000D01*
X150824250Y-104695000D01*
X150983000Y-104536250D01*
X150983000Y-103445691D01*
X150886327Y-103212302D01*
X150707699Y-103033673D01*
X150474310Y-102937000D01*
X149383750Y-102937000D01*
X149225000Y-103095750D01*
X148971000Y-103095750D01*
X148812250Y-102937000D01*
X147721690Y-102937000D01*
X147488301Y-103033673D01*
X147309673Y-103212302D01*
X147213000Y-103445691D01*
X136494566Y-103445691D01*
X136472482Y-103088587D01*
X136343164Y-102776383D01*
X136117735Y-102726870D01*
X135434605Y-103410000D01*
X135448748Y-103424143D01*
X135269143Y-103603748D01*
X135255000Y-103589605D01*
X135240858Y-103603748D01*
X135061253Y-103424143D01*
X135075395Y-103410000D01*
X134392265Y-102726870D01*
X134166836Y-102776383D01*
X134007193Y-103241036D01*
X122157678Y-103241036D01*
X121733050Y-102766950D01*
X120606223Y-101757678D01*
X119375448Y-100878154D01*
X118055592Y-100138999D01*
X117858240Y-100055431D01*
X121765000Y-100055431D01*
X121765000Y-100944569D01*
X122105259Y-101766026D01*
X122733974Y-102394741D01*
X123555431Y-102735000D01*
X124444569Y-102735000D01*
X124897800Y-102547265D01*
X134571870Y-102547265D01*
X135255000Y-103230395D01*
X135938130Y-102547265D01*
X135888617Y-102321836D01*
X135423964Y-102162193D01*
X134933587Y-102192518D01*
X134621383Y-102321836D01*
X134571870Y-102547265D01*
X124897800Y-102547265D01*
X125266026Y-102394741D01*
X125894741Y-101766026D01*
X126235000Y-100944569D01*
X126235000Y-100055431D01*
X125894741Y-99233974D01*
X125266026Y-98605259D01*
X124444569Y-98265000D01*
X123555431Y-98265000D01*
X122733974Y-98605259D01*
X122105259Y-99233974D01*
X121765000Y-100055431D01*
X117858240Y-100055431D01*
X116662596Y-99549141D01*
X115213285Y-99115705D01*
X113725163Y-98843926D01*
X112216205Y-98737086D01*
X110704636Y-98796476D01*
X109208712Y-99021378D01*
X107746501Y-99409076D01*
X106335665Y-99954888D01*
X104993242Y-100652220D01*
X103735449Y-101492651D01*
X102577475Y-102466030D01*
X101533307Y-103560600D01*
X100615557Y-104763140D01*
X99835309Y-106059128D01*
X99201987Y-107432908D01*
X98723241Y-108867890D01*
X98404853Y-110346740D01*
X98250668Y-111851598D01*
X92735000Y-111851598D01*
X92735000Y-108927612D01*
X92693878Y-108720877D01*
X92644757Y-108473926D01*
X92535010Y-108208974D01*
X92535010Y-108208973D01*
X92318237Y-107884549D01*
X92224714Y-107791026D01*
X92115451Y-107681762D01*
X91791027Y-107464990D01*
X91526074Y-107355243D01*
X91424305Y-107335000D01*
X92083661Y-107335000D01*
X92131261Y-107406239D01*
X92412273Y-107594005D01*
X92743750Y-107659940D01*
X93256250Y-107659940D01*
X93587727Y-107594005D01*
X93868739Y-107406239D01*
X94056505Y-107125227D01*
X94122440Y-106793750D01*
X94122440Y-106356250D01*
X94056505Y-106024773D01*
X93897964Y-105787500D01*
X93916339Y-105760000D01*
X94315153Y-105760000D01*
X94390000Y-105774888D01*
X94464847Y-105760000D01*
X94464852Y-105760000D01*
X94686537Y-105715904D01*
X94937929Y-105547929D01*
X94980331Y-105484470D01*
X95099470Y-105365331D01*
X95162929Y-105322929D01*
X95330904Y-105071537D01*
X95375000Y-104849852D01*
X95375000Y-104849848D01*
X95389888Y-104775001D01*
X95375000Y-104700154D01*
X95375000Y-101674848D01*
X95389888Y-101600000D01*
X95375000Y-101525152D01*
X95375000Y-101525148D01*
X95330904Y-101303463D01*
X95330904Y-101303462D01*
X95268266Y-101209718D01*
X95162929Y-101052071D01*
X95099470Y-101009669D01*
X94817831Y-100728030D01*
X94775429Y-100664571D01*
X94524037Y-100496596D01*
X94302352Y-100452500D01*
X94302347Y-100452500D01*
X94227500Y-100437612D01*
X94152653Y-100452500D01*
X93916339Y-100452500D01*
X93868739Y-100381261D01*
X93587727Y-100193495D01*
X93256250Y-100127560D01*
X92743750Y-100127560D01*
X92412273Y-100193495D01*
X92131261Y-100381261D01*
X92083661Y-100452500D01*
X91528935Y-100452500D01*
X91449954Y-100055431D01*
X97765000Y-100055431D01*
X97765000Y-100944569D01*
X98105259Y-101766026D01*
X98733974Y-102394741D01*
X99555431Y-102735000D01*
X100444569Y-102735000D01*
X101266026Y-102394741D01*
X101894741Y-101766026D01*
X102235000Y-100944569D01*
X102235000Y-100055431D01*
X101894741Y-99233974D01*
X101266026Y-98605259D01*
X100444569Y-98265000D01*
X99555431Y-98265000D01*
X98733974Y-98605259D01*
X98105259Y-99233974D01*
X97765000Y-100055431D01*
X91449954Y-100055431D01*
X91439839Y-100004582D01*
X91111625Y-99513375D01*
X90838313Y-99330754D01*
X91243497Y-98955193D01*
X91482476Y-98440890D01*
X91361155Y-98211000D01*
X90043000Y-98211000D01*
X90043000Y-98231000D01*
X89789000Y-98231000D01*
X89789000Y-98211000D01*
X88470845Y-98211000D01*
X88349524Y-98440890D01*
X88588503Y-98955193D01*
X88993687Y-99330754D01*
X88720375Y-99513375D01*
X88392161Y-100004582D01*
X88276908Y-100584000D01*
X88392161Y-101163418D01*
X88720375Y-101654625D01*
X88988829Y-101834000D01*
X88720375Y-102013375D01*
X88392161Y-102504582D01*
X88276908Y-103084000D01*
X88392161Y-103663418D01*
X88720375Y-104154625D01*
X88784156Y-104197242D01*
X88556414Y-104349414D01*
X88361874Y-104640565D01*
X88293560Y-104984000D01*
X88293560Y-106184000D01*
X88361874Y-106527435D01*
X88556414Y-106818586D01*
X88847565Y-107013126D01*
X89191000Y-107081440D01*
X90331349Y-107081440D01*
X90359071Y-107122929D01*
X90609110Y-107290000D01*
X88169650Y-107290000D01*
X88143391Y-107279123D01*
X87904101Y-107231525D01*
X87822798Y-107177201D01*
X87768475Y-107095901D01*
X87720877Y-106856609D01*
X87710000Y-106830350D01*
X87710000Y-97727110D01*
X88349524Y-97727110D01*
X88470845Y-97957000D01*
X89789000Y-97957000D01*
X89789000Y-96757835D01*
X90043000Y-96757835D01*
X90043000Y-97957000D01*
X91361155Y-97957000D01*
X91482476Y-97727110D01*
X91243497Y-97212807D01*
X90818571Y-96818947D01*
X90275267Y-96617680D01*
X90043000Y-96757835D01*
X89789000Y-96757835D01*
X89556733Y-96617680D01*
X89013429Y-96818947D01*
X88588503Y-97212807D01*
X88349524Y-97727110D01*
X87710000Y-97727110D01*
X87710000Y-91555431D01*
X88265000Y-91555431D01*
X88265000Y-92444569D01*
X88605259Y-93266026D01*
X89233974Y-93894741D01*
X90055431Y-94235000D01*
X90944569Y-94235000D01*
X91766026Y-93894741D01*
X92110001Y-93550766D01*
X92110001Y-94620363D01*
X92085806Y-94742000D01*
X92181656Y-95223872D01*
X92385714Y-95529267D01*
X92385716Y-95529269D01*
X92454616Y-95632385D01*
X92557731Y-95701284D01*
X93528715Y-96672269D01*
X93597615Y-96775385D01*
X93700731Y-96844285D01*
X93700732Y-96844286D01*
X94006127Y-97048344D01*
X94366364Y-97120000D01*
X94366367Y-97120000D01*
X94487999Y-97144194D01*
X94609631Y-97120000D01*
X128940000Y-97120000D01*
X128940000Y-97911635D01*
X128940001Y-97911639D01*
X128940000Y-99573364D01*
X128915805Y-99695000D01*
X129011656Y-100176873D01*
X129148224Y-100381261D01*
X129284615Y-100585385D01*
X129693127Y-100858344D01*
X130175000Y-100954195D01*
X130296636Y-100930000D01*
X130656873Y-100858344D01*
X131065385Y-100585385D01*
X131338344Y-100176873D01*
X131434195Y-99695000D01*
X131410000Y-99573364D01*
X131410000Y-99447050D01*
X147213000Y-99447050D01*
X147213000Y-100196950D01*
X147499974Y-100889767D01*
X148030233Y-101420026D01*
X148723050Y-101707000D01*
X149472950Y-101707000D01*
X150165767Y-101420026D01*
X150696026Y-100889767D01*
X150983000Y-100196950D01*
X150983000Y-99447050D01*
X150696026Y-98754233D01*
X150165767Y-98223974D01*
X149472950Y-97937000D01*
X148723050Y-97937000D01*
X148030233Y-98223974D01*
X147499974Y-98754233D01*
X147213000Y-99447050D01*
X131410000Y-99447050D01*
X131410000Y-96641636D01*
X131434195Y-96520000D01*
X131338344Y-96038127D01*
X131065385Y-95629615D01*
X130962264Y-95560712D01*
X130499287Y-95097734D01*
X130430385Y-94994615D01*
X130021873Y-94721656D01*
X129661636Y-94650000D01*
X129661632Y-94650000D01*
X129540000Y-94625806D01*
X129418368Y-94650000D01*
X128997613Y-94650000D01*
X129460625Y-94340625D01*
X129660000Y-94042239D01*
X129859375Y-94340625D01*
X130350582Y-94668839D01*
X130783744Y-94755000D01*
X131076256Y-94755000D01*
X131509418Y-94668839D01*
X132000625Y-94340625D01*
X132200000Y-94042239D01*
X132399375Y-94340625D01*
X132890582Y-94668839D01*
X133323744Y-94755000D01*
X133616256Y-94755000D01*
X134049418Y-94668839D01*
X134540625Y-94340625D01*
X134740000Y-94042239D01*
X134939375Y-94340625D01*
X135430582Y-94668839D01*
X135863744Y-94755000D01*
X136156256Y-94755000D01*
X136589418Y-94668839D01*
X137080625Y-94340625D01*
X137280000Y-94042239D01*
X137479375Y-94340625D01*
X137970582Y-94668839D01*
X138403744Y-94755000D01*
X138696256Y-94755000D01*
X139129418Y-94668839D01*
X139620625Y-94340625D01*
X139820000Y-94042239D01*
X140019375Y-94340625D01*
X140510582Y-94668839D01*
X140943744Y-94755000D01*
X141236256Y-94755000D01*
X141669418Y-94668839D01*
X142160625Y-94340625D01*
X142373843Y-94021522D01*
X142434817Y-94151358D01*
X142863076Y-94541645D01*
X143273110Y-94711476D01*
X143503000Y-94590155D01*
X143503000Y-93397000D01*
X143757000Y-93397000D01*
X143757000Y-94590155D01*
X143986890Y-94711476D01*
X144396924Y-94541645D01*
X144825183Y-94151358D01*
X145071486Y-93626892D01*
X144950819Y-93397000D01*
X143757000Y-93397000D01*
X143503000Y-93397000D01*
X143483000Y-93397000D01*
X143483000Y-93143000D01*
X143503000Y-93143000D01*
X143503000Y-93123000D01*
X143757000Y-93123000D01*
X143757000Y-93143000D01*
X144950819Y-93143000D01*
X145071486Y-92913108D01*
X144825183Y-92388642D01*
X144400214Y-92001353D01*
X144700625Y-91800625D01*
X144864458Y-91555431D01*
X146265000Y-91555431D01*
X146265000Y-92444569D01*
X146605259Y-93266026D01*
X147233974Y-93894741D01*
X148055431Y-94235000D01*
X148944569Y-94235000D01*
X149766026Y-93894741D01*
X150394741Y-93266026D01*
X150735000Y-92444569D01*
X150735000Y-91555431D01*
X150394741Y-90733974D01*
X149766026Y-90105259D01*
X148944569Y-89765000D01*
X148055431Y-89765000D01*
X147233974Y-90105259D01*
X146605259Y-90733974D01*
X146265000Y-91555431D01*
X144864458Y-91555431D01*
X145028839Y-91309418D01*
X145144092Y-90730000D01*
X145028839Y-90150582D01*
X144700625Y-89659375D01*
X144209418Y-89331161D01*
X143776256Y-89245000D01*
X143483744Y-89245000D01*
X143050582Y-89331161D01*
X142559375Y-89659375D01*
X142360000Y-89957761D01*
X142160625Y-89659375D01*
X141669418Y-89331161D01*
X141236256Y-89245000D01*
X140943744Y-89245000D01*
X140510582Y-89331161D01*
X140019375Y-89659375D01*
X139820000Y-89957761D01*
X139620625Y-89659375D01*
X139129418Y-89331161D01*
X138696256Y-89245000D01*
X138403744Y-89245000D01*
X137970582Y-89331161D01*
X137479375Y-89659375D01*
X137266157Y-89978478D01*
X137205183Y-89848642D01*
X136776924Y-89458355D01*
X136366890Y-89288524D01*
X136137000Y-89409845D01*
X136137000Y-90603000D01*
X136157000Y-90603000D01*
X136157000Y-90857000D01*
X136137000Y-90857000D01*
X136137000Y-90877000D01*
X135883000Y-90877000D01*
X135883000Y-90857000D01*
X135863000Y-90857000D01*
X135863000Y-90603000D01*
X135883000Y-90603000D01*
X135883000Y-89409845D01*
X135653110Y-89288524D01*
X135243076Y-89458355D01*
X134814817Y-89848642D01*
X134753843Y-89978478D01*
X134540625Y-89659375D01*
X134049418Y-89331161D01*
X133616256Y-89245000D01*
X133323744Y-89245000D01*
X132890582Y-89331161D01*
X132399375Y-89659375D01*
X132186157Y-89978478D01*
X132125183Y-89848642D01*
X131696924Y-89458355D01*
X131286890Y-89288524D01*
X131057000Y-89409845D01*
X131057000Y-90603000D01*
X131077000Y-90603000D01*
X131077000Y-90857000D01*
X131057000Y-90857000D01*
X131057000Y-90877000D01*
X130803000Y-90877000D01*
X130803000Y-90857000D01*
X130783000Y-90857000D01*
X130783000Y-90603000D01*
X130803000Y-90603000D01*
X130803000Y-89409845D01*
X130573110Y-89288524D01*
X130163076Y-89458355D01*
X129734817Y-89848642D01*
X129673843Y-89978478D01*
X129460625Y-89659375D01*
X128969418Y-89331161D01*
X128536256Y-89245000D01*
X128243744Y-89245000D01*
X127810582Y-89331161D01*
X127319375Y-89659375D01*
X127120000Y-89957761D01*
X126920625Y-89659375D01*
X126429418Y-89331161D01*
X125996256Y-89245000D01*
X125703744Y-89245000D01*
X125270582Y-89331161D01*
X124779375Y-89659375D01*
X124580000Y-89957761D01*
X124380625Y-89659375D01*
X123889418Y-89331161D01*
X123456256Y-89245000D01*
X123163744Y-89245000D01*
X122730582Y-89331161D01*
X122239375Y-89659375D01*
X122040000Y-89957761D01*
X121840625Y-89659375D01*
X121349418Y-89331161D01*
X120916256Y-89245000D01*
X120623744Y-89245000D01*
X120190582Y-89331161D01*
X119699375Y-89659375D01*
X119486157Y-89978478D01*
X119425183Y-89848642D01*
X118996924Y-89458355D01*
X118586890Y-89288524D01*
X118357000Y-89409845D01*
X118357000Y-90603000D01*
X118377000Y-90603000D01*
X118377000Y-90857000D01*
X118357000Y-90857000D01*
X118357000Y-90877000D01*
X118103000Y-90877000D01*
X118103000Y-90857000D01*
X118083000Y-90857000D01*
X118083000Y-90603000D01*
X118103000Y-90603000D01*
X118103000Y-89409845D01*
X117873110Y-89288524D01*
X117463076Y-89458355D01*
X117034817Y-89848642D01*
X116973843Y-89978478D01*
X116760625Y-89659375D01*
X116269418Y-89331161D01*
X115836256Y-89245000D01*
X115543744Y-89245000D01*
X115110582Y-89331161D01*
X114619375Y-89659375D01*
X114420000Y-89957761D01*
X114220625Y-89659375D01*
X113729418Y-89331161D01*
X113296256Y-89245000D01*
X113003744Y-89245000D01*
X112570582Y-89331161D01*
X112079375Y-89659375D01*
X111866157Y-89978478D01*
X111805183Y-89848642D01*
X111376924Y-89458355D01*
X110966890Y-89288524D01*
X110737000Y-89409845D01*
X110737000Y-90603000D01*
X110757000Y-90603000D01*
X110757000Y-90857000D01*
X110737000Y-90857000D01*
X110737000Y-90877000D01*
X110483000Y-90877000D01*
X110483000Y-90857000D01*
X110463000Y-90857000D01*
X110463000Y-90603000D01*
X110483000Y-90603000D01*
X110483000Y-89409845D01*
X110253110Y-89288524D01*
X109843076Y-89458355D01*
X109414817Y-89848642D01*
X109353843Y-89978478D01*
X109140625Y-89659375D01*
X108649418Y-89331161D01*
X108216256Y-89245000D01*
X107923744Y-89245000D01*
X107490582Y-89331161D01*
X106999375Y-89659375D01*
X106800000Y-89957761D01*
X106600625Y-89659375D01*
X106109418Y-89331161D01*
X105676256Y-89245000D01*
X105383744Y-89245000D01*
X104950582Y-89331161D01*
X104459375Y-89659375D01*
X104260000Y-89957761D01*
X104060625Y-89659375D01*
X103569418Y-89331161D01*
X103136256Y-89245000D01*
X102843744Y-89245000D01*
X102410582Y-89331161D01*
X101919375Y-89659375D01*
X101706157Y-89978478D01*
X101645183Y-89848642D01*
X101216924Y-89458355D01*
X100806890Y-89288524D01*
X100577000Y-89409845D01*
X100577000Y-90603000D01*
X100597000Y-90603000D01*
X100597000Y-90857000D01*
X100577000Y-90857000D01*
X100577000Y-90877000D01*
X100323000Y-90877000D01*
X100323000Y-90857000D01*
X100303000Y-90857000D01*
X100303000Y-90603000D01*
X100323000Y-90603000D01*
X100323000Y-89409845D01*
X100093110Y-89288524D01*
X99683076Y-89458355D01*
X99254817Y-89848642D01*
X99193843Y-89978478D01*
X98980625Y-89659375D01*
X98489418Y-89331161D01*
X98056256Y-89245000D01*
X97763744Y-89245000D01*
X97330582Y-89331161D01*
X97085380Y-89495000D01*
X96194620Y-89495000D01*
X95949418Y-89331161D01*
X95516256Y-89245000D01*
X95223744Y-89245000D01*
X94790582Y-89331161D01*
X94545380Y-89495000D01*
X94289549Y-89495000D01*
X94167918Y-89470806D01*
X94046287Y-89495000D01*
X94046283Y-89495000D01*
X93686046Y-89566656D01*
X93511154Y-89683515D01*
X93380651Y-89770714D01*
X93380650Y-89770715D01*
X93277534Y-89839615D01*
X93208634Y-89942731D01*
X92557733Y-90593633D01*
X92454615Y-90662534D01*
X92399387Y-90745189D01*
X92394741Y-90733974D01*
X91766026Y-90105259D01*
X90944569Y-89765000D01*
X90055431Y-89765000D01*
X89233974Y-90105259D01*
X88605259Y-90733974D01*
X88265000Y-91555431D01*
X87710000Y-91555431D01*
X87710000Y-91041247D01*
X87776100Y-90474292D01*
X87956685Y-89976788D01*
X88246881Y-89534165D01*
X88631116Y-89170177D01*
X89088784Y-88904342D01*
X89604629Y-88748108D01*
X90031618Y-88710000D01*
X148958753Y-88710000D01*
X149525708Y-88776100D01*
X149525708Y-88776100D01*
G37*
X149525708Y-88776100D02*
X150023212Y-88956685D01*
X150465835Y-89246881D01*
X150829823Y-89631116D01*
X151095658Y-90088784D01*
X151251892Y-90604629D01*
X151275850Y-90873070D01*
X151265001Y-90927612D01*
X151265000Y-141953761D01*
X151203892Y-142437482D01*
X151041561Y-142847483D01*
X150782371Y-143204228D01*
X150442606Y-143485306D01*
X150043610Y-143673058D01*
X149576070Y-143762247D01*
X149488465Y-143765000D01*
X107778180Y-143765000D01*
X108034040Y-143594040D01*
X108288193Y-143213673D01*
X108377440Y-142765000D01*
X108377440Y-141715000D01*
X108321893Y-141435744D01*
X111839000Y-141435744D01*
X111839000Y-142028255D01*
X111925161Y-142461417D01*
X112253375Y-142952625D01*
X112744582Y-143280839D01*
X113324000Y-143396092D01*
X113903417Y-143280839D01*
X114394625Y-142952625D01*
X114437242Y-142888844D01*
X114589414Y-143116586D01*
X114880565Y-143311126D01*
X115224000Y-143379440D01*
X116424000Y-143379440D01*
X116767435Y-143311126D01*
X117058586Y-143116586D01*
X117253126Y-142825435D01*
X117321440Y-142482000D01*
X117321440Y-140982000D01*
X117253126Y-140638565D01*
X117059000Y-140348034D01*
X117059000Y-138649000D01*
X122531217Y-138649000D01*
X122320656Y-138964127D01*
X122224805Y-139446000D01*
X122320656Y-139927873D01*
X122593615Y-140336385D01*
X122634441Y-140363664D01*
X122413375Y-140511375D01*
X122085161Y-141002582D01*
X121999000Y-141435744D01*
X121999000Y-142028255D01*
X122085161Y-142461417D01*
X122413375Y-142952625D01*
X122904582Y-143280839D01*
X123484000Y-143396092D01*
X124063417Y-143280839D01*
X124554625Y-142952625D01*
X124597242Y-142888844D01*
X124749414Y-143116586D01*
X125040565Y-143311126D01*
X125384000Y-143379440D01*
X126584000Y-143379440D01*
X126927435Y-143311126D01*
X127218586Y-143116586D01*
X127413126Y-142825435D01*
X127481440Y-142482000D01*
X127481440Y-141285750D01*
X134720000Y-141285750D01*
X134720000Y-142376310D01*
X134816673Y-142609699D01*
X134995302Y-142788327D01*
X135228691Y-142885000D01*
X136319250Y-142885000D01*
X136478000Y-142726250D01*
X136478000Y-141127000D01*
X136732000Y-141127000D01*
X136732000Y-142726250D01*
X136890750Y-142885000D01*
X137981309Y-142885000D01*
X138214698Y-142788327D01*
X138393327Y-142609699D01*
X138490000Y-142376310D01*
X138490000Y-141285750D01*
X138331250Y-141127000D01*
X136732000Y-141127000D01*
X136478000Y-141127000D01*
X134878750Y-141127000D01*
X134720000Y-141285750D01*
X127481440Y-141285750D01*
X127481440Y-140982000D01*
X127413126Y-140638565D01*
X127219000Y-140348034D01*
X127219000Y-138551632D01*
X127243194Y-138430000D01*
X127219000Y-138308368D01*
X127219000Y-138308364D01*
X127147344Y-137948127D01*
X126943286Y-137642732D01*
X126943285Y-137642731D01*
X126874385Y-137539615D01*
X126771269Y-137470715D01*
X125927286Y-136626733D01*
X125858385Y-136523615D01*
X125449873Y-136250656D01*
X125089636Y-136179000D01*
X125089632Y-136179000D01*
X124968000Y-136154806D01*
X124846368Y-136179000D01*
X116453630Y-136179000D01*
X116331999Y-136154806D01*
X116210368Y-136179000D01*
X116210364Y-136179000D01*
X115850127Y-136250656D01*
X115441615Y-136523615D01*
X115372713Y-136626734D01*
X115036732Y-136962715D01*
X114933616Y-137031615D01*
X114864716Y-137134731D01*
X114864714Y-137134733D01*
X114660656Y-137440128D01*
X114564806Y-137922000D01*
X114589001Y-138043637D01*
X114589001Y-138401705D01*
X114570727Y-138389495D01*
X114303097Y-138336260D01*
X114222873Y-138282656D01*
X113862636Y-138211000D01*
X113202364Y-138211000D01*
X112842127Y-138282656D01*
X112433615Y-138555615D01*
X112160656Y-138964127D01*
X112064805Y-139446000D01*
X112160656Y-139927873D01*
X112433615Y-140336385D01*
X112474441Y-140363664D01*
X112253375Y-140511375D01*
X111925161Y-141002582D01*
X111839000Y-141435744D01*
X108321893Y-141435744D01*
X108288193Y-141266327D01*
X108090194Y-140970000D01*
X108288193Y-140673673D01*
X108377440Y-140225000D01*
X108377440Y-139175000D01*
X108288193Y-138726327D01*
X108090194Y-138430000D01*
X108288193Y-138133673D01*
X108377440Y-137685000D01*
X108377440Y-136635000D01*
X108288193Y-136186327D01*
X108090194Y-135890000D01*
X108288193Y-135593673D01*
X108377440Y-135145000D01*
X108377440Y-134095000D01*
X108289750Y-133654150D01*
X108902500Y-133654150D01*
X108902500Y-134061849D01*
X108994609Y-134524910D01*
X109345477Y-135050023D01*
X109870589Y-135400891D01*
X110490000Y-135524100D01*
X111109410Y-135400891D01*
X111634523Y-135050023D01*
X111760000Y-134862233D01*
X111885477Y-135050023D01*
X112410589Y-135400891D01*
X113030000Y-135524100D01*
X113649410Y-135400891D01*
X114045444Y-135136270D01*
X114079173Y-135217699D01*
X114257802Y-135396327D01*
X114491191Y-135493000D01*
X115284250Y-135493000D01*
X115443000Y-135334250D01*
X115443000Y-133985000D01*
X115697000Y-133985000D01*
X115697000Y-135334250D01*
X115855750Y-135493000D01*
X116648809Y-135493000D01*
X116882198Y-135396327D01*
X117060827Y-135217699D01*
X117157500Y-134984310D01*
X117157500Y-134143750D01*
X116998750Y-133985000D01*
X115697000Y-133985000D01*
X115443000Y-133985000D01*
X115423000Y-133985000D01*
X115423000Y-133731000D01*
X115443000Y-133731000D01*
X115443000Y-132381750D01*
X115697000Y-132381750D01*
X115697000Y-133731000D01*
X116998750Y-133731000D01*
X117075600Y-133654150D01*
X120332500Y-133654150D01*
X120332500Y-134061849D01*
X120424609Y-134524910D01*
X120775477Y-135050023D01*
X121300589Y-135400891D01*
X121920000Y-135524100D01*
X122539410Y-135400891D01*
X123064523Y-135050023D01*
X123190000Y-134862233D01*
X123315477Y-135050023D01*
X123840589Y-135400891D01*
X124460000Y-135524100D01*
X125079410Y-135400891D01*
X125475444Y-135136270D01*
X125509173Y-135217699D01*
X125687802Y-135396327D01*
X125921191Y-135493000D01*
X126714250Y-135493000D01*
X126873000Y-135334250D01*
X126873000Y-133985000D01*
X127127000Y-133985000D01*
X127127000Y-135334250D01*
X127285750Y-135493000D01*
X128078809Y-135493000D01*
X128312198Y-135396327D01*
X128490827Y-135217699D01*
X128587500Y-134984310D01*
X128587500Y-134143750D01*
X128428750Y-133985000D01*
X127127000Y-133985000D01*
X126873000Y-133985000D01*
X126853000Y-133985000D01*
X126853000Y-133731000D01*
X126873000Y-133731000D01*
X126873000Y-132381750D01*
X127127000Y-132381750D01*
X127127000Y-133731000D01*
X128428750Y-133731000D01*
X128587500Y-133572250D01*
X128587500Y-132731690D01*
X128490827Y-132498301D01*
X128312198Y-132319673D01*
X128078809Y-132223000D01*
X127285750Y-132223000D01*
X127127000Y-132381750D01*
X126873000Y-132381750D01*
X126714250Y-132223000D01*
X125921191Y-132223000D01*
X125687802Y-132319673D01*
X125509173Y-132498301D01*
X125475444Y-132579729D01*
X125079411Y-132315109D01*
X124460000Y-132191900D01*
X123840590Y-132315109D01*
X123315477Y-132665977D01*
X123190000Y-132853767D01*
X123064523Y-132665977D01*
X122539411Y-132315109D01*
X121920000Y-132191900D01*
X121300590Y-132315109D01*
X120775477Y-132665977D01*
X120424609Y-133191089D01*
X120332500Y-133654150D01*
X117075600Y-133654150D01*
X117157500Y-133572250D01*
X117157500Y-132731690D01*
X117060827Y-132498301D01*
X116882198Y-132319673D01*
X116648809Y-132223000D01*
X115855750Y-132223000D01*
X115697000Y-132381750D01*
X115443000Y-132381750D01*
X115284250Y-132223000D01*
X114491191Y-132223000D01*
X114257802Y-132319673D01*
X114079173Y-132498301D01*
X114045444Y-132579729D01*
X113649411Y-132315109D01*
X113030000Y-132191900D01*
X112410590Y-132315109D01*
X111885477Y-132665977D01*
X111760000Y-132853767D01*
X111634523Y-132665977D01*
X111109411Y-132315109D01*
X110490000Y-132191900D01*
X109870590Y-132315109D01*
X109345477Y-132665977D01*
X108994609Y-133191089D01*
X108902500Y-133654150D01*
X108289750Y-133654150D01*
X108288193Y-133646327D01*
X108090194Y-133350000D01*
X108288193Y-133053673D01*
X108377440Y-132605000D01*
X108377440Y-131555000D01*
X108288193Y-131106327D01*
X108090194Y-130810000D01*
X108288193Y-130513673D01*
X108377440Y-130065000D01*
X108377440Y-129015000D01*
X108288193Y-128566327D01*
X108034040Y-128185960D01*
X107653673Y-127931807D01*
X107205000Y-127842560D01*
X106155000Y-127842560D01*
X105706327Y-127931807D01*
X105410000Y-128129806D01*
X105113673Y-127931807D01*
X104665000Y-127842560D01*
X103615000Y-127842560D01*
X103166327Y-127931807D01*
X102870000Y-128129806D01*
X102573673Y-127931807D01*
X102125000Y-127842560D01*
X101075000Y-127842560D01*
X100626327Y-127931807D01*
X100330000Y-128129806D01*
X100033673Y-127931807D01*
X99585000Y-127842560D01*
X98535000Y-127842560D01*
X98086327Y-127931807D01*
X97790000Y-128129806D01*
X97493673Y-127931807D01*
X97045000Y-127842560D01*
X95995000Y-127842560D01*
X95546327Y-127931807D01*
X95250000Y-128129806D01*
X94953673Y-127931807D01*
X94505000Y-127842560D01*
X93455000Y-127842560D01*
X93006327Y-127931807D01*
X92710000Y-128129806D01*
X92413673Y-127931807D01*
X91965000Y-127842560D01*
X90915000Y-127842560D01*
X90466327Y-127931807D01*
X90170000Y-128129806D01*
X89873673Y-127931807D01*
X89425000Y-127842560D01*
X88375000Y-127842560D01*
X87926327Y-127931807D01*
X87735000Y-128059648D01*
X87735000Y-126072390D01*
X87768475Y-125904099D01*
X87822798Y-125822799D01*
X87904101Y-125768475D01*
X88072390Y-125735000D01*
X91072388Y-125735000D01*
X91143389Y-125720877D01*
X91143391Y-125720877D01*
X91526074Y-125644757D01*
X91791027Y-125535010D01*
X92115451Y-125318238D01*
X92250641Y-125183046D01*
X92318237Y-125115451D01*
X92535010Y-124791027D01*
X92587101Y-124665267D01*
X92644757Y-124526074D01*
X92720877Y-124143391D01*
X92720877Y-124143389D01*
X92735000Y-124072388D01*
X92735000Y-124055431D01*
X97765000Y-124055431D01*
X97765000Y-124944569D01*
X98105259Y-125766026D01*
X98733974Y-126394741D01*
X99555431Y-126735000D01*
X100444569Y-126735000D01*
X101266026Y-126394741D01*
X101894741Y-125766026D01*
X102235000Y-124944569D01*
X102235000Y-124055431D01*
X101894741Y-123233974D01*
X101266026Y-122605259D01*
X100444569Y-122265000D01*
X99555431Y-122265000D01*
X98733974Y-122605259D01*
X98105259Y-123233974D01*
X97765000Y-124055431D01*
X92735000Y-124055431D01*
X92735000Y-111851598D01*
X98250668Y-111851598D01*
X98262549Y-113364287D01*
X98440352Y-114866537D01*
X98781930Y-116340204D01*
X99283157Y-117767489D01*
X99937979Y-119131152D01*
X100738487Y-120414724D01*
X101675012Y-121602701D01*
X102736244Y-122680735D01*
X103909364Y-123635805D01*
X105180204Y-124456376D01*
X106533413Y-125132536D01*
X107952649Y-125656120D01*
X109420769Y-126020803D01*
X110920041Y-126222180D01*
X112432357Y-126257820D01*
X113939451Y-126127292D01*
X115423120Y-125832171D01*
X116865444Y-125376024D01*
X118249003Y-124764359D01*
X119469512Y-124055431D01*
X121765000Y-124055431D01*
X121765000Y-124944569D01*
X122105259Y-125766026D01*
X122733974Y-126394741D01*
X123555431Y-126735000D01*
X124444569Y-126735000D01*
X125266026Y-126394741D01*
X125894741Y-125766026D01*
X126235000Y-124944569D01*
X126235000Y-124927613D01*
X130265000Y-124927613D01*
X130265001Y-138572388D01*
X130279123Y-138643384D01*
X130279123Y-138643390D01*
X130317183Y-138834733D01*
X130317184Y-138834735D01*
X130317184Y-138834737D01*
X130426932Y-139099689D01*
X130535319Y-139261900D01*
X130593805Y-139320385D01*
X130738100Y-139464681D01*
X130900311Y-139573068D01*
X130900314Y-139573069D01*
X130900315Y-139573070D01*
X130949261Y-139593344D01*
X131165263Y-139682816D01*
X131165266Y-139682816D01*
X131165268Y-139682817D01*
X131356610Y-139720877D01*
X131356611Y-139720877D01*
X131427612Y-139735000D01*
X132572388Y-139735000D01*
X132643389Y-139720877D01*
X132643390Y-139720877D01*
X132834733Y-139682817D01*
X132834735Y-139682816D01*
X132834737Y-139682816D01*
X132977478Y-139623690D01*
X134720000Y-139623690D01*
X134720000Y-140714250D01*
X134878750Y-140873000D01*
X136478000Y-140873000D01*
X136478000Y-139273750D01*
X136732000Y-139273750D01*
X136732000Y-140873000D01*
X138331250Y-140873000D01*
X138490000Y-140714250D01*
X138490000Y-140625050D01*
X139720000Y-140625050D01*
X139720000Y-141374950D01*
X140006974Y-142067767D01*
X140537233Y-142598026D01*
X141230050Y-142885000D01*
X141979950Y-142885000D01*
X142672767Y-142598026D01*
X143203026Y-142067767D01*
X143490000Y-141374950D01*
X143490000Y-140625050D01*
X143461163Y-140555431D01*
X146265000Y-140555431D01*
X146265000Y-141444569D01*
X146605259Y-142266026D01*
X147233974Y-142894741D01*
X148055431Y-143235000D01*
X148944569Y-143235000D01*
X149766026Y-142894741D01*
X150394741Y-142266026D01*
X150735000Y-141444569D01*
X150735000Y-140555431D01*
X150394741Y-139733974D01*
X149766026Y-139105259D01*
X148944569Y-138765000D01*
X148055431Y-138765000D01*
X147233974Y-139105259D01*
X146605259Y-139733974D01*
X146265000Y-140555431D01*
X143461163Y-140555431D01*
X143203026Y-139932233D01*
X142672767Y-139401974D01*
X141979950Y-139115000D01*
X141230050Y-139115000D01*
X140537233Y-139401974D01*
X140006974Y-139932233D01*
X139720000Y-140625050D01*
X138490000Y-140625050D01*
X138490000Y-139623690D01*
X138393327Y-139390301D01*
X138214698Y-139211673D01*
X137981309Y-139115000D01*
X136890750Y-139115000D01*
X136732000Y-139273750D01*
X136478000Y-139273750D01*
X136319250Y-139115000D01*
X135228691Y-139115000D01*
X134995302Y-139211673D01*
X134816673Y-139390301D01*
X134720000Y-139623690D01*
X132977478Y-139623690D01*
X133050739Y-139593344D01*
X133099685Y-139573070D01*
X133099686Y-139573069D01*
X133099689Y-139573068D01*
X133261900Y-139464681D01*
X133356295Y-139370285D01*
X133464681Y-139261900D01*
X133573068Y-139099689D01*
X133682816Y-138834737D01*
X133682816Y-138834734D01*
X133682817Y-138834732D01*
X133720877Y-138643390D01*
X133720877Y-138643389D01*
X133735000Y-138572388D01*
X133735000Y-132412745D01*
X135696861Y-132412745D01*
X135770995Y-132658864D01*
X136308223Y-132851965D01*
X136878454Y-132824778D01*
X137279005Y-132658864D01*
X137353139Y-132412745D01*
X136525000Y-131584605D01*
X135696861Y-132412745D01*
X133735000Y-132412745D01*
X133735000Y-131188223D01*
X135078035Y-131188223D01*
X135105222Y-131758454D01*
X135271136Y-132159005D01*
X135517255Y-132233139D01*
X136345395Y-131405000D01*
X136704605Y-131405000D01*
X137532745Y-132233139D01*
X137778864Y-132159005D01*
X137971965Y-131621777D01*
X137944778Y-131051546D01*
X137778864Y-130650995D01*
X137532745Y-130576861D01*
X136704605Y-131405000D01*
X136345395Y-131405000D01*
X135517255Y-130576861D01*
X135271136Y-130650995D01*
X135078035Y-131188223D01*
X133735000Y-131188223D01*
X133735000Y-128105000D01*
X135077560Y-128105000D01*
X135077560Y-129705000D01*
X135126843Y-129952765D01*
X135267191Y-130162809D01*
X135477235Y-130303157D01*
X135711187Y-130349693D01*
X135696861Y-130397255D01*
X136525000Y-131225395D01*
X137353139Y-130397255D01*
X137338813Y-130349693D01*
X137572765Y-130303157D01*
X137782809Y-130162809D01*
X137923157Y-129952765D01*
X137972440Y-129705000D01*
X137972440Y-128450000D01*
X139102560Y-128450000D01*
X139102560Y-131950000D01*
X139151843Y-132197765D01*
X139292191Y-132407809D01*
X139502235Y-132548157D01*
X139750000Y-132597440D01*
X143250000Y-132597440D01*
X143497765Y-132548157D01*
X143707809Y-132407809D01*
X143848157Y-132197765D01*
X143897440Y-131950000D01*
X143897440Y-130485750D01*
X145365000Y-130485750D01*
X145365000Y-132076310D01*
X145461673Y-132309699D01*
X145640302Y-132488327D01*
X145873691Y-132585000D01*
X147214250Y-132585000D01*
X147373000Y-132426250D01*
X147373000Y-130327000D01*
X147627000Y-130327000D01*
X147627000Y-132426250D01*
X147785750Y-132585000D01*
X149126309Y-132585000D01*
X149359698Y-132488327D01*
X149538327Y-132309699D01*
X149635000Y-132076310D01*
X149635000Y-130485750D01*
X149476250Y-130327000D01*
X147627000Y-130327000D01*
X147373000Y-130327000D01*
X145523750Y-130327000D01*
X145365000Y-130485750D01*
X143897440Y-130485750D01*
X143897440Y-128450000D01*
X143872316Y-128323690D01*
X145365000Y-128323690D01*
X145365000Y-129914250D01*
X145523750Y-130073000D01*
X147373000Y-130073000D01*
X147373000Y-127973750D01*
X147627000Y-127973750D01*
X147627000Y-130073000D01*
X149476250Y-130073000D01*
X149635000Y-129914250D01*
X149635000Y-128323690D01*
X149538327Y-128090301D01*
X149359698Y-127911673D01*
X149126309Y-127815000D01*
X147785750Y-127815000D01*
X147627000Y-127973750D01*
X147373000Y-127973750D01*
X147214250Y-127815000D01*
X145873691Y-127815000D01*
X145640302Y-127911673D01*
X145461673Y-128090301D01*
X145365000Y-128323690D01*
X143872316Y-128323690D01*
X143848157Y-128202235D01*
X143707809Y-127992191D01*
X143540999Y-127880731D01*
X143625000Y-127897440D01*
X145375000Y-127897440D01*
X145957613Y-127781551D01*
X146451528Y-127451528D01*
X146781551Y-126957613D01*
X146897440Y-126375000D01*
X146897440Y-124625000D01*
X146781551Y-124042387D01*
X146451528Y-123548472D01*
X145957613Y-123218449D01*
X145375000Y-123102560D01*
X143625000Y-123102560D01*
X143042387Y-123218449D01*
X142548472Y-123548472D01*
X142218449Y-124042387D01*
X142102560Y-124625000D01*
X142102560Y-126375000D01*
X142218449Y-126957613D01*
X142548472Y-127451528D01*
X143042387Y-127781551D01*
X143148006Y-127802560D01*
X139750000Y-127802560D01*
X139502235Y-127851843D01*
X139292191Y-127992191D01*
X139151843Y-128202235D01*
X139102560Y-128450000D01*
X137972440Y-128450000D01*
X137972440Y-128105000D01*
X137923157Y-127857235D01*
X137782809Y-127647191D01*
X137572765Y-127506843D01*
X137325000Y-127457560D01*
X135725000Y-127457560D01*
X135477235Y-127506843D01*
X135267191Y-127647191D01*
X135126843Y-127857235D01*
X135077560Y-128105000D01*
X133735000Y-128105000D01*
X133735000Y-124927612D01*
X133720877Y-124856609D01*
X133682817Y-124665268D01*
X133682816Y-124665265D01*
X133682816Y-124665263D01*
X133573068Y-124400311D01*
X133464681Y-124238100D01*
X133314360Y-124087780D01*
X133261900Y-124035319D01*
X133099689Y-123926932D01*
X133099686Y-123926931D01*
X133099685Y-123926930D01*
X132929916Y-123856609D01*
X132834737Y-123817184D01*
X132834735Y-123817184D01*
X132834733Y-123817183D01*
X132643390Y-123779123D01*
X132643389Y-123779123D01*
X132572388Y-123765000D01*
X131427612Y-123765000D01*
X131356611Y-123779123D01*
X131356610Y-123779123D01*
X131165268Y-123817183D01*
X131165266Y-123817184D01*
X131165263Y-123817184D01*
X130964600Y-123900303D01*
X130900315Y-123926930D01*
X130900314Y-123926931D01*
X130900311Y-123926932D01*
X130738100Y-124035319D01*
X130630029Y-124143391D01*
X130535319Y-124238100D01*
X130426932Y-124400311D01*
X130317184Y-124665263D01*
X130317184Y-124665265D01*
X130317183Y-124665267D01*
X130279123Y-124856610D01*
X130265000Y-124927613D01*
X126235000Y-124927613D01*
X126235000Y-124055431D01*
X125894741Y-123233974D01*
X125266026Y-122605259D01*
X124444569Y-122265000D01*
X123555431Y-122265000D01*
X122733974Y-122605259D01*
X122105259Y-123233974D01*
X121765000Y-124055431D01*
X119469512Y-124055431D01*
X119557086Y-124004564D01*
X120773894Y-123105816D01*
X121884730Y-122078970D01*
X122876177Y-120936428D01*
X123736261Y-119691990D01*
X124454593Y-118360687D01*
X125022498Y-116958598D01*
X125433116Y-115502657D01*
X125527599Y-114935000D01*
X147710908Y-114935000D01*
X147826161Y-115514418D01*
X148154375Y-116005625D01*
X148172619Y-116017816D01*
X148127235Y-116026843D01*
X147917191Y-116167191D01*
X147776843Y-116377235D01*
X147727560Y-116625000D01*
X147727560Y-118325000D01*
X147776843Y-118572765D01*
X147917191Y-118782809D01*
X148127235Y-118923157D01*
X148375000Y-118972440D01*
X150075000Y-118972440D01*
X150322765Y-118923157D01*
X150532809Y-118782809D01*
X150673157Y-118572765D01*
X150722440Y-118325000D01*
X150722440Y-116625000D01*
X150673157Y-116377235D01*
X150532809Y-116167191D01*
X150322765Y-116026843D01*
X150277381Y-116017816D01*
X150295625Y-116005625D01*
X150623839Y-115514418D01*
X150739092Y-114935000D01*
X150623839Y-114355582D01*
X150295625Y-113864375D01*
X149976522Y-113651157D01*
X150106358Y-113590183D01*
X150496645Y-113161924D01*
X150666476Y-112751890D01*
X150545155Y-112522000D01*
X149352000Y-112522000D01*
X149352000Y-112542000D01*
X149098000Y-112542000D01*
X149098000Y-112522000D01*
X147904845Y-112522000D01*
X147783524Y-112751890D01*
X147953355Y-113161924D01*
X148343642Y-113590183D01*
X148473478Y-113651157D01*
X148154375Y-113864375D01*
X147826161Y-114355582D01*
X147710908Y-114935000D01*
X125527599Y-114935000D01*
X125681487Y-114010450D01*
X125764612Y-112500000D01*
X125762914Y-112283795D01*
X125745519Y-112038110D01*
X147783524Y-112038110D01*
X147904845Y-112268000D01*
X149098000Y-112268000D01*
X149098000Y-111074181D01*
X149352000Y-111074181D01*
X149352000Y-112268000D01*
X150545155Y-112268000D01*
X150666476Y-112038110D01*
X150496645Y-111628076D01*
X150106358Y-111199817D01*
X149581892Y-110953514D01*
X149352000Y-111074181D01*
X149098000Y-111074181D01*
X148868108Y-110953514D01*
X148343642Y-111199817D01*
X147953355Y-111628076D01*
X147783524Y-112038110D01*
X125745519Y-112038110D01*
X125656074Y-110774837D01*
X125384295Y-109286715D01*
X124950859Y-107837404D01*
X124361001Y-106444408D01*
X123621846Y-105124552D01*
X122742322Y-103893777D01*
X122157678Y-103241036D01*
X134007193Y-103241036D01*
X134037518Y-103731413D01*
X134166836Y-104043617D01*
X134392263Y-104093129D01*
X134276570Y-104208822D01*
X134330718Y-104262970D01*
X134197191Y-104352191D01*
X134056843Y-104562235D01*
X134007560Y-104810000D01*
X134007560Y-106010000D01*
X134056843Y-106257765D01*
X134197191Y-106467809D01*
X134407235Y-106608157D01*
X134655000Y-106657440D01*
X135855000Y-106657440D01*
X136102765Y-106608157D01*
X136312809Y-106467809D01*
X136453157Y-106257765D01*
X136502440Y-106010000D01*
X136502440Y-105107750D01*
X147213000Y-105107750D01*
X147213000Y-106198309D01*
X147309673Y-106431698D01*
X147488301Y-106610327D01*
X147721690Y-106707000D01*
X148812250Y-106707000D01*
X148971000Y-106548250D01*
X148971000Y-104949000D01*
X149225000Y-104949000D01*
X149225000Y-106548250D01*
X149383750Y-106707000D01*
X150474310Y-106707000D01*
X150707699Y-106610327D01*
X150886327Y-106431698D01*
X150983000Y-106198309D01*
X150983000Y-105107750D01*
X150824250Y-104949000D01*
X149225000Y-104949000D01*
X148971000Y-104949000D01*
X147371750Y-104949000D01*
X147213000Y-105107750D01*
X136502440Y-105107750D01*
X136502440Y-104810000D01*
X136453157Y-104562235D01*
X136312809Y-104352191D01*
X136179282Y-104262970D01*
X136233430Y-104208822D01*
X136117737Y-104093129D01*
X136343164Y-104043617D01*
X136502807Y-103578964D01*
X136494566Y-103445691D01*
X147213000Y-103445691D01*
X147213000Y-104536250D01*
X147371750Y-104695000D01*
X148971000Y-104695000D01*
X148971000Y-103095750D01*
X149225000Y-103095750D01*
X149225000Y-104695000D01*
X150824250Y-104695000D01*
X150983000Y-104536250D01*
X150983000Y-103445691D01*
X150886327Y-103212302D01*
X150707699Y-103033673D01*
X150474310Y-102937000D01*
X149383750Y-102937000D01*
X149225000Y-103095750D01*
X148971000Y-103095750D01*
X148812250Y-102937000D01*
X147721690Y-102937000D01*
X147488301Y-103033673D01*
X147309673Y-103212302D01*
X147213000Y-103445691D01*
X136494566Y-103445691D01*
X136472482Y-103088587D01*
X136343164Y-102776383D01*
X136117735Y-102726870D01*
X135434605Y-103410000D01*
X135448748Y-103424143D01*
X135269143Y-103603748D01*
X135255000Y-103589605D01*
X135240858Y-103603748D01*
X135061253Y-103424143D01*
X135075395Y-103410000D01*
X134392265Y-102726870D01*
X134166836Y-102776383D01*
X134007193Y-103241036D01*
X122157678Y-103241036D01*
X121733050Y-102766950D01*
X120606223Y-101757678D01*
X119375448Y-100878154D01*
X118055592Y-100138999D01*
X117858240Y-100055431D01*
X121765000Y-100055431D01*
X121765000Y-100944569D01*
X122105259Y-101766026D01*
X122733974Y-102394741D01*
X123555431Y-102735000D01*
X124444569Y-102735000D01*
X124897800Y-102547265D01*
X134571870Y-102547265D01*
X135255000Y-103230395D01*
X135938130Y-102547265D01*
X135888617Y-102321836D01*
X135423964Y-102162193D01*
X134933587Y-102192518D01*
X134621383Y-102321836D01*
X134571870Y-102547265D01*
X124897800Y-102547265D01*
X125266026Y-102394741D01*
X125894741Y-101766026D01*
X126235000Y-100944569D01*
X126235000Y-100055431D01*
X125894741Y-99233974D01*
X125266026Y-98605259D01*
X124444569Y-98265000D01*
X123555431Y-98265000D01*
X122733974Y-98605259D01*
X122105259Y-99233974D01*
X121765000Y-100055431D01*
X117858240Y-100055431D01*
X116662596Y-99549141D01*
X115213285Y-99115705D01*
X113725163Y-98843926D01*
X112216205Y-98737086D01*
X110704636Y-98796476D01*
X109208712Y-99021378D01*
X107746501Y-99409076D01*
X106335665Y-99954888D01*
X104993242Y-100652220D01*
X103735449Y-101492651D01*
X102577475Y-102466030D01*
X101533307Y-103560600D01*
X100615557Y-104763140D01*
X99835309Y-106059128D01*
X99201987Y-107432908D01*
X98723241Y-108867890D01*
X98404853Y-110346740D01*
X98250668Y-111851598D01*
X92735000Y-111851598D01*
X92735000Y-108927612D01*
X92693878Y-108720877D01*
X92644757Y-108473926D01*
X92535010Y-108208974D01*
X92535010Y-108208973D01*
X92318237Y-107884549D01*
X92224714Y-107791026D01*
X92115451Y-107681762D01*
X91791027Y-107464990D01*
X91526074Y-107355243D01*
X91424305Y-107335000D01*
X92083661Y-107335000D01*
X92131261Y-107406239D01*
X92412273Y-107594005D01*
X92743750Y-107659940D01*
X93256250Y-107659940D01*
X93587727Y-107594005D01*
X93868739Y-107406239D01*
X94056505Y-107125227D01*
X94122440Y-106793750D01*
X94122440Y-106356250D01*
X94056505Y-106024773D01*
X93897964Y-105787500D01*
X93916339Y-105760000D01*
X94315153Y-105760000D01*
X94390000Y-105774888D01*
X94464847Y-105760000D01*
X94464852Y-105760000D01*
X94686537Y-105715904D01*
X94937929Y-105547929D01*
X94980331Y-105484470D01*
X95099470Y-105365331D01*
X95162929Y-105322929D01*
X95330904Y-105071537D01*
X95375000Y-104849852D01*
X95375000Y-104849848D01*
X95389888Y-104775001D01*
X95375000Y-104700154D01*
X95375000Y-101674848D01*
X95389888Y-101600000D01*
X95375000Y-101525152D01*
X95375000Y-101525148D01*
X95330904Y-101303463D01*
X95330904Y-101303462D01*
X95268266Y-101209718D01*
X95162929Y-101052071D01*
X95099470Y-101009669D01*
X94817831Y-100728030D01*
X94775429Y-100664571D01*
X94524037Y-100496596D01*
X94302352Y-100452500D01*
X94302347Y-100452500D01*
X94227500Y-100437612D01*
X94152653Y-100452500D01*
X93916339Y-100452500D01*
X93868739Y-100381261D01*
X93587727Y-100193495D01*
X93256250Y-100127560D01*
X92743750Y-100127560D01*
X92412273Y-100193495D01*
X92131261Y-100381261D01*
X92083661Y-100452500D01*
X91528935Y-100452500D01*
X91449954Y-100055431D01*
X97765000Y-100055431D01*
X97765000Y-100944569D01*
X98105259Y-101766026D01*
X98733974Y-102394741D01*
X99555431Y-102735000D01*
X100444569Y-102735000D01*
X101266026Y-102394741D01*
X101894741Y-101766026D01*
X102235000Y-100944569D01*
X102235000Y-100055431D01*
X101894741Y-99233974D01*
X101266026Y-98605259D01*
X100444569Y-98265000D01*
X99555431Y-98265000D01*
X98733974Y-98605259D01*
X98105259Y-99233974D01*
X97765000Y-100055431D01*
X91449954Y-100055431D01*
X91439839Y-100004582D01*
X91111625Y-99513375D01*
X90838313Y-99330754D01*
X91243497Y-98955193D01*
X91482476Y-98440890D01*
X91361155Y-98211000D01*
X90043000Y-98211000D01*
X90043000Y-98231000D01*
X89789000Y-98231000D01*
X89789000Y-98211000D01*
X88470845Y-98211000D01*
X88349524Y-98440890D01*
X88588503Y-98955193D01*
X88993687Y-99330754D01*
X88720375Y-99513375D01*
X88392161Y-100004582D01*
X88276908Y-100584000D01*
X88392161Y-101163418D01*
X88720375Y-101654625D01*
X88988829Y-101834000D01*
X88720375Y-102013375D01*
X88392161Y-102504582D01*
X88276908Y-103084000D01*
X88392161Y-103663418D01*
X88720375Y-104154625D01*
X88784156Y-104197242D01*
X88556414Y-104349414D01*
X88361874Y-104640565D01*
X88293560Y-104984000D01*
X88293560Y-106184000D01*
X88361874Y-106527435D01*
X88556414Y-106818586D01*
X88847565Y-107013126D01*
X89191000Y-107081440D01*
X90331349Y-107081440D01*
X90359071Y-107122929D01*
X90609110Y-107290000D01*
X88169650Y-107290000D01*
X88143391Y-107279123D01*
X87904101Y-107231525D01*
X87822798Y-107177201D01*
X87768475Y-107095901D01*
X87720877Y-106856609D01*
X87710000Y-106830350D01*
X87710000Y-97727110D01*
X88349524Y-97727110D01*
X88470845Y-97957000D01*
X89789000Y-97957000D01*
X89789000Y-96757835D01*
X90043000Y-96757835D01*
X90043000Y-97957000D01*
X91361155Y-97957000D01*
X91482476Y-97727110D01*
X91243497Y-97212807D01*
X90818571Y-96818947D01*
X90275267Y-96617680D01*
X90043000Y-96757835D01*
X89789000Y-96757835D01*
X89556733Y-96617680D01*
X89013429Y-96818947D01*
X88588503Y-97212807D01*
X88349524Y-97727110D01*
X87710000Y-97727110D01*
X87710000Y-91555431D01*
X88265000Y-91555431D01*
X88265000Y-92444569D01*
X88605259Y-93266026D01*
X89233974Y-93894741D01*
X90055431Y-94235000D01*
X90944569Y-94235000D01*
X91766026Y-93894741D01*
X92110001Y-93550766D01*
X92110001Y-94620363D01*
X92085806Y-94742000D01*
X92181656Y-95223872D01*
X92385714Y-95529267D01*
X92385716Y-95529269D01*
X92454616Y-95632385D01*
X92557731Y-95701284D01*
X93528715Y-96672269D01*
X93597615Y-96775385D01*
X93700731Y-96844285D01*
X93700732Y-96844286D01*
X94006127Y-97048344D01*
X94366364Y-97120000D01*
X94366367Y-97120000D01*
X94487999Y-97144194D01*
X94609631Y-97120000D01*
X128940000Y-97120000D01*
X128940000Y-97911635D01*
X128940001Y-97911639D01*
X128940000Y-99573364D01*
X128915805Y-99695000D01*
X129011656Y-100176873D01*
X129148224Y-100381261D01*
X129284615Y-100585385D01*
X129693127Y-100858344D01*
X130175000Y-100954195D01*
X130296636Y-100930000D01*
X130656873Y-100858344D01*
X131065385Y-100585385D01*
X131338344Y-100176873D01*
X131434195Y-99695000D01*
X131410000Y-99573364D01*
X131410000Y-99447050D01*
X147213000Y-99447050D01*
X147213000Y-100196950D01*
X147499974Y-100889767D01*
X148030233Y-101420026D01*
X148723050Y-101707000D01*
X149472950Y-101707000D01*
X150165767Y-101420026D01*
X150696026Y-100889767D01*
X150983000Y-100196950D01*
X150983000Y-99447050D01*
X150696026Y-98754233D01*
X150165767Y-98223974D01*
X149472950Y-97937000D01*
X148723050Y-97937000D01*
X148030233Y-98223974D01*
X147499974Y-98754233D01*
X147213000Y-99447050D01*
X131410000Y-99447050D01*
X131410000Y-96641636D01*
X131434195Y-96520000D01*
X131338344Y-96038127D01*
X131065385Y-95629615D01*
X130962264Y-95560712D01*
X130499287Y-95097734D01*
X130430385Y-94994615D01*
X130021873Y-94721656D01*
X129661636Y-94650000D01*
X129661632Y-94650000D01*
X129540000Y-94625806D01*
X129418368Y-94650000D01*
X128997613Y-94650000D01*
X129460625Y-94340625D01*
X129660000Y-94042239D01*
X129859375Y-94340625D01*
X130350582Y-94668839D01*
X130783744Y-94755000D01*
X131076256Y-94755000D01*
X131509418Y-94668839D01*
X132000625Y-94340625D01*
X132200000Y-94042239D01*
X132399375Y-94340625D01*
X132890582Y-94668839D01*
X133323744Y-94755000D01*
X133616256Y-94755000D01*
X134049418Y-94668839D01*
X134540625Y-94340625D01*
X134740000Y-94042239D01*
X134939375Y-94340625D01*
X135430582Y-94668839D01*
X135863744Y-94755000D01*
X136156256Y-94755000D01*
X136589418Y-94668839D01*
X137080625Y-94340625D01*
X137280000Y-94042239D01*
X137479375Y-94340625D01*
X137970582Y-94668839D01*
X138403744Y-94755000D01*
X138696256Y-94755000D01*
X139129418Y-94668839D01*
X139620625Y-94340625D01*
X139820000Y-94042239D01*
X140019375Y-94340625D01*
X140510582Y-94668839D01*
X140943744Y-94755000D01*
X141236256Y-94755000D01*
X141669418Y-94668839D01*
X142160625Y-94340625D01*
X142373843Y-94021522D01*
X142434817Y-94151358D01*
X142863076Y-94541645D01*
X143273110Y-94711476D01*
X143503000Y-94590155D01*
X143503000Y-93397000D01*
X143757000Y-93397000D01*
X143757000Y-94590155D01*
X143986890Y-94711476D01*
X144396924Y-94541645D01*
X144825183Y-94151358D01*
X145071486Y-93626892D01*
X144950819Y-93397000D01*
X143757000Y-93397000D01*
X143503000Y-93397000D01*
X143483000Y-93397000D01*
X143483000Y-93143000D01*
X143503000Y-93143000D01*
X143503000Y-93123000D01*
X143757000Y-93123000D01*
X143757000Y-93143000D01*
X144950819Y-93143000D01*
X145071486Y-92913108D01*
X144825183Y-92388642D01*
X144400214Y-92001353D01*
X144700625Y-91800625D01*
X144864458Y-91555431D01*
X146265000Y-91555431D01*
X146265000Y-92444569D01*
X146605259Y-93266026D01*
X147233974Y-93894741D01*
X148055431Y-94235000D01*
X148944569Y-94235000D01*
X149766026Y-93894741D01*
X150394741Y-93266026D01*
X150735000Y-92444569D01*
X150735000Y-91555431D01*
X150394741Y-90733974D01*
X149766026Y-90105259D01*
X148944569Y-89765000D01*
X148055431Y-89765000D01*
X147233974Y-90105259D01*
X146605259Y-90733974D01*
X146265000Y-91555431D01*
X144864458Y-91555431D01*
X145028839Y-91309418D01*
X145144092Y-90730000D01*
X145028839Y-90150582D01*
X144700625Y-89659375D01*
X144209418Y-89331161D01*
X143776256Y-89245000D01*
X143483744Y-89245000D01*
X143050582Y-89331161D01*
X142559375Y-89659375D01*
X142360000Y-89957761D01*
X142160625Y-89659375D01*
X141669418Y-89331161D01*
X141236256Y-89245000D01*
X140943744Y-89245000D01*
X140510582Y-89331161D01*
X140019375Y-89659375D01*
X139820000Y-89957761D01*
X139620625Y-89659375D01*
X139129418Y-89331161D01*
X138696256Y-89245000D01*
X138403744Y-89245000D01*
X137970582Y-89331161D01*
X137479375Y-89659375D01*
X137266157Y-89978478D01*
X137205183Y-89848642D01*
X136776924Y-89458355D01*
X136366890Y-89288524D01*
X136137000Y-89409845D01*
X136137000Y-90603000D01*
X136157000Y-90603000D01*
X136157000Y-90857000D01*
X136137000Y-90857000D01*
X136137000Y-90877000D01*
X135883000Y-90877000D01*
X135883000Y-90857000D01*
X135863000Y-90857000D01*
X135863000Y-90603000D01*
X135883000Y-90603000D01*
X135883000Y-89409845D01*
X135653110Y-89288524D01*
X135243076Y-89458355D01*
X134814817Y-89848642D01*
X134753843Y-89978478D01*
X134540625Y-89659375D01*
X134049418Y-89331161D01*
X133616256Y-89245000D01*
X133323744Y-89245000D01*
X132890582Y-89331161D01*
X132399375Y-89659375D01*
X132186157Y-89978478D01*
X132125183Y-89848642D01*
X131696924Y-89458355D01*
X131286890Y-89288524D01*
X131057000Y-89409845D01*
X131057000Y-90603000D01*
X131077000Y-90603000D01*
X131077000Y-90857000D01*
X131057000Y-90857000D01*
X131057000Y-90877000D01*
X130803000Y-90877000D01*
X130803000Y-90857000D01*
X130783000Y-90857000D01*
X130783000Y-90603000D01*
X130803000Y-90603000D01*
X130803000Y-89409845D01*
X130573110Y-89288524D01*
X130163076Y-89458355D01*
X129734817Y-89848642D01*
X129673843Y-89978478D01*
X129460625Y-89659375D01*
X128969418Y-89331161D01*
X128536256Y-89245000D01*
X128243744Y-89245000D01*
X127810582Y-89331161D01*
X127319375Y-89659375D01*
X127120000Y-89957761D01*
X126920625Y-89659375D01*
X126429418Y-89331161D01*
X125996256Y-89245000D01*
X125703744Y-89245000D01*
X125270582Y-89331161D01*
X124779375Y-89659375D01*
X124580000Y-89957761D01*
X124380625Y-89659375D01*
X123889418Y-89331161D01*
X123456256Y-89245000D01*
X123163744Y-89245000D01*
X122730582Y-89331161D01*
X122239375Y-89659375D01*
X122040000Y-89957761D01*
X121840625Y-89659375D01*
X121349418Y-89331161D01*
X120916256Y-89245000D01*
X120623744Y-89245000D01*
X120190582Y-89331161D01*
X119699375Y-89659375D01*
X119486157Y-89978478D01*
X119425183Y-89848642D01*
X118996924Y-89458355D01*
X118586890Y-89288524D01*
X118357000Y-89409845D01*
X118357000Y-90603000D01*
X118377000Y-90603000D01*
X118377000Y-90857000D01*
X118357000Y-90857000D01*
X118357000Y-90877000D01*
X118103000Y-90877000D01*
X118103000Y-90857000D01*
X118083000Y-90857000D01*
X118083000Y-90603000D01*
X118103000Y-90603000D01*
X118103000Y-89409845D01*
X117873110Y-89288524D01*
X117463076Y-89458355D01*
X117034817Y-89848642D01*
X116973843Y-89978478D01*
X116760625Y-89659375D01*
X116269418Y-89331161D01*
X115836256Y-89245000D01*
X115543744Y-89245000D01*
X115110582Y-89331161D01*
X114619375Y-89659375D01*
X114420000Y-89957761D01*
X114220625Y-89659375D01*
X113729418Y-89331161D01*
X113296256Y-89245000D01*
X113003744Y-89245000D01*
X112570582Y-89331161D01*
X112079375Y-89659375D01*
X111866157Y-89978478D01*
X111805183Y-89848642D01*
X111376924Y-89458355D01*
X110966890Y-89288524D01*
X110737000Y-89409845D01*
X110737000Y-90603000D01*
X110757000Y-90603000D01*
X110757000Y-90857000D01*
X110737000Y-90857000D01*
X110737000Y-90877000D01*
X110483000Y-90877000D01*
X110483000Y-90857000D01*
X110463000Y-90857000D01*
X110463000Y-90603000D01*
X110483000Y-90603000D01*
X110483000Y-89409845D01*
X110253110Y-89288524D01*
X109843076Y-89458355D01*
X109414817Y-89848642D01*
X109353843Y-89978478D01*
X109140625Y-89659375D01*
X108649418Y-89331161D01*
X108216256Y-89245000D01*
X107923744Y-89245000D01*
X107490582Y-89331161D01*
X106999375Y-89659375D01*
X106800000Y-89957761D01*
X106600625Y-89659375D01*
X106109418Y-89331161D01*
X105676256Y-89245000D01*
X105383744Y-89245000D01*
X104950582Y-89331161D01*
X104459375Y-89659375D01*
X104260000Y-89957761D01*
X104060625Y-89659375D01*
X103569418Y-89331161D01*
X103136256Y-89245000D01*
X102843744Y-89245000D01*
X102410582Y-89331161D01*
X101919375Y-89659375D01*
X101706157Y-89978478D01*
X101645183Y-89848642D01*
X101216924Y-89458355D01*
X100806890Y-89288524D01*
X100577000Y-89409845D01*
X100577000Y-90603000D01*
X100597000Y-90603000D01*
X100597000Y-90857000D01*
X100577000Y-90857000D01*
X100577000Y-90877000D01*
X100323000Y-90877000D01*
X100323000Y-90857000D01*
X100303000Y-90857000D01*
X100303000Y-90603000D01*
X100323000Y-90603000D01*
X100323000Y-89409845D01*
X100093110Y-89288524D01*
X99683076Y-89458355D01*
X99254817Y-89848642D01*
X99193843Y-89978478D01*
X98980625Y-89659375D01*
X98489418Y-89331161D01*
X98056256Y-89245000D01*
X97763744Y-89245000D01*
X97330582Y-89331161D01*
X97085380Y-89495000D01*
X96194620Y-89495000D01*
X95949418Y-89331161D01*
X95516256Y-89245000D01*
X95223744Y-89245000D01*
X94790582Y-89331161D01*
X94545380Y-89495000D01*
X94289549Y-89495000D01*
X94167918Y-89470806D01*
X94046287Y-89495000D01*
X94046283Y-89495000D01*
X93686046Y-89566656D01*
X93511154Y-89683515D01*
X93380651Y-89770714D01*
X93380650Y-89770715D01*
X93277534Y-89839615D01*
X93208634Y-89942731D01*
X92557733Y-90593633D01*
X92454615Y-90662534D01*
X92399387Y-90745189D01*
X92394741Y-90733974D01*
X91766026Y-90105259D01*
X90944569Y-89765000D01*
X90055431Y-89765000D01*
X89233974Y-90105259D01*
X88605259Y-90733974D01*
X88265000Y-91555431D01*
X87710000Y-91555431D01*
X87710000Y-91041247D01*
X87776100Y-90474292D01*
X87956685Y-89976788D01*
X88246881Y-89534165D01*
X88631116Y-89170177D01*
X89088784Y-88904342D01*
X89604629Y-88748108D01*
X90031618Y-88710000D01*
X148958753Y-88710000D01*
X149525708Y-88776100D01*
G36*
X125977000Y-93143000D02*
X125997000Y-93143000D01*
X125997000Y-93397000D01*
X125977000Y-93397000D01*
X125977000Y-93417000D01*
X125723000Y-93417000D01*
X125723000Y-93397000D01*
X125703000Y-93397000D01*
X125703000Y-93143000D01*
X125723000Y-93143000D01*
X125723000Y-93123000D01*
X125977000Y-93123000D01*
X125977000Y-93143000D01*
X125977000Y-93143000D01*
G37*
X125977000Y-93143000D02*
X125997000Y-93143000D01*
X125997000Y-93397000D01*
X125977000Y-93397000D01*
X125977000Y-93417000D01*
X125723000Y-93417000D01*
X125723000Y-93397000D01*
X125703000Y-93397000D01*
X125703000Y-93143000D01*
X125723000Y-93143000D01*
X125723000Y-93123000D01*
X125977000Y-93123000D01*
X125977000Y-93143000D01*
G36*
X105657000Y-93143000D02*
X105677000Y-93143000D01*
X105677000Y-93397000D01*
X105657000Y-93397000D01*
X105657000Y-93417000D01*
X105403000Y-93417000D01*
X105403000Y-93397000D01*
X105383000Y-93397000D01*
X105383000Y-93143000D01*
X105403000Y-93143000D01*
X105403000Y-93123000D01*
X105657000Y-93123000D01*
X105657000Y-93143000D01*
X105657000Y-93143000D01*
G37*
X105657000Y-93143000D02*
X105677000Y-93143000D01*
X105677000Y-93397000D01*
X105657000Y-93397000D01*
X105657000Y-93417000D01*
X105403000Y-93417000D01*
X105403000Y-93397000D01*
X105383000Y-93397000D01*
X105383000Y-93143000D01*
X105403000Y-93143000D01*
X105403000Y-93123000D01*
X105657000Y-93123000D01*
X105657000Y-93143000D01*
G04 #@! TD*
M02*
