G04 #@! TF.GenerationSoftware,KiCad,Pcbnew,(5.0.2)-1*
G04 #@! TF.CreationDate,2021-04-20T16:55:03+09:00*
G04 #@! TF.ProjectId,pi-ups,70692d75-7073-42e6-9b69-6361645f7063,rev?*
G04 #@! TF.SameCoordinates,Original*
G04 #@! TF.FileFunction,Profile,NP*
%FSLAX46Y46*%
G04 Gerber Fmt 4.6, Leading zero omitted, Abs format (unit mm)*
G04 Created by KiCad (PCBNEW (5.0.2)-1) date 2021/04/20 16:55:03*
%MOMM*%
%LPD*%
G01*
G04 APERTURE LIST*
%ADD10C,0.200000*%
%ADD11C,0.150000*%
G04 APERTURE END LIST*
D10*
X88666666Y-144500000D02*
G75*
G03X88666666Y-144500000I-1666666J0D01*
G01*
X84500000Y-144500000D02*
X89500000Y-144500000D01*
X87000000Y-142000000D02*
X87000000Y-147000000D01*
X132500000Y-124500000D02*
G75*
G02X133000000Y-125000000I0J-500000D01*
G01*
X131000000Y-125000000D02*
G75*
G02X131500000Y-124500000I500000J0D01*
G01*
X131500000Y-139000000D02*
G75*
G02X131000000Y-138500000I0J500000D01*
G01*
X133000000Y-138500000D02*
G75*
G02X132500000Y-139000000I-500000J0D01*
G01*
X125009612Y-112500000D02*
G75*
G03X125009612Y-112500000I-13009612J0D01*
G01*
X131500000Y-139000000D02*
X132500000Y-139000000D01*
X131000000Y-125000000D02*
X131000000Y-138500000D01*
X132500000Y-124500000D02*
X131500000Y-124500000D01*
X133000000Y-138500000D02*
X133000000Y-125000000D01*
X90000000Y-144500000D02*
G75*
G02X87000000Y-141500000I0J3000000D01*
G01*
X152000000Y-142000000D02*
G75*
G02X149500000Y-144500000I-2500000J0D01*
G01*
X87000000Y-126000000D02*
G75*
G02X88000000Y-125000000I1000000J0D01*
G01*
X92000000Y-124000000D02*
G75*
G02X91000000Y-125000000I-1000000J0D01*
G01*
X152000000Y-142000000D02*
X152000000Y-91000000D01*
X90000000Y-144500000D02*
X149500000Y-144500000D01*
X87000000Y-126000000D02*
X87000000Y-141500000D01*
X91000000Y-125000000D02*
X88000000Y-125000000D01*
X92000000Y-109000000D02*
X92000000Y-124000000D01*
D11*
X88000000Y-108000000D02*
X91000000Y-108000000D01*
X87000000Y-91000000D02*
X87000000Y-107000000D01*
D10*
X91000000Y-108000000D02*
G75*
G02X92000000Y-109000000I0J-1000000D01*
G01*
X88000000Y-108000000D02*
G75*
G02X87000000Y-107000000I0J1000000D01*
G01*
D11*
X149000000Y-88000000D02*
X90000000Y-88000000D01*
X149000000Y-88000000D02*
G75*
G02X152000000Y-91000000I0J-3000000D01*
G01*
X87000000Y-91000000D02*
G75*
G02X90000000Y-88000000I3000000J0D01*
G01*
M02*
